<svg width="138" height="117" viewBox="0 0 138 117" fill="none" xmlns="http://www.w3.org/2000/svg">
<rect width="138" height="117" rx="7.79661" fill="#FEF0ED"/>
<rect x="7" y="45.4761" width="124.746" height="15.2373" rx="3.11864" fill="#FF4A97"/>
<path d="M35.9328 53.5759C35.9328 52.9813 36.0615 52.4524 36.3187 51.9893C36.576 51.5204 36.9334 51.1574 37.3908 50.9001C37.8539 50.6371 38.3771 50.5056 38.9602 50.5056C39.6749 50.5056 40.2867 50.6943 40.7956 51.0716C41.3044 51.449 41.6446 51.9635 41.8161 52.6153H40.2038C40.0837 52.3638 39.9122 52.1722 39.6892 52.0407C39.472 51.9092 39.2232 51.8435 38.9431 51.8435C38.4914 51.8435 38.1255 52.0007 37.8453 52.3152C37.5652 52.6296 37.4251 53.0499 37.4251 53.5759C37.4251 54.1019 37.5652 54.5221 37.8453 54.8366C38.1255 55.1511 38.4914 55.3083 38.9431 55.3083C39.2232 55.3083 39.472 55.2425 39.6892 55.111C39.9122 54.9795 40.0837 54.788 40.2038 54.5364H41.8161C41.6446 55.1882 41.3044 55.7028 40.7956 56.0802C40.2867 56.4518 39.6749 56.6376 38.9602 56.6376C38.3771 56.6376 37.8539 56.509 37.3908 56.2517C36.9334 55.9887 36.576 55.6256 36.3187 55.1625C36.0615 54.6994 35.9328 54.1705 35.9328 53.5759ZM47.4398 51.8092V56.5947H45.9732V55.9429C45.8246 56.1545 45.6216 56.326 45.3643 56.4575C45.1127 56.5833 44.8326 56.6462 44.5238 56.6462C44.1579 56.6462 43.8349 56.5661 43.5547 56.406C43.2746 56.2402 43.0573 56.003 42.9029 55.6942C42.7485 55.3855 42.6714 55.0224 42.6714 54.605V51.8092H44.1293V54.4078C44.1293 54.728 44.2122 54.9767 44.378 55.1539C44.5438 55.3312 44.7668 55.4198 45.047 55.4198C45.3329 55.4198 45.5587 55.3312 45.7245 55.1539C45.8903 54.9767 45.9732 54.728 45.9732 54.4078V51.8092H47.4398ZM49.9597 52.6068C50.1312 52.3438 50.3456 52.1379 50.6029 51.9893C50.8602 51.8349 51.1461 51.7577 51.4606 51.7577V53.31H51.0575C50.6916 53.31 50.4171 53.3901 50.2342 53.5502C50.0512 53.7045 49.9597 53.979 49.9597 54.3735V56.5947H48.4932V51.8092H49.9597V52.6068ZM54.1083 56.6633C53.691 56.6633 53.3193 56.5919 52.9934 56.4489C52.6675 56.306 52.4102 56.1116 52.2216 55.8657C52.0329 55.6142 51.9271 55.334 51.9042 55.0253H53.3536C53.3708 55.1911 53.448 55.3254 53.5852 55.4284C53.7224 55.5313 53.8911 55.5827 54.0912 55.5827C54.2742 55.5827 54.4142 55.5484 54.5114 55.4798C54.6143 55.4055 54.6658 55.3111 54.6658 55.1968C54.6658 55.0596 54.5943 54.9595 54.4514 54.8966C54.3085 54.828 54.0769 54.7537 53.7567 54.6736C53.4137 54.5936 53.1278 54.5107 52.8991 54.4249C52.6704 54.3334 52.4731 54.1934 52.3073 54.0047C52.1415 53.8103 52.0586 53.5502 52.0586 53.2243C52.0586 52.9498 52.1329 52.7011 52.2816 52.4781C52.436 52.2494 52.659 52.0693 52.9506 51.9378C53.2479 51.8063 53.5995 51.7406 54.0054 51.7406C54.6058 51.7406 55.0775 51.8892 55.4205 52.1865C55.7693 52.4838 55.9694 52.8783 56.0209 53.37H54.6658C54.6429 53.2042 54.5686 53.0727 54.4428 52.9755C54.3228 52.8783 54.1627 52.8297 53.9626 52.8297C53.791 52.8297 53.6595 52.864 53.568 52.9327C53.4766 52.9956 53.4308 53.0842 53.4308 53.1985C53.4308 53.3357 53.5023 53.4387 53.6452 53.5073C53.7939 53.5759 54.0226 53.6445 54.3313 53.7131C54.6858 53.8046 54.9746 53.8961 55.1975 53.9875C55.4205 54.0733 55.6149 54.2162 55.7807 54.4164C55.9522 54.6107 56.0409 54.8738 56.0466 55.2054C56.0466 55.4855 55.9665 55.7371 55.8064 55.9601C55.6521 56.1773 55.4262 56.3489 55.1289 56.4747C54.8373 56.6004 54.4971 56.6633 54.1083 56.6633ZM59.1222 56.6633C58.6533 56.6633 58.2303 56.5633 57.8529 56.3632C57.4813 56.1631 57.1868 55.8772 56.9695 55.5055C56.758 55.1339 56.6522 54.6994 56.6522 54.2019C56.6522 53.7102 56.7608 53.2786 56.9781 52.9069C57.1954 52.5296 57.4927 52.2408 57.87 52.0407C58.2474 51.8406 58.6705 51.7406 59.1393 51.7406C59.6082 51.7406 60.0313 51.8406 60.4086 52.0407C60.786 52.2408 61.0833 52.5296 61.3006 52.9069C61.5178 53.2786 61.6265 53.7102 61.6265 54.2019C61.6265 54.6937 61.515 55.1282 61.292 55.5055C61.0747 55.8772 60.7745 56.1631 60.3915 56.3632C60.0141 56.5633 59.591 56.6633 59.1222 56.6633ZM59.1222 55.394C59.4023 55.394 59.6396 55.2911 59.834 55.0853C60.0341 54.8795 60.1342 54.585 60.1342 54.2019C60.1342 53.8189 60.037 53.5244 59.8426 53.3186C59.6539 53.1128 59.4195 53.0098 59.1393 53.0098C58.8535 53.0098 58.6162 53.1128 58.4275 53.3186C58.2388 53.5187 58.1445 53.8132 58.1445 54.2019C58.1445 54.585 58.236 54.8795 58.4189 55.0853C58.6076 55.2911 58.842 55.394 59.1222 55.394ZM63.9303 54.1934C63.9303 53.7017 64.0218 53.27 64.2048 52.8984C64.3934 52.5267 64.6479 52.2408 64.968 52.0407C65.2882 51.8406 65.6456 51.7406 66.0401 51.7406C66.3545 51.7406 66.6404 51.8063 66.8977 51.9378C67.1607 52.0693 67.3665 52.2466 67.5152 52.4695V50.2483H68.9817V56.5947H67.5152V55.9086C67.378 56.1373 67.1807 56.3203 66.9234 56.4575C66.6719 56.5947 66.3774 56.6633 66.0401 56.6633C65.6456 56.6633 65.2882 56.5633 64.968 56.3632C64.6479 56.1573 64.3934 55.8686 64.2048 55.497C64.0218 55.1196 63.9303 54.6851 63.9303 54.1934ZM67.5152 54.2019C67.5152 53.836 67.4123 53.5473 67.2065 53.3357C67.0063 53.1242 66.7605 53.0184 66.4689 53.0184C66.1773 53.0184 65.9286 53.1242 65.7228 53.3357C65.5226 53.5416 65.4226 53.8274 65.4226 54.1934C65.4226 54.5593 65.5226 54.8509 65.7228 55.0682C65.9286 55.2797 66.1773 55.3855 66.4689 55.3855C66.7605 55.3855 67.0063 55.2797 67.2065 55.0682C67.4123 54.8566 67.5152 54.5679 67.5152 54.2019ZM74.5538 54.1248C74.5538 54.262 74.5453 54.4049 74.5281 54.5536H71.2091C71.232 54.8509 71.3263 55.0796 71.4921 55.2397C71.6636 55.394 71.8723 55.4712 72.1182 55.4712C72.4841 55.4712 72.7385 55.3169 72.8815 55.0081H74.4424C74.3623 55.3226 74.2165 55.6056 74.005 55.8572C73.7991 56.1087 73.539 56.306 73.2245 56.4489C72.9101 56.5919 72.5584 56.6633 72.1696 56.6633C71.7008 56.6633 71.2834 56.5633 70.9175 56.3632C70.5516 56.1631 70.2657 55.8772 70.0599 55.5055C69.854 55.1339 69.7511 54.6994 69.7511 54.2019C69.7511 53.7045 69.8512 53.27 70.0513 52.8984C70.2571 52.5267 70.543 52.2408 70.9089 52.0407C71.2748 51.8406 71.6951 51.7406 72.1696 51.7406C72.6328 51.7406 73.0444 51.8378 73.4046 52.0322C73.7648 52.2265 74.045 52.5038 74.2451 52.864C74.4509 53.2243 74.5538 53.6445 74.5538 54.1248ZM73.053 53.7388C73.053 53.4873 72.9672 53.2871 72.7957 53.1385C72.6242 52.9898 72.4098 52.9155 72.1525 52.9155C71.9066 52.9155 71.6979 52.987 71.5264 53.1299C71.3606 53.2729 71.2577 53.4758 71.2177 53.7388H73.053ZM80.9185 50.5742V54.6736C80.9185 55.3083 80.7384 55.7971 80.3782 56.1402C80.0237 56.4832 79.5434 56.6548 78.9374 56.6548C78.3027 56.6548 77.7939 56.4747 77.4108 56.1145C77.0277 55.7543 76.8362 55.2425 76.8362 54.5793H78.2942C78.2942 54.8309 78.3456 55.0224 78.4485 55.1539C78.5515 55.2797 78.7001 55.3426 78.8945 55.3426C79.0717 55.3426 79.209 55.2854 79.3062 55.1711C79.4034 55.0567 79.452 54.8909 79.452 54.6736V50.5742H80.9185ZM84.2815 56.6633C83.8126 56.6633 83.3895 56.5633 83.0122 56.3632C82.6406 56.1631 82.3461 55.8772 82.1288 55.5055C81.9173 55.1339 81.8115 54.6994 81.8115 54.2019C81.8115 53.7102 81.9201 53.2786 82.1374 52.9069C82.3547 52.5296 82.652 52.2408 83.0293 52.0407C83.4067 51.8406 83.8298 51.7406 84.2986 51.7406C84.7675 51.7406 85.1906 51.8406 85.5679 52.0407C85.9453 52.2408 86.2426 52.5296 86.4599 52.9069C86.6771 53.2786 86.7857 53.7102 86.7857 54.2019C86.7857 54.6937 86.6743 55.1282 86.4513 55.5055C86.234 55.8772 85.9338 56.1631 85.5508 56.3632C85.1734 56.5633 84.7503 56.6633 84.2815 56.6633ZM84.2815 55.394C84.5616 55.394 84.7989 55.2911 84.9933 55.0853C85.1934 54.8795 85.2935 54.585 85.2935 54.2019C85.2935 53.8189 85.1963 53.5244 85.0019 53.3186C84.8132 53.1128 84.5788 53.0098 84.2986 53.0098C84.0128 53.0098 83.7755 53.1128 83.5868 53.3186C83.3981 53.5187 83.3038 53.8132 83.3038 54.2019C83.3038 54.585 83.3953 54.8795 83.5782 55.0853C83.7669 55.2911 84.0013 55.394 84.2815 55.394ZM89.3819 51.7406C89.7193 51.7406 90.0137 51.8092 90.2653 51.9464C90.5226 52.0836 90.7198 52.2637 90.8571 52.4867V51.8092H92.3236V56.5862C92.3236 57.0264 92.235 57.4238 92.0577 57.7783C91.8862 58.1385 91.6204 58.4243 91.2601 58.6359C90.9057 58.8474 90.4626 58.9532 89.9308 58.9532C89.2219 58.9532 88.6472 58.7845 88.207 58.4472C87.7667 58.1156 87.5152 57.6639 87.4523 57.0922H88.9017C88.9474 57.2751 89.056 57.418 89.2276 57.521C89.3991 57.6296 89.6106 57.6839 89.8622 57.6839C90.1652 57.6839 90.4054 57.5953 90.5826 57.418C90.7656 57.2465 90.8571 56.9692 90.8571 56.5862V55.9086C90.7141 56.1316 90.5169 56.3146 90.2653 56.4575C90.0137 56.5947 89.7193 56.6633 89.3819 56.6633C88.9874 56.6633 88.6301 56.5633 88.3099 56.3632C87.9897 56.1573 87.7353 55.8686 87.5466 55.497C87.3637 55.1196 87.2722 54.6851 87.2722 54.1934C87.2722 53.7017 87.3637 53.27 87.5466 52.8984C87.7353 52.5267 87.9897 52.2408 88.3099 52.0407C88.6301 51.8406 88.9874 51.7406 89.3819 51.7406ZM90.8571 54.2019C90.8571 53.836 90.7541 53.5473 90.5483 53.3357C90.3482 53.1242 90.1024 53.0184 89.8108 53.0184C89.5192 53.0184 89.2705 53.1242 89.0646 53.3357C88.8645 53.5416 88.7645 53.8274 88.7645 54.1934C88.7645 54.5593 88.8645 54.8509 89.0646 55.0682C89.2705 55.2797 89.5192 55.3855 89.8108 55.3855C90.1024 55.3855 90.3482 55.2797 90.5483 55.0682C90.7541 54.8566 90.8571 54.5679 90.8571 54.2019ZM95.563 56.6633C95.0941 56.6633 94.671 56.5633 94.2937 56.3632C93.922 56.1631 93.6276 55.8772 93.4103 55.5055C93.1988 55.1339 93.093 54.6994 93.093 54.2019C93.093 53.7102 93.2016 53.2786 93.4189 52.9069C93.6362 52.5296 93.9335 52.2408 94.3108 52.0407C94.6882 51.8406 95.1113 51.7406 95.5801 51.7406C96.0489 51.7406 96.472 51.8406 96.8494 52.0407C97.2268 52.2408 97.5241 52.5296 97.7413 52.9069C97.9586 53.2786 98.0672 53.7102 98.0672 54.2019C98.0672 54.6937 97.9557 55.1282 97.7328 55.5055C97.5155 55.8772 97.2153 56.1631 96.8322 56.3632C96.4549 56.5633 96.0318 56.6633 95.563 56.6633ZM95.563 55.394C95.8431 55.394 96.0804 55.2911 96.2748 55.0853C96.4749 54.8795 96.575 54.585 96.575 54.2019C96.575 53.8189 96.4778 53.5244 96.2834 53.3186C96.0947 53.1128 95.8603 53.0098 95.5801 53.0098C95.2942 53.0098 95.057 53.1128 94.8683 53.3186C94.6796 53.5187 94.5853 53.8132 94.5853 54.2019C94.5853 54.585 94.6767 54.8795 94.8597 55.0853C95.0484 55.2911 95.2828 55.394 95.563 55.394ZM100.792 56.6633C100.375 56.6633 100.003 56.5919 99.6772 56.4489C99.3513 56.306 99.094 56.1116 98.9053 55.8657C98.7166 55.6142 98.6108 55.334 98.588 55.0253H100.037C100.055 55.1911 100.132 55.3254 100.269 55.4284C100.406 55.5313 100.575 55.5827 100.775 55.5827C100.958 55.5827 101.098 55.5484 101.195 55.4798C101.298 55.4055 101.35 55.3111 101.35 55.1968C101.35 55.0596 101.278 54.9595 101.135 54.8966C100.992 54.828 100.761 54.7537 100.44 54.6736C100.097 54.5936 99.8115 54.5107 99.5828 54.4249C99.3541 54.3334 99.1569 54.1934 98.9911 54.0047C98.8252 53.8103 98.7423 53.5502 98.7423 53.2243C98.7423 52.9498 98.8167 52.7011 98.9653 52.4781C99.1197 52.2494 99.3427 52.0693 99.6343 51.9378C99.9316 51.8063 100.283 51.7406 100.689 51.7406C101.289 51.7406 101.761 51.8892 102.104 52.1865C102.453 52.4838 102.653 52.8783 102.705 53.37H101.35C101.327 53.2042 101.252 53.0727 101.127 52.9755C101.006 52.8783 100.846 52.8297 100.646 52.8297C100.475 52.8297 100.343 52.864 100.252 52.9327C100.16 52.9956 100.115 53.0842 100.115 53.1985C100.115 53.3357 100.186 53.4387 100.329 53.5073C100.478 53.5759 100.706 53.6445 101.015 53.7131C101.37 53.8046 101.658 53.8961 101.881 53.9875C102.104 54.0733 102.299 54.2162 102.464 54.4164C102.636 54.6107 102.725 54.8738 102.73 55.2054C102.73 55.4855 102.65 55.7371 102.49 55.9601C102.336 56.1773 102.11 56.3489 101.813 56.4747C101.521 56.6004 101.181 56.6633 100.792 56.6633Z" fill="white"/>
<rect x="7" y="65.7134" width="124.746" height="14.2373" rx="3.11864" fill="#330043"/>
<path d="M23.5456 74.8029H25.292V75.832H22.2124V70.3588H23.5456V74.8029ZM27.9083 75.8944C27.4821 75.8944 27.0974 75.8034 26.7544 75.6215C26.4165 75.4396 26.1488 75.1797 25.9513 74.8419C25.759 74.504 25.6628 74.109 25.6628 73.6568C25.6628 73.2098 25.7616 72.8173 25.9591 72.4795C26.1566 72.1364 26.4269 71.874 26.77 71.692C27.113 71.5101 27.4976 71.4191 27.9239 71.4191C28.3501 71.4191 28.7347 71.5101 29.0778 71.692C29.4208 71.874 29.6911 72.1364 29.8886 72.4795C30.0861 72.8173 30.1849 73.2098 30.1849 73.6568C30.1849 74.1038 30.0835 74.4988 29.8808 74.8419C29.6833 75.1797 29.4104 75.4396 29.0622 75.6215C28.7191 75.8034 28.3345 75.8944 27.9083 75.8944ZM27.9083 74.7405C28.163 74.7405 28.3787 74.6469 28.5554 74.4598C28.7373 74.2727 28.8283 74.005 28.8283 73.6568C28.8283 73.3085 28.7399 73.0408 28.5632 72.8537C28.3917 72.6666 28.1786 72.573 27.9239 72.573C27.664 72.573 27.4483 72.6666 27.2767 72.8537C27.1052 73.0356 27.0195 73.3033 27.0195 73.6568C27.0195 74.005 27.1026 74.2727 27.2689 74.4598C27.4405 74.6469 27.6536 74.7405 27.9083 74.7405ZM28.9374 70.3666L27.0584 71.1541V70.2341L28.9374 69.3297V70.3666ZM32.5451 71.4191C32.8517 71.4191 33.1194 71.4815 33.3481 71.6063C33.582 71.731 33.7613 71.8947 33.8861 72.0975V71.4815H35.2193V75.8242C35.2193 76.2245 35.1387 76.5857 34.9776 76.908C34.8217 77.2354 34.58 77.4953 34.2525 77.6876C33.9303 77.8799 33.5274 77.9761 33.044 77.9761C32.3995 77.9761 31.8772 77.8228 31.4769 77.5161C31.0767 77.2146 30.848 76.804 30.7908 76.2842H32.1084C32.15 76.4506 32.2488 76.5805 32.4047 76.6741C32.5607 76.7728 32.753 76.8222 32.9817 76.8222C33.2572 76.8222 33.4755 76.7416 33.6366 76.5805C33.8029 76.4246 33.8861 76.1725 33.8861 75.8242V75.2083C33.7561 75.411 33.5768 75.5773 33.3481 75.7073C33.1194 75.832 32.8517 75.8944 32.5451 75.8944C32.1864 75.8944 31.8616 75.8034 31.5705 75.6215C31.2794 75.4344 31.0481 75.1719 30.8766 74.8341C30.7103 74.491 30.6271 74.096 30.6271 73.649C30.6271 73.202 30.7103 72.8095 30.8766 72.4717C31.0481 72.1338 31.2794 71.874 31.5705 71.692C31.8616 71.5101 32.1864 71.4191 32.5451 71.4191ZM33.8861 73.6568C33.8861 73.3241 33.7925 73.0616 33.6054 72.8693C33.4235 72.677 33.2 72.5808 32.9349 72.5808C32.6698 72.5808 32.4437 72.677 32.2566 72.8693C32.0747 73.0564 31.9837 73.3163 31.9837 73.649C31.9837 73.9816 32.0747 74.2467 32.2566 74.4442C32.4437 74.6366 32.6698 74.7327 32.9349 74.7327C33.2 74.7327 33.4235 74.6366 33.6054 74.4442C33.7925 74.2519 33.8861 73.9894 33.8861 73.6568ZM36.8543 71.0293C36.6204 71.0293 36.4281 70.9617 36.2774 70.8266C36.1318 70.6863 36.0591 70.5147 36.0591 70.312C36.0591 70.1041 36.1318 69.9326 36.2774 69.7975C36.4281 69.6571 36.6204 69.5869 36.8543 69.5869C37.083 69.5869 37.2702 69.6571 37.4157 69.7975C37.5664 69.9326 37.6418 70.1041 37.6418 70.312C37.6418 70.5147 37.5664 70.6863 37.4157 70.8266C37.2702 70.9617 37.083 71.0293 36.8543 71.0293ZM37.517 71.4815V75.832H36.1838V71.4815H37.517ZM38.2181 73.6568C38.2181 73.2046 38.3091 72.8095 38.491 72.4717C38.6781 72.1338 38.9354 71.874 39.2629 71.692C39.5955 71.5101 39.975 71.4191 40.4012 71.4191C40.9469 71.4191 41.4017 71.5621 41.7656 71.848C42.1346 72.1338 42.3763 72.5367 42.4907 73.0564H41.0717C40.9521 72.7238 40.7208 72.5575 40.3778 72.5575C40.1335 72.5575 39.9386 72.6536 39.793 72.8459C39.6475 73.033 39.5747 73.3033 39.5747 73.6568C39.5747 74.0102 39.6475 74.2831 39.793 74.4754C39.9386 74.6625 40.1335 74.7561 40.3778 74.7561C40.7208 74.7561 40.9521 74.5898 41.0717 74.2571H42.4907C42.3763 74.7665 42.1346 75.1667 41.7656 75.4578C41.3965 75.7489 40.9417 75.8944 40.4012 75.8944C39.975 75.8944 39.5955 75.8034 39.2629 75.6215C38.9354 75.4396 38.6781 75.1797 38.491 74.8419C38.3091 74.504 38.2181 74.109 38.2181 73.6568ZM42.9387 73.649C42.9387 73.202 43.0219 72.8095 43.1882 72.4717C43.3598 72.1338 43.591 71.874 43.8821 71.692C44.1732 71.5101 44.4981 71.4191 44.8567 71.4191C45.1634 71.4191 45.431 71.4815 45.6598 71.6063C45.8936 71.731 46.073 71.8947 46.1977 72.0975V71.4815H47.5309V75.832H46.1977V75.2161C46.0678 75.4188 45.8859 75.5825 45.652 75.7073C45.4233 75.832 45.1556 75.8944 44.8489 75.8944C44.4955 75.8944 44.1732 75.8034 43.8821 75.6215C43.591 75.4344 43.3598 75.1719 43.1882 74.8341C43.0219 74.491 42.9387 74.096 42.9387 73.649ZM46.1977 73.6568C46.1977 73.3241 46.1042 73.0616 45.917 72.8693C45.7351 72.677 45.5116 72.5808 45.2465 72.5808C44.9814 72.5808 44.7553 72.677 44.5682 72.8693C44.3863 73.0564 44.2953 73.3163 44.2953 73.649C44.2953 73.9816 44.3863 74.2467 44.5682 74.4442C44.7553 74.6366 44.9814 74.7327 45.2465 74.7327C45.5116 74.7327 45.7351 74.6366 45.917 74.4442C46.1042 74.2519 46.1977 73.9894 46.1977 73.6568ZM49.8826 73.649C49.8826 73.202 49.9658 72.8095 50.1321 72.4717C50.3036 72.1338 50.5349 71.874 50.826 71.692C51.1171 71.5101 51.4419 71.4191 51.8006 71.4191C52.0864 71.4191 52.3463 71.4789 52.5802 71.5985C52.8193 71.718 53.0064 71.8791 53.1416 72.0819V70.0625H54.4748V75.832H53.1416V75.2083C53.0168 75.4162 52.8375 75.5825 52.6036 75.7073C52.3749 75.832 52.1072 75.8944 51.8006 75.8944C51.4419 75.8944 51.1171 75.8034 50.826 75.6215C50.5349 75.4344 50.3036 75.1719 50.1321 74.8341C49.9658 74.491 49.8826 74.096 49.8826 73.649ZM53.1416 73.6568C53.1416 73.3241 53.048 73.0616 52.8609 72.8693C52.679 72.677 52.4555 72.5808 52.1904 72.5808C51.9253 72.5808 51.6992 72.677 51.5121 72.8693C51.3302 73.0564 51.2392 73.3163 51.2392 73.649C51.2392 73.9816 51.3302 74.2467 51.5121 74.4442C51.6992 74.6366 51.9253 74.7327 52.1904 74.7327C52.4555 74.7327 52.679 74.6366 52.8609 74.4442C53.048 74.2519 53.1416 73.9894 53.1416 73.6568ZM59.5403 73.5866C59.5403 73.7114 59.5325 73.8413 59.5169 73.9764H56.4997C56.5204 74.2467 56.6062 74.4546 56.7569 74.6002C56.9129 74.7405 57.1026 74.8107 57.3261 74.8107C57.6588 74.8107 57.8901 74.6703 58.02 74.3897H59.439C59.3662 74.6755 59.2337 74.9328 59.0414 75.1615C58.8542 75.3902 58.6177 75.5695 58.3319 75.6995C58.046 75.8294 57.7263 75.8944 57.3729 75.8944C56.9467 75.8944 56.5672 75.8034 56.2346 75.6215C55.9019 75.4396 55.642 75.1797 55.4549 74.8419C55.2678 74.504 55.1742 74.109 55.1742 73.6568C55.1742 73.2046 55.2652 72.8095 55.4471 72.4717C55.6342 72.1338 55.8941 71.874 56.2268 71.692C56.5594 71.5101 56.9415 71.4191 57.3729 71.4191C57.7939 71.4191 58.1681 71.5075 58.4956 71.6842C58.823 71.861 59.0777 72.113 59.2597 72.4405C59.4468 72.768 59.5403 73.15 59.5403 73.5866ZM58.1759 73.2358C58.1759 73.0071 58.098 72.8251 57.942 72.69C57.7861 72.5549 57.5912 72.4873 57.3573 72.4873C57.1338 72.4873 56.9441 72.5523 56.7881 72.6822C56.6374 72.8121 56.5438 72.9967 56.5075 73.2358H58.1759ZM66.0671 72.1208C66.0671 72.4379 65.9943 72.729 65.8488 72.9941C65.7032 73.254 65.4797 73.4645 65.1783 73.6256C64.8768 73.7867 64.5026 73.8673 64.0555 73.8673H63.2291V75.832H61.8959V70.3588H64.0555C64.4922 70.3588 64.8612 70.4342 65.1627 70.5849C65.4641 70.7356 65.6902 70.9436 65.841 71.2086C65.9917 71.4737 66.0671 71.7778 66.0671 72.1208ZM63.9542 72.8069C64.2089 72.8069 64.3986 72.7472 64.5233 72.6276C64.6481 72.5081 64.7105 72.3391 64.7105 72.1208C64.7105 71.9025 64.6481 71.7336 64.5233 71.6141C64.3986 71.4945 64.2089 71.4347 63.9542 71.4347H63.2291V72.8069H63.9542ZM68.0944 72.2066C68.2503 71.9675 68.4452 71.7804 68.6791 71.6453C68.913 71.5049 69.1729 71.4347 69.4588 71.4347V72.8459H69.0923C68.7597 72.8459 68.5102 72.9187 68.3439 73.0642C68.1775 73.2046 68.0944 73.4541 68.0944 73.8127V75.832H66.7612V71.4815H68.0944V72.2066ZM72.0764 75.8944C71.6502 75.8944 71.2655 75.8034 70.9225 75.6215C70.5846 75.4396 70.3169 75.1797 70.1194 74.8419C69.9271 74.504 69.8309 74.109 69.8309 73.6568C69.8309 73.2098 69.9297 72.8173 70.1272 72.4795C70.3247 72.1364 70.595 71.874 70.9381 71.692C71.2811 71.5101 71.6657 71.4191 72.092 71.4191C72.5182 71.4191 72.9028 71.5101 73.2459 71.692C73.5889 71.874 73.8592 72.1364 74.0567 72.4795C74.2542 72.8173 74.353 73.2098 74.353 73.6568C74.353 74.1038 74.2516 74.4988 74.0489 74.8419C73.8514 75.1797 73.5785 75.4396 73.2303 75.6215C72.8872 75.8034 72.5026 75.8944 72.0764 75.8944ZM72.0764 74.7405C72.3311 74.7405 72.5468 74.6469 72.7235 74.4598C72.9054 74.2727 72.9964 74.005 72.9964 73.6568C72.9964 73.3085 72.908 73.0408 72.7313 72.8537C72.5598 72.6666 72.3467 72.573 72.092 72.573C71.8321 72.573 71.6164 72.6666 71.4448 72.8537C71.2733 73.0356 71.1876 73.3033 71.1876 73.6568C71.1876 74.005 71.2707 74.2727 71.437 74.4598C71.6086 74.6469 71.8217 74.7405 72.0764 74.7405ZM76.7132 71.4191C77.0198 71.4191 77.2875 71.4815 77.5162 71.6063C77.7501 71.731 77.9294 71.8947 78.0542 72.0975V71.4815H79.3874V75.8242C79.3874 76.2245 79.3068 76.5857 79.1457 76.908C78.9898 77.2354 78.7481 77.4953 78.4206 77.6876C78.0984 77.8799 77.6955 77.9761 77.2121 77.9761C76.5676 77.9761 76.0453 77.8228 75.645 77.5161C75.2448 77.2146 75.0161 76.804 74.9589 76.2842H76.2766C76.3181 76.4506 76.4169 76.5805 76.5728 76.6741C76.7288 76.7728 76.9211 76.8222 77.1498 76.8222C77.4253 76.8222 77.6436 76.7416 77.8047 76.5805C77.971 76.4246 78.0542 76.1725 78.0542 75.8242V75.2083C77.9242 75.411 77.7449 75.5773 77.5162 75.7073C77.2875 75.832 77.0198 75.8944 76.7132 75.8944C76.3545 75.8944 76.0297 75.8034 75.7386 75.6215C75.4475 75.4344 75.2162 75.1719 75.0447 74.8341C74.8784 74.491 74.7952 74.096 74.7952 73.649C74.7952 73.202 74.8784 72.8095 75.0447 72.4717C75.2162 72.1338 75.4475 71.874 75.7386 71.692C76.0297 71.5101 76.3545 71.4191 76.7132 71.4191ZM78.0542 73.6568C78.0542 73.3241 77.9606 73.0616 77.7735 72.8693C77.5916 72.677 77.3681 72.5808 77.103 72.5808C76.8379 72.5808 76.6118 72.677 76.4247 72.8693C76.2428 73.0564 76.1518 73.3163 76.1518 73.649C76.1518 73.9816 76.2428 74.2467 76.4247 74.4442C76.6118 74.6366 76.8379 74.7327 77.103 74.7327C77.3681 74.7327 77.5916 74.6366 77.7735 74.4442C77.9606 74.2519 78.0542 73.9894 78.0542 73.6568ZM81.6851 72.2066C81.8411 71.9675 82.036 71.7804 82.2699 71.6453C82.5038 71.5049 82.7637 71.4347 83.0496 71.4347V72.8459H82.6831C82.3505 72.8459 82.101 72.9187 81.9346 73.0642C81.7683 73.2046 81.6851 73.4541 81.6851 73.8127V75.832H80.3519V71.4815H81.6851V72.2066ZM83.4217 73.649C83.4217 73.202 83.5049 72.8095 83.6712 72.4717C83.8427 72.1338 84.074 71.874 84.3651 71.692C84.6562 71.5101 84.981 71.4191 85.3397 71.4191C85.6463 71.4191 85.914 71.4815 86.1427 71.6063C86.3766 71.731 86.556 71.8947 86.6807 72.0975V71.4815H88.0139V75.832H86.6807V75.2161C86.5508 75.4188 86.3688 75.5825 86.1349 75.7073C85.9062 75.832 85.6386 75.8944 85.3319 75.8944C84.9784 75.8944 84.6562 75.8034 84.3651 75.6215C84.074 75.4344 83.8427 75.1719 83.6712 74.8341C83.5049 74.491 83.4217 74.096 83.4217 73.649ZM86.6807 73.6568C86.6807 73.3241 86.5871 73.0616 86.4 72.8693C86.2181 72.677 85.9946 72.5808 85.7295 72.5808C85.4644 72.5808 85.2383 72.677 85.0512 72.8693C84.8693 73.0564 84.7783 73.3163 84.7783 73.649C84.7783 73.9816 84.8693 74.2467 85.0512 74.4442C85.2383 74.6366 85.4644 74.7327 85.7295 74.7327C85.9946 74.7327 86.2181 74.6366 86.4 74.4442C86.5871 74.2519 86.6807 73.9894 86.6807 73.6568ZM94.5296 71.4347C95.0702 71.4347 95.499 71.5985 95.8161 71.9259C96.1383 72.2534 96.2995 72.7082 96.2995 73.2903V75.832H94.974V73.4697C94.974 73.189 94.8987 72.9733 94.7479 72.8225C94.6024 72.6666 94.3997 72.5886 94.1398 72.5886C93.8799 72.5886 93.6746 72.6666 93.5239 72.8225C93.3783 72.9733 93.3056 73.189 93.3056 73.4697V75.832H91.9801V73.4697C91.9801 73.189 91.9048 72.9733 91.754 72.8225C91.6085 72.6666 91.4058 72.5886 91.1459 72.5886C90.886 72.5886 90.6807 72.6666 90.53 72.8225C90.3844 72.9733 90.3117 73.189 90.3117 73.4697V75.832H88.9784V71.4815H90.3117V72.0273C90.4468 71.8454 90.6235 71.7024 90.8418 71.5985C91.0601 71.4893 91.307 71.4347 91.5825 71.4347C91.91 71.4347 92.201 71.5049 92.4557 71.6453C92.7156 71.7856 92.9183 71.9857 93.0639 72.2456C93.2146 72.0065 93.4199 71.8116 93.6798 71.6608C93.9397 71.5101 94.223 71.4347 94.5296 71.4347ZM96.9668 73.649C96.9668 73.202 97.05 72.8095 97.2163 72.4717C97.3878 72.1338 97.6191 71.874 97.9102 71.692C98.2013 71.5101 98.5261 71.4191 98.8848 71.4191C99.1914 71.4191 99.4591 71.4815 99.6878 71.6063C99.9217 71.731 100.101 71.8947 100.226 72.0975V71.4815H101.559V75.832H100.226V75.2161C100.096 75.4188 99.9139 75.5825 99.68 75.7073C99.4513 75.832 99.1836 75.8944 98.877 75.8944C98.5235 75.8944 98.2013 75.8034 97.9102 75.6215C97.6191 75.4344 97.3878 75.1719 97.2163 74.8341C97.05 74.491 96.9668 74.096 96.9668 73.649ZM100.226 73.6568C100.226 73.3241 100.132 73.0616 99.9451 72.8693C99.7632 72.677 99.5397 72.5808 99.2746 72.5808C99.0095 72.5808 98.7834 72.677 98.5963 72.8693C98.4144 73.0564 98.3234 73.3163 98.3234 73.649C98.3234 73.9816 98.4144 74.2467 98.5963 74.4442C98.7834 74.6366 99.0095 74.7327 99.2746 74.7327C99.5397 74.7327 99.7632 74.6366 99.9451 74.4442C100.132 74.2519 100.226 73.9894 100.226 73.6568ZM104.418 74.7561C104.761 74.7561 104.992 74.5898 105.112 74.2571H106.531C106.432 74.6989 106.235 75.0602 105.938 75.3408C105.642 75.6215 105.273 75.7956 104.831 75.8632V76.1517C105.102 76.1517 105.338 76.2245 105.541 76.37C105.744 76.5207 105.845 76.7442 105.845 77.0405C105.845 77.3368 105.738 77.5603 105.525 77.711C105.312 77.8669 105.057 77.9449 104.761 77.9449H103.56V77.212H104.582C104.686 77.212 104.764 77.1964 104.816 77.1653C104.868 77.1341 104.894 77.0821 104.894 77.0093C104.894 76.9366 104.868 76.8846 104.816 76.8534C104.764 76.8274 104.686 76.8144 104.582 76.8144H104.028V75.8632C103.493 75.7801 103.064 75.5436 102.742 75.1537C102.42 74.7587 102.258 74.2597 102.258 73.6568C102.258 73.2046 102.349 72.8095 102.531 72.4717C102.718 72.1338 102.976 71.874 103.303 71.692C103.636 71.5101 104.015 71.4191 104.442 71.4191C104.987 71.4191 105.442 71.5621 105.806 71.848C106.175 72.1338 106.417 72.5367 106.531 73.0564H105.112C104.992 72.7238 104.761 72.5575 104.418 72.5575C104.174 72.5575 103.979 72.6536 103.833 72.8459C103.688 73.033 103.615 73.3033 103.615 73.6568C103.615 74.0102 103.688 74.2831 103.833 74.4754C103.979 74.6625 104.174 74.7561 104.418 74.7561ZM106.979 73.649C106.979 73.202 107.062 72.8095 107.229 72.4717C107.4 72.1338 107.631 71.874 107.922 71.692C108.214 71.5101 108.538 71.4191 108.897 71.4191C109.204 71.4191 109.471 71.4815 109.7 71.6063C109.934 71.731 110.113 71.8947 110.238 72.0975V71.4815H111.571V75.832H110.238V75.2161C110.108 75.4188 109.926 75.5825 109.692 75.7073C109.464 75.832 109.196 75.8944 108.889 75.8944C108.536 75.8944 108.214 75.8034 107.922 75.6215C107.631 75.4344 107.4 75.1719 107.229 74.8341C107.062 74.491 106.979 74.096 106.979 73.649ZM110.238 73.6568C110.238 73.3241 110.144 73.0616 109.957 72.8693C109.775 72.677 109.552 72.5808 109.287 72.5808C109.022 72.5808 108.796 72.677 108.609 72.8693C108.427 73.0564 108.336 73.3163 108.336 73.649C108.336 73.9816 108.427 74.2467 108.609 74.4442C108.796 74.6366 109.022 74.7327 109.287 74.7327C109.552 74.7327 109.775 74.6366 109.957 74.4442C110.144 74.2519 110.238 73.9894 110.238 73.6568ZM107.876 71.1151C108 70.3458 108.359 69.9612 108.952 69.9612C109.066 69.9612 109.165 69.9794 109.248 70.0158C109.336 70.0469 109.443 70.0963 109.568 70.1639C109.661 70.2159 109.736 70.2549 109.794 70.2808C109.851 70.3016 109.911 70.312 109.973 70.312C110.165 70.312 110.277 70.1951 110.308 69.9612H110.994C110.87 70.7304 110.511 71.1151 109.918 71.1151C109.804 71.1151 109.703 71.0995 109.614 71.0683C109.531 71.0319 109.427 70.9799 109.302 70.9124C109.209 70.8604 109.134 70.824 109.076 70.8032C109.019 70.7772 108.959 70.7642 108.897 70.7642C108.705 70.7642 108.59 70.8812 108.554 71.1151H107.876ZM114.516 75.8944C114.09 75.8944 113.705 75.8034 113.362 75.6215C113.024 75.4396 112.757 75.1797 112.559 74.8419C112.367 74.504 112.271 74.109 112.271 73.6568C112.271 73.2098 112.369 72.8173 112.567 72.4795C112.764 72.1364 113.035 71.874 113.378 71.692C113.721 71.5101 114.106 71.4191 114.532 71.4191C114.958 71.4191 115.343 71.5101 115.686 71.692C116.029 71.874 116.299 72.1364 116.496 72.4795C116.694 72.8173 116.793 73.2098 116.793 73.6568C116.793 74.1038 116.691 74.4988 116.489 74.8419C116.291 75.1797 116.018 75.4396 115.67 75.6215C115.327 75.8034 114.942 75.8944 114.516 75.8944ZM114.516 74.7405C114.771 74.7405 114.987 74.6469 115.163 74.4598C115.345 74.2727 115.436 74.005 115.436 73.6568C115.436 73.3085 115.348 73.0408 115.171 72.8537C115 72.6666 114.786 72.573 114.532 72.573C114.272 72.573 114.056 72.6666 113.885 72.8537C113.713 73.0356 113.627 73.3033 113.627 73.6568C113.627 74.005 113.71 74.2727 113.877 74.4598C114.048 74.6469 114.261 74.7405 114.516 74.7405Z" fill="white"/>
<rect x="7" y="84.9506" width="124.746" height="14.2373" rx="3.11864" fill="#FC8370"/>
<path d="M39.3383 89.5961C39.9153 89.5961 40.4195 89.7104 40.8509 89.9391C41.2823 90.1678 41.615 90.4901 41.8489 90.9059C42.0879 91.3165 42.2075 91.7921 42.2075 92.3327C42.2075 92.868 42.0879 93.3436 41.8489 93.7594C41.615 94.1753 41.2797 94.4975 40.8431 94.7262C40.4117 94.9549 39.9101 95.0693 39.3383 95.0693H37.2878V89.5961H39.3383ZM39.2526 93.9154C39.7568 93.9154 40.1492 93.7776 40.4299 93.5022C40.7105 93.2267 40.8509 92.8368 40.8509 92.3327C40.8509 91.8285 40.7105 91.4361 40.4299 91.1554C40.1492 90.8747 39.7568 90.7344 39.2526 90.7344H38.6211V93.9154H39.2526ZM47.0536 92.8239C47.0536 92.9486 47.0458 93.0785 47.0302 93.2137H44.0129C44.0337 93.484 44.1195 93.6919 44.2702 93.8374C44.4261 93.9777 44.6158 94.0479 44.8393 94.0479C45.172 94.0479 45.4033 93.9076 45.5332 93.6269H46.9522C46.8795 93.9128 46.7469 94.1701 46.5546 94.3988C46.3675 94.6275 46.131 94.8068 45.8451 94.9367C45.5592 95.0667 45.2396 95.1316 44.8861 95.1316C44.4599 95.1316 44.0805 95.0407 43.7478 94.8588C43.4152 94.6768 43.1553 94.417 42.9682 94.0791C42.781 93.7413 42.6875 93.3462 42.6875 92.894C42.6875 92.4418 42.7784 92.0468 42.9604 91.7089C43.1475 91.3711 43.4074 91.1112 43.74 90.9293C44.0727 90.7474 44.4547 90.6564 44.8861 90.6564C45.3071 90.6564 45.6814 90.7448 46.0088 90.9215C46.3363 91.0982 46.591 91.3503 46.7729 91.6777C46.96 92.0052 47.0536 92.3872 47.0536 92.8239ZM45.6892 92.473C45.6892 92.2443 45.6112 92.0624 45.4553 91.9272C45.2993 91.7921 45.1044 91.7245 44.8705 91.7245C44.647 91.7245 44.4573 91.7895 44.3014 91.9194C44.1506 92.0494 44.0571 92.2339 44.0207 92.473H45.6892ZM49.5267 95.1316C49.1473 95.1316 48.8095 95.0667 48.5132 94.9367C48.2169 94.8068 47.983 94.6301 47.8115 94.4066C47.64 94.1779 47.5438 93.9232 47.523 93.6425H48.8406C48.8562 93.7932 48.9264 93.9154 49.0512 94.0089C49.1759 94.1025 49.3292 94.1493 49.5112 94.1493C49.6775 94.1493 49.8048 94.1181 49.8932 94.0557C49.9867 93.9881 50.0335 93.9024 50.0335 93.7984C50.0335 93.6737 49.9686 93.5827 49.8386 93.5255C49.7087 93.4632 49.4982 93.3956 49.2071 93.3228C48.8952 93.2501 48.6353 93.1747 48.4274 93.0967C48.2195 93.0136 48.0402 92.8862 47.8895 92.7147C47.7387 92.538 47.6634 92.3015 47.6634 92.0052C47.6634 91.7557 47.7309 91.5296 47.8661 91.3269C48.0064 91.119 48.2091 90.9553 48.4742 90.8357C48.7445 90.7162 49.0641 90.6564 49.4332 90.6564C49.9789 90.6564 50.4078 90.7915 50.7196 91.0618C51.0367 91.3321 51.2186 91.6907 51.2654 92.1377H50.0335C50.0127 91.987 49.9452 91.8675 49.8308 91.7791C49.7217 91.6907 49.5761 91.6466 49.3942 91.6466C49.2383 91.6466 49.1187 91.6777 49.0356 91.7401C48.9524 91.7973 48.9108 91.8779 48.9108 91.9818C48.9108 92.1066 48.9758 92.2001 49.1057 92.2625C49.2409 92.3249 49.4488 92.3872 49.7295 92.4496C50.0517 92.5328 50.3142 92.6159 50.5169 92.6991C50.7196 92.7771 50.8963 92.907 51.0471 93.0889C51.203 93.2657 51.2836 93.5048 51.2888 93.8062C51.2888 94.0609 51.216 94.2896 51.0705 94.4923C50.9301 94.6898 50.7248 94.8458 50.4545 94.9601C50.1895 95.0745 49.8802 95.1316 49.5267 95.1316ZM52.7749 90.2666C52.541 90.2666 52.3487 90.199 52.198 90.0639C52.0525 89.9235 51.9797 89.752 51.9797 89.5493C51.9797 89.3414 52.0525 89.1698 52.198 89.0347C52.3487 88.8944 52.541 88.8242 52.7749 88.8242C53.0036 88.8242 53.1908 88.8944 53.3363 89.0347C53.487 89.1698 53.5624 89.3414 53.5624 89.5493C53.5624 89.752 53.487 89.9235 53.3363 90.0639C53.1908 90.199 53.0036 90.2666 52.7749 90.2666ZM53.4377 90.7188V95.0693H52.1044V90.7188H53.4377ZM56.0567 90.6564C56.3634 90.6564 56.6311 90.7188 56.8598 90.8435C57.0937 90.9683 57.273 91.132 57.3977 91.3347V90.7188H58.7309V95.0615C58.7309 95.4617 58.6504 95.8229 58.4893 96.1452C58.3333 96.4727 58.0916 96.7326 57.7642 96.9249C57.4419 97.1172 57.0391 97.2133 56.5557 97.2133C55.9112 97.2133 55.3888 97.06 54.9886 96.7533C54.5883 96.4519 54.3596 96.0413 54.3025 95.5215H55.6201C55.6617 95.6878 55.7604 95.8177 55.9164 95.9113C56.0723 96.0101 56.2646 96.0594 56.4933 96.0594C56.7688 96.0594 56.9871 95.9789 57.1482 95.8177C57.3146 95.6618 57.3977 95.4097 57.3977 95.0615V94.4455C57.2678 94.6483 57.0885 94.8146 56.8598 94.9445C56.6311 95.0693 56.3634 95.1316 56.0567 95.1316C55.6981 95.1316 55.3732 95.0407 55.0821 94.8588C54.7911 94.6716 54.5598 94.4092 54.3882 94.0713C54.2219 93.7283 54.1387 93.3332 54.1387 92.8862C54.1387 92.4392 54.2219 92.0468 54.3882 91.7089C54.5598 91.3711 54.7911 91.1112 55.0821 90.9293C55.3732 90.7474 55.6981 90.6564 56.0567 90.6564ZM57.3977 92.894C57.3977 92.5614 57.3042 92.2989 57.117 92.1066C56.9351 91.9142 56.7116 91.8181 56.4465 91.8181C56.1815 91.8181 55.9554 91.9142 55.7682 92.1066C55.5863 92.2937 55.4954 92.5536 55.4954 92.8862C55.4954 93.2189 55.5863 93.484 55.7682 93.6815C55.9554 93.8738 56.1815 93.97 56.4465 93.97C56.7116 93.97 56.9351 93.8738 57.117 93.6815C57.3042 93.4892 57.3977 93.2267 57.3977 92.894ZM62.3463 90.672C62.8557 90.672 63.2611 90.8383 63.5626 91.171C63.8693 91.4984 64.0226 91.9506 64.0226 92.5276V95.0693H62.6972V92.7069C62.6972 92.4158 62.6218 92.1897 62.4711 92.0286C62.3203 91.8675 62.1176 91.7869 61.8629 91.7869C61.6082 91.7869 61.4055 91.8675 61.2548 92.0286C61.1041 92.1897 61.0287 92.4158 61.0287 92.7069V95.0693H59.6955V90.7188H61.0287V91.2957C61.1638 91.1034 61.3458 90.9527 61.5745 90.8435C61.8032 90.7292 62.0604 90.672 62.3463 90.672ZM66.3362 92.8862C66.3362 92.4392 66.4193 92.0468 66.5857 91.7089C66.7572 91.3711 66.9885 91.1112 67.2796 90.9293C67.5706 90.7474 67.8955 90.6564 68.2541 90.6564C68.54 90.6564 68.7999 90.7162 69.0338 90.8357C69.2729 90.9553 69.46 91.1164 69.5952 91.3191V89.2998H70.9284V95.0693H69.5952V94.4455C69.4704 94.6535 69.2911 94.8198 69.0572 94.9445C68.8285 95.0693 68.5608 95.1316 68.2541 95.1316C67.8955 95.1316 67.5706 95.0407 67.2796 94.8588C66.9885 94.6716 66.7572 94.4092 66.5857 94.0713C66.4193 93.7283 66.3362 93.3332 66.3362 92.8862ZM69.5952 92.894C69.5952 92.5614 69.5016 92.2989 69.3145 92.1066C69.1326 91.9142 68.9091 91.8181 68.644 91.8181C68.3789 91.8181 68.1528 91.9142 67.9657 92.1066C67.7837 92.2937 67.6928 92.5536 67.6928 92.8862C67.6928 93.2189 67.7837 93.484 67.9657 93.6815C68.1528 93.8738 68.3789 93.97 68.644 93.97C68.9091 93.97 69.1326 93.8738 69.3145 93.6815C69.5016 93.4892 69.5952 93.2267 69.5952 92.894ZM75.9939 92.8239C75.9939 92.9486 75.9861 93.0785 75.9705 93.2137H72.9532C72.974 93.484 73.0598 93.6919 73.2105 93.8374C73.3665 93.9777 73.5562 94.0479 73.7797 94.0479C74.1123 94.0479 74.3436 93.9076 74.4736 93.6269H75.8926C75.8198 93.9128 75.6873 94.1701 75.4949 94.3988C75.3078 94.6275 75.0713 94.8068 74.7854 94.9367C74.4996 95.0667 74.1799 95.1316 73.8265 95.1316C73.4002 95.1316 73.0208 95.0407 72.6882 94.8588C72.3555 94.6768 72.0956 94.417 71.9085 94.0791C71.7214 93.7413 71.6278 93.3462 71.6278 92.894C71.6278 92.4418 71.7188 92.0468 71.9007 91.7089C72.0878 91.3711 72.3477 91.1112 72.6804 90.9293C73.013 90.7474 73.3951 90.6564 73.8265 90.6564C74.2475 90.6564 74.6217 90.7448 74.9492 90.9215C75.2766 91.0982 75.5313 91.3503 75.7132 91.6777C75.9004 92.0052 75.9939 92.3872 75.9939 92.8239ZM74.6295 92.473C74.6295 92.2443 74.5515 92.0624 74.3956 91.9272C74.2397 91.7921 74.0448 91.7245 73.8109 91.7245C73.5874 91.7245 73.3977 91.7895 73.2417 91.9194C73.091 92.0494 72.9974 92.2339 72.961 92.473H74.6295ZM81.78 89.5961V93.3228C81.78 93.8998 81.6163 94.3442 81.2888 94.6561C80.9665 94.9679 80.5299 95.1239 79.979 95.1239C79.402 95.1239 78.9394 94.9601 78.5912 94.6327C78.2429 94.3052 78.0688 93.84 78.0688 93.2371H79.3942C79.3942 93.4658 79.441 93.6399 79.5346 93.7594C79.6281 93.8738 79.7633 93.931 79.94 93.931C80.1011 93.931 80.2259 93.879 80.3142 93.775C80.4026 93.6711 80.4468 93.5203 80.4468 93.3228V89.5961H81.78ZM84.8372 95.1316C84.411 95.1316 84.0264 95.0407 83.6833 94.8588C83.3455 94.6768 83.0778 94.417 82.8803 94.0791C82.688 93.7413 82.5918 93.3462 82.5918 92.894C82.5918 92.447 82.6906 92.0546 82.8881 91.7167C83.0856 91.3737 83.3559 91.1112 83.6989 90.9293C84.042 90.7474 84.4266 90.6564 84.8528 90.6564C85.279 90.6564 85.6637 90.7474 86.0067 90.9293C86.3498 91.1112 86.6201 91.3737 86.8176 91.7167C87.0151 92.0546 87.1138 92.447 87.1138 92.894C87.1138 93.341 87.0125 93.7361 86.8098 94.0791C86.6123 94.417 86.3394 94.6768 85.9911 94.8588C85.6481 95.0407 85.2634 95.1316 84.8372 95.1316ZM84.8372 93.9777C85.0919 93.9777 85.3076 93.8842 85.4843 93.6971C85.6663 93.51 85.7572 93.2423 85.7572 92.894C85.7572 92.5458 85.6689 92.2781 85.4921 92.091C85.3206 91.9039 85.1075 91.8103 84.8528 91.8103C84.5929 91.8103 84.3772 91.9039 84.2057 92.091C84.0342 92.2729 83.9484 92.5406 83.9484 92.894C83.9484 93.2423 84.0316 93.51 84.1979 93.6971C84.3694 93.8842 84.5825 93.9777 84.8372 93.9777ZM89.474 90.6564C89.7807 90.6564 90.0484 90.7188 90.2771 90.8435C90.511 90.9683 90.6903 91.132 90.815 91.3347V90.7188H92.1483V95.0615C92.1483 95.4617 92.0677 95.8229 91.9066 96.1452C91.7506 96.4727 91.5089 96.7326 91.1815 96.9249C90.8592 97.1172 90.4564 97.2133 89.973 97.2133C89.3285 97.2133 88.8061 97.06 88.4059 96.7533C88.0057 96.4519 87.777 96.0413 87.7198 95.5215H89.0374C89.079 95.6878 89.1777 95.8177 89.3337 95.9113C89.4896 96.0101 89.6819 96.0594 89.9106 96.0594C90.1861 96.0594 90.4044 95.9789 90.5655 95.8177C90.7319 95.6618 90.815 95.4097 90.815 95.0615V94.4455C90.6851 94.6483 90.5058 94.8146 90.2771 94.9445C90.0484 95.0693 89.7807 95.1316 89.474 95.1316C89.1154 95.1316 88.7905 95.0407 88.4994 94.8588C88.2084 94.6716 87.9771 94.4092 87.8055 94.0713C87.6392 93.7283 87.5561 93.3332 87.5561 92.8862C87.5561 92.4392 87.6392 92.0468 87.8055 91.7089C87.9771 91.3711 88.2084 91.1112 88.4994 90.9293C88.7905 90.7474 89.1154 90.6564 89.474 90.6564ZM90.815 92.894C90.815 92.5614 90.7215 92.2989 90.5344 92.1066C90.3524 91.9142 90.1289 91.8181 89.8638 91.8181C89.5988 91.8181 89.3727 91.9142 89.1855 92.1066C89.0036 92.2937 88.9127 92.5536 88.9127 92.8862C88.9127 93.2189 89.0036 93.484 89.1855 93.6815C89.3727 93.8738 89.5988 93.97 89.8638 93.97C90.1289 93.97 90.3524 93.8738 90.5344 93.6815C90.7215 93.4892 90.815 93.2267 90.815 92.894ZM95.0931 95.1316C94.6669 95.1316 94.2823 95.0407 93.9392 94.8588C93.6014 94.6768 93.3337 94.417 93.1362 94.0791C92.9439 93.7413 92.8477 93.3462 92.8477 92.894C92.8477 92.447 92.9464 92.0546 93.144 91.7167C93.3415 91.3737 93.6118 91.1112 93.9548 90.9293C94.2979 90.7474 94.6825 90.6564 95.1087 90.6564C95.5349 90.6564 95.9196 90.7474 96.2626 90.9293C96.6057 91.1112 96.8759 91.3737 97.0735 91.7167C97.271 92.0546 97.3697 92.447 97.3697 92.894C97.3697 93.341 97.2684 93.7361 97.0657 94.0791C96.8681 94.417 96.5953 94.6768 96.247 94.8588C95.904 95.0407 95.5193 95.1316 95.0931 95.1316ZM95.0931 93.9777C95.3478 93.9777 95.5635 93.8842 95.7402 93.6971C95.9222 93.51 96.0131 93.2423 96.0131 92.894C96.0131 92.5458 95.9248 92.2781 95.748 92.091C95.5765 91.9039 95.3634 91.8103 95.1087 91.8103C94.8488 91.8103 94.6331 91.9039 94.4616 92.091C94.2901 92.2729 94.2043 92.5406 94.2043 92.894C94.2043 93.2423 94.2875 93.51 94.4538 93.6971C94.6253 93.8842 94.8384 93.9777 95.0931 93.9777ZM99.8469 95.1316C99.4674 95.1316 99.1296 95.0667 98.8333 94.9367C98.537 94.8068 98.3031 94.6301 98.1316 94.4066C97.9601 94.1779 97.8639 93.9232 97.8431 93.6425H99.1608C99.1763 93.7932 99.2465 93.9154 99.3713 94.0089C99.496 94.1025 99.6493 94.1493 99.8313 94.1493C99.9976 94.1493 100.125 94.1181 100.213 94.0557C100.307 93.9881 100.354 93.9024 100.354 93.7984C100.354 93.6737 100.289 93.5827 100.159 93.5255C100.029 93.4632 99.8183 93.3956 99.5272 93.3228C99.2153 93.2501 98.9554 93.1747 98.7475 93.0967C98.5396 93.0136 98.3603 92.8862 98.2096 92.7147C98.0588 92.538 97.9835 92.3015 97.9835 92.0052C97.9835 91.7557 98.051 91.5296 98.1862 91.3269C98.3265 91.119 98.5292 90.9553 98.7943 90.8357C99.0646 90.7162 99.3843 90.6564 99.7533 90.6564C100.299 90.6564 100.728 90.7915 101.04 91.0618C101.357 91.3321 101.539 91.6907 101.586 92.1377H100.354C100.333 91.987 100.265 91.8675 100.151 91.7791C100.042 91.6907 99.8962 91.6466 99.7143 91.6466C99.5584 91.6466 99.4388 91.6777 99.3557 91.7401C99.2725 91.7973 99.2309 91.8779 99.2309 91.9818C99.2309 92.1066 99.2959 92.2001 99.4258 92.2625C99.561 92.3249 99.7689 92.3872 100.05 92.4496C100.372 92.5328 100.634 92.6159 100.837 92.6991C101.04 92.7771 101.216 92.907 101.367 93.0889C101.523 93.2657 101.604 93.5048 101.609 93.8062C101.609 94.0609 101.536 94.2896 101.391 94.4923C101.25 94.6898 101.045 94.8458 100.775 94.9601C100.51 95.0745 100.2 95.1316 99.8469 95.1316Z" fill="white"/>
<path d="M11.835 21.149C12.0156 20.9684 12.3299 20.9674 12.5059 21.1852L14.2207 23.3121C14.3223 23.4381 14.4723 23.516 14.6338 23.527L17.3594 23.7115C17.7037 23.7349 17.8962 24.1197 17.708 24.4088L16.2158 26.6969C16.1274 26.8324 16.0993 26.9989 16.1387 27.1559L16.8057 29.8053C16.8474 29.9713 16.7928 30.1287 16.6865 30.235C16.5783 30.3432 16.4172 30.3976 16.249 30.3522L13.6123 29.6403C13.4559 29.598 13.2885 29.6225 13.1514 29.7086L10.8379 31.1617C10.5456 31.345 10.1639 31.1461 10.1465 30.8014L10.0088 28.0739C10.0006 27.9121 9.92509 27.7607 9.80078 27.6569L7.7041 25.9059C7.49114 25.728 7.49523 25.4174 7.67383 25.2389C7.71669 25.1961 7.76984 25.1605 7.83301 25.1364L10.3848 24.1627C10.4619 24.1333 10.5317 24.088 10.5889 24.0309C10.6437 23.9761 10.6872 23.91 10.7168 23.8365L11.7354 21.3014C11.7595 21.2412 11.7938 21.1902 11.835 21.149Z" fill="#FF4A97" stroke="#330043" stroke-width="0.129114"/>
<path d="M18.302 22.8013C18.6274 22.8421 18.8038 23.2088 18.6252 23.4897L17.9104 24.2056C17.9304 23.941 17.7649 23.6835 17.4983 23.605L18.302 22.8013Z" fill="#FF4A97" stroke="#330043" stroke-width="0.129114" stroke-linejoin="round"/>
<path d="M18.1296 22.7891L17.3386 23.5801L14.7849 23.4073L15.5759 22.6163L18.1296 22.7891Z" fill="#FF4A97" stroke="#330043" stroke-width="0.129114" stroke-linejoin="round"/>
<path d="M17.1343 25.7747L16.6616 26.2474L17.8101 24.4866L18.2798 24.0169L17.1343 25.7747Z" fill="#FF4A97" stroke="#330043" stroke-width="0.129114" stroke-linejoin="round"/>
<path d="M15.0996 22.3536L14.2783 23.1749L12.6445 21.1505L13.4658 20.3292L15.0996 22.3536Z" fill="#FF4A97" stroke="#330043" stroke-width="0.129114" stroke-linejoin="round"/>
<path d="M15.1836 22.4504C15.2503 22.5149 15.3297 22.5635 15.418 22.5901L14.6143 23.3938C14.5184 23.3813 14.4307 23.3383 14.3613 23.2717L15.1836 22.4504Z" fill="#FF4A97" stroke="#330043" stroke-width="0.129114" stroke-linejoin="round"/>
<path d="M12.749 20.2357C12.9169 20.0678 13.1984 20.0568 13.3789 20.2308L12.5566 21.0531C12.4259 20.9258 12.2555 20.8743 12.0908 20.8929L12.749 20.2357Z" fill="#FF4A97" stroke="#330043" stroke-width="0.129114" stroke-linejoin="round"/>
<mask id="path-15-inside-1_79_6688" fill="white">
<path d="M12.5902 20.3634C12.6176 20.2951 12.6569 20.237 12.7042 20.1897L11.7912 21.1027C11.7439 21.15 11.7047 21.2081 11.6772 21.2764L12.5902 20.3634Z"/>
</mask>
<path d="M12.5902 20.3634C12.6176 20.2951 12.6569 20.237 12.7042 20.1897L11.7912 21.1027C11.7439 21.15 11.7047 21.2081 11.6772 21.2764L12.5902 20.3634Z" fill="#FF4A97"/>
<path d="M12.7042 20.1897L12.7955 20.281C12.8459 20.2306 12.8459 20.1488 12.7955 20.0984C12.7451 20.048 12.6633 20.048 12.6129 20.0984L12.7042 20.1897ZM12.5902 20.3634L12.6815 20.4547C12.6938 20.4424 12.7035 20.4277 12.71 20.4115L12.5902 20.3634ZM11.6772 21.2764L11.5574 21.2283C11.5346 21.2852 11.5549 21.3504 11.6061 21.3842C11.6573 21.4179 11.7252 21.4111 11.7685 21.3677L11.6772 21.2764ZM11.7912 21.1027L11.6999 21.0114L11.6999 21.0114L11.7912 21.1027ZM12.7042 20.1897L12.6129 20.0984C12.5533 20.158 12.5044 20.2308 12.4704 20.3153L12.5902 20.3634L12.71 20.4115C12.7309 20.3595 12.7605 20.316 12.7955 20.281L12.7042 20.1897ZM12.5902 20.3634L12.4989 20.2721L11.5859 21.1851L11.6772 21.2764L11.7685 21.3677L12.6815 20.4547L12.5902 20.3634ZM11.6772 21.2764L11.7971 21.3245C11.818 21.2725 11.8475 21.229 11.8825 21.194L11.7912 21.1027L11.6999 21.0114C11.6404 21.071 11.5914 21.1437 11.5574 21.2283L11.6772 21.2764ZM11.7912 21.1027L11.8825 21.194L12.7955 20.281L12.7042 20.1897L12.6129 20.0984L11.6999 21.0114L11.7912 21.1027Z" fill="#330043" mask="url(#path-15-inside-1_79_6688)"/>
<path d="M17.0388 26.0541C17.0347 26.1039 17.0377 26.1537 17.0466 26.2036L16.2527 26.9975C16.2557 26.9189 16.2774 26.8416 16.3201 26.7739L17.0388 26.0541Z" fill="#FF4A97" stroke="#330043" stroke-width="0.129114" stroke-linejoin="round"/>
<path d="M11.5156 22.8607L10.834 23.5423L11.7285 21.3138L12.4102 20.6321L11.5156 22.8607Z" fill="#FF4A97" stroke="#330043" stroke-width="0.129114" stroke-linejoin="round"/>
<path d="M17.7087 28.8566L16.9021 29.6633L16.2722 27.1603L17.0789 26.3537L17.7087 28.8566Z" fill="#FF4A97" stroke="#330043" stroke-width="0.129114" stroke-linejoin="round"/>
<path d="M17.7317 29.0172C17.7287 29.1358 17.6792 29.2435 17.5999 29.3228L16.9436 29.9781C16.9492 29.9243 16.9483 29.8689 16.9377 29.8121L17.7317 29.0172Z" fill="#FF4A97" stroke="#330043" stroke-width="0.129114" stroke-linejoin="round"/>
<mask id="path-21-inside-2_79_6688" fill="white">
<path d="M11.5716 22.8986C11.5453 22.9641 11.5062 23.0227 11.4574 23.0715L10.5446 23.9843C10.5934 23.9355 10.6324 23.877 10.6586 23.8116L11.5716 22.8986Z"/>
</mask>
<path d="M11.5716 22.8986C11.5453 22.9641 11.5062 23.0227 11.4574 23.0715L10.5446 23.9843C10.5934 23.9355 10.6324 23.877 10.6586 23.8116L11.5716 22.8986Z" fill="#FF4A97"/>
<path d="M10.5446 23.9843L10.499 23.9386C10.4989 23.9387 10.4988 23.9388 10.4988 23.9388L10.5444 23.9845L10.5901 24.0301C10.5902 24.0301 10.5902 24.03 10.5903 24.0299L10.5446 23.9843ZM11.4574 23.0715L11.3661 22.9802L11.3661 22.9802L11.4574 23.0715ZM11.5716 22.8986L11.6914 22.9467C11.7143 22.8898 11.6939 22.8247 11.6427 22.7909C11.5916 22.7571 11.5237 22.764 11.4803 22.8073L11.5716 22.8986ZM10.6586 23.8116L10.5673 23.7203C10.555 23.7326 10.5453 23.7473 10.5388 23.7635L10.6586 23.8116ZM10.5446 23.9843L10.4533 23.893C10.4029 23.9434 10.4029 24.0252 10.4533 24.0756C10.5038 24.126 10.5855 24.126 10.6359 24.0756L10.5446 23.9843ZM11.4574 23.0715L11.5487 23.1628C11.6097 23.1018 11.6586 23.0285 11.6914 22.9467L11.5716 22.8986L11.4518 22.8505C11.4321 22.8996 11.4028 22.9436 11.3661 22.9802L11.4574 23.0715ZM11.5716 22.8986L11.4803 22.8073L10.5673 23.7203L10.6586 23.8116L10.7499 23.9029L11.6629 22.9899L11.5716 22.8986ZM10.6586 23.8116L10.5388 23.7635C10.5191 23.8125 10.4899 23.8564 10.4533 23.893L10.5446 23.9843L10.636 24.0756C10.6969 24.0146 10.7456 23.9414 10.7784 23.8597L10.6586 23.8116ZM10.5446 23.9843L10.6359 24.0756L11.5487 23.1628L11.4574 23.0715L11.3661 22.9802L10.4533 23.893L10.5446 23.9843Z" fill="#330043" mask="url(#path-21-inside-2_79_6688)"/>
<mask id="path-23-inside-3_79_6688" fill="white">
<path d="M11.4599 23.0726C11.409 23.1234 11.3476 23.1636 11.2789 23.1898L10.366 24.1028C10.4346 24.0766 10.496 24.0364 10.5469 23.9855L11.4599 23.0726Z"/>
</mask>
<path d="M11.4599 23.0726C11.409 23.1234 11.3476 23.1636 11.2789 23.1898L10.366 24.1028C10.4346 24.0766 10.496 24.0364 10.5469 23.9855L11.4599 23.0726Z" fill="#FF4A97"/>
<path d="M11.2789 23.1898L11.2329 23.0692C11.2159 23.0756 11.2005 23.0856 11.1876 23.0985L11.2789 23.1898ZM11.4599 23.0726L11.5512 23.1639C11.6016 23.1135 11.6016 23.0317 11.5512 22.9813C11.5008 22.9309 11.419 22.9308 11.3686 22.9812L11.4599 23.0726ZM10.5469 23.9855L10.6382 24.0769L10.6382 24.0768L10.5469 23.9855ZM10.366 24.1028L10.2747 24.0115C10.2316 24.0545 10.2245 24.1219 10.2576 24.173C10.2907 24.2241 10.3551 24.2451 10.412 24.2234L10.366 24.1028ZM11.2789 23.1898L11.325 23.3104C11.4108 23.2777 11.4876 23.2274 11.5511 23.1639L11.4599 23.0726L11.3686 22.9812C11.3304 23.0194 11.2844 23.0495 11.2329 23.0692L11.2789 23.1898ZM11.4599 23.0726L11.3686 22.9813L10.4556 23.8942L10.5469 23.9855L10.6382 24.0768L11.5512 23.1639L11.4599 23.0726ZM10.5469 23.9855L10.4556 23.8942C10.4175 23.9324 10.3714 23.9625 10.3199 23.9821L10.366 24.1028L10.412 24.2234C10.4978 24.1907 10.5746 24.1404 10.6382 24.0769L10.5469 23.9855ZM10.366 24.1028L10.4573 24.1941L11.3702 23.2811L11.2789 23.1898L11.1876 23.0985L10.2747 24.0115L10.366 24.1028Z" fill="#330043" mask="url(#path-23-inside-3_79_6688)"/>
<path d="M17.1672 29.5705C17.227 29.5827 17.2854 29.5851 17.342 29.5793L16.6877 30.2346C16.6059 30.3165 16.4939 30.3662 16.3713 30.3664L17.1672 29.5705Z" fill="#FF4A97" stroke="#330043" stroke-width="0.129114" stroke-linejoin="round"/>
<path d="M17.0215 29.5352L16.2139 30.3428L13.7217 29.669L14.5293 28.8614L17.0215 29.5352Z" fill="#FF4A97" stroke="#330043" stroke-width="0.129114" stroke-linejoin="round"/>
<path d="M10.3257 24.0464L8.06787 24.9088L8.7583 24.2183L11.0142 23.358L10.3257 24.0464Z" fill="#FF4A97" stroke="#330043" stroke-width="0.129114" stroke-linejoin="round"/>
<path d="M13.5708 29.6323C13.5191 29.6222 13.4673 29.6195 13.4155 29.6235L14.1372 28.9018C14.207 28.8592 14.2864 28.8384 14.3667 28.8373L13.5708 29.6323Z" fill="#FF4A97" stroke="#330043" stroke-width="0.129114" stroke-linejoin="round"/>
<mask id="path-29-inside-4_79_6688" fill="white">
<path d="M8.72175 24.1625C8.65002 24.1899 8.58917 24.2303 8.53993 24.2796L7.62695 25.1926C7.6762 25.1433 7.73705 25.1029 7.80878 25.0755L8.72175 24.1625Z"/>
</mask>
<path d="M8.72175 24.1625C8.65002 24.1899 8.58917 24.2303 8.53993 24.2796L7.62695 25.1926C7.6762 25.1433 7.73705 25.1029 7.80878 25.0755L8.72175 24.1625Z" fill="#FF4A97"/>
<path d="M8.53993 24.2796L8.44864 24.1883L8.44863 24.1883L8.53993 24.2796ZM8.72175 24.1625L8.81305 24.2538C8.85613 24.2108 8.86323 24.1434 8.8301 24.0923C8.79698 24.0412 8.73262 24.0202 8.67571 24.0419L8.72175 24.1625ZM7.80878 25.0755L7.85482 25.1961C7.8718 25.1897 7.88722 25.1797 7.90008 25.1668L7.80878 25.0755ZM7.62695 25.1926L7.53566 25.1013C7.48524 25.1517 7.48523 25.2334 7.53565 25.2838C7.58606 25.3343 7.66781 25.3343 7.71824 25.2839L7.62695 25.1926ZM8.53993 24.2796L8.63121 24.3709C8.66769 24.3344 8.71315 24.304 8.76779 24.2832L8.72175 24.1625L8.67571 24.0419C8.58689 24.0758 8.51065 24.1263 8.44864 24.1883L8.53993 24.2796ZM8.72175 24.1625L8.63046 24.0712L7.71748 24.9842L7.80878 25.0755L7.90008 25.1668L8.81305 24.2538L8.72175 24.1625ZM7.80878 25.0755L7.76274 24.9549C7.67392 24.9888 7.59768 25.0393 7.53567 25.1012L7.62695 25.1926L7.71824 25.2839C7.75472 25.2474 7.80018 25.217 7.85482 25.1961L7.80878 25.0755ZM7.62695 25.1926L7.71825 25.2839L8.63122 24.3709L8.53993 24.2796L8.44863 24.1883L7.53566 25.1013L7.62695 25.1926Z" fill="#330043" mask="url(#path-29-inside-4_79_6688)"/>
<path d="M8.33203 24.5798C8.31331 24.7418 8.36207 24.9091 8.48535 25.0397L7.66309 25.862C7.49511 25.6805 7.5085 25.4044 7.67383 25.239L8.33203 24.5798Z" fill="#FF4A97" stroke="#330043" stroke-width="0.129114" stroke-linejoin="round"/>
<path d="M10.6697 26.885C10.7348 26.9556 10.7752 27.0439 10.7859 27.1399L9.98315 27.9426C9.95776 27.8542 9.91077 27.7747 9.84741 27.7073L10.6697 26.885Z" fill="#FF4A97" stroke="#330043" stroke-width="0.129114" stroke-linejoin="round"/>
<path d="M10.5764 26.798L9.75513 27.6183L7.75903 25.9503L8.58032 25.129L10.5764 26.798Z" fill="#FF4A97" stroke="#330043" stroke-width="0.129114" stroke-linejoin="round"/>
<path d="M13.1426 29.7144L11.3203 30.8589L11.8242 30.355L13.6465 29.2104L13.1426 29.7144Z" fill="#FF4A97" stroke="#330043" stroke-width="0.129114" stroke-linejoin="round"/>
<path d="M10.9277 29.866L10.1377 30.656L10.0088 28.1023L10.7988 27.3123L10.9277 29.866Z" fill="#FF4A97" stroke="#330043" stroke-width="0.129114" stroke-linejoin="round"/>
<path d="M10.9529 30.0256C11.0281 30.2946 11.2849 30.4642 11.5515 30.4456L10.8328 31.1643C10.5487 31.3383 10.1843 31.1557 10.1492 30.8293L10.9529 30.0256Z" fill="#FF4A97" stroke="#330043" stroke-width="0.129114" stroke-linejoin="round"/>
<path d="M12.6495 20.3886C12.7781 20.0682 13.2035 20.0046 13.4202 20.2733L15.1355 22.3993C15.2372 22.5253 15.3873 22.603 15.5488 22.614L18.2741 22.7987C18.6183 22.8221 18.8105 23.207 18.6223 23.496L17.13 25.784C17.0415 25.9197 17.0131 26.0868 17.0526 26.2439L17.7195 28.8931C17.8035 29.2278 17.4966 29.5294 17.1634 29.4394L14.526 28.7271C14.3699 28.6851 14.2033 28.71 14.0663 28.7959L11.7529 30.2489C11.4607 30.4324 11.0789 30.2338 11.0612 29.8893L10.9236 27.1609C10.9154 26.9991 10.8393 26.8476 10.715 26.7438L8.61842 24.9927C8.35385 24.7714 8.42504 24.3471 8.74731 24.224L11.2992 23.2497C11.4505 23.192 11.5712 23.0738 11.6316 22.9235L12.6495 20.3886Z" fill="#FFCD34" stroke="#330043" stroke-width="0.129114"/>
<path d="M31.4736 19.8278C31.4736 20.628 31.3197 21.3063 31.012 21.8626C30.7042 22.419 30.2875 22.8415 29.762 23.1304C29.2388 23.4192 28.6516 23.5636 28.0006 23.5636C27.3472 23.5636 26.7589 23.418 26.2357 23.1268C25.7125 22.8356 25.297 22.413 24.9892 21.8591C24.6838 21.3027 24.5311 20.6256 24.5311 19.8278C24.5311 19.0276 24.6838 18.3494 24.9892 17.793C25.297 17.2367 25.7125 16.8141 26.2357 16.5253C26.7589 16.2364 27.3472 16.092 28.0006 16.092C28.6516 16.092 29.2388 16.2364 29.762 16.5253C30.2875 16.8141 30.7042 17.2367 31.012 17.793C31.3197 18.3494 31.4736 19.0276 31.4736 19.8278ZM29.6767 19.8278C29.6767 19.3543 29.6093 18.9542 29.4743 18.6275C29.3417 18.3008 29.15 18.0534 28.899 17.8853C28.6505 17.7172 28.351 17.6332 28.0006 17.6332C27.6526 17.6332 27.3531 17.7172 27.1022 17.8853C26.8512 18.0534 26.6583 18.3008 26.5233 18.6275C26.3908 18.9542 26.3245 19.3543 26.3245 19.8278C26.3245 20.3013 26.3908 20.7014 26.5233 21.0281C26.6583 21.3548 26.8512 21.6022 27.1022 21.7703C27.3531 21.9384 27.6526 22.0224 28.0006 22.0224C28.351 22.0224 28.6505 21.9384 28.899 21.7703C29.15 21.6022 29.3417 21.3548 29.4743 21.0281C29.6093 20.7014 29.6767 20.3013 29.6767 19.8278ZM38.2289 20.8505H39.6493L40.253 21.6211L41.0449 22.5302L42.263 24.0324H40.672L39.8198 23.0132L39.3155 22.2887L38.2289 20.8505ZM42.3127 19.8278C42.3127 20.628 42.1588 21.3063 41.851 21.8626C41.5433 22.419 41.1266 22.8415 40.601 23.1304C40.0778 23.4192 39.4907 23.5636 38.8397 23.5636C38.1863 23.5636 37.5979 23.418 37.0747 23.1268C36.5515 22.8356 36.1361 22.413 35.8283 21.8591C35.5229 21.3027 35.3702 20.6256 35.3702 19.8278C35.3702 19.0276 35.5229 18.3494 35.8283 17.793C36.1361 17.2367 36.5515 16.8141 37.0747 16.5253C37.5979 16.2364 38.1863 16.092 38.8397 16.092C39.4907 16.092 40.0778 16.2364 40.601 16.5253C41.1266 16.8141 41.5433 17.2367 41.851 17.793C42.1588 18.3494 42.3127 19.0276 42.3127 19.8278ZM40.5158 19.8278C40.5158 19.3543 40.4483 18.9542 40.3134 18.6275C40.1808 18.3008 39.989 18.0534 39.7381 17.8853C39.4895 17.7172 39.19 17.6332 38.8397 17.6332C38.4917 17.6332 38.1922 17.7172 37.9412 17.8853C37.6903 18.0534 37.4973 18.3008 37.3624 18.6275C37.2298 18.9542 37.1635 19.3543 37.1635 19.8278C37.1635 20.3013 37.2298 20.7014 37.3624 21.0281C37.4973 21.3548 37.6903 21.6022 37.9412 21.7703C38.1922 21.9384 38.4917 22.0224 38.8397 22.0224C39.19 22.0224 39.4895 21.9384 39.7381 21.7703C39.989 21.6022 40.1808 21.3548 40.3134 21.0281C40.4483 20.7014 40.5158 20.3013 40.5158 19.8278ZM48.1486 16.1914H49.9028V20.8825C49.9028 21.4246 49.7738 21.8969 49.5158 22.2994C49.2577 22.6995 48.8979 23.0096 48.4362 23.2298C47.9746 23.4476 47.4383 23.5565 46.8276 23.5565C46.2097 23.5565 45.6699 23.4476 45.2082 23.2298C44.7466 23.0096 44.3879 22.6995 44.1322 22.2994C43.8766 21.8969 43.7487 21.4246 43.7487 20.8825V16.1914H45.5065V20.7298C45.5065 20.9807 45.561 21.2045 45.6699 21.401C45.7812 21.5975 45.9362 21.7513 46.1351 21.8626C46.3339 21.9739 46.5648 22.0295 46.8276 22.0295C47.0903 22.0295 47.32 21.9739 47.5165 21.8626C47.7153 21.7513 47.8704 21.5975 47.9817 21.401C48.0929 21.2045 48.1486 20.9807 48.1486 20.7298V16.1914ZM51.4046 23.4642V16.1914H56.4756V17.619H53.1624V19.1105H56.2164V20.5416H53.1624V22.0366H56.4756V23.4642H51.4046ZM62.1762 16.1914L63.8026 21.5181H63.863L65.4894 16.1914H67.4567L65.0029 23.4642H62.6627L60.2088 16.1914H62.1762ZM75.0744 19.8278C75.0744 20.628 74.9205 21.3063 74.6127 21.8626C74.305 22.419 73.8883 22.8415 73.3627 23.1304C72.8395 23.4192 72.2524 23.5636 71.6014 23.5636C70.948 23.5636 70.3597 23.418 69.8365 23.1268C69.3133 22.8356 68.8978 22.413 68.59 21.8591C68.2846 21.3027 68.1319 20.6256 68.1319 19.8278C68.1319 19.0276 68.2846 18.3494 68.59 17.793C68.8978 17.2367 69.3133 16.8141 69.8365 16.5253C70.3597 16.2364 70.948 16.092 71.6014 16.092C72.2524 16.092 72.8395 16.2364 73.3627 16.5253C73.8883 16.8141 74.305 17.2367 74.6127 17.793C74.9205 18.3494 75.0744 19.0276 75.0744 19.8278ZM73.2775 19.8278C73.2775 19.3543 73.21 18.9542 73.0751 18.6275C72.9425 18.3008 72.7508 18.0534 72.4998 17.8853C72.2512 17.7172 71.9518 17.6332 71.6014 17.6332C71.2534 17.6332 70.9539 17.7172 70.7029 17.8853C70.452 18.0534 70.2591 18.3008 70.1241 18.6275C69.9915 18.9542 69.9252 19.3543 69.9252 19.8278C69.9252 20.3013 69.9915 20.7014 70.1241 21.0281C70.2591 21.3548 70.452 21.6022 70.7029 21.7703C70.9539 21.9384 71.2534 22.0224 71.6014 22.0224C71.9518 22.0224 72.2512 21.9384 72.4998 21.7703C72.7508 21.6022 72.9425 21.3548 73.0751 21.0281C73.21 20.7014 73.2775 20.3013 73.2775 19.8278ZM83.1022 18.8264H81.3267C81.303 18.6441 81.2545 18.4796 81.1811 18.3328C81.1077 18.186 81.0106 18.0605 80.8899 17.9564C80.7691 17.8522 80.6259 17.7729 80.4602 17.7184C80.2968 17.6616 80.1157 17.6332 79.9169 17.6332C79.5641 17.6332 79.2599 17.7196 79.0042 17.8924C78.7509 18.0653 78.5556 18.315 78.4183 18.6417C78.2833 18.9684 78.2159 19.3638 78.2159 19.8278C78.2159 20.3108 78.2845 20.7156 78.4218 21.0423C78.5615 21.3666 78.7568 21.6117 79.0078 21.7774C79.2611 21.9407 79.5606 22.0224 79.9062 22.0224C80.1003 22.0224 80.2767 21.9976 80.4353 21.9478C80.5963 21.8981 80.7372 21.8259 80.8579 21.7312C80.981 21.6342 81.0816 21.517 81.1598 21.3797C81.2403 21.24 81.2959 21.0825 81.3267 20.9074L83.1022 20.918C83.0715 21.24 82.9779 21.5572 82.8217 21.8697C82.6678 22.1822 82.4559 22.4675 82.186 22.7255C81.9162 22.9812 81.5871 23.1848 81.1988 23.3363C80.8129 23.4878 80.3702 23.5636 79.8707 23.5636C79.2126 23.5636 78.6231 23.4192 78.1022 23.1304C77.5838 22.8392 77.1742 22.4154 76.8735 21.8591C76.5729 21.3027 76.4225 20.6256 76.4225 19.8278C76.4225 19.0276 76.5752 18.3494 76.8806 17.793C77.186 17.2367 77.5992 16.8141 78.12 16.5253C78.6408 16.2364 79.2244 16.092 79.8707 16.092C80.311 16.092 80.7182 16.1536 81.0923 16.2767C81.4663 16.3974 81.7954 16.575 82.0795 16.8093C82.3636 17.0414 82.5944 17.3266 82.772 17.6652C82.9495 18.0037 83.0596 18.3908 83.1022 18.8264ZM84.5081 23.4642V16.1914H89.5791V17.619H86.2659V19.1105H89.3199V20.5416H86.2659V22.0366H89.5791V23.4642H84.5081ZM87.7645 15.538L87.0578 14.7142L86.3547 15.538H84.8987V15.4919L86.4364 13.901H87.6828L89.2169 15.4919V15.538H87.7645ZM95.2797 16.1914L96.9061 21.5181H96.9665L98.5929 16.1914H100.56L98.1064 23.4642H95.7662L93.3124 16.1914H95.2797ZM102.232 23.4642H100.343L102.797 16.1914H105.137L107.591 23.4642H105.702L103.994 18.0238H103.937L102.232 23.4642ZM101.98 20.602H105.929V21.9372H101.98V20.602ZM110.532 16.1914V23.4642H108.774V16.1914H110.532ZM24.6093 34.4642V27.1914H29.6803V28.619H26.3671V30.1105H29.4211V31.5416H26.3671V33.0366H29.6803V34.4642H24.6093ZM35.1122 29.3718C35.0886 29.1114 34.9832 28.909 34.7962 28.7646C34.6115 28.6178 34.3476 28.5444 34.0043 28.5444C33.777 28.5444 33.5876 28.574 33.4361 28.6332C33.2846 28.6924 33.171 28.7741 33.0952 28.8782C33.0194 28.98 32.9804 29.0972 32.978 29.2298C32.9733 29.3387 32.9946 29.4346 33.0419 29.5174C33.0917 29.6003 33.1627 29.6737 33.255 29.7376C33.3497 29.7992 33.4633 29.8536 33.5959 29.901C33.7285 29.9483 33.8776 29.9897 34.0434 30.0253L34.6684 30.1673C35.0282 30.2454 35.3454 30.3496 35.6201 30.4798C35.897 30.61 36.1291 30.7651 36.3161 30.945C36.5055 31.1249 36.6487 31.3321 36.7458 31.5664C36.8428 31.8008 36.8926 32.0636 36.8949 32.3548C36.8926 32.8141 36.7765 33.2083 36.5469 33.5373C36.3173 33.8664 35.987 34.1185 35.5561 34.2937C35.1276 34.4689 34.6104 34.5565 34.0043 34.5565C33.3959 34.5565 32.8656 34.4654 32.4134 34.2831C31.9612 34.1008 31.6096 33.8238 31.3587 33.4521C31.1077 33.0804 30.9787 32.6105 30.9716 32.0423H32.6549C32.6691 32.2767 32.7318 32.472 32.8431 32.6282C32.9543 32.7845 33.107 32.9029 33.3012 32.9833C33.4977 33.0638 33.7249 33.1041 33.983 33.1041C34.2197 33.1041 34.421 33.0721 34.5867 33.0082C34.7548 32.9443 34.8838 32.8555 34.9738 32.7419C35.0637 32.6282 35.1099 32.498 35.1122 32.3512C35.1099 32.2139 35.0673 32.0967 34.9844 31.9997C34.9015 31.9003 34.7737 31.815 34.6009 31.744C34.4304 31.6706 34.2126 31.6031 33.9475 31.5416L33.1875 31.364C32.5578 31.2196 32.0618 30.9864 31.6996 30.6645C31.3374 30.3401 31.1575 29.9021 31.1598 29.3505C31.1575 28.9007 31.2782 28.5065 31.522 28.168C31.7659 27.8295 32.1033 27.5655 32.5341 27.3761C32.965 27.1867 33.4562 27.092 34.0078 27.092C34.5713 27.092 35.0602 27.1879 35.4745 27.3797C35.8911 27.569 36.2143 27.8354 36.4439 28.1787C36.6736 28.5219 36.7908 28.9197 36.7955 29.3718H35.1122ZM37.9448 28.619V27.1914H44.0918V28.619H41.8865V34.4642H40.1536V28.619H37.9448ZM49.7501 27.1914H51.5044V31.8825C51.5044 32.4246 51.3754 32.8969 51.1173 33.2994C50.8593 33.6995 50.4994 34.0096 50.0378 34.2298C49.5761 34.4476 49.0399 34.5565 48.4291 34.5565C47.8112 34.5565 47.2714 34.4476 46.8098 34.2298C46.3481 34.0096 45.9895 33.6995 45.7338 33.2994C45.4781 32.8969 45.3503 32.4246 45.3503 31.8825V27.1914H47.1081V31.7298C47.1081 31.9807 47.1625 32.2045 47.2714 32.401C47.3827 32.5975 47.5378 32.7513 47.7366 32.8626C47.9355 32.9739 48.1663 33.0295 48.4291 33.0295C48.6919 33.0295 48.9215 32.9739 49.118 32.8626C49.3169 32.7513 49.472 32.5975 49.5832 32.401C49.6945 32.2045 49.7501 31.9807 49.7501 31.7298V27.1914ZM55.6943 34.4642H53.0061V27.1914H55.6908C56.4318 27.1914 57.0698 27.337 57.6049 27.6282C58.1423 27.9171 58.5566 28.3337 58.8478 28.8782C59.139 29.4204 59.2845 30.069 59.2845 30.8243C59.2845 31.5818 59.139 32.2329 58.8478 32.7774C58.5589 33.3219 58.1458 33.7397 57.6084 34.0309C57.071 34.3198 56.433 34.4642 55.6943 34.4642ZM54.764 32.9656H55.6269C56.0341 32.9656 56.3785 32.8969 56.6603 32.7596C56.9443 32.6199 57.1586 32.3939 57.303 32.0814C57.4498 31.7665 57.5232 31.3475 57.5232 30.8243C57.5232 30.3011 57.4498 29.8844 57.303 29.5743C57.1562 29.2618 56.9396 29.0369 56.6532 28.8995C56.3691 28.7599 56.0187 28.69 55.602 28.69H54.764V32.9656ZM61.8543 34.4642H59.9651L62.4189 27.1914H64.7591L67.213 34.4642H65.3238L63.6157 29.0238H63.5588L61.8543 34.4642ZM61.6022 31.602H65.551V32.9372H61.6022V31.602ZM68.396 34.4642V27.1914H71.4002C71.9448 27.1914 72.4147 27.2897 72.81 27.4862C73.2078 27.6803 73.5144 27.9597 73.7298 28.3243C73.9452 28.6865 74.0529 29.1162 74.0529 29.6133C74.0529 30.1176 73.9429 30.5461 73.7227 30.8988C73.5025 31.2492 73.19 31.5167 72.7852 31.7014C72.3804 31.8837 71.901 31.9748 71.347 31.9748H69.4471V30.5899H71.0203C71.2854 30.5899 71.5068 30.5556 71.6843 30.4869C71.8643 30.4159 72.0004 30.3093 72.0927 30.1673C72.185 30.0229 72.2312 29.8382 72.2312 29.6133C72.2312 29.3884 72.185 29.2026 72.0927 29.0558C72.0004 28.9066 71.8643 28.7954 71.6843 28.722C71.5044 28.6462 71.2831 28.6083 71.0203 28.6083H70.1538V34.4642H68.396ZM72.4904 31.1403L74.3015 34.4642H72.3839L70.6083 31.1403H72.4904ZM76.7843 32.2376V32.092C76.7843 31.6896 76.8174 31.3688 76.8837 31.1297C76.9524 30.8905 77.0518 30.6988 77.182 30.5544C77.3122 30.4076 77.4708 30.2738 77.6578 30.1531C77.807 30.0584 77.9396 29.9625 78.0556 29.8655C78.1739 29.766 78.2675 29.6595 78.3361 29.5458C78.4048 29.4322 78.4391 29.3032 78.4391 29.1588C78.4391 29.0191 78.4059 28.896 78.3397 28.7895C78.2734 28.6829 78.1822 28.6012 78.0662 28.5444C77.9526 28.4852 77.8259 28.4556 77.6863 28.4556C77.5466 28.4556 77.4152 28.4876 77.2921 28.5515C77.1713 28.6155 77.0719 28.7066 76.9938 28.825C76.918 28.941 76.879 29.0818 76.8766 29.2476H75.2431C75.2502 28.7504 75.365 28.3432 75.5875 28.026C75.8124 27.7087 76.1095 27.4744 76.4789 27.3228C76.8482 27.169 77.2554 27.092 77.7005 27.092C78.1881 27.092 78.6214 27.1678 79.0002 27.3193C79.3813 27.4708 79.6808 27.6945 79.8986 27.9905C80.1164 28.2864 80.2253 28.6486 80.2253 29.0771C80.2253 29.3588 80.178 29.6074 80.0833 29.8228C79.9886 30.0383 79.856 30.2289 79.6855 30.3946C79.5175 30.5579 79.3198 30.7071 79.0925 30.842C78.9149 30.9462 78.767 31.0551 78.6486 31.1687C78.5326 31.2824 78.445 31.4126 78.3858 31.5593C78.3266 31.7038 78.297 31.8813 78.297 32.092V32.2376H76.7843ZM77.5691 34.5672C77.3134 34.5672 77.0944 34.4772 76.9121 34.2973C76.7322 34.1173 76.6434 33.8995 76.6458 33.6439C76.6434 33.3929 76.7322 33.1787 76.9121 33.0011C77.0944 32.8212 77.3134 32.7312 77.5691 32.7312C77.8129 32.7312 78.0272 32.8212 78.2118 33.0011C78.3965 33.1787 78.49 33.3929 78.4924 33.6439C78.49 33.8143 78.445 33.9694 78.3574 34.1091C78.2722 34.2487 78.1597 34.36 78.0201 34.4429C77.8827 34.5257 77.7324 34.5672 77.5691 34.5672Z" fill="#330043"/>
</svg>
