<svg width="138" height="117" viewBox="0 0 138 117" fill="none" xmlns="http://www.w3.org/2000/svg">
<rect width="138" height="117" rx="7.79661" fill="#FEF0ED"/>
<rect x="7" y="45.4761" width="124.746" height="15.2373" rx="3.11864" fill="#FF4A97"/>
<path d="M29.4922 53.5759C29.4922 52.9813 29.6209 52.4524 29.8782 51.9893C30.1355 51.5204 30.4928 51.1574 30.9502 50.9001C31.4133 50.6371 31.9365 50.5056 32.5197 50.5056C33.2344 50.5056 33.8461 50.6943 34.355 51.0716C34.8638 51.449 35.204 51.9635 35.3756 52.6153H33.7632C33.6432 52.3638 33.4716 52.1722 33.2486 52.0407C33.0314 51.9092 32.7827 51.8435 32.5025 51.8435C32.0508 51.8435 31.6849 52.0007 31.4047 52.3152C31.1246 52.6296 30.9845 53.0499 30.9845 53.5759C30.9845 54.1019 31.1246 54.5221 31.4047 54.8366C31.6849 55.1511 32.0508 55.3083 32.5025 55.3083C32.7827 55.3083 33.0314 55.2425 33.2486 55.111C33.4716 54.9795 33.6432 54.788 33.7632 54.5364H35.3756C35.204 55.1882 34.8638 55.7028 34.355 56.0802C33.8461 56.4518 33.2344 56.6376 32.5197 56.6376C31.9365 56.6376 31.4133 56.509 30.9502 56.2517C30.4928 55.9887 30.1355 55.6256 29.8782 55.1625C29.6209 54.6994 29.4922 54.1705 29.4922 53.5759ZM40.9992 51.8092V56.5947H39.5326V55.9429C39.384 56.1545 39.181 56.326 38.9237 56.4575C38.6722 56.5833 38.392 56.6462 38.0832 56.6462C37.7173 56.6462 37.3943 56.5661 37.1141 56.406C36.834 56.2402 36.6167 56.003 36.4623 55.6942C36.308 55.3855 36.2308 55.0224 36.2308 54.605V51.8092H37.6887V54.4078C37.6887 54.728 37.7716 54.9767 37.9375 55.1539C38.1033 55.3312 38.3262 55.4198 38.6064 55.4198C38.8923 55.4198 39.1181 55.3312 39.2839 55.1539C39.4497 54.9767 39.5326 54.728 39.5326 54.4078V51.8092H40.9992ZM43.5191 52.6068C43.6907 52.3438 43.9051 52.1379 44.1624 51.9893C44.4196 51.8349 44.7055 51.7577 45.02 51.7577V53.31H44.6169C44.251 53.31 43.9765 53.3901 43.7936 53.5502C43.6106 53.7045 43.5191 53.979 43.5191 54.3735V56.5947H42.0526V51.8092H43.5191V52.6068ZM47.6678 56.6633C47.2504 56.6633 46.8788 56.5919 46.5529 56.4489C46.227 56.306 45.9697 56.1116 45.781 55.8657C45.5923 55.6142 45.4865 55.334 45.4637 55.0253H46.9131C46.9302 55.1911 47.0074 55.3254 47.1446 55.4284C47.2818 55.5313 47.4505 55.5827 47.6506 55.5827C47.8336 55.5827 47.9737 55.5484 48.0709 55.4798C48.1738 55.4055 48.2252 55.3111 48.2252 55.1968C48.2252 55.0596 48.1538 54.9595 48.0108 54.8966C47.8679 54.828 47.6363 54.7537 47.3161 54.6736C46.9731 54.5936 46.6872 54.5107 46.4585 54.4249C46.2298 54.3334 46.0326 54.1934 45.8668 54.0047C45.7009 53.8103 45.618 53.5502 45.618 53.2243C45.618 52.9498 45.6924 52.7011 45.841 52.4781C45.9954 52.2494 46.2184 52.0693 46.51 51.9378C46.8073 51.8063 47.1589 51.7406 47.5649 51.7406C48.1652 51.7406 48.6369 51.8892 48.9799 52.1865C49.3287 52.4838 49.5288 52.8783 49.5803 53.37H48.2252C48.2024 53.2042 48.128 53.0727 48.0022 52.9755C47.8822 52.8783 47.7221 52.8297 47.522 52.8297C47.3504 52.8297 47.2189 52.864 47.1275 52.9327C47.036 52.9956 46.9902 53.0842 46.9902 53.1985C46.9902 53.3357 47.0617 53.4387 47.2046 53.5073C47.3533 53.5759 47.582 53.6445 47.8908 53.7131C48.2452 53.8046 48.534 53.8961 48.757 53.9875C48.9799 54.0733 49.1743 54.2162 49.3401 54.4164C49.5117 54.6107 49.6003 54.8738 49.606 55.2054C49.606 55.4855 49.526 55.7371 49.3659 55.9601C49.2115 56.1773 48.9857 56.3489 48.6883 56.4747C48.3968 56.6004 48.0566 56.6633 47.6678 56.6633ZM52.6816 56.6633C52.2128 56.6633 51.7897 56.5633 51.4123 56.3632C51.0407 56.1631 50.7462 55.8772 50.529 55.5055C50.3174 55.1339 50.2116 54.6994 50.2116 54.2019C50.2116 53.7102 50.3203 53.2786 50.5375 52.9069C50.7548 52.5296 51.0521 52.2408 51.4295 52.0407C51.8068 51.8406 52.2299 51.7406 52.6988 51.7406C53.1676 51.7406 53.5907 51.8406 53.968 52.0407C54.3454 52.2408 54.6427 52.5296 54.86 52.9069C55.0772 53.2786 55.1859 53.7102 55.1859 54.2019C55.1859 54.6937 55.0744 55.1282 54.8514 55.5055C54.6341 55.8772 54.334 56.1631 53.9509 56.3632C53.5735 56.5633 53.1504 56.6633 52.6816 56.6633ZM52.6816 55.394C52.9618 55.394 53.199 55.2911 53.3934 55.0853C53.5935 54.8795 53.6936 54.585 53.6936 54.2019C53.6936 53.8189 53.5964 53.5244 53.402 53.3186C53.2133 53.1128 52.9789 53.0098 52.6988 53.0098C52.4129 53.0098 52.1756 53.1128 51.9869 53.3186C51.7982 53.5187 51.7039 53.8132 51.7039 54.2019C51.7039 54.585 51.7954 54.8795 51.9783 55.0853C52.167 55.2911 52.4014 55.394 52.6816 55.394ZM57.4897 54.1934C57.4897 53.7017 57.5812 53.27 57.7642 52.8984C57.9529 52.5267 58.2073 52.2408 58.5275 52.0407C58.8477 51.8406 59.205 51.7406 59.5995 51.7406C59.914 51.7406 60.1998 51.8063 60.4571 51.9378C60.7201 52.0693 60.926 52.2466 61.0746 52.4695V50.2483H62.5412V56.5947H61.0746V55.9086C60.9374 56.1373 60.7401 56.3203 60.4829 56.4575C60.2313 56.5947 59.9368 56.6633 59.5995 56.6633C59.205 56.6633 58.8477 56.5633 58.5275 56.3632C58.2073 56.1573 57.9529 55.8686 57.7642 55.497C57.5812 55.1196 57.4897 54.6851 57.4897 54.1934ZM61.0746 54.2019C61.0746 53.836 60.9717 53.5473 60.7659 53.3357C60.5658 53.1242 60.3199 53.0184 60.0283 53.0184C59.7367 53.0184 59.488 53.1242 59.2822 53.3357C59.0821 53.5416 58.982 53.8274 58.982 54.1934C58.982 54.5593 59.0821 54.8509 59.2822 55.0682C59.488 55.2797 59.7367 55.3855 60.0283 55.3855C60.3199 55.3855 60.5658 55.2797 60.7659 55.0682C60.9717 54.8566 61.0746 54.5679 61.0746 54.2019ZM68.1133 54.1248C68.1133 54.262 68.1047 54.4049 68.0875 54.5536H64.7685C64.7914 54.8509 64.8857 55.0796 65.0515 55.2397C65.2231 55.394 65.4317 55.4712 65.6776 55.4712C66.0435 55.4712 66.298 55.3169 66.4409 55.0081H68.0018C67.9217 55.3226 67.7759 55.6056 67.5644 55.8572C67.3586 56.1087 67.0984 56.306 66.7839 56.4489C66.4695 56.5919 66.1179 56.6633 65.7291 56.6633C65.2602 56.6633 64.8428 56.5633 64.4769 56.3632C64.111 56.1631 63.8251 55.8772 63.6193 55.5055C63.4135 55.1339 63.3106 54.6994 63.3106 54.2019C63.3106 53.7045 63.4106 53.27 63.6107 52.8984C63.8166 52.5267 64.1024 52.2408 64.4683 52.0407C64.8343 51.8406 65.2545 51.7406 65.7291 51.7406C66.1922 51.7406 66.6038 51.8378 66.964 52.0322C67.3242 52.2265 67.6044 52.5038 67.8045 52.864C68.0103 53.2243 68.1133 53.6445 68.1133 54.1248ZM66.6124 53.7388C66.6124 53.4873 66.5267 53.2871 66.3551 53.1385C66.1836 52.9898 65.9692 52.9155 65.7119 52.9155C65.4661 52.9155 65.2574 52.987 65.0858 53.1299C64.92 53.2729 64.8171 53.4758 64.7771 53.7388H66.6124ZM73.7747 56.5947L72.5225 54.322H72.1709V56.5947H70.7044V50.5742H73.1658C73.6403 50.5742 74.0434 50.6571 74.375 50.8229C74.7123 50.9887 74.9639 51.2174 75.1297 51.509C75.2955 51.7949 75.3784 52.1151 75.3784 52.4695C75.3784 52.8698 75.2641 53.2271 75.0354 53.5416C74.8124 53.856 74.4808 54.079 74.0405 54.2105L75.4299 56.5947H73.7747ZM72.1709 53.2843H73.08C73.3487 53.2843 73.5488 53.2185 73.6803 53.087C73.8176 52.9555 73.8862 52.7697 73.8862 52.5296C73.8862 52.3009 73.8176 52.1208 73.6803 51.9893C73.5488 51.8578 73.3487 51.792 73.08 51.792H72.1709V53.2843ZM78.4774 56.6633C78.0086 56.6633 77.5855 56.5633 77.2081 56.3632C76.8365 56.1631 76.542 55.8772 76.3248 55.5055C76.1132 55.1339 76.0075 54.6994 76.0075 54.2019C76.0075 53.7102 76.1161 53.2786 76.3334 52.9069C76.5506 52.5296 76.8479 52.2408 77.2253 52.0407C77.6026 51.8406 78.0257 51.7406 78.4946 51.7406C78.9634 51.7406 79.3865 51.8406 79.7639 52.0407C80.1412 52.2408 80.4385 52.5296 80.6558 52.9069C80.8731 53.2786 80.9817 53.7102 80.9817 54.2019C80.9817 54.6937 80.8702 55.1282 80.6472 55.5055C80.43 55.8772 80.1298 56.1631 79.7467 56.3632C79.3694 56.5633 78.9463 56.6633 78.4774 56.6633ZM78.4774 55.394C78.7576 55.394 78.9949 55.2911 79.1893 55.0853C79.3894 54.8795 79.4894 54.585 79.4894 54.2019C79.4894 53.8189 79.3922 53.5244 79.1978 53.3186C79.0091 53.1128 78.7747 53.0098 78.4946 53.0098C78.2087 53.0098 77.9714 53.1128 77.7827 53.3186C77.5941 53.5187 77.4997 53.8132 77.4997 54.2019C77.4997 54.585 77.5912 54.8795 77.7742 55.0853C77.9628 55.2911 78.1973 55.394 78.4774 55.394ZM83.2263 52.4867C83.3635 52.2637 83.5607 52.0836 83.818 51.9464C84.0753 51.8092 84.3698 51.7406 84.7014 51.7406C85.0959 51.7406 85.4532 51.8406 85.7734 52.0407C86.0936 52.2408 86.3452 52.5267 86.5281 52.8984C86.7168 53.27 86.8111 53.7017 86.8111 54.1934C86.8111 54.6851 86.7168 55.1196 86.5281 55.497C86.3452 55.8686 86.0936 56.1573 85.7734 56.3632C85.4532 56.5633 85.0959 56.6633 84.7014 56.6633C84.364 56.6633 84.0696 56.5976 83.818 56.4661C83.5665 56.3289 83.3692 56.1488 83.2263 55.9258V56.5947H81.7597V50.2483H83.2263V52.4867ZM85.3189 54.1934C85.3189 53.8274 85.216 53.5416 85.0101 53.3357C84.81 53.1242 84.5613 53.0184 84.264 53.0184C83.9724 53.0184 83.7237 53.1242 83.5179 53.3357C83.3177 53.5473 83.2177 53.836 83.2177 54.2019C83.2177 54.5679 83.3177 54.8566 83.5179 55.0682C83.7237 55.2797 83.9724 55.3855 84.264 55.3855C84.5556 55.3855 84.8043 55.2797 85.0101 55.0682C85.216 54.8509 85.3189 54.5593 85.3189 54.1934ZM89.7589 56.6633C89.2901 56.6633 88.867 56.5633 88.4896 56.3632C88.118 56.1631 87.8235 55.8772 87.6063 55.5055C87.3947 55.1339 87.2889 54.6994 87.2889 54.2019C87.2889 53.7102 87.3976 53.2786 87.6148 52.9069C87.8321 52.5296 88.1294 52.2408 88.5068 52.0407C88.8841 51.8406 89.3072 51.7406 89.7761 51.7406C90.2449 51.7406 90.668 51.8406 91.0453 52.0407C91.4227 52.2408 91.72 52.5296 91.9373 52.9069C92.1545 53.2786 92.2632 53.7102 92.2632 54.2019C92.2632 54.6937 92.1517 55.1282 91.9287 55.5055C91.7114 55.8772 91.4113 56.1631 91.0282 56.3632C90.6508 56.5633 90.2277 56.6633 89.7589 56.6633ZM89.7589 55.394C90.0391 55.394 90.2763 55.2911 90.4707 55.0853C90.6708 54.8795 90.7709 54.585 90.7709 54.2019C90.7709 53.8189 90.6737 53.5244 90.4793 53.3186C90.2906 53.1128 90.0562 53.0098 89.7761 53.0098C89.4902 53.0098 89.2529 53.1128 89.0642 53.3186C88.8755 53.5187 88.7812 53.8132 88.7812 54.2019C88.7812 54.585 88.8727 54.8795 89.0556 55.0853C89.2443 55.2911 89.4787 55.394 89.7589 55.394ZM90.891 50.5828L88.8241 51.449V50.437L90.891 49.4421V50.5828ZM95.7084 55.3512V56.5947H94.9623C94.4306 56.5947 94.016 56.4661 93.7187 56.2088C93.4214 55.9458 93.2728 55.5198 93.2728 54.9309V53.027H92.6896V51.8092H93.2728V50.6428H94.7393V51.8092H95.6998V53.027H94.7393V54.9481C94.7393 55.091 94.7736 55.1939 94.8422 55.2568C94.9108 55.3197 95.0252 55.3512 95.1853 55.3512H95.7084ZM97.2629 51.3117C97.0056 51.3117 96.794 51.2374 96.6282 51.0888C96.4681 50.9344 96.3881 50.7457 96.3881 50.5227C96.3881 50.294 96.4681 50.1053 96.6282 49.9567C96.794 49.8023 97.0056 49.7251 97.2629 49.7251C97.5144 49.7251 97.7203 49.8023 97.8804 49.9567C98.0462 50.1053 98.1291 50.294 98.1291 50.5227C98.1291 50.7457 98.0462 50.9344 97.8804 51.0888C97.7203 51.2374 97.5144 51.3117 97.2629 51.3117ZM97.9919 51.8092V56.5947H96.5253V51.8092H97.9919ZM98.763 54.2019C98.763 53.7045 98.8631 53.27 99.0632 52.8984C99.269 52.5267 99.5521 52.2408 99.9123 52.0407C100.278 51.8406 100.696 51.7406 101.164 51.7406C101.765 51.7406 102.265 51.8978 102.665 52.2123C103.071 52.5267 103.337 52.9698 103.463 53.5416H101.902C101.77 53.1757 101.516 52.9927 101.139 52.9927C100.87 52.9927 100.656 53.0985 100.495 53.31C100.335 53.5158 100.255 53.8132 100.255 54.2019C100.255 54.5907 100.335 54.8909 100.495 55.1025C100.656 55.3083 100.87 55.4112 101.139 55.4112C101.516 55.4112 101.77 55.2282 101.902 54.8623H103.463C103.337 55.4226 103.071 55.8629 102.665 56.1831C102.259 56.5032 101.759 56.6633 101.164 56.6633C100.696 56.6633 100.278 56.5633 99.9123 56.3632C99.5521 56.1631 99.269 55.8772 99.0632 55.5055C98.8631 55.1339 98.763 54.6994 98.763 54.2019ZM103.956 54.1934C103.956 53.7017 104.047 53.27 104.23 52.8984C104.419 52.5267 104.673 52.2408 104.993 52.0407C105.314 51.8406 105.671 51.7406 106.065 51.7406C106.403 51.7406 106.697 51.8092 106.949 51.9464C107.206 52.0836 107.403 52.2637 107.541 52.4867V51.8092H109.007V56.5947H107.541V55.9172C107.398 56.1402 107.198 56.3203 106.94 56.4575C106.689 56.5947 106.394 56.6633 106.057 56.6633C105.668 56.6633 105.314 56.5633 104.993 56.3632C104.673 56.1573 104.419 55.8686 104.23 55.497C104.047 55.1196 103.956 54.6851 103.956 54.1934ZM107.541 54.2019C107.541 53.836 107.438 53.5473 107.232 53.3357C107.032 53.1242 106.786 53.0184 106.494 53.0184C106.203 53.0184 105.954 53.1242 105.748 53.3357C105.548 53.5416 105.448 53.8274 105.448 54.1934C105.448 54.5593 105.548 54.8509 105.748 55.0682C105.954 55.2797 106.203 55.3855 106.494 55.3855C106.786 55.3855 107.032 55.2797 107.232 55.0682C107.438 54.8566 107.541 54.5679 107.541 54.2019Z" fill="white"/>
<rect x="7" y="65.7134" width="124.746" height="14.2373" rx="3.11864" fill="#330043"/>
<path d="M39.3971 70.3588V73.6334C39.3971 73.9608 39.4777 74.2129 39.6388 74.3897C39.7999 74.5664 40.0364 74.6547 40.3483 74.6547C40.6602 74.6547 40.8993 74.5664 41.0656 74.3897C41.2319 74.2129 41.3151 73.9608 41.3151 73.6334V70.3588H42.6483V73.6256C42.6483 74.1142 42.5444 74.5274 42.3364 74.8653C42.1285 75.2031 41.8479 75.4578 41.4944 75.6293C41.1462 75.8008 40.7563 75.8866 40.3249 75.8866C39.8935 75.8866 39.5063 75.8034 39.1632 75.6371C38.8254 75.4656 38.5577 75.2109 38.3602 74.873C38.1627 74.53 38.0639 74.1142 38.0639 73.6256V70.3588H39.3971ZM46.2354 71.4347C46.7447 71.4347 47.1502 71.6011 47.4516 71.9337C47.7583 72.2612 47.9116 72.7134 47.9116 73.2903V75.832H46.5862V73.4697C46.5862 73.1786 46.5108 72.9525 46.3601 72.7914C46.2094 72.6302 46.0067 72.5497 45.752 72.5497C45.4973 72.5497 45.2946 72.6302 45.1438 72.7914C44.9931 72.9525 44.9177 73.1786 44.9177 73.4697V75.832H43.5845V71.4815H44.9177V72.0585C45.0529 71.8662 45.2348 71.7154 45.4635 71.6063C45.6922 71.4919 45.9495 71.4347 46.2354 71.4347ZM49.5086 71.0293C49.2747 71.0293 49.0824 70.9617 48.9316 70.8266C48.7861 70.6863 48.7133 70.5147 48.7133 70.312C48.7133 70.1041 48.7861 69.9326 48.9316 69.7975C49.0824 69.6571 49.2747 69.5869 49.5086 69.5869C49.7373 69.5869 49.9244 69.6571 50.0699 69.7975C50.2207 69.9326 50.2961 70.1041 50.2961 70.312C50.2961 70.5147 50.2207 70.6863 50.0699 70.8266C49.9244 70.9617 49.7373 71.0293 49.5086 71.0293ZM50.1713 71.4815V75.832H48.8381V71.4815H50.1713ZM53.0944 74.5846L54.0378 71.4815H55.4568L53.9131 75.832H52.268L50.7243 71.4815H52.151L53.0944 74.5846ZM60.119 73.5866C60.119 73.7114 60.1112 73.8413 60.0956 73.9764H57.0783C57.0991 74.2467 57.1849 74.4546 57.3356 74.6002C57.4915 74.7405 57.6812 74.8107 57.9047 74.8107C58.2374 74.8107 58.4687 74.6703 58.5986 74.3897H60.0176C59.9449 74.6755 59.8123 74.9328 59.62 75.1615C59.4329 75.3902 59.1964 75.5695 58.9105 75.6995C58.6246 75.8294 58.305 75.8944 57.9515 75.8944C57.5253 75.8944 57.1459 75.8034 56.8132 75.6215C56.4806 75.4396 56.2207 75.1797 56.0336 74.8419C55.8464 74.504 55.7529 74.109 55.7529 73.6568C55.7529 73.2046 55.8438 72.8095 56.0258 72.4717C56.2129 72.1338 56.4728 71.874 56.8054 71.692C57.1381 71.5101 57.5201 71.4191 57.9515 71.4191C58.3725 71.4191 58.7468 71.5075 59.0742 71.6842C59.4017 71.861 59.6564 72.113 59.8383 72.4405C60.0254 72.768 60.119 73.15 60.119 73.5866ZM58.7546 73.2358C58.7546 73.0071 58.6766 72.8251 58.5207 72.69C58.3647 72.5549 58.1698 72.4873 57.9359 72.4873C57.7124 72.4873 57.5227 72.5523 57.3668 72.6822C57.216 72.8121 57.1225 72.9967 57.0861 73.2358H58.7546ZM62.1555 72.2066C62.3115 71.9675 62.5064 71.7804 62.7403 71.6453C62.9742 71.5049 63.2341 71.4347 63.52 71.4347V72.8459H63.1535C62.8209 72.8459 62.5714 72.9187 62.405 73.0642C62.2387 73.2046 62.1555 73.4541 62.1555 73.8127V75.832H60.8223V71.4815H62.1555V72.2066ZM65.927 75.8944C65.5476 75.8944 65.2097 75.8294 64.9135 75.6995C64.6172 75.5695 64.3833 75.3928 64.2118 75.1693C64.0403 74.9406 63.9441 74.6859 63.9233 74.4053H65.2409C65.2565 74.556 65.3267 74.6781 65.4514 74.7717C65.5762 74.8653 65.7295 74.912 65.9114 74.912C66.0778 74.912 66.2051 74.8808 66.2935 74.8185C66.387 74.7509 66.4338 74.6651 66.4338 74.5612C66.4338 74.4364 66.3688 74.3455 66.2389 74.2883C66.109 74.2259 65.8984 74.1584 65.6074 74.0856C65.2955 74.0128 65.0356 73.9375 64.8277 73.8595C64.6198 73.7763 64.4405 73.649 64.2897 73.4775C64.139 73.3007 64.0636 73.0642 64.0636 72.768C64.0636 72.5185 64.1312 72.2924 64.2664 72.0897C64.4067 71.8817 64.6094 71.718 64.8745 71.5985C65.1448 71.4789 65.4644 71.4191 65.8335 71.4191C66.3792 71.4191 66.8081 71.5543 67.1199 71.8246C67.437 72.0949 67.6189 72.4535 67.6657 72.9005H66.4338C66.413 72.7498 66.3455 72.6302 66.2311 72.5419C66.122 72.4535 65.9764 72.4093 65.7945 72.4093C65.6386 72.4093 65.519 72.4405 65.4358 72.5029C65.3527 72.5601 65.3111 72.6406 65.3111 72.7446C65.3111 72.8693 65.3761 72.9629 65.506 73.0253C65.6412 73.0876 65.8491 73.15 66.1297 73.2124C66.452 73.2955 66.7145 73.3787 66.9172 73.4619C67.1199 73.5398 67.2966 73.6698 67.4474 73.8517C67.6033 74.0284 67.6839 74.2675 67.6891 74.569C67.6891 74.8237 67.6163 75.0524 67.4708 75.2551C67.3304 75.4526 67.1251 75.6085 66.8548 75.7229C66.5897 75.8372 66.2805 75.8944 65.927 75.8944ZM70.4851 75.8944C70.0589 75.8944 69.6742 75.8034 69.3312 75.6215C68.9933 75.4396 68.7256 75.1797 68.5281 74.8419C68.3358 74.504 68.2396 74.109 68.2396 73.6568C68.2396 73.2098 68.3384 72.8173 68.5359 72.4795C68.7334 72.1364 69.0037 71.874 69.3468 71.692C69.6898 71.5101 70.0744 71.4191 70.5007 71.4191C70.9269 71.4191 71.3115 71.5101 71.6546 71.692C71.9976 71.874 72.2679 72.1364 72.4654 72.4795C72.6629 72.8173 72.7617 73.2098 72.7617 73.6568C72.7617 74.1038 72.6603 74.4988 72.4576 74.8419C72.2601 75.1797 71.9872 75.4396 71.639 75.6215C71.2959 75.8034 70.9113 75.8944 70.4851 75.8944ZM70.4851 74.7405C70.7398 74.7405 70.9555 74.6469 71.1322 74.4598C71.3141 74.2727 71.4051 74.005 71.4051 73.6568C71.4051 73.3085 71.3167 73.0408 71.14 72.8537C70.9685 72.6666 70.7554 72.573 70.5007 72.573C70.2408 72.573 70.0251 72.6666 69.8535 72.8537C69.682 73.0356 69.5963 73.3033 69.5963 73.6568C69.5963 74.005 69.6794 74.2727 69.8457 74.4598C70.0173 74.6469 70.2304 74.7405 70.4851 74.7405ZM80.6724 71.4347C81.2129 71.4347 81.6418 71.5985 81.9588 71.9259C82.2811 72.2534 82.4422 72.7082 82.4422 73.2903V75.832H81.1168V73.4697C81.1168 73.189 81.0414 72.9733 80.8907 72.8225C80.7451 72.6666 80.5424 72.5886 80.2825 72.5886C80.0227 72.5886 79.8173 72.6666 79.6666 72.8225C79.5211 72.9733 79.4483 73.189 79.4483 73.4697V75.832H78.1229V73.4697C78.1229 73.189 78.0475 72.9733 77.8968 72.8225C77.7512 72.6666 77.5485 72.5886 77.2886 72.5886C77.0288 72.5886 76.8234 72.6666 76.6727 72.8225C76.5272 72.9733 76.4544 73.189 76.4544 73.4697V75.832H75.1212V71.4815H76.4544V72.0273C76.5895 71.8454 76.7663 71.7024 76.9846 71.5985C77.2029 71.4893 77.4498 71.4347 77.7253 71.4347C78.0527 71.4347 78.3438 71.5049 78.5985 71.6453C78.8584 71.7856 79.0611 71.9857 79.2066 72.2456C79.3573 72.0065 79.5627 71.8116 79.8225 71.6608C80.0824 71.5101 80.3657 71.4347 80.6724 71.4347ZM83.1095 73.649C83.1095 73.202 83.1927 72.8095 83.359 72.4717C83.5306 72.1338 83.7619 71.874 84.0529 71.692C84.344 71.5101 84.6689 71.4191 85.0275 71.4191C85.3342 71.4191 85.6019 71.4815 85.8306 71.6063C86.0645 71.731 86.2438 71.8947 86.3685 72.0975V71.4815H87.7017V75.832H86.3685V75.2161C86.2386 75.4188 86.0567 75.5825 85.8228 75.7073C85.5941 75.832 85.3264 75.8944 85.0197 75.8944C84.6663 75.8944 84.344 75.8034 84.0529 75.6215C83.7619 75.4344 83.5306 75.1719 83.359 74.8341C83.1927 74.491 83.1095 74.096 83.1095 73.649ZM86.3685 73.6568C86.3685 73.3241 86.275 73.0616 86.0878 72.8693C85.9059 72.677 85.6824 72.5808 85.4173 72.5808C85.1523 72.5808 84.9262 72.677 84.739 72.8693C84.5571 73.0564 84.4662 73.3163 84.4662 73.649C84.4662 73.9816 84.5571 74.2467 84.739 74.4442C84.9262 74.6366 85.1523 74.7327 85.4173 74.7327C85.6824 74.7327 85.9059 74.6366 86.0878 74.4442C86.275 74.2519 86.3685 73.9894 86.3685 73.6568ZM91.3249 75.832L89.9995 74.0076V75.832H88.6663V70.0625H89.9995V73.2514L91.3171 71.4815H92.9622L91.1534 73.6646L92.9778 75.832H91.3249ZM97.5869 73.5866C97.5869 73.7114 97.5791 73.8413 97.5635 73.9764H94.5462C94.567 74.2467 94.6528 74.4546 94.8035 74.6002C94.9594 74.7405 95.1491 74.8107 95.3726 74.8107C95.7053 74.8107 95.9366 74.6703 96.0665 74.3897H97.4855C97.4128 74.6755 97.2802 74.9328 97.0879 75.1615C96.9008 75.3902 96.6643 75.5695 96.3784 75.6995C96.0925 75.8294 95.7729 75.8944 95.4194 75.8944C94.9932 75.8944 94.6138 75.8034 94.2811 75.6215C93.9485 75.4396 93.6886 75.1797 93.5015 74.8419C93.3143 74.504 93.2208 74.109 93.2208 73.6568C93.2208 73.2046 93.3117 72.8095 93.4937 72.4717C93.6808 72.1338 93.9407 71.874 94.2733 71.692C94.606 71.5101 94.988 71.4191 95.4194 71.4191C95.8404 71.4191 96.2147 71.5075 96.5421 71.6842C96.8696 71.861 97.1243 72.113 97.3062 72.4405C97.4933 72.768 97.5869 73.15 97.5869 73.5866ZM96.2225 73.2358C96.2225 73.0071 96.1445 72.8251 95.9886 72.69C95.8326 72.5549 95.6377 72.4873 95.4038 72.4873C95.1803 72.4873 94.9906 72.5523 94.8347 72.6822C94.6839 72.8121 94.5904 72.9967 94.554 73.2358H96.2225ZM99.6234 72.2066C99.7794 71.9675 99.9743 71.7804 100.208 71.6453C100.442 71.5049 100.702 71.4347 100.988 71.4347V72.8459H100.621C100.289 72.8459 100.039 72.9187 99.8729 73.0642C99.7066 73.2046 99.6234 73.4541 99.6234 73.8127V75.832H98.2902V71.4815H99.6234V72.2066Z" fill="white"/>
<rect x="7" y="84.9507" width="124.746" height="14.2373" rx="3.11864" fill="#FC8370"/>
<path d="M29.3359 89.5961V95.0693H28.0027V89.5961H29.3359ZM32.9529 90.672C33.4623 90.672 33.8678 90.8384 34.1692 91.171C34.4759 91.4985 34.6292 91.9507 34.6292 92.5276V95.0693H33.3038V92.707C33.3038 92.4159 33.2284 92.1898 33.0777 92.0287C32.927 91.8675 32.7242 91.787 32.4696 91.787C32.2149 91.787 32.0122 91.8675 31.8614 92.0287C31.7107 92.1898 31.6353 92.4159 31.6353 92.707V95.0693H30.3021V90.7188H31.6353V91.2958C31.7705 91.1035 31.9524 90.9527 32.1811 90.8436C32.4098 90.7292 32.6671 90.672 32.9529 90.672ZM37.9804 93.9388V95.0693H37.3021C36.8187 95.0693 36.4419 94.9524 36.1716 94.7185C35.9013 94.4794 35.7662 94.0922 35.7662 93.5568V91.8259H35.236V90.7188H35.7662V89.6585H37.0994V90.7188H37.9726V91.8259H37.0994V93.5724C37.0994 93.7023 37.1306 93.7959 37.193 93.8531C37.2553 93.9102 37.3593 93.9388 37.5048 93.9388H37.9804ZM42.8241 92.8239C42.8241 92.9487 42.8163 93.0786 42.8007 93.2137H39.7834C39.8042 93.484 39.8899 93.6919 40.0407 93.8375C40.1966 93.9778 40.3863 94.048 40.6098 94.048C40.9425 94.048 41.1738 93.9076 41.3037 93.627H42.7227C42.6499 93.9128 42.5174 94.1701 42.3251 94.3988C42.138 94.6275 41.9015 94.8069 41.6156 94.9368C41.3297 95.0667 41.0101 95.1317 40.6566 95.1317C40.2304 95.1317 39.851 95.0407 39.5183 94.8588C39.1856 94.6769 38.9258 94.417 38.7386 94.0792C38.5515 93.7413 38.458 93.3463 38.458 92.8941C38.458 92.4419 38.5489 92.0468 38.7308 91.709C38.918 91.3711 39.1779 91.1113 39.5105 90.9293C39.8432 90.7474 40.2252 90.6565 40.6566 90.6565C41.0776 90.6565 41.4519 90.7448 41.7793 90.9215C42.1068 91.0983 42.3615 91.3504 42.5434 91.6778C42.7305 92.0053 42.8241 92.3873 42.8241 92.8239ZM41.4597 92.4731C41.4597 92.2444 41.3817 92.0624 41.2258 91.9273C41.0698 91.7922 40.8749 91.7246 40.641 91.7246C40.4175 91.7246 40.2278 91.7896 40.0719 91.9195C39.9211 92.0494 39.8276 92.234 39.7912 92.4731H41.4597ZM44.8606 89.2998V95.0693H43.5274V89.2998H44.8606ZM46.4973 90.2666C46.2634 90.2666 46.0711 90.1991 45.9204 90.0639C45.7748 89.9236 45.7021 89.752 45.7021 89.5493C45.7021 89.3414 45.7748 89.1699 45.9204 89.0348C46.0711 88.8944 46.2634 88.8243 46.4973 88.8243C46.726 88.8243 46.9131 88.8944 47.0587 89.0348C47.2094 89.1699 47.2848 89.3414 47.2848 89.5493C47.2848 89.752 47.2094 89.9236 47.0587 90.0639C46.9131 90.1991 46.726 90.2666 46.4973 90.2666ZM47.16 90.7188V95.0693H45.8268V90.7188H47.16ZM49.7791 90.6565C50.0857 90.6565 50.3534 90.7188 50.5821 90.8436C50.816 90.9683 50.9953 91.132 51.1201 91.3348V90.7188H52.4533V95.0615C52.4533 95.4618 52.3727 95.823 52.2116 96.1453C52.0557 96.4727 51.814 96.7326 51.4865 96.9249C51.1643 97.1172 50.7614 97.2134 50.2781 97.2134C49.6335 97.2134 49.1112 97.0601 48.7109 96.7534C48.3107 96.4519 48.082 96.0413 48.0248 95.5215H49.3425C49.384 95.6879 49.4828 95.8178 49.6387 95.9114C49.7947 96.0101 49.987 96.0595 50.2157 96.0595C50.4912 96.0595 50.7095 95.9789 50.8706 95.8178C51.0369 95.6619 51.1201 95.4098 51.1201 95.0615V94.4456C50.9901 94.6483 50.8108 94.8146 50.5821 94.9446C50.3534 95.0693 50.0857 95.1317 49.7791 95.1317C49.4204 95.1317 49.0956 95.0407 48.8045 94.8588C48.5134 94.6717 48.2821 94.4092 48.1106 94.0714C47.9443 93.7283 47.8611 93.3333 47.8611 92.8863C47.8611 92.4393 47.9443 92.0468 48.1106 91.709C48.2821 91.3711 48.5134 91.1113 48.8045 90.9293C49.0956 90.7474 49.4204 90.6565 49.7791 90.6565ZM51.1201 92.8941C51.1201 92.5614 51.0265 92.2989 50.8394 92.1066C50.6575 91.9143 50.434 91.8181 50.1689 91.8181C49.9038 91.8181 49.6777 91.9143 49.4906 92.1066C49.3087 92.2937 49.2177 92.5536 49.2177 92.8863C49.2177 93.2189 49.3087 93.484 49.4906 93.6815C49.6777 93.8739 49.9038 93.97 50.1689 93.97C50.434 93.97 50.6575 93.8739 50.8394 93.6815C51.0265 93.4892 51.1201 93.2267 51.1201 92.8941ZM57.5188 92.8239C57.5188 92.9487 57.5111 93.0786 57.4955 93.2137H54.4782C54.499 93.484 54.5847 93.6919 54.7355 93.8375C54.8914 93.9778 55.0811 94.048 55.3046 94.048C55.6373 94.048 55.8686 93.9076 55.9985 93.627H57.4175C57.3447 93.9128 57.2122 94.1701 57.0199 94.3988C56.8327 94.6275 56.5963 94.8069 56.3104 94.9368C56.0245 95.0667 55.7048 95.1317 55.3514 95.1317C54.9252 95.1317 54.5457 95.0407 54.2131 94.8588C53.8804 94.6769 53.6205 94.417 53.4334 94.0792C53.2463 93.7413 53.1527 93.3463 53.1527 92.8941C53.1527 92.4419 53.2437 92.0468 53.4256 91.709C53.6127 91.3711 53.8726 91.1113 54.2053 90.9293C54.5379 90.7474 54.92 90.6565 55.3514 90.6565C55.7724 90.6565 56.1466 90.7448 56.4741 90.9215C56.8016 91.0983 57.0563 91.3504 57.2382 91.6778C57.4253 92.0053 57.5188 92.3873 57.5188 92.8239ZM56.1544 92.4731C56.1544 92.2444 56.0765 92.0624 55.9205 91.9273C55.7646 91.7922 55.5697 91.7246 55.3358 91.7246C55.1123 91.7246 54.9226 91.7896 54.7666 91.9195C54.6159 92.0494 54.5224 92.234 54.486 92.4731H56.1544ZM55.3358 89.752L54.1273 90.3914V89.4714L55.3358 88.8554L56.5443 89.4714V90.3914L55.3358 89.752ZM60.873 90.672C61.3824 90.672 61.7878 90.8384 62.0893 91.171C62.396 91.4985 62.5493 91.9507 62.5493 92.5276V95.0693H61.2239V92.707C61.2239 92.4159 61.1485 92.1898 60.9978 92.0287C60.847 91.8675 60.6443 91.787 60.3896 91.787C60.135 91.787 59.9322 91.8675 59.7815 92.0287C59.6308 92.1898 59.5554 92.4159 59.5554 92.707V95.0693H58.2222V90.7188H59.5554V91.2958C59.6905 91.1035 59.8725 90.9527 60.1012 90.8436C60.3299 90.7292 60.5872 90.672 60.873 90.672ZM63.2107 92.8941C63.2107 92.4419 63.3016 92.0468 63.4836 91.709C63.6707 91.3711 63.928 91.1113 64.2554 90.9293C64.5881 90.7474 64.9675 90.6565 65.3937 90.6565C65.9395 90.6565 66.3943 90.7994 66.7581 91.0853C67.1272 91.3711 67.3689 91.774 67.4832 92.2937H66.0642C65.9447 91.9611 65.7134 91.7948 65.3703 91.7948C65.126 91.7948 64.9311 91.8909 64.7856 92.0832C64.6401 92.2704 64.5673 92.5406 64.5673 92.8941C64.5673 93.2475 64.6401 93.5204 64.7856 93.7127C64.9311 93.8998 65.126 93.9934 65.3703 93.9934C65.7134 93.9934 65.9447 93.8271 66.0642 93.4944H67.4832C67.3689 94.0038 67.1272 94.404 66.7581 94.6951C66.3891 94.9862 65.9343 95.1317 65.3937 95.1317C64.9675 95.1317 64.5881 95.0407 64.2554 94.8588C63.928 94.6769 63.6707 94.417 63.4836 94.0792C63.3016 93.7413 63.2107 93.3463 63.2107 92.8941ZM68.8669 90.2666C68.633 90.2666 68.4407 90.1991 68.2899 90.0639C68.1444 89.9236 68.0716 89.752 68.0716 89.5493C68.0716 89.3414 68.1444 89.1699 68.2899 89.0348C68.4407 88.8944 68.633 88.8243 68.8669 88.8243C69.0956 88.8243 69.2827 88.8944 69.4282 89.0348C69.579 89.1699 69.6543 89.3414 69.6543 89.5493C69.6543 89.752 69.579 89.9236 69.4282 90.0639C69.2827 90.1991 69.0956 90.2666 68.8669 90.2666ZM69.5296 90.7188V95.0693H68.1964V90.7188H69.5296ZM70.2307 92.8863C70.2307 92.4393 70.3138 92.0468 70.4802 91.709C70.6517 91.3711 70.883 91.1113 71.1741 90.9293C71.4651 90.7474 71.79 90.6565 72.1486 90.6565C72.4553 90.6565 72.723 90.7188 72.9517 90.8436C73.1856 90.9683 73.3649 91.132 73.4897 91.3348V90.7188H74.8229V95.0693H73.4897V94.4534C73.3597 94.6561 73.1778 94.8198 72.9439 94.9446C72.7152 95.0693 72.4475 95.1317 72.1408 95.1317C71.7874 95.1317 71.4651 95.0407 71.1741 94.8588C70.883 94.6717 70.6517 94.4092 70.4802 94.0714C70.3138 93.7283 70.2307 93.3333 70.2307 92.8863ZM73.4897 92.8941C73.4897 92.5614 73.3961 92.2989 73.209 92.1066C73.0271 91.9143 72.8036 91.8181 72.5385 91.8181C72.2734 91.8181 72.0473 91.9143 71.8602 92.1066C71.6782 92.2937 71.5873 92.5536 71.5873 92.8863C71.5873 93.2189 71.6782 93.484 71.8602 93.6815C72.0473 93.8739 72.2734 93.97 72.5385 93.97C72.8036 93.97 73.0271 93.8739 73.209 93.6815C73.3961 93.4892 73.4897 93.2267 73.4897 92.8941ZM80.8467 94.1026H78.804L78.4766 95.0693H77.081L79.0613 89.5961H80.605L82.5854 95.0693H81.1742L80.8467 94.1026ZM80.5037 93.0734L79.8254 91.0697L79.1549 93.0734H80.5037ZM84.5213 91.4439C84.6772 91.2048 84.8722 91.0177 85.1061 90.8826C85.34 90.7422 85.5998 90.672 85.8857 90.672V92.0832H85.5193C85.1866 92.0832 84.9371 92.156 84.7708 92.3015C84.6045 92.4419 84.5213 92.6914 84.5213 93.05V95.0693H83.1881V90.7188H84.5213V91.4439ZM88.9477 93.9388V95.0693H88.2694C87.786 95.0693 87.4092 94.9524 87.1389 94.7185C86.8686 94.4794 86.7335 94.0922 86.7335 93.5568V91.8259H86.2033V90.7188H86.7335V89.6585H88.0667V90.7188H88.9399V91.8259H88.0667V93.5724C88.0667 93.7023 88.0979 93.7959 88.1603 93.8531C88.2226 93.9102 88.3266 93.9388 88.4721 93.9388H88.9477ZM90.3608 90.2666C90.127 90.2666 89.9346 90.1991 89.7839 90.0639C89.6384 89.9236 89.5656 89.752 89.5656 89.5493C89.5656 89.3414 89.6384 89.1699 89.7839 89.0348C89.9346 88.8944 90.127 88.8243 90.3608 88.8243C90.5895 88.8243 90.7767 88.8944 90.9222 89.0348C91.0729 89.1699 91.1483 89.3414 91.1483 89.5493C91.1483 89.752 91.0729 89.9236 90.9222 90.0639C90.7767 90.1991 90.5895 90.2666 90.3608 90.2666ZM91.0236 90.7188V95.0693H89.6903V90.7188H91.0236ZM94.1728 91.8259H93.4555V95.0693H92.1223V91.8259H91.6389V90.7188H92.1223V90.5941C92.1223 90.0587 92.2756 89.6533 92.5823 89.3778C92.8889 89.0971 93.3385 88.9568 93.9311 88.9568C94.0298 88.9568 94.1026 88.9594 94.1494 88.9646V90.0951C93.8947 90.0795 93.7154 90.1159 93.6114 90.2043C93.5075 90.2926 93.4555 90.4511 93.4555 90.6798V90.7188H94.1728V91.8259ZM95.4698 90.2666C95.2359 90.2666 95.0435 90.1991 94.8928 90.0639C94.7473 89.9236 94.6745 89.752 94.6745 89.5493C94.6745 89.3414 94.7473 89.1699 94.8928 89.0348C95.0435 88.8944 95.2359 88.8243 95.4698 88.8243C95.6985 88.8243 95.8856 88.8944 96.0311 89.0348C96.1818 89.1699 96.2572 89.3414 96.2572 89.5493C96.2572 89.752 96.1818 89.9236 96.0311 90.0639C95.8856 90.1991 95.6985 90.2666 95.4698 90.2666ZM96.1325 90.7188V95.0693H94.7992V90.7188H96.1325ZM96.8336 92.8941C96.8336 92.4419 96.9245 92.0468 97.1064 91.709C97.2936 91.3711 97.5508 91.1113 97.8783 90.9293C98.211 90.7474 98.5904 90.6565 99.0166 90.6565C99.5624 90.6565 100.017 90.7994 100.381 91.0853C100.75 91.3711 100.992 91.774 101.106 92.2937H99.6871C99.5676 91.9611 99.3363 91.7948 98.9932 91.7948C98.7489 91.7948 98.554 91.8909 98.4085 92.0832C98.2629 92.2704 98.1902 92.5406 98.1902 92.8941C98.1902 93.2475 98.2629 93.5204 98.4085 93.7127C98.554 93.8998 98.7489 93.9934 98.9932 93.9934C99.3363 93.9934 99.5676 93.8271 99.6871 93.4944H101.106C100.992 94.0038 100.75 94.404 100.381 94.6951C100.012 94.9862 99.5572 95.1317 99.0166 95.1317C98.5904 95.1317 98.211 95.0407 97.8783 94.8588C97.5508 94.6769 97.2936 94.417 97.1064 94.0792C96.9245 93.7413 96.8336 93.3463 96.8336 92.8941ZM102.49 90.2666C102.256 90.2666 102.064 90.1991 101.913 90.0639C101.767 89.9236 101.695 89.752 101.695 89.5493C101.695 89.3414 101.767 89.1699 101.913 89.0348C102.064 88.8944 102.256 88.8243 102.49 88.8243C102.718 88.8243 102.906 88.8944 103.051 89.0348C103.202 89.1699 103.277 89.3414 103.277 89.5493C103.277 89.752 103.202 89.9236 103.051 90.0639C102.906 90.1991 102.718 90.2666 102.49 90.2666ZM103.152 90.7188V95.0693H101.819V90.7188H103.152ZM103.854 92.8863C103.854 92.4393 103.937 92.0468 104.103 91.709C104.275 91.3711 104.506 91.1113 104.797 90.9293C105.088 90.7474 105.413 90.6565 105.772 90.6565C106.078 90.6565 106.346 90.7188 106.575 90.8436C106.808 90.9683 106.988 91.132 107.113 91.3348V90.7188H108.446V95.0693H107.113V94.4534C106.983 94.6561 106.801 94.8198 106.567 94.9446C106.338 95.0693 106.07 95.1317 105.764 95.1317C105.41 95.1317 105.088 95.0407 104.797 94.8588C104.506 94.6717 104.275 94.4092 104.103 94.0714C103.937 93.7283 103.854 93.3333 103.854 92.8863ZM107.113 92.8941C107.113 92.5614 107.019 92.2989 106.832 92.1066C106.65 91.9143 106.426 91.8181 106.161 91.8181C105.896 91.8181 105.67 91.9143 105.483 92.1066C105.301 92.2937 105.21 92.5536 105.21 92.8863C105.21 93.2189 105.301 93.484 105.483 93.6815C105.67 93.8739 105.896 93.97 106.161 93.97C106.426 93.97 106.65 93.8739 106.832 93.6815C107.019 93.4892 107.113 93.2267 107.113 92.8941ZM110.744 89.2998V95.0693H109.41V89.2998H110.744Z" fill="white"/>
<path d="M11.835 21.1492C12.0156 20.9685 12.3299 20.9675 12.5059 21.1853L14.2207 23.3123C14.3223 23.4383 14.4723 23.5161 14.6338 23.5271L17.3594 23.7117C17.7037 23.735 17.8962 24.1198 17.708 24.4089L16.2158 26.697C16.1274 26.8326 16.0993 26.9991 16.1387 27.156L16.8057 29.8054C16.8474 29.9714 16.7928 30.1288 16.6865 30.2351C16.5783 30.3433 16.4172 30.3977 16.249 30.3523L13.6123 29.6404C13.4559 29.5982 13.2885 29.6226 13.1514 29.7087L10.8379 31.1619C10.5456 31.3452 10.1639 31.1462 10.1465 30.8015L10.0088 28.074C10.0006 27.9122 9.92509 27.7608 9.80078 27.657L7.7041 25.906C7.49114 25.7281 7.49523 25.4176 7.67383 25.239C7.71669 25.1962 7.76984 25.1606 7.83301 25.1365L10.3848 24.1628C10.4619 24.1334 10.5317 24.0882 10.5889 24.031C10.6437 23.9762 10.6872 23.9101 10.7168 23.8367L11.7354 21.3015C11.7595 21.2413 11.7938 21.1904 11.835 21.1492Z" fill="#FF4A97" stroke="#330043" stroke-width="0.129114"/>
<path d="M18.302 22.8014C18.6274 22.8423 18.8038 23.209 18.6252 23.4899L17.9104 24.2057C17.9304 23.9411 17.7649 23.6836 17.4983 23.6051L18.302 22.8014Z" fill="#FF4A97" stroke="#330043" stroke-width="0.129114" stroke-linejoin="round"/>
<path d="M18.1296 22.7893L17.3386 23.5803L14.7849 23.4075L15.5759 22.6165L18.1296 22.7893Z" fill="#FF4A97" stroke="#330043" stroke-width="0.129114" stroke-linejoin="round"/>
<path d="M17.1343 25.7749L16.6616 26.2476L17.8101 24.4868L18.2798 24.0171L17.1343 25.7749Z" fill="#FF4A97" stroke="#330043" stroke-width="0.129114" stroke-linejoin="round"/>
<path d="M15.0996 22.3536L14.2783 23.1749L12.6445 21.1505L13.4658 20.3292L15.0996 22.3536Z" fill="#FF4A97" stroke="#330043" stroke-width="0.129114" stroke-linejoin="round"/>
<path d="M15.1836 22.4506C15.2503 22.515 15.3297 22.5636 15.418 22.5902L14.6143 23.3939C14.5184 23.3814 14.4307 23.3384 14.3613 23.2719L15.1836 22.4506Z" fill="#FF4A97" stroke="#330043" stroke-width="0.129114" stroke-linejoin="round"/>
<path d="M12.749 20.2358C12.9169 20.068 13.1984 20.057 13.3789 20.231L12.5566 21.0532C12.4259 20.9259 12.2555 20.8744 12.0908 20.8931L12.749 20.2358Z" fill="#FF4A97" stroke="#330043" stroke-width="0.129114" stroke-linejoin="round"/>
<mask id="path-15-inside-1_79_8241" fill="white">
<path d="M12.5902 20.3636C12.6176 20.2952 12.6569 20.2371 12.7042 20.1898L11.7912 21.1028C11.7439 21.1501 11.7047 21.2082 11.6772 21.2765L12.5902 20.3636Z"/>
</mask>
<path d="M12.5902 20.3636C12.6176 20.2952 12.6569 20.2371 12.7042 20.1898L11.7912 21.1028C11.7439 21.1501 11.7047 21.2082 11.6772 21.2765L12.5902 20.3636Z" fill="#FF4A97"/>
<path d="M12.7042 20.1898L12.7955 20.2811C12.8459 20.2307 12.8459 20.1489 12.7955 20.0985C12.7451 20.0481 12.6633 20.0481 12.6129 20.0985L12.7042 20.1898ZM12.5902 20.3636L12.6815 20.4549C12.6938 20.4425 12.7035 20.4278 12.71 20.4117L12.5902 20.3636ZM11.6772 21.2765L11.5574 21.2284C11.5346 21.2853 11.5549 21.3505 11.6061 21.3843C11.6573 21.4181 11.7252 21.4112 11.7685 21.3678L11.6772 21.2765ZM11.7912 21.1028L11.6999 21.0115L11.6999 21.0115L11.7912 21.1028ZM12.7042 20.1898L12.6129 20.0985C12.5533 20.1581 12.5044 20.2309 12.4704 20.3155L12.5902 20.3636L12.71 20.4117C12.7309 20.3596 12.7605 20.3162 12.7955 20.2811L12.7042 20.1898ZM12.5902 20.3636L12.4989 20.2723L11.5859 21.1852L11.6772 21.2765L11.7685 21.3678L12.6815 20.4549L12.5902 20.3636ZM11.6772 21.2765L11.7971 21.3246C11.818 21.2726 11.8475 21.2291 11.8825 21.1941L11.7912 21.1028L11.6999 21.0115C11.6404 21.0711 11.5914 21.1439 11.5574 21.2284L11.6772 21.2765ZM11.7912 21.1028L11.8825 21.1941L12.7955 20.2811L12.7042 20.1898L12.6129 20.0985L11.6999 21.0115L11.7912 21.1028Z" fill="#330043" mask="url(#path-15-inside-1_79_8241)"/>
<path d="M17.0388 26.0543C17.0347 26.1041 17.0377 26.1539 17.0466 26.2037L16.2527 26.9977C16.2557 26.9191 16.2774 26.8417 16.3201 26.774L17.0388 26.0543Z" fill="#FF4A97" stroke="#330043" stroke-width="0.129114" stroke-linejoin="round"/>
<path d="M11.5156 22.8608L10.834 23.5425L11.7285 21.314L12.4102 20.6323L11.5156 22.8608Z" fill="#FF4A97" stroke="#330043" stroke-width="0.129114" stroke-linejoin="round"/>
<path d="M17.7087 28.8567L16.9021 29.6633L16.2722 27.1604L17.0789 26.3538L17.7087 28.8567Z" fill="#FF4A97" stroke="#330043" stroke-width="0.129114" stroke-linejoin="round"/>
<path d="M17.7317 29.0172C17.7287 29.1358 17.6792 29.2435 17.5999 29.3229L16.9436 29.9781C16.9492 29.9244 16.9483 29.8689 16.9377 29.8121L17.7317 29.0172Z" fill="#FF4A97" stroke="#330043" stroke-width="0.129114" stroke-linejoin="round"/>
<mask id="path-21-inside-2_79_8241" fill="white">
<path d="M11.5716 22.8988C11.5453 22.9643 11.5062 23.0229 11.4574 23.0717L10.5446 23.9845C10.5934 23.9357 10.6324 23.8771 10.6586 23.8118L11.5716 22.8988Z"/>
</mask>
<path d="M11.5716 22.8988C11.5453 22.9643 11.5062 23.0229 11.4574 23.0717L10.5446 23.9845C10.5934 23.9357 10.6324 23.8771 10.6586 23.8118L11.5716 22.8988Z" fill="#FF4A97"/>
<path d="M10.5446 23.9845L10.499 23.9388C10.4989 23.9389 10.4988 23.9389 10.4988 23.939L10.5444 23.9847L10.5901 24.0303C10.5902 24.0302 10.5902 24.0302 10.5903 24.0301L10.5446 23.9845ZM11.4574 23.0717L11.3661 22.9804L11.3661 22.9804L11.4574 23.0717ZM11.5716 22.8988L11.6914 22.9469C11.7143 22.89 11.6939 22.8249 11.6427 22.7911C11.5916 22.7573 11.5237 22.7641 11.4803 22.8075L11.5716 22.8988ZM10.6586 23.8118L10.5673 23.7205C10.555 23.7328 10.5453 23.7475 10.5388 23.7637L10.6586 23.8118ZM10.5446 23.9845L10.4533 23.8932C10.4029 23.9436 10.4029 24.0254 10.4533 24.0758C10.5038 24.1262 10.5855 24.1262 10.6359 24.0758L10.5446 23.9845ZM11.4574 23.0717L11.5487 23.163C11.6097 23.102 11.6586 23.0287 11.6914 22.9469L11.5716 22.8988L11.4518 22.8507C11.4321 22.8998 11.4028 22.9437 11.3661 22.9804L11.4574 23.0717ZM11.5716 22.8988L11.4803 22.8075L10.5673 23.7205L10.6586 23.8118L10.7499 23.9031L11.6629 22.9901L11.5716 22.8988ZM10.6586 23.8118L10.5388 23.7637C10.5191 23.8127 10.4899 23.8566 10.4533 23.8932L10.5446 23.9845L10.636 24.0757C10.6969 24.0148 10.7456 23.9416 10.7784 23.8599L10.6586 23.8118ZM10.5446 23.9845L10.6359 24.0758L11.5487 23.163L11.4574 23.0717L11.3661 22.9804L10.4533 23.8932L10.5446 23.9845Z" fill="#330043" mask="url(#path-21-inside-2_79_8241)"/>
<mask id="path-23-inside-3_79_8241" fill="white">
<path d="M11.4599 23.0726C11.409 23.1235 11.3476 23.1637 11.2789 23.1899L10.366 24.1028C10.4346 24.0766 10.496 24.0364 10.5469 23.9856L11.4599 23.0726Z"/>
</mask>
<path d="M11.4599 23.0726C11.409 23.1235 11.3476 23.1637 11.2789 23.1899L10.366 24.1028C10.4346 24.0766 10.496 24.0364 10.5469 23.9856L11.4599 23.0726Z" fill="#FF4A97"/>
<path d="M11.2789 23.1899L11.2329 23.0692C11.2159 23.0757 11.2005 23.0857 11.1876 23.0986L11.2789 23.1899ZM11.4599 23.0726L11.5512 23.1639C11.6016 23.1135 11.6016 23.0318 11.5512 22.9813C11.5008 22.9309 11.419 22.9309 11.3686 22.9813L11.4599 23.0726ZM10.5469 23.9856L10.6382 24.0769L10.6382 24.0769L10.5469 23.9856ZM10.366 24.1028L10.2747 24.0115C10.2316 24.0546 10.2245 24.1219 10.2576 24.173C10.2907 24.2242 10.3551 24.2452 10.412 24.2235L10.366 24.1028ZM11.2789 23.1899L11.325 23.3105C11.4108 23.2777 11.4876 23.2275 11.5511 23.164L11.4599 23.0726L11.3686 22.9813C11.3304 23.0194 11.2844 23.0496 11.2329 23.0692L11.2789 23.1899ZM11.4599 23.0726L11.3686 22.9813L10.4556 23.8943L10.5469 23.9856L10.6382 24.0769L11.5512 23.1639L11.4599 23.0726ZM10.5469 23.9856L10.4556 23.8943C10.4175 23.9324 10.3714 23.9626 10.3199 23.9822L10.366 24.1028L10.412 24.2235C10.4978 24.1907 10.5746 24.1405 10.6382 24.0769L10.5469 23.9856ZM10.366 24.1028L10.4573 24.1941L11.3702 23.2811L11.2789 23.1899L11.1876 23.0986L10.2747 24.0115L10.366 24.1028Z" fill="#330043" mask="url(#path-23-inside-3_79_8241)"/>
<path d="M17.1672 29.5707C17.227 29.5829 17.2854 29.5853 17.342 29.5795L16.6877 30.2347C16.6059 30.3166 16.4939 30.3663 16.3713 30.3666L17.1672 29.5707Z" fill="#FF4A97" stroke="#330043" stroke-width="0.129114" stroke-linejoin="round"/>
<path d="M17.0215 29.5353L16.2139 30.3429L13.7217 29.6691L14.5293 28.8615L17.0215 29.5353Z" fill="#FF4A97" stroke="#330043" stroke-width="0.129114" stroke-linejoin="round"/>
<path d="M10.3257 24.0466L8.06787 24.9089L8.7583 24.2185L11.0142 23.3582L10.3257 24.0466Z" fill="#FF4A97" stroke="#330043" stroke-width="0.129114" stroke-linejoin="round"/>
<path d="M13.5708 29.6324C13.5191 29.6223 13.4673 29.6197 13.4155 29.6237L14.1372 28.902C14.207 28.8594 14.2864 28.8386 14.3667 28.8375L13.5708 29.6324Z" fill="#FF4A97" stroke="#330043" stroke-width="0.129114" stroke-linejoin="round"/>
<mask id="path-29-inside-4_79_8241" fill="white">
<path d="M8.72175 24.1626C8.65002 24.19 8.58917 24.2304 8.53993 24.2796L7.62695 25.1926C7.6762 25.1434 7.73705 25.103 7.80878 25.0756L8.72175 24.1626Z"/>
</mask>
<path d="M8.72175 24.1626C8.65002 24.19 8.58917 24.2304 8.53993 24.2796L7.62695 25.1926C7.6762 25.1434 7.73705 25.103 7.80878 25.0756L8.72175 24.1626Z" fill="#FF4A97"/>
<path d="M8.53993 24.2796L8.44864 24.1883L8.44863 24.1883L8.53993 24.2796ZM8.72175 24.1626L8.81305 24.2539C8.85613 24.2108 8.86323 24.1435 8.8301 24.0924C8.79698 24.0413 8.73262 24.0202 8.67571 24.042L8.72175 24.1626ZM7.80878 25.0756L7.85482 25.1962C7.8718 25.1897 7.88722 25.1797 7.90008 25.1669L7.80878 25.0756ZM7.62695 25.1926L7.53566 25.1013C7.48524 25.1517 7.48523 25.2335 7.53565 25.2839C7.58606 25.3343 7.66781 25.3343 7.71824 25.2839L7.62695 25.1926ZM8.53993 24.2796L8.63121 24.371C8.66769 24.3345 8.71315 24.3041 8.76779 24.2832L8.72175 24.1626L8.67571 24.042C8.58689 24.0759 8.51065 24.1263 8.44864 24.1883L8.53993 24.2796ZM8.72175 24.1626L8.63046 24.0713L7.71748 24.9843L7.80878 25.0756L7.90008 25.1669L8.81305 24.2539L8.72175 24.1626ZM7.80878 25.0756L7.76274 24.9549C7.67392 24.9888 7.59768 25.0393 7.53567 25.1013L7.62695 25.1926L7.71824 25.2839C7.75472 25.2475 7.80018 25.2171 7.85482 25.1962L7.80878 25.0756ZM7.62695 25.1926L7.71825 25.2839L8.63122 24.3709L8.53993 24.2796L8.44863 24.1883L7.53566 25.1013L7.62695 25.1926Z" fill="#330043" mask="url(#path-29-inside-4_79_8241)"/>
<path d="M8.33203 24.58C8.31331 24.742 8.36207 24.9093 8.48535 25.0399L7.66309 25.8622C7.49511 25.6807 7.5085 25.4046 7.67383 25.2391L8.33203 24.58Z" fill="#FF4A97" stroke="#330043" stroke-width="0.129114" stroke-linejoin="round"/>
<path d="M10.6697 26.8851C10.7348 26.9557 10.7752 27.044 10.7859 27.14L9.98315 27.9427C9.95776 27.8544 9.91077 27.7749 9.84741 27.7074L10.6697 26.8851Z" fill="#FF4A97" stroke="#330043" stroke-width="0.129114" stroke-linejoin="round"/>
<path d="M10.5764 26.7981L9.75513 27.6184L7.75903 25.9504L8.58032 25.1292L10.5764 26.7981Z" fill="#FF4A97" stroke="#330043" stroke-width="0.129114" stroke-linejoin="round"/>
<path d="M13.1426 29.7145L11.3203 30.859L11.8242 30.3551L13.6465 29.2106L13.1426 29.7145Z" fill="#FF4A97" stroke="#330043" stroke-width="0.129114" stroke-linejoin="round"/>
<path d="M10.9277 29.8661L10.1377 30.6561L10.0088 28.1024L10.7988 27.3124L10.9277 29.8661Z" fill="#FF4A97" stroke="#330043" stroke-width="0.129114" stroke-linejoin="round"/>
<path d="M10.9529 30.0258C11.0281 30.2947 11.2849 30.4643 11.5515 30.4457L10.8328 31.1644C10.5487 31.3384 10.1843 31.1558 10.1492 30.8295L10.9529 30.0258Z" fill="#FF4A97" stroke="#330043" stroke-width="0.129114" stroke-linejoin="round"/>
<path d="M12.6495 20.3886C12.7781 20.0682 13.2035 20.0046 13.4202 20.2733L15.1355 22.3993C15.2372 22.5253 15.3873 22.603 15.5488 22.614L18.2741 22.7987C18.6183 22.8221 18.8105 23.207 18.6223 23.496L17.13 25.784C17.0415 25.9197 17.0131 26.0868 17.0526 26.2439L17.7195 28.8931C17.8035 29.2278 17.4966 29.5294 17.1634 29.4394L14.526 28.7271C14.3699 28.6851 14.2033 28.71 14.0663 28.7959L11.7529 30.2489C11.4607 30.4324 11.0789 30.2338 11.0612 29.8893L10.9236 27.1609C10.9154 26.9991 10.8393 26.8476 10.715 26.7438L8.61842 24.9927C8.35385 24.7714 8.42504 24.3471 8.74731 24.224L11.2992 23.2497C11.4505 23.192 11.5712 23.0738 11.6316 22.9235L12.6495 20.3886Z" fill="#FFCD34" stroke="#330043" stroke-width="0.129114"/>
<path d="M31.4736 19.8279C31.4736 20.6281 31.3197 21.3063 31.012 21.8627C30.7042 22.419 30.2875 22.8416 29.762 23.1304C29.2388 23.4193 28.6516 23.5637 28.0006 23.5637C27.3472 23.5637 26.7589 23.4181 26.2357 23.1269C25.7125 22.8357 25.297 22.4131 24.9892 21.8591C24.6838 21.3028 24.5311 20.6257 24.5311 19.8279C24.5311 19.0277 24.6838 18.3494 24.9892 17.7931C25.297 17.2367 25.7125 16.8141 26.2357 16.5253C26.7589 16.2365 27.3472 16.0921 28.0006 16.0921C28.6516 16.0921 29.2388 16.2365 29.762 16.5253C30.2875 16.8141 30.7042 17.2367 31.012 17.7931C31.3197 18.3494 31.4736 19.0277 31.4736 19.8279ZM29.6767 19.8279C29.6767 19.3544 29.6093 18.9543 29.4743 18.6276C29.3417 18.3009 29.15 18.0535 28.899 17.8854C28.6505 17.7173 28.351 17.6333 28.0006 17.6333C27.6526 17.6333 27.3531 17.7173 27.1022 17.8854C26.8512 18.0535 26.6583 18.3009 26.5233 18.6276C26.3908 18.9543 26.3245 19.3544 26.3245 19.8279C26.3245 20.3014 26.3908 20.7014 26.5233 21.0282C26.6583 21.3549 26.8512 21.6023 27.1022 21.7703C27.3531 21.9384 27.6526 22.0225 28.0006 22.0225C28.351 22.0225 28.6505 21.9384 28.899 21.7703C29.15 21.6023 29.3417 21.3549 29.4743 21.0282C29.6093 20.7014 29.6767 20.3014 29.6767 19.8279ZM38.2289 20.8506H39.6493L40.253 21.6212L41.0449 22.5303L42.263 24.0324H40.672L39.8198 23.0132L39.3155 22.2888L38.2289 20.8506ZM42.3127 19.8279C42.3127 20.6281 42.1588 21.3063 41.851 21.8627C41.5433 22.419 41.1266 22.8416 40.601 23.1304C40.0778 23.4193 39.4907 23.5637 38.8397 23.5637C38.1863 23.5637 37.5979 23.4181 37.0747 23.1269C36.5515 22.8357 36.1361 22.4131 35.8283 21.8591C35.5229 21.3028 35.3702 20.6257 35.3702 19.8279C35.3702 19.0277 35.5229 18.3494 35.8283 17.7931C36.1361 17.2367 36.5515 16.8141 37.0747 16.5253C37.5979 16.2365 38.1863 16.0921 38.8397 16.0921C39.4907 16.0921 40.0778 16.2365 40.601 16.5253C41.1266 16.8141 41.5433 17.2367 41.851 17.7931C42.1588 18.3494 42.3127 19.0277 42.3127 19.8279ZM40.5158 19.8279C40.5158 19.3544 40.4483 18.9543 40.3134 18.6276C40.1808 18.3009 39.989 18.0535 39.7381 17.8854C39.4895 17.7173 39.19 17.6333 38.8397 17.6333C38.4917 17.6333 38.1922 17.7173 37.9412 17.8854C37.6903 18.0535 37.4973 18.3009 37.3624 18.6276C37.2298 18.9543 37.1635 19.3544 37.1635 19.8279C37.1635 20.3014 37.2298 20.7014 37.3624 21.0282C37.4973 21.3549 37.6903 21.6023 37.9412 21.7703C38.1922 21.9384 38.4917 22.0225 38.8397 22.0225C39.19 22.0225 39.4895 21.9384 39.7381 21.7703C39.989 21.6023 40.1808 21.3549 40.3134 21.0282C40.4483 20.7014 40.5158 20.3014 40.5158 19.8279ZM48.1486 16.1915H49.9028V20.8826C49.9028 21.4247 49.7738 21.897 49.5158 22.2995C49.2577 22.6996 48.8979 23.0097 48.4362 23.2299C47.9746 23.4477 47.4383 23.5566 46.8276 23.5566C46.2097 23.5566 45.6699 23.4477 45.2082 23.2299C44.7466 23.0097 44.3879 22.6996 44.1322 22.2995C43.8766 21.897 43.7487 21.4247 43.7487 20.8826V16.1915H45.5065V20.7299C45.5065 20.9808 45.561 21.2045 45.6699 21.401C45.7812 21.5975 45.9362 21.7514 46.1351 21.8627C46.3339 21.9739 46.5648 22.0296 46.8276 22.0296C47.0903 22.0296 47.32 21.9739 47.5165 21.8627C47.7153 21.7514 47.8704 21.5975 47.9817 21.401C48.0929 21.2045 48.1486 20.9808 48.1486 20.7299V16.1915ZM51.4046 23.4642V16.1915H56.4756V17.6191H53.1624V19.1105H56.2164V20.5416H53.1624V22.0367H56.4756V23.4642H51.4046ZM62.1762 16.1915L63.8026 21.5182H63.863L65.4894 16.1915H67.4567L65.0029 23.4642H62.6627L60.2088 16.1915H62.1762ZM75.0744 19.8279C75.0744 20.6281 74.9205 21.3063 74.6127 21.8627C74.305 22.419 73.8883 22.8416 73.3627 23.1304C72.8395 23.4193 72.2524 23.5637 71.6014 23.5637C70.948 23.5637 70.3597 23.4181 69.8365 23.1269C69.3133 22.8357 68.8978 22.4131 68.59 21.8591C68.2846 21.3028 68.1319 20.6257 68.1319 19.8279C68.1319 19.0277 68.2846 18.3494 68.59 17.7931C68.8978 17.2367 69.3133 16.8141 69.8365 16.5253C70.3597 16.2365 70.948 16.0921 71.6014 16.0921C72.2524 16.0921 72.8395 16.2365 73.3627 16.5253C73.8883 16.8141 74.305 17.2367 74.6127 17.7931C74.9205 18.3494 75.0744 19.0277 75.0744 19.8279ZM73.2775 19.8279C73.2775 19.3544 73.21 18.9543 73.0751 18.6276C72.9425 18.3009 72.7508 18.0535 72.4998 17.8854C72.2512 17.7173 71.9518 17.6333 71.6014 17.6333C71.2534 17.6333 70.9539 17.7173 70.7029 17.8854C70.452 18.0535 70.2591 18.3009 70.1241 18.6276C69.9915 18.9543 69.9252 19.3544 69.9252 19.8279C69.9252 20.3014 69.9915 20.7014 70.1241 21.0282C70.2591 21.3549 70.452 21.6023 70.7029 21.7703C70.9539 21.9384 71.2534 22.0225 71.6014 22.0225C71.9518 22.0225 72.2512 21.9384 72.4998 21.7703C72.7508 21.6023 72.9425 21.3549 73.0751 21.0282C73.21 20.7014 73.2775 20.3014 73.2775 19.8279ZM83.1022 18.8264H81.3267C81.303 18.6442 81.2545 18.4796 81.1811 18.3328C81.1077 18.1861 81.0106 18.0606 80.8899 17.9564C80.7691 17.8523 80.6259 17.7729 80.4602 17.7185C80.2968 17.6617 80.1157 17.6333 79.9169 17.6333C79.5641 17.6333 79.2599 17.7197 79.0042 17.8925C78.7509 18.0653 78.5556 18.3151 78.4183 18.6418C78.2833 18.9685 78.2159 19.3639 78.2159 19.8279C78.2159 20.3108 78.2845 20.7157 78.4218 21.0424C78.5615 21.3667 78.7568 21.6117 79.0078 21.7774C79.2611 21.9408 79.5606 22.0225 79.9062 22.0225C80.1003 22.0225 80.2767 21.9976 80.4353 21.9479C80.5963 21.8982 80.7372 21.826 80.8579 21.7313C80.981 21.6342 81.0816 21.517 81.1598 21.3797C81.2403 21.24 81.2959 21.0826 81.3267 20.9074L83.1022 20.9181C83.0715 21.24 82.9779 21.5573 82.8217 21.8698C82.6678 22.1823 82.4559 22.4675 82.186 22.7256C81.9162 22.9813 81.5871 23.1849 81.1988 23.3364C80.8129 23.4879 80.3702 23.5637 79.8707 23.5637C79.2126 23.5637 78.6231 23.4193 78.1022 23.1304C77.5838 22.8392 77.1742 22.4155 76.8735 21.8591C76.5729 21.3028 76.4225 20.6257 76.4225 19.8279C76.4225 19.0277 76.5752 18.3494 76.8806 17.7931C77.186 17.2367 77.5992 16.8141 78.12 16.5253C78.6408 16.2365 79.2244 16.0921 79.8707 16.0921C80.311 16.0921 80.7182 16.1536 81.0923 16.2767C81.4663 16.3975 81.7954 16.575 82.0795 16.8094C82.3636 17.0414 82.5944 17.3267 82.772 17.6652C82.9495 18.0038 83.0596 18.3908 83.1022 18.8264ZM84.5081 23.4642V16.1915H89.5791V17.6191H86.2659V19.1105H89.3199V20.5416H86.2659V22.0367H89.5791V23.4642H84.5081ZM87.7645 15.5381L87.0578 14.7142L86.3547 15.5381H84.8987V15.4919L86.4364 13.901H87.6828L89.2169 15.4919V15.5381H87.7645ZM95.2797 16.1915L96.9061 21.5182H96.9665L98.5929 16.1915H100.56L98.1064 23.4642H95.7662L93.3124 16.1915H95.2797ZM102.232 23.4642H100.343L102.797 16.1915H105.137L107.591 23.4642H105.702L103.994 18.0239H103.937L102.232 23.4642ZM101.98 20.602H105.929V21.9372H101.98V20.602ZM110.532 16.1915V23.4642H108.774V16.1915H110.532ZM24.6093 34.4642V27.1915H29.6803V28.6191H26.3671V30.1105H29.4211V31.5416H26.3671V33.0367H29.6803V34.4642H24.6093ZM35.1122 29.3719C35.0886 29.1115 34.9832 28.9091 34.7962 28.7647C34.6115 28.6179 34.3476 28.5445 34.0043 28.5445C33.777 28.5445 33.5876 28.5741 33.4361 28.6333C33.2846 28.6925 33.171 28.7741 33.0952 28.8783C33.0194 28.9801 32.9804 29.0973 32.978 29.2299C32.9733 29.3388 32.9946 29.4346 33.0419 29.5175C33.0917 29.6004 33.1627 29.6738 33.255 29.7377C33.3497 29.7992 33.4633 29.8537 33.5959 29.901C33.7285 29.9484 33.8776 29.9898 34.0434 30.0253L34.6684 30.1674C35.0282 30.2455 35.3454 30.3497 35.6201 30.4799C35.897 30.6101 36.1291 30.7651 36.3161 30.9451C36.5055 31.125 36.6487 31.3321 36.7458 31.5665C36.8428 31.8009 36.8926 32.0637 36.8949 32.3549C36.8926 32.8141 36.7765 33.2083 36.5469 33.5374C36.3173 33.8665 35.987 34.1186 35.5561 34.2938C35.1276 34.469 34.6104 34.5566 34.0043 34.5566C33.3959 34.5566 32.8656 34.4654 32.4134 34.2831C31.9612 34.1008 31.6096 33.8238 31.3587 33.4522C31.1077 33.0805 30.9787 32.6105 30.9716 32.0424H32.6549C32.6691 32.2767 32.7318 32.472 32.8431 32.6283C32.9543 32.7845 33.107 32.9029 33.3012 32.9834C33.4977 33.0639 33.7249 33.1041 33.983 33.1041C34.2197 33.1041 34.421 33.0722 34.5867 33.0083C34.7548 32.9443 34.8838 32.8556 34.9738 32.7419C35.0637 32.6283 35.1099 32.4981 35.1122 32.3513C35.1099 32.214 35.0673 32.0968 34.9844 31.9997C34.9015 31.9003 34.7737 31.8151 34.6009 31.7441C34.4304 31.6707 34.2126 31.6032 33.9475 31.5416L33.1875 31.3641C32.5578 31.2197 32.0618 30.9865 31.6996 30.6645C31.3374 30.3402 31.1575 29.9022 31.1598 29.3506C31.1575 28.9008 31.2782 28.5066 31.522 28.1681C31.7659 27.8295 32.1033 27.5656 32.5341 27.3762C32.965 27.1868 33.4562 27.0921 34.0078 27.0921C34.5713 27.0921 35.0602 27.188 35.4745 27.3797C35.8911 27.5691 36.2143 27.8354 36.4439 28.1787C36.6736 28.522 36.7908 28.9197 36.7955 29.3719H35.1122ZM37.9448 28.6191V27.1915H44.0918V28.6191H41.8865V34.4642H40.1536V28.6191H37.9448ZM49.7501 27.1915H51.5044V31.8826C51.5044 32.4247 51.3754 32.897 51.1173 33.2995C50.8593 33.6996 50.4994 34.0097 50.0378 34.2299C49.5761 34.4477 49.0399 34.5566 48.4291 34.5566C47.8112 34.5566 47.2714 34.4477 46.8098 34.2299C46.3481 34.0097 45.9895 33.6996 45.7338 33.2995C45.4781 32.897 45.3503 32.4247 45.3503 31.8826V27.1915H47.1081V31.7299C47.1081 31.9808 47.1625 32.2045 47.2714 32.401C47.3827 32.5975 47.5378 32.7514 47.7366 32.8627C47.9355 32.9739 48.1663 33.0296 48.4291 33.0296C48.6919 33.0296 48.9215 32.9739 49.118 32.8627C49.3169 32.7514 49.472 32.5975 49.5832 32.401C49.6945 32.2045 49.7501 31.9808 49.7501 31.7299V27.1915ZM55.6943 34.4642H53.0061V27.1915H55.6908C56.4318 27.1915 57.0698 27.3371 57.6049 27.6283C58.1423 27.9171 58.5566 28.3338 58.8478 28.8783C59.139 29.4204 59.2845 30.0691 59.2845 30.8243C59.2845 31.5819 59.139 32.2329 58.8478 32.7774C58.5589 33.322 58.1458 33.7398 57.6084 34.031C57.071 34.3198 56.433 34.4642 55.6943 34.4642ZM54.764 32.9657H55.6269C56.0341 32.9657 56.3785 32.897 56.6603 32.7597C56.9443 32.62 57.1586 32.3939 57.303 32.0814C57.4498 31.7666 57.5232 31.3475 57.5232 30.8243C57.5232 30.3011 57.4498 29.8845 57.303 29.5743C57.1562 29.2618 56.9396 29.0369 56.6532 28.8996C56.3691 28.7599 56.0187 28.6901 55.602 28.6901H54.764V32.9657ZM61.8543 34.4642H59.9651L62.4189 27.1915H64.7591L67.213 34.4642H65.3238L63.6157 29.0239H63.5588L61.8543 34.4642ZM61.6022 31.602H65.551V32.9372H61.6022V31.602ZM68.396 34.4642V27.1915H71.4002C71.9448 27.1915 72.4147 27.2898 72.81 27.4863C73.2078 27.6804 73.5144 27.9597 73.7298 28.3243C73.9452 28.6865 74.0529 29.1162 74.0529 29.6134C74.0529 30.1176 73.9429 30.5461 73.7227 30.8989C73.5025 31.2493 73.19 31.5168 72.7852 31.7014C72.3804 31.8837 71.901 31.9749 71.347 31.9749H69.4471V30.5899H71.0203C71.2854 30.5899 71.5068 30.5556 71.6843 30.487C71.8643 30.4159 72.0004 30.3094 72.0927 30.1674C72.185 30.0229 72.2312 29.8383 72.2312 29.6134C72.2312 29.3885 72.185 29.2026 72.0927 29.0559C72.0004 28.9067 71.8643 28.7954 71.6843 28.722C71.5044 28.6463 71.2831 28.6084 71.0203 28.6084H70.1538V34.4642H68.396ZM72.4904 31.1404L74.3015 34.4642H72.3839L70.6083 31.1404H72.4904ZM76.7843 32.2377V32.0921C76.7843 31.6896 76.8174 31.3688 76.8837 31.1297C76.9524 30.8906 77.0518 30.6988 77.182 30.5544C77.3122 30.4077 77.4708 30.2739 77.6578 30.1532C77.807 30.0585 77.9396 29.9626 78.0556 29.8655C78.1739 29.7661 78.2675 29.6595 78.3361 29.5459C78.4048 29.4323 78.4391 29.3032 78.4391 29.1588C78.4391 29.0192 78.4059 28.8961 78.3397 28.7895C78.2734 28.683 78.1822 28.6013 78.0662 28.5445C77.9526 28.4853 77.8259 28.4557 77.6863 28.4557C77.5466 28.4557 77.4152 28.4877 77.2921 28.5516C77.1713 28.6155 77.0719 28.7067 76.9938 28.825C76.918 28.941 76.879 29.0819 76.8766 29.2476H75.2431C75.2502 28.7505 75.365 28.3433 75.5875 28.026C75.8124 27.7088 76.1095 27.4744 76.4789 27.3229C76.8482 27.169 77.2554 27.0921 77.7005 27.0921C78.1881 27.0921 78.6214 27.1678 79.0002 27.3193C79.3813 27.4709 79.6808 27.6946 79.8986 27.9905C80.1164 28.2864 80.2253 28.6487 80.2253 29.0772C80.2253 29.3589 80.178 29.6075 80.0833 29.8229C79.9886 30.0383 79.856 30.2289 79.6855 30.3946C79.5175 30.558 79.3198 30.7071 79.0925 30.8421C78.9149 30.9462 78.767 31.0551 78.6486 31.1688C78.5326 31.2824 78.445 31.4126 78.3858 31.5594C78.3266 31.7038 78.297 31.8814 78.297 32.0921V32.2377H76.7843ZM77.5691 34.5672C77.3134 34.5672 77.0944 34.4773 76.9121 34.2973C76.7322 34.1174 76.6434 33.8996 76.6458 33.6439C76.6434 33.393 76.7322 33.1787 76.9121 33.0012C77.0944 32.8212 77.3134 32.7313 77.5691 32.7313C77.8129 32.7313 78.0272 32.8212 78.2118 33.0012C78.3965 33.1787 78.49 33.393 78.4924 33.6439C78.49 33.8144 78.445 33.9694 78.3574 34.1091C78.2722 34.2488 78.1597 34.3601 78.0201 34.4429C77.8827 34.5258 77.7324 34.5672 77.5691 34.5672Z" fill="#330043"/>
</svg>
