<svg width="141" height="117" viewBox="0 0 141 117" fill="none" xmlns="http://www.w3.org/2000/svg">
<rect width="140.747" height="117" rx="7.95181" fill="#FEF0ED"/>
<rect x="6" y="43.421" width="127.229" height="16.3614" rx="3.18072" fill="#9854CB"/>
<path d="M14.8099 48.4613V54.6017H13.3142V48.4613H14.8099ZM19.8913 48.4613V49.6596H17.3896V50.9542H19.2615V52.1175H17.3896V54.6017H15.8939V48.4613H19.8913ZM27.6313 48.4613V54.6017H26.1355V50.9192L24.7622 54.6017H23.5552L22.1731 50.9105V54.6017H20.6774V48.4613H22.4443L24.1674 52.7123L25.8731 48.4613H27.6313ZM32.5293 53.5171H30.2376L29.8702 54.6017H28.3045L30.5262 48.4613H32.2581L34.4799 54.6017H32.8967L32.5293 53.5171ZM32.1444 52.3625L31.3834 50.1145L30.6312 52.3625H32.1444ZM36.7655 53.2197L35.7946 55.73H34.8412L35.3485 53.2197H36.7655ZM39.2673 51.5227C39.2673 50.9163 39.3985 50.3769 39.661 49.9046C39.9234 49.4264 40.2878 49.0561 40.7543 48.7937C41.2267 48.5254 41.7602 48.3913 42.355 48.3913C43.0839 48.3913 43.7079 48.5838 44.2269 48.9686C44.7459 49.3535 45.0928 49.8783 45.2678 50.5431H43.6233C43.5009 50.2865 43.3259 50.0912 43.0985 49.957C42.8769 49.8229 42.6233 49.7559 42.3375 49.7559C41.8769 49.7559 41.5037 49.9162 41.2179 50.2369C40.9322 50.5577 40.7893 50.9863 40.7893 51.5227C40.7893 52.0592 40.9322 52.4878 41.2179 52.8086C41.5037 53.1293 41.8769 53.2896 42.3375 53.2896C42.6233 53.2896 42.8769 53.2226 43.0985 53.0885C43.3259 52.9543 43.5009 52.759 43.6233 52.5024H45.2678C45.0928 53.1672 44.7459 53.692 44.2269 54.0769C43.7079 54.4559 43.0839 54.6454 42.355 54.6454C41.7602 54.6454 41.2267 54.5142 40.7543 54.2518C40.2878 53.9836 39.9234 53.6133 39.661 53.1409C39.3985 52.6686 39.2673 52.1292 39.2673 51.5227ZM45.8863 52.1525C45.8863 51.651 45.9797 51.2108 46.1663 50.8317C46.3587 50.4527 46.6182 50.1611 46.9447 49.957C47.2713 49.7529 47.6357 49.6509 48.0381 49.6509C48.3822 49.6509 48.6825 49.7209 48.939 49.8608C49.2015 50.0008 49.4026 50.1845 49.5426 50.4119V49.7209H51.0383V54.6017H49.5426V53.9107C49.3968 54.1381 49.1927 54.3218 48.9303 54.4617C48.6737 54.6017 48.3734 54.6717 48.0294 54.6717C47.6328 54.6717 47.2713 54.5696 46.9447 54.3655C46.6182 54.1556 46.3587 53.8611 46.1663 53.4821C45.9797 53.0972 45.8863 52.654 45.8863 52.1525ZM49.5426 52.1613C49.5426 51.7881 49.4376 51.4936 49.2277 51.2778C49.0236 51.0621 48.7729 50.9542 48.4755 50.9542C48.1781 50.9542 47.9244 51.0621 47.7145 51.2778C47.5104 51.4878 47.4083 51.7793 47.4083 52.1525C47.4083 52.5257 47.5104 52.8231 47.7145 53.0447C47.9244 53.2605 48.1781 53.3684 48.4755 53.3684C48.7729 53.3684 49.0236 53.2605 49.2277 53.0447C49.4376 52.829 49.5426 52.5345 49.5426 52.1613ZM58.3483 49.6684C58.9547 49.6684 59.4358 49.8521 59.7915 50.2194C60.1531 50.5868 60.3338 51.0971 60.3338 51.7502V54.6017H58.8469V51.9513C58.8469 51.6365 58.7623 51.3945 58.5932 51.2253C58.4299 51.0504 58.2025 50.9629 57.9109 50.9629C57.6194 50.9629 57.389 51.0504 57.2199 51.2253C57.0566 51.3945 56.975 51.6365 56.975 51.9513V54.6017H55.488V51.9513C55.488 51.6365 55.4035 51.3945 55.2344 51.2253C55.0711 51.0504 54.8437 50.9629 54.5521 50.9629C54.2605 50.9629 54.0302 51.0504 53.8611 51.2253C53.6978 51.3945 53.6162 51.6365 53.6162 51.9513V54.6017H52.1204V49.7209H53.6162V50.3332C53.7678 50.1291 53.966 49.9687 54.211 49.8521C54.4559 49.7296 54.7329 49.6684 55.0419 49.6684C55.4093 49.6684 55.7358 49.7471 56.0216 49.9046C56.3131 50.062 56.5406 50.2865 56.7038 50.5781C56.873 50.3098 57.1033 50.0912 57.3949 49.922C57.6864 49.7529 58.0042 49.6684 58.3483 49.6684ZM62.8757 50.4119C63.0214 50.1845 63.2226 50.0008 63.4792 49.8608C63.7358 49.7209 64.0361 49.6509 64.3801 49.6509C64.7825 49.6509 65.147 49.7529 65.4735 49.957C65.8001 50.1611 66.0567 50.4527 66.2433 50.8317C66.4357 51.2108 66.5319 51.651 66.5319 52.1525C66.5319 52.654 66.4357 53.0972 66.2433 53.4821C66.0567 53.8611 65.8001 54.1556 65.4735 54.3655C65.147 54.5696 64.7825 54.6717 64.3801 54.6717C64.0419 54.6717 63.7416 54.6017 63.4792 54.4617C63.2226 54.3218 63.0214 54.141 62.8757 53.9194V56.9284H61.3799V49.7209H62.8757V50.4119ZM65.0099 52.1525C65.0099 51.7793 64.905 51.4878 64.695 51.2778C64.4909 51.0621 64.2373 50.9542 63.934 50.9542C63.6367 50.9542 63.383 51.0621 63.1731 51.2778C62.969 51.4936 62.8669 51.7881 62.8669 52.1613C62.8669 52.5345 62.969 52.829 63.1731 53.0447C63.383 53.2605 63.6367 53.3684 63.934 53.3684C64.2314 53.3684 64.4851 53.2605 64.695 53.0447C64.905 52.8231 65.0099 52.5257 65.0099 52.1525ZM72.1362 49.7209V54.6017H70.6405V53.9369C70.4888 54.1527 70.2818 54.3276 70.0194 54.4617C69.7628 54.59 69.4771 54.6542 69.1622 54.6542C68.789 54.6542 68.4595 54.5725 68.1738 54.4093C67.8881 54.2401 67.6665 53.9981 67.509 53.6833C67.3516 53.3684 67.2729 52.9981 67.2729 52.5724V49.7209H68.7599V52.3712C68.7599 52.6978 68.8444 52.9514 69.0135 53.1322C69.1826 53.313 69.4101 53.4033 69.6958 53.4033C69.9874 53.4033 70.2177 53.313 70.3868 53.1322C70.5559 52.9514 70.6405 52.6978 70.6405 52.3712V49.7209H72.1362ZM75.1961 54.6717C74.7705 54.6717 74.3914 54.5988 74.059 54.453C73.7266 54.3072 73.4642 54.1089 73.2718 53.8582C73.0794 53.6016 72.9715 53.3159 72.9482 53.001H74.4264C74.4439 53.1701 74.5226 53.3071 74.6626 53.4121C74.8025 53.5171 74.9745 53.5695 75.1786 53.5695C75.3652 53.5695 75.5081 53.5346 75.6072 53.4646C75.7122 53.3888 75.7647 53.2926 75.7647 53.1759C75.7647 53.036 75.6918 52.9339 75.546 52.8698C75.4002 52.7998 75.1641 52.724 74.8375 52.6424C74.4876 52.5607 74.1961 52.4762 73.9628 52.3887C73.7296 52.2954 73.5284 52.1525 73.3593 51.9601C73.1902 51.7618 73.1056 51.4965 73.1056 51.1641C73.1056 50.8842 73.1814 50.6306 73.333 50.4031C73.4905 50.1699 73.7179 49.9862 74.0153 49.8521C74.3185 49.7179 74.6772 49.6509 75.0912 49.6509C75.7035 49.6509 76.1845 49.8025 76.5344 50.1057C76.8901 50.409 77.0942 50.8113 77.1467 51.3128H75.7647C75.7414 51.1437 75.6656 51.0096 75.5373 50.9105C75.4148 50.8113 75.2515 50.7618 75.0474 50.7618C74.8725 50.7618 74.7384 50.7967 74.6451 50.8667C74.5518 50.9309 74.5051 51.0213 74.5051 51.1379C74.5051 51.2778 74.578 51.3828 74.7238 51.4528C74.8754 51.5227 75.1087 51.5927 75.4236 51.6627C75.7851 51.756 76.0796 51.8493 76.307 51.9426C76.5344 52.0301 76.7327 52.1759 76.9018 52.3799C77.0767 52.5782 77.1671 52.8465 77.173 53.1847C77.173 53.4704 77.0913 53.727 76.928 53.9544C76.7706 54.176 76.5403 54.3509 76.237 54.4792C75.9396 54.6075 75.5927 54.6717 75.1961 54.6717ZM81.4374 48.4613V54.6017H79.9417V48.4613H81.4374ZM88.7492 49.6684C89.3556 49.6684 89.8367 49.8521 90.1924 50.2194C90.554 50.5868 90.7348 51.0971 90.7348 51.7502V54.6017H89.2478V51.9513C89.2478 51.6365 89.1632 51.3945 88.9941 51.2253C88.8308 51.0504 88.6034 50.9629 88.3118 50.9629C88.0203 50.9629 87.7899 51.0504 87.6208 51.2253C87.4575 51.3945 87.3759 51.6365 87.3759 51.9513V54.6017H85.8889V51.9513C85.8889 51.6365 85.8044 51.3945 85.6353 51.2253C85.472 51.0504 85.2446 50.9629 84.953 50.9629C84.6614 50.9629 84.4311 51.0504 84.262 51.2253C84.0987 51.3945 84.0171 51.6365 84.0171 51.9513V54.6017H82.5213V49.7209H84.0171V50.3332C84.1687 50.1291 84.3669 49.9687 84.6119 49.8521C84.8568 49.7296 85.1338 49.6684 85.4428 49.6684C85.8102 49.6684 86.1368 49.7471 86.4225 49.9046C86.7141 50.062 86.9415 50.2865 87.1048 50.5781C87.2739 50.3098 87.5042 50.0912 87.7958 49.922C88.0873 49.7529 88.4051 49.6684 88.7492 49.6684ZM93.2766 50.4119C93.4224 50.1845 93.6235 50.0008 93.8801 49.8608C94.1367 49.7209 94.437 49.6509 94.7811 49.6509C95.1834 49.6509 95.5479 49.7529 95.8744 49.957C96.201 50.1611 96.4576 50.4527 96.6442 50.8317C96.8366 51.2108 96.9328 51.651 96.9328 52.1525C96.9328 52.654 96.8366 53.0972 96.6442 53.4821C96.4576 53.8611 96.201 54.1556 95.8744 54.3655C95.5479 54.5696 95.1834 54.6717 94.7811 54.6717C94.4428 54.6717 94.1425 54.6017 93.8801 54.4617C93.6235 54.3218 93.4224 54.141 93.2766 53.9194V56.9284H91.7808V49.7209H93.2766V50.4119ZM95.4108 52.1525C95.4108 51.7793 95.3059 51.4878 95.0959 51.2778C94.8919 51.0621 94.6382 50.9542 94.335 50.9542C94.0376 50.9542 93.7839 51.0621 93.574 51.2778C93.3699 51.4936 93.2678 51.7881 93.2678 52.1613C93.2678 52.5345 93.3699 52.829 93.574 53.0447C93.7839 53.2605 94.0376 53.3684 94.335 53.3684C94.6324 53.3684 94.886 53.2605 95.0959 53.0447C95.3059 52.8231 95.4108 52.5257 95.4108 52.1525ZM102.318 52.0826C102.318 52.2225 102.31 52.3683 102.292 52.5199H98.9071C98.9304 52.8231 99.0266 53.0564 99.1958 53.2197C99.3707 53.3771 99.5835 53.4558 99.8343 53.4558C100.207 53.4558 100.467 53.2984 100.613 52.9835H102.205C102.123 53.3042 101.974 53.5929 101.759 53.8494C101.549 54.106 101.283 54.3072 100.963 54.453C100.642 54.5988 100.283 54.6717 99.8868 54.6717C99.4086 54.6717 98.9829 54.5696 98.6097 54.3655C98.2365 54.1614 97.9449 53.8699 97.735 53.4908C97.5251 53.1118 97.4201 52.6686 97.4201 52.1613C97.4201 51.6539 97.5222 51.2108 97.7263 50.8317C97.9362 50.4527 98.2278 50.1611 98.601 49.957C98.9742 49.7529 99.4028 49.6509 99.8868 49.6509C100.359 49.6509 100.779 49.75 101.146 49.9483C101.514 50.1466 101.799 50.4294 102.004 50.7967C102.213 51.1641 102.318 51.5927 102.318 52.0826ZM100.788 51.6889C100.788 51.4324 100.7 51.2283 100.525 51.0766C100.35 50.925 100.132 50.8492 99.8693 50.8492C99.6185 50.8492 99.4057 50.9221 99.2307 51.0679C99.0616 51.2137 98.9567 51.4207 98.9159 51.6889H100.788ZM104.603 50.5343C104.778 50.2661 104.997 50.0562 105.259 49.9046C105.522 49.7471 105.813 49.6684 106.134 49.6684V51.2516H105.723C105.35 51.2516 105.07 51.3332 104.883 51.4965C104.697 51.6539 104.603 51.9339 104.603 52.3362V54.6017H103.107V49.7209H104.603V50.5343ZM106.551 52.1525C106.551 51.651 106.645 51.2108 106.831 50.8317C107.024 50.4527 107.283 50.1611 107.61 49.957C107.936 49.7529 108.301 49.6509 108.703 49.6509C109.047 49.6509 109.348 49.7209 109.604 49.8608C109.867 50.0008 110.068 50.1845 110.208 50.4119V49.7209H111.703V54.6017H110.208V53.9107C110.062 54.1381 109.858 54.3218 109.595 54.4617C109.339 54.6017 109.039 54.6717 108.695 54.6717C108.298 54.6717 107.936 54.5696 107.61 54.3655C107.283 54.1556 107.024 53.8611 106.831 53.4821C106.645 53.0972 106.551 52.654 106.551 52.1525ZM110.208 52.1613C110.208 51.7881 110.103 51.4936 109.893 51.2778C109.689 51.0621 109.438 50.9542 109.141 50.9542C108.843 50.9542 108.59 51.0621 108.38 51.2778C108.176 51.4878 108.073 51.7793 108.073 52.1525C108.073 52.5257 108.176 52.8231 108.38 53.0447C108.59 53.2605 108.843 53.3684 109.141 53.3684C109.438 53.3684 109.689 53.2605 109.893 53.0447C110.103 52.829 110.208 52.5345 110.208 52.1613ZM115.506 53.3334V54.6017H114.745C114.203 54.6017 113.78 54.4705 113.477 54.2081C113.173 53.9398 113.022 53.5054 113.022 52.9048V50.9629H112.427V49.7209H113.022V48.5313H114.517V49.7209H115.497V50.9629H114.517V52.9223C114.517 53.068 114.552 53.173 114.622 53.2372C114.692 53.3013 114.809 53.3334 114.972 53.3334H115.506ZM117.835 50.5343C118.01 50.2661 118.228 50.0562 118.491 49.9046C118.753 49.7471 119.045 49.6684 119.365 49.6684V51.2516H118.954C118.581 51.2516 118.301 51.3332 118.115 51.4965C117.928 51.6539 117.835 51.9339 117.835 52.3362V54.6017H116.339V49.7209H117.835V50.5343ZM120.833 49.2135C120.57 49.2135 120.354 49.1377 120.185 48.9861C120.022 48.8287 119.94 48.6362 119.94 48.4088C119.94 48.1756 120.022 47.9831 120.185 47.8315C120.354 47.6741 120.57 47.5953 120.833 47.5953C121.089 47.5953 121.299 47.6741 121.462 47.8315C121.632 47.9831 121.716 48.1756 121.716 48.4088C121.716 48.6362 121.632 48.8287 121.462 48.9861C121.299 49.1377 121.089 49.2135 120.833 49.2135ZM121.576 49.7209V54.6017H120.08V49.7209H121.576ZM124.06 53.3684H126.176V54.6017H122.389V53.4121L124.418 50.9542H122.406V49.7209H126.133V50.9105L124.06 53.3684Z" fill="white"/>
<path d="M10.9292 19.507C11.1135 19.3226 11.4353 19.3216 11.6147 19.5441L13.3638 21.7131C13.4674 21.8415 13.62 21.9206 13.7847 21.9318L16.5649 22.1203C16.916 22.1443 17.1117 22.5374 16.9194 22.8322L15.3979 25.1652C15.3077 25.3036 15.2785 25.4738 15.3188 25.634L15.9995 28.3361C16.0419 28.5051 15.9866 28.6653 15.8784 28.7736C15.768 28.884 15.6036 28.9391 15.4321 28.8928L12.7427 28.1672C12.5832 28.1241 12.4128 28.1496 12.2729 28.2375L9.91357 29.7189C9.61542 29.9062 9.22528 29.7034 9.20752 29.3517L9.06787 26.5695C9.05955 26.4047 8.98247 26.2506 8.85596 26.1447L6.71729 24.3586C6.50006 24.1771 6.50388 23.86 6.68604 23.6779C6.72971 23.6343 6.78382 23.598 6.84814 23.5734L9.45166 22.5803C9.53026 22.5502 9.60042 22.5037 9.65869 22.4455C9.71469 22.3895 9.75942 22.3223 9.78955 22.2473L10.8276 19.6623C10.8522 19.6011 10.8873 19.549 10.9292 19.507Z" fill="#FF4A97" stroke="#330043" stroke-width="0.131684"/>
<path d="M17.5244 21.1911C17.8566 21.2327 18.0363 21.6076 17.8535 21.8942L17.125 22.6237C17.1454 22.3537 16.9763 22.0913 16.7041 22.0114L17.5244 21.1911Z" fill="#FF4A97" stroke="#330043" stroke-width="0.131684" stroke-linejoin="round"/>
<path d="M17.3521 21.1791L16.5454 21.9867L13.939 21.8109L14.7466 21.0033L17.3521 21.1791Z" fill="#FF4A97" stroke="#330043" stroke-width="0.131684" stroke-linejoin="round"/>
<path d="M16.332 24.2283L15.8516 24.7088L17.0264 22.908L17.5039 22.4315L16.332 24.2283Z" fill="#FF4A97" stroke="#330043" stroke-width="0.131684" stroke-linejoin="round"/>
<path d="M14.26 20.7347L13.4221 21.5726L11.7561 19.5072L12.594 18.6693L14.26 20.7347Z" fill="#FF4A97" stroke="#330043" stroke-width="0.131684" stroke-linejoin="round"/>
<path d="M14.3477 20.8334C14.4159 20.8996 14.4974 20.9488 14.5879 20.976L13.7676 21.7963C13.6699 21.7836 13.5805 21.7401 13.5098 21.6723L14.3477 20.8334Z" fill="#FF4A97" stroke="#330043" stroke-width="0.131684" stroke-linejoin="round"/>
<path d="M11.8611 18.5757C12.0323 18.4044 12.3196 18.3935 12.5037 18.5708L11.6658 19.4097C11.5321 19.2792 11.3577 19.2272 11.1892 19.2466L11.8611 18.5757Z" fill="#FF4A97" stroke="#330043" stroke-width="0.131684" stroke-linejoin="round"/>
<mask id="path-11-inside-1_79_6729" fill="white">
<path d="M11.7026 18.7059C11.7306 18.6362 11.7706 18.577 11.8189 18.5287L10.8877 19.4598C10.8395 19.5081 10.7995 19.5674 10.7715 19.637L11.7026 18.7059Z"/>
</mask>
<path d="M11.7026 18.7059C11.7306 18.6362 11.7706 18.577 11.8189 18.5287L10.8877 19.4598C10.8395 19.5081 10.7995 19.5674 10.7715 19.637L11.7026 18.7059Z" fill="#FF4A97"/>
<path d="M11.8189 18.5287L11.912 18.6218C11.9634 18.5704 11.9634 18.487 11.912 18.4356C11.8606 18.3841 11.7772 18.3841 11.7258 18.4356L11.8189 18.5287ZM11.7026 18.7059L11.7957 18.799C11.8083 18.7864 11.8182 18.7714 11.8248 18.7549L11.7026 18.7059ZM10.7715 19.637L10.6493 19.588C10.626 19.646 10.6467 19.7125 10.6989 19.7469C10.7511 19.7814 10.8204 19.7744 10.8646 19.7301L10.7715 19.637ZM10.8877 19.4598L10.7946 19.3667L10.7946 19.3667L10.8877 19.4598ZM11.8189 18.5287L11.7258 18.4356C11.665 18.4964 11.6151 18.5706 11.5804 18.6568L11.7026 18.7059L11.8248 18.7549C11.8462 18.7018 11.8763 18.6576 11.912 18.6218L11.8189 18.5287ZM11.7026 18.7059L11.6095 18.6128L10.6784 19.5439L10.7715 19.637L10.8646 19.7301L11.7957 18.799L11.7026 18.7059ZM10.7715 19.637L10.8937 19.6861C10.915 19.633 10.9451 19.5887 10.9809 19.5529L10.8877 19.4598L10.7946 19.3667C10.7339 19.4275 10.6839 19.5017 10.6493 19.588L10.7715 19.637ZM10.8877 19.4598L10.9809 19.5529L11.912 18.6218L11.8189 18.5287L11.7258 18.4356L10.7946 19.3667L10.8877 19.4598Z" fill="#330043" mask="url(#path-11-inside-1_79_6729)"/>
<path d="M16.2412 24.5099C16.237 24.561 16.2388 24.6121 16.248 24.6632L15.4395 25.4718C15.4426 25.3908 15.4644 25.3109 15.5088 25.2413L16.2412 24.5099Z" fill="#FF4A97" stroke="#330043" stroke-width="0.131684" stroke-linejoin="round"/>
<path d="M10.603 21.2541L9.91064 21.9465L10.8218 19.674L11.5171 18.9787L10.603 21.2541Z" fill="#FF4A97" stroke="#330043" stroke-width="0.131684" stroke-linejoin="round"/>
<path d="M16.9194 27.368L16.0981 28.1902L15.4546 25.6375L16.2778 24.8143L16.9194 27.368Z" fill="#FF4A97" stroke="#330043" stroke-width="0.131684" stroke-linejoin="round"/>
<path d="M16.9463 27.5322C16.9429 27.6526 16.893 27.7621 16.8125 27.8428L16.1436 28.5107C16.1493 28.4557 16.1476 28.3989 16.1367 28.3408L16.9463 27.5322Z" fill="#FF4A97" stroke="#330043" stroke-width="0.131684" stroke-linejoin="round"/>
<mask id="path-17-inside-2_79_6729" fill="white">
<path d="M10.6609 21.2918C10.6341 21.3586 10.5942 21.4183 10.5444 21.4681L9.61348 22.3991C9.6632 22.3493 9.70298 22.2896 9.72974 22.223L10.6609 21.2918Z"/>
</mask>
<path d="M10.6609 21.2918C10.6341 21.3586 10.5942 21.4183 10.5444 21.4681L9.61348 22.3991C9.6632 22.3493 9.70298 22.2896 9.72974 22.223L10.6609 21.2918Z" fill="#FF4A97"/>
<path d="M9.61348 22.3991L9.56691 22.3525C9.56682 22.3526 9.56686 22.3526 9.56672 22.3527L9.61328 22.3993L9.65984 22.4458C9.65987 22.4458 9.65989 22.4458 9.65993 22.4457C9.65996 22.4457 9.66001 22.4457 9.66005 22.4456L9.61348 22.3991ZM10.5444 21.4681L10.4513 21.375L10.4513 21.375L10.5444 21.4681ZM10.6609 21.2918L10.7831 21.3409C10.8064 21.2828 10.7856 21.2164 10.7334 21.1819C10.6812 21.1475 10.612 21.1545 10.5678 21.1987L10.6609 21.2918ZM9.72974 22.223L9.63662 22.1298C9.62405 22.1424 9.61416 22.1574 9.60753 22.1739L9.72974 22.223ZM9.61348 22.3991L9.52034 22.306C9.46893 22.3574 9.46895 22.4408 9.52038 22.4922C9.57181 22.5436 9.65517 22.5436 9.70659 22.4922L9.61348 22.3991ZM10.5444 21.4681L10.6375 21.5613C10.6998 21.499 10.7496 21.4243 10.7831 21.3409L10.6609 21.2918L10.5387 21.2428C10.5186 21.2928 10.4887 21.3376 10.4513 21.375L10.5444 21.4681ZM10.6609 21.2918L10.5678 21.1987L9.63662 22.1298L9.72974 22.223L9.82285 22.3161L10.754 21.3849L10.6609 21.2918ZM9.72974 22.223L9.60753 22.1739C9.58746 22.2239 9.55763 22.2687 9.52034 22.306L9.61348 22.3991L9.70662 22.4922C9.76876 22.43 9.81849 22.3553 9.85194 22.272L9.72974 22.223ZM9.61348 22.3991L9.70659 22.4922L10.6375 21.5612L10.5444 21.4681L10.4513 21.375L9.52036 22.306L9.61348 22.3991Z" fill="#330043" mask="url(#path-17-inside-2_79_6729)"/>
<mask id="path-19-inside-3_79_6729" fill="white">
<path d="M10.5459 21.4683C10.494 21.5202 10.4313 21.5612 10.3613 21.5879L9.43018 22.519C9.50016 22.4923 9.56283 22.4513 9.61471 22.3995L10.5459 21.4683Z"/>
</mask>
<path d="M10.5459 21.4683C10.494 21.5202 10.4313 21.5612 10.3613 21.5879L9.43018 22.519C9.50016 22.4923 9.56283 22.4513 9.61471 22.3995L10.5459 21.4683Z" fill="#FF4A97"/>
<path d="M10.3613 21.5879L10.3144 21.4648C10.297 21.4715 10.2813 21.4817 10.2682 21.4948L10.3613 21.5879ZM10.5459 21.4683L10.639 21.5614C10.6904 21.51 10.6904 21.4266 10.639 21.3752C10.5876 21.3238 10.5042 21.3238 10.4528 21.3752L10.5459 21.4683ZM9.61471 22.3995L9.7078 22.4926L9.70782 22.4926L9.61471 22.3995ZM9.43018 22.519L9.33706 22.4259C9.29313 22.4698 9.28588 22.5385 9.31967 22.5906C9.35346 22.6428 9.41909 22.6642 9.47713 22.642L9.43018 22.519ZM10.3613 21.5879L10.4083 21.7109C10.4958 21.6775 10.5741 21.6263 10.6389 21.5615L10.5459 21.4683L10.4528 21.3752C10.4139 21.4141 10.3669 21.4448 10.3144 21.4648L10.3613 21.5879ZM10.5459 21.4683L10.4527 21.3752L9.52159 22.3064L9.61471 22.3995L9.70782 22.4926L10.639 21.5614L10.5459 21.4683ZM9.61471 22.3995L9.52162 22.3063C9.48271 22.3452 9.43571 22.376 9.38322 22.396L9.43018 22.519L9.47713 22.642C9.56461 22.6087 9.64296 22.5574 9.7078 22.4926L9.61471 22.3995ZM9.43018 22.519L9.52329 22.6121L10.4544 21.681L10.3613 21.5879L10.2682 21.4948L9.33706 22.4259L9.43018 22.519Z" fill="#330043" mask="url(#path-19-inside-3_79_6729)"/>
<path d="M16.3679 28.0964C16.429 28.1088 16.4887 28.1112 16.5466 28.1052L15.8787 28.7741C15.7952 28.8574 15.6812 28.9086 15.5564 28.9089L16.3679 28.0964Z" fill="#FF4A97" stroke="#330043" stroke-width="0.131684" stroke-linejoin="round"/>
<path d="M16.2188 28.0597L15.3955 28.8829L12.8525 28.1964L13.6758 27.3732L16.2188 28.0597Z" fill="#FF4A97" stroke="#330043" stroke-width="0.131684" stroke-linejoin="round"/>
<path d="M9.39233 22.4619L7.09058 23.3408L7.79272 22.6377L10.0945 21.7588L9.39233 22.4619Z" fill="#FF4A97" stroke="#330043" stroke-width="0.131684" stroke-linejoin="round"/>
<path d="M12.7007 28.1602C12.6477 28.1498 12.5946 28.1463 12.5415 28.1504L13.2759 27.416C13.3476 27.3716 13.4294 27.3498 13.5122 27.3486L12.7007 28.1602Z" fill="#FF4A97" stroke="#330043" stroke-width="0.131684" stroke-linejoin="round"/>
<mask id="path-25-inside-4_79_6729" fill="white">
<path d="M7.75551 22.5809C7.68235 22.6088 7.62029 22.65 7.57006 22.7002L6.63892 23.6314C6.68914 23.5812 6.7512 23.5399 6.82436 23.512L7.75551 22.5809Z"/>
</mask>
<path d="M7.75551 22.5809C7.68235 22.6088 7.62029 22.65 7.57006 22.7002L6.63892 23.6314C6.68914 23.5812 6.7512 23.5399 6.82436 23.512L7.75551 22.5809Z" fill="#FF4A97"/>
<path d="M7.57006 22.7002L7.47696 22.6071L7.47695 22.6071L7.57006 22.7002ZM7.75551 22.5809L7.84862 22.674C7.89256 22.6301 7.89981 22.5614 7.86602 22.5093C7.83223 22.4571 7.7666 22.4357 7.70855 22.4578L7.75551 22.5809ZM6.82436 23.512L6.87132 23.635C6.88864 23.6284 6.90437 23.6182 6.91748 23.6051L6.82436 23.512ZM6.63892 23.6314L6.5458 23.5383C6.49438 23.5897 6.49437 23.6731 6.54579 23.7245C6.59721 23.7759 6.68059 23.7759 6.73202 23.7245L6.63892 23.6314ZM7.57006 22.7002L7.66316 22.7934C7.70037 22.7562 7.74673 22.7252 7.80247 22.7039L7.75551 22.5809L7.70855 22.4578C7.61796 22.4924 7.54021 22.5439 7.47696 22.6071L7.57006 22.7002ZM7.75551 22.5809L7.66239 22.4878L6.73125 23.4189L6.82436 23.512L6.91748 23.6051L7.84862 22.674L7.75551 22.5809ZM6.82436 23.512L6.7774 23.389C6.68681 23.4236 6.60906 23.475 6.54582 23.5383L6.63892 23.6314L6.73202 23.7245C6.76922 23.6873 6.81559 23.6563 6.87132 23.635L6.82436 23.512ZM6.63892 23.6314L6.73203 23.7245L7.66318 22.7934L7.57006 22.7002L7.47695 22.6071L6.5458 23.5383L6.63892 23.6314Z" fill="#330043" mask="url(#path-25-inside-4_79_6729)"/>
<path d="M7.35693 23.006C7.33779 23.1715 7.38807 23.3425 7.51416 23.4758L6.67529 24.3137C6.50394 24.1285 6.51727 23.8466 6.68604 23.6779L7.35693 23.006Z" fill="#FF4A97" stroke="#330043" stroke-width="0.131684" stroke-linejoin="round"/>
<path d="M9.74341 25.3574C9.81015 25.4296 9.85181 25.5198 9.86255 25.6181L9.04419 26.4365C9.01829 26.346 8.9704 26.2643 8.90552 26.1953L9.74341 25.3574Z" fill="#FF4A97" stroke="#330043" stroke-width="0.131684" stroke-linejoin="round"/>
<path d="M9.64722 25.2676L8.8103 26.1055L6.77319 24.4044L7.61108 23.5665L9.64722 25.2676Z" fill="#FF4A97" stroke="#330043" stroke-width="0.131684" stroke-linejoin="round"/>
<path d="M12.2678 28.2404L10.4075 29.4094L10.9231 28.8937L12.7805 27.7277L12.2678 28.2404Z" fill="#FF4A97" stroke="#330043" stroke-width="0.131684" stroke-linejoin="round"/>
<path d="M10.0081 28.3987L9.20239 29.2034L9.07056 26.5989L9.87622 25.7933L10.0081 28.3987Z" fill="#FF4A97" stroke="#330043" stroke-width="0.131684" stroke-linejoin="round"/>
<path d="M10.03 28.5604C10.1068 28.8347 10.3695 29.0071 10.6414 28.9881L9.90698 29.7225C9.61747 29.8985 9.24638 29.712 9.21069 29.3797L10.03 28.5604Z" fill="#FF4A97" stroke="#330043" stroke-width="0.131684" stroke-linejoin="round"/>
<path d="M11.7619 18.7322C11.8931 18.4055 12.3271 18.3406 12.5481 18.6146L14.2974 20.783C14.401 20.9114 14.5536 20.9911 14.7183 21.0024L17.4984 21.1908C17.8496 21.2146 18.0458 21.607 17.8536 21.9019L16.3316 24.2358C16.2414 24.3741 16.2133 24.5435 16.2535 24.7037L16.9334 27.4063C17.0189 27.7475 16.7057 28.0549 16.366 27.9631L13.6762 27.2369C13.5168 27.1939 13.3466 27.2194 13.2068 27.3072L10.8473 28.7888C10.5493 28.9759 10.1598 28.7737 10.1418 28.4224L10.0008 25.6391C9.99247 25.4742 9.91592 25.3205 9.78922 25.2146L7.65079 23.4283C7.38072 23.2026 7.45347 22.7699 7.78233 22.6444L10.3856 21.6506C10.5398 21.5916 10.6624 21.4708 10.7239 21.3176L11.7619 18.7322Z" fill="#FFCD34" stroke="#330043" stroke-width="0.131684"/>
<path d="M23.9489 14.1363H26.1257L27.9723 18.6392H28.0575L29.9041 14.1363H32.081V21.4091H30.3693V16.9417H30.3089L28.5618 21.3629H27.468L25.7209 16.9169H25.6605V21.4091H23.9489V14.1363ZM34.5505 21.4091H32.6613L35.1152 14.1363H37.4554L39.9092 21.4091H38.02L36.3119 15.9687H36.2551L34.5505 21.4091ZM34.2984 18.5468H38.2473V19.8821H34.2984V18.5468ZM44.1987 16.3167C44.175 16.0563 44.0697 15.8539 43.8827 15.7095C43.698 15.5627 43.434 15.4893 43.0908 15.4893C42.8635 15.4893 42.6741 15.5189 42.5226 15.5781C42.3711 15.6373 42.2574 15.719 42.1817 15.8231C42.1059 15.9249 42.0669 16.0421 42.0645 16.1747C42.0598 16.2836 42.0811 16.3795 42.1284 16.4623C42.1781 16.5452 42.2491 16.6186 42.3415 16.6825C42.4362 16.744 42.5498 16.7985 42.6824 16.8458C42.815 16.8932 42.9641 16.9346 43.1298 16.9701L43.7548 17.1122C44.1147 17.1903 44.4319 17.2945 44.7065 17.4247C44.9835 17.5549 45.2155 17.71 45.4026 17.8899C45.592 18.0698 45.7352 18.277 45.8322 18.5113C45.9293 18.7457 45.979 19.0085 45.9814 19.2997C45.979 19.759 45.863 20.1531 45.6334 20.4822C45.4037 20.8113 45.0735 21.0634 44.6426 21.2386C44.2141 21.4138 43.6968 21.5014 43.0908 21.5014C42.4823 21.5014 41.952 21.4102 41.4999 21.2279C41.0477 21.0457 40.6961 20.7687 40.4452 20.397C40.1942 20.0253 40.0652 19.5554 40.0581 18.9872H41.7413C41.7555 19.2216 41.8183 19.4169 41.9295 19.5731C42.0408 19.7294 42.1935 19.8477 42.3876 19.9282C42.5841 20.0087 42.8114 20.049 43.0695 20.049C43.3062 20.049 43.5074 20.017 43.6732 19.9531C43.8412 19.8892 43.9703 19.8004 44.0602 19.6868C44.1502 19.5731 44.1964 19.4429 44.1987 19.2961C44.1964 19.1588 44.1537 19.0416 44.0709 18.9446C43.988 18.8451 43.8602 18.7599 43.6874 18.6889C43.5169 18.6155 43.2991 18.548 43.0339 18.4865L42.274 18.3089C41.6443 18.1645 41.1483 17.9313 40.7861 17.6093C40.4239 17.285 40.2439 16.847 40.2463 16.2954C40.2439 15.8456 40.3647 15.4514 40.6085 15.1129C40.8524 14.7744 41.1897 14.5104 41.6206 14.321C42.0515 14.1316 42.5427 14.0369 43.0943 14.0369C43.6578 14.0369 44.1466 14.1328 44.5609 14.3245C44.9776 14.5139 45.3008 14.7803 45.5304 15.1235C45.76 15.4668 45.8772 15.8645 45.882 16.3167H44.1987ZM51.3982 18.7954H52.8186L53.4223 19.566L54.2142 20.4751L55.4322 21.9772H53.8413L52.9891 20.9581L52.4848 20.2336L51.3982 18.7954ZM55.482 17.7727C55.482 18.5729 55.3281 19.2512 55.0203 19.8075C54.7125 20.3638 54.2959 20.7864 53.7703 21.0753C53.2471 21.3641 52.66 21.5085 52.0089 21.5085C51.3555 21.5085 50.7672 21.3629 50.244 21.0717C49.7208 20.7805 49.3054 20.3579 48.9976 19.8039C48.6922 19.2476 48.5395 18.5705 48.5395 17.7727C48.5395 16.9725 48.6922 16.2942 48.9976 15.7379C49.3054 15.1815 49.7208 14.759 50.244 14.4701C50.7672 14.1813 51.3555 14.0369 52.0089 14.0369C52.66 14.0369 53.2471 14.1813 53.7703 14.4701C54.2959 14.759 54.7125 15.1815 55.0203 15.7379C55.3281 16.2942 55.482 16.9725 55.482 17.7727ZM53.6851 17.7727C53.6851 17.2992 53.6176 16.8991 53.4827 16.5724C53.3501 16.2457 53.1583 15.9983 52.9074 15.8302C52.6588 15.6621 52.3593 15.5781 52.0089 15.5781C51.6609 15.5781 51.3615 15.6621 51.1105 15.8302C50.8596 15.9983 50.6666 16.2457 50.5317 16.5724C50.3991 16.8991 50.3328 17.2992 50.3328 17.7727C50.3328 18.2462 50.3991 18.6463 50.5317 18.973C50.6666 19.2997 50.8596 19.5471 51.1105 19.7152C51.3615 19.8833 51.6609 19.9673 52.0089 19.9673C52.3593 19.9673 52.6588 19.8833 52.9074 19.7152C53.1583 19.5471 53.3501 19.2997 53.4827 18.973C53.6176 18.6463 53.6851 18.2462 53.6851 17.7727ZM60.7179 14.1363H62.4721V18.8274C62.4721 19.3695 62.3431 19.8418 62.085 20.2443C61.827 20.6444 61.4672 20.9545 61.0055 21.1747C60.5439 21.3925 60.0076 21.5014 59.3968 21.5014C58.7789 21.5014 58.2392 21.3925 57.7775 21.1747C57.3159 20.9545 56.9572 20.6444 56.7015 20.2443C56.4458 19.8418 56.318 19.3695 56.318 18.8274V14.1363H58.0758V18.6747C58.0758 18.9256 58.1303 19.1494 58.2392 19.3458C58.3504 19.5423 58.5055 19.6962 58.7044 19.8075C58.9032 19.9188 59.1341 19.9744 59.3968 19.9744C59.6596 19.9744 59.8893 19.9188 60.0858 19.8075C60.2846 19.6962 60.4397 19.5423 60.551 19.3458C60.6622 19.1494 60.7179 18.9256 60.7179 18.6747V14.1363ZM64.947 21.4091H63.0578L65.5116 14.1363H67.8518L70.3057 21.4091H68.4165L66.7084 15.9687H66.6516L64.947 21.4091ZM64.6949 18.5468H68.6437V19.8821H64.6949V18.5468ZM77.0783 14.1363V21.4091H75.5869L72.6927 17.2116H72.6465V21.4091H70.8887V14.1363H72.4015L75.2637 18.3267H75.3241V14.1363H77.0783ZM80.6718 21.4091H77.9836V14.1363H80.6683C81.4093 14.1363 82.0473 14.2819 82.5824 14.5731C83.1198 14.8619 83.5341 15.2786 83.8253 15.8231C84.1164 16.3653 84.262 17.0139 84.262 17.7691C84.262 18.5267 84.1164 19.1778 83.8253 19.7223C83.5364 20.2668 83.1233 20.6846 82.5859 20.9758C82.0485 21.2646 81.4105 21.4091 80.6718 21.4091ZM79.7414 19.9105H80.6044C81.0116 19.9105 81.356 19.8418 81.6378 19.7045C81.9218 19.5648 82.1361 19.3387 82.2805 19.0262C82.4273 18.7114 82.5007 18.2923 82.5007 17.7691C82.5007 17.2459 82.4273 16.8293 82.2805 16.5191C82.1337 16.2066 81.9171 15.9817 81.6306 15.8444C81.3466 15.7047 80.9962 15.6349 80.5795 15.6349H79.7414V19.9105ZM91.9527 17.7727C91.9527 18.5729 91.7988 19.2512 91.491 19.8075C91.1833 20.3638 90.7666 20.7864 90.241 21.0753C89.7178 21.3641 89.1307 21.5085 88.4797 21.5085C87.8262 21.5085 87.2379 21.3629 86.7147 21.0717C86.1915 20.7805 85.7761 20.3579 85.4683 19.8039C85.1629 19.2476 85.0102 18.5705 85.0102 17.7727C85.0102 16.9725 85.1629 16.2942 85.4683 15.7379C85.7761 15.1815 86.1915 14.759 86.7147 14.4701C87.2379 14.1813 87.8262 14.0369 88.4797 14.0369C89.1307 14.0369 89.7178 14.1813 90.241 14.4701C90.7666 14.759 91.1833 15.1815 91.491 15.7379C91.7988 16.2942 91.9527 16.9725 91.9527 17.7727ZM90.1558 17.7727C90.1558 17.2992 90.0883 16.8991 89.9534 16.5724C89.8208 16.2457 89.629 15.9983 89.3781 15.8302C89.1295 15.6621 88.83 15.5781 88.4797 15.5781C88.1316 15.5781 87.8322 15.6621 87.5812 15.8302C87.3303 15.9983 87.1373 16.2457 87.0024 16.5724C86.8698 16.8991 86.8035 17.2992 86.8035 17.7727C86.8035 18.2462 86.8698 18.6463 87.0024 18.973C87.1373 19.2997 87.3303 19.5471 87.5812 19.7152C87.8322 19.8833 88.1316 19.9673 88.4797 19.9673C88.83 19.9673 89.1295 19.8833 89.3781 19.7152C89.629 19.5471 89.8208 19.2997 89.9534 18.973C90.0883 18.6463 90.1558 18.2462 90.1558 17.7727ZM94.7274 21.4091V14.1363H99.7984V15.5639H96.4852V17.0554H99.5392V18.4865H96.4852V19.9815H99.7984V21.4091H94.7274ZM30.8132 28.7727C30.8132 29.5729 30.6593 30.2512 30.3516 30.8075C30.0438 31.3638 29.6271 31.7864 29.1016 32.0753C28.5784 32.3641 27.9912 32.5085 27.3402 32.5085C26.6868 32.5085 26.0985 32.3629 25.5753 32.0717C25.0521 31.7805 24.6366 31.3579 24.3288 30.8039C24.0234 30.2476 23.8707 29.5705 23.8707 28.7727C23.8707 27.9725 24.0234 27.2942 24.3288 26.7379C24.6366 26.1815 25.0521 25.759 25.5753 25.4701C26.0985 25.1813 26.6868 25.0369 27.3402 25.0369C27.9912 25.0369 28.5784 25.1813 29.1016 25.4701C29.6271 25.759 30.0438 26.1815 30.3516 26.7379C30.6593 27.2942 30.8132 27.9725 30.8132 28.7727ZM29.0163 28.7727C29.0163 28.2992 28.9489 27.8991 28.8139 27.5724C28.6813 27.2457 28.4896 26.9983 28.2386 26.8302C27.9901 26.6621 27.6906 26.5781 27.3402 26.5781C26.9922 26.5781 26.6927 26.6621 26.4418 26.8302C26.1908 26.9983 25.9979 27.2457 25.8629 27.5724C25.7304 27.8991 25.6641 28.2992 25.6641 28.7727C25.6641 29.2462 25.7304 29.6463 25.8629 29.973C25.9979 30.2997 26.1908 30.5471 26.4418 30.7152C26.6927 30.8833 26.9922 30.9673 27.3402 30.9673C27.6906 30.9673 27.9901 30.8833 28.2386 30.7152C28.4896 30.5471 28.6813 30.2997 28.8139 29.973C28.9489 29.6463 29.0163 29.2462 29.0163 28.7727ZM37.8291 25.1363V32.4091H36.3376L33.4435 28.2116H33.3973V32.4091H31.6395V25.1363H33.1523L36.0145 29.3267H36.0749V25.1363H37.8291ZM41.4226 32.4091H38.7344V25.1363H41.4191C42.1601 25.1363 42.7981 25.2819 43.3331 25.5731C43.8705 25.8619 44.2848 26.2786 44.576 26.8231C44.8672 27.3653 45.0128 28.0139 45.0128 28.7691C45.0128 29.5267 44.8672 30.1778 44.576 30.7223C44.2872 31.2668 43.8741 31.6846 43.3367 31.9758C42.7993 32.2646 42.1613 32.4091 41.4226 32.4091ZM40.4922 30.9105H41.3551C41.7623 30.9105 42.1068 30.8418 42.3885 30.7045C42.6726 30.5648 42.8869 30.3387 43.0313 30.0262C43.1781 29.7114 43.2515 29.2923 43.2515 28.7691C43.2515 28.2459 43.1781 27.8293 43.0313 27.5191C42.8845 27.2066 42.6679 26.9817 42.3814 26.8444C42.0973 26.7047 41.747 26.6349 41.3303 26.6349H40.4922V30.9105ZM45.8391 32.4091V25.1363H50.9101V26.5639H47.5969V28.0554H50.6509V29.4865H47.5969V30.9815H50.9101V32.4091H45.8391ZM53.1782 30.1825V30.0369C53.1782 29.6344 53.2113 29.3137 53.2776 29.0745C53.3462 28.8354 53.4457 28.6437 53.5759 28.4993C53.7061 28.3525 53.8647 28.2187 54.0517 28.098C54.2009 28.0033 54.3335 27.9074 54.4495 27.8103C54.5678 27.7109 54.6614 27.6044 54.73 27.4907C54.7987 27.3771 54.833 27.2481 54.833 27.1037C54.833 26.964 54.7998 26.8409 54.7336 26.7343C54.6673 26.6278 54.5761 26.5461 54.4601 26.4893C54.3465 26.4301 54.2198 26.4005 54.0802 26.4005C53.9405 26.4005 53.8091 26.4325 53.686 26.4964C53.5652 26.5603 53.4658 26.6515 53.3877 26.7699C53.3119 26.8859 53.2729 27.0267 53.2705 27.1924H51.637C51.6441 26.6953 51.7589 26.2881 51.9814 25.9708C52.2063 25.6536 52.5034 25.4192 52.8728 25.2677C53.2421 25.1138 53.6493 25.0369 54.0944 25.0369C54.582 25.0369 55.0153 25.1127 55.3941 25.2642C55.7752 25.4157 56.0747 25.6394 56.2925 25.9353C56.5103 26.2313 56.6192 26.5935 56.6192 27.022C56.6192 27.3037 56.5719 27.5523 56.4772 27.7677C56.3825 27.9832 56.2499 28.1737 56.0794 28.3395C55.9114 28.5028 55.7137 28.652 55.4864 28.7869C55.3088 28.8911 55.1609 29 55.0425 29.1136C54.9265 29.2272 54.8389 29.3574 54.7797 29.5042C54.7205 29.6486 54.6909 29.8262 54.6909 30.0369V30.1825H53.1782ZM53.963 32.512C53.7073 32.512 53.4883 32.4221 53.306 32.2422C53.1261 32.0622 53.0373 31.8444 53.0397 31.5887C53.0373 31.3378 53.1261 31.1235 53.306 30.946C53.4883 30.7661 53.7073 30.6761 53.963 30.6761C54.2068 30.6761 54.4211 30.7661 54.6057 30.946C54.7904 31.1235 54.8839 31.3378 54.8863 31.5887C54.8839 31.7592 54.8389 31.9143 54.7513 32.0539C54.6661 32.1936 54.5536 32.3049 54.414 32.3878C54.2766 32.4706 54.1263 32.512 53.963 32.512Z" fill="#330043"/>
<rect x="6" y="64.0002" width="127.229" height="16.3614" rx="3.18072" fill="#FF4A97"/>
<path d="M20.6901 74.0963H18.3984L18.031 75.1809H16.4653L18.687 69.0405H20.4189L22.6407 75.1809H21.0575L20.6901 74.0963ZM20.3052 72.9417L19.5443 70.6937L18.792 72.9417H20.3052ZM28.1365 70.3001V75.1809H26.6407V74.5161C26.4891 74.7319 26.2821 74.9068 26.0197 75.041C25.7631 75.1692 25.4774 75.2334 25.1625 75.2334C24.7893 75.2334 24.4598 75.1518 24.1741 74.9885C23.8883 74.8194 23.6667 74.5774 23.5093 74.2625C23.3519 73.9476 23.2731 73.5773 23.2731 73.1516V70.3001H24.7601V72.9504C24.7601 73.277 24.8447 73.5306 25.0138 73.7114C25.1829 73.8922 25.4103 73.9826 25.696 73.9826C25.9876 73.9826 26.218 73.8922 26.3871 73.7114C26.5562 73.5306 26.6407 73.277 26.6407 72.9504V70.3001H28.1365ZM30.7066 68.7081V75.1809H29.2108V68.7081H30.7066ZM31.4931 72.7318C31.4931 72.2303 31.5864 71.79 31.773 71.411C31.9655 71.0319 32.2249 70.7404 32.5515 70.5363C32.8781 70.3322 33.2425 70.2301 33.6449 70.2301C33.9889 70.2301 34.2892 70.3001 34.5458 70.44C34.8082 70.58 35.0094 70.7637 35.1494 70.9911V70.3001H36.6451V75.1809H35.1494V74.4899C35.0036 74.7173 34.7995 74.901 34.5371 75.041C34.2805 75.1809 33.9802 75.2509 33.6361 75.2509C33.2396 75.2509 32.8781 75.1488 32.5515 74.9447C32.2249 74.7348 31.9655 74.4403 31.773 74.0613C31.5864 73.6764 31.4931 73.2332 31.4931 72.7318ZM35.1494 72.7405C35.1494 72.3673 35.0444 72.0728 34.8345 71.8571C34.6304 71.6413 34.3796 71.5334 34.0822 71.5334C33.7848 71.5334 33.5312 71.6413 33.3212 71.8571C33.1171 72.067 33.0151 72.3585 33.0151 72.7318C33.0151 73.105 33.1171 73.4024 33.3212 73.6239C33.5312 73.8397 33.7848 73.9476 34.0822 73.9476C34.3796 73.9476 34.6304 73.8397 34.8345 73.6239C35.0444 73.4082 35.1494 73.1137 35.1494 72.7405ZM39.7128 75.2509C39.2871 75.2509 38.908 75.178 38.5756 75.0322C38.2433 74.8864 37.9808 74.6882 37.7884 74.4374C37.596 74.1808 37.4881 73.8951 37.4648 73.5802H38.943C38.9605 73.7493 39.0392 73.8864 39.1792 73.9913C39.3191 74.0963 39.4912 74.1488 39.6953 74.1488C39.8819 74.1488 40.0247 74.1138 40.1239 74.0438C40.2288 73.968 40.2813 73.8718 40.2813 73.7551C40.2813 73.6152 40.2084 73.5131 40.0626 73.449C39.9168 73.379 39.6807 73.3032 39.3541 73.2216C39.0042 73.1399 38.7127 73.0554 38.4794 72.9679C38.2462 72.8746 38.045 72.7318 37.8759 72.5393C37.7068 72.3411 37.6222 72.0757 37.6222 71.7433C37.6222 71.4634 37.698 71.2098 37.8496 70.9824C38.0071 70.7491 38.2345 70.5654 38.5319 70.4313C38.8351 70.2972 39.1938 70.2301 39.6078 70.2301C40.2201 70.2301 40.7012 70.3817 41.051 70.685C41.4068 70.9882 41.6108 71.3905 41.6633 71.892H40.2813C40.258 71.7229 40.1822 71.5888 40.0539 71.4897C39.9314 71.3905 39.7682 71.341 39.5641 71.341C39.3891 71.341 39.255 71.376 39.1617 71.4459C39.0684 71.5101 39.0217 71.6005 39.0217 71.7171C39.0217 71.8571 39.0946 71.962 39.2404 72.032C39.392 72.102 39.6253 72.1719 39.9402 72.2419C40.3017 72.3352 40.5962 72.4285 40.8236 72.5218C41.051 72.6093 41.2493 72.7551 41.4184 72.9592C41.5934 73.1574 41.6837 73.4257 41.6896 73.7639C41.6896 74.0496 41.6079 74.3062 41.4447 74.5336C41.2872 74.7552 41.0569 74.9302 40.7536 75.0585C40.4562 75.1867 40.1093 75.2509 39.7128 75.2509ZM44.1609 72.7318C44.1609 72.2303 44.2542 71.79 44.4408 71.411C44.6332 71.0319 44.8927 70.7404 45.2193 70.5363C45.5458 70.3322 45.9103 70.2301 46.3126 70.2301C46.6334 70.2301 46.9249 70.2972 47.1873 70.4313C47.4556 70.5654 47.6655 70.7462 47.8171 70.9736V68.7081H49.3128V75.1809H47.8171V74.4811C47.6772 74.7144 47.476 74.901 47.2136 75.041C46.957 75.1809 46.6567 75.2509 46.3126 75.2509C45.9103 75.2509 45.5458 75.1488 45.2193 74.9447C44.8927 74.7348 44.6332 74.4403 44.4408 74.0613C44.2542 73.6764 44.1609 73.2332 44.1609 72.7318ZM47.8171 72.7405C47.8171 72.3673 47.7121 72.0728 47.5022 71.8571C47.2981 71.6413 47.0474 71.5334 46.75 71.5334C46.4526 71.5334 46.1989 71.6413 45.989 71.8571C45.7849 72.067 45.6828 72.3585 45.6828 72.7318C45.6828 73.105 45.7849 73.4024 45.989 73.6239C46.1989 73.8397 46.4526 73.9476 46.75 73.9476C47.0474 73.9476 47.2981 73.8397 47.5022 73.6239C47.7121 73.4082 47.8171 73.1137 47.8171 72.7405ZM50.0975 72.7318C50.0975 72.2303 50.1908 71.79 50.3774 71.411C50.5699 71.0319 50.8294 70.7404 51.1559 70.5363C51.4825 70.3322 51.8469 70.2301 52.2493 70.2301C52.5934 70.2301 52.8937 70.3001 53.1502 70.44C53.4127 70.58 53.6138 70.7637 53.7538 70.9911V70.3001H55.2495V75.1809H53.7538V74.4899C53.608 74.7173 53.4039 74.901 53.1415 75.041C52.8849 75.1809 52.5846 75.2509 52.2406 75.2509C51.844 75.2509 51.4825 75.1488 51.1559 74.9447C50.8294 74.7348 50.5699 74.4403 50.3774 74.0613C50.1908 73.6764 50.0975 73.2332 50.0975 72.7318ZM53.7538 72.7405C53.7538 72.3673 53.6488 72.0728 53.4389 71.8571C53.2348 71.6413 52.9841 71.5334 52.6867 71.5334C52.3893 71.5334 52.1356 71.6413 51.9257 71.8571C51.7216 72.067 51.6195 72.3585 51.6195 72.7318C51.6195 73.105 51.7216 73.4024 51.9257 73.6239C52.1356 73.8397 52.3893 73.9476 52.6867 73.9476C52.9841 73.9476 53.2348 73.8397 53.4389 73.6239C53.6488 73.4082 53.7538 73.1137 53.7538 72.7405ZM58.3172 75.2509C57.8915 75.2509 57.5125 75.178 57.1801 75.0322C56.8477 74.8864 56.5853 74.6882 56.3928 74.4374C56.2004 74.1808 56.0925 73.8951 56.0692 73.5802H57.5475C57.5649 73.7493 57.6437 73.8864 57.7836 73.9913C57.9236 74.0963 58.0956 74.1488 58.2997 74.1488C58.4863 74.1488 58.6292 74.1138 58.7283 74.0438C58.8333 73.968 58.8857 73.8718 58.8857 73.7551C58.8857 73.6152 58.8128 73.5131 58.6671 73.449C58.5213 73.379 58.2851 73.3032 57.9586 73.2216C57.6087 73.1399 57.3171 73.0554 57.0839 72.9679C56.8506 72.8746 56.6494 72.7318 56.4803 72.5393C56.3112 72.3411 56.2267 72.0757 56.2267 71.7433C56.2267 71.4634 56.3025 71.2098 56.4541 70.9824C56.6115 70.7491 56.8389 70.5654 57.1363 70.4313C57.4396 70.2972 57.7982 70.2301 58.2122 70.2301C58.8245 70.2301 59.3056 70.3817 59.6555 70.685C60.0112 70.9882 60.2153 71.3905 60.2678 71.892H58.8857C58.8624 71.7229 58.7866 71.5888 58.6583 71.4897C58.5359 71.3905 58.3726 71.341 58.1685 71.341C57.9935 71.341 57.8594 71.376 57.7661 71.4459C57.6728 71.5101 57.6262 71.6005 57.6262 71.7171C57.6262 71.8571 57.6991 71.962 57.8448 72.032C57.9965 72.102 58.2297 72.1719 58.5446 72.2419C58.9061 72.3352 59.2006 72.4285 59.4281 72.5218C59.6555 72.6093 59.8537 72.7551 60.0228 72.9592C60.1978 73.1574 60.2882 73.4257 60.294 73.7639C60.294 74.0496 60.2124 74.3062 60.0491 74.5336C59.8916 74.7552 59.6613 74.9302 59.3581 75.0585C59.0607 75.1867 58.7137 75.2509 58.3172 75.2509ZM62.7566 70.1864V68.7956H65.1795V75.1809H63.6225V70.1864H62.7566ZM66.2377 74.0438V72.8367L69.0017 68.8831H70.6724V72.7492H71.3896V74.0438H70.6724V75.1809H69.1766V74.0438H66.2377ZM69.2816 70.5275L67.8121 72.7492H69.2816V70.5275ZM72.9707 75.2509C72.7083 75.2509 72.4925 75.1751 72.3234 75.0235C72.1602 74.866 72.0785 74.6736 72.0785 74.4462C72.0785 74.2129 72.1602 74.0176 72.3234 73.8601C72.4925 73.7027 72.7083 73.6239 72.9707 73.6239C73.2273 73.6239 73.4372 73.7027 73.6005 73.8601C73.7696 74.0176 73.8542 74.2129 73.8542 74.4462C73.8542 74.6736 73.7696 74.866 73.6005 75.0235C73.4372 75.1751 73.2273 75.2509 72.9707 75.2509ZM72.9707 71.6909C72.7083 71.6909 72.4925 71.6151 72.3234 71.4634C72.1602 71.306 72.0785 71.1136 72.0785 70.8861C72.0785 70.6529 72.1602 70.4575 72.3234 70.3001C72.4925 70.1426 72.7083 70.0639 72.9707 70.0639C73.2273 70.0639 73.4372 70.1426 73.6005 70.3001C73.7696 70.4575 73.8542 70.6529 73.8542 70.8861C73.8542 71.1136 73.7696 71.306 73.6005 71.4634C73.4372 71.6151 73.2273 71.6909 72.9707 71.6909ZM74.608 71.9008C74.608 70.8978 74.8004 70.1077 75.1853 69.5304C75.576 68.9531 76.2028 68.6644 77.0659 68.6644C77.9289 68.6644 78.5529 68.9531 78.9377 69.5304C79.3284 70.1077 79.5238 70.8978 79.5238 71.9008C79.5238 72.9154 79.3284 73.7114 78.9377 74.2887C78.5529 74.866 77.9289 75.1547 77.0659 75.1547C76.2028 75.1547 75.576 74.866 75.1853 74.2887C74.8004 73.7114 74.608 72.9154 74.608 71.9008ZM78.0543 71.9008C78.0543 71.3118 77.9901 70.8599 77.8618 70.545C77.7336 70.2243 77.4682 70.0639 77.0659 70.0639C76.6635 70.0639 76.3982 70.2243 76.2699 70.545C76.1416 70.8599 76.0775 71.3118 76.0775 71.9008C76.0775 72.2973 76.1008 72.6268 76.1474 72.8892C76.1941 73.1458 76.2874 73.3557 76.4273 73.519C76.5731 73.6764 76.786 73.7551 77.0659 73.7551C77.3458 73.7551 77.5557 73.6764 77.6957 73.519C77.8414 73.3557 77.9377 73.1458 77.9843 72.8892C78.031 72.6268 78.0543 72.2973 78.0543 71.9008ZM80.314 71.9008C80.314 70.8978 80.5064 70.1077 80.8913 69.5304C81.282 68.9531 81.9089 68.6644 82.7719 68.6644C83.635 68.6644 84.2589 68.9531 84.6438 69.5304C85.0345 70.1077 85.2298 70.8978 85.2298 71.9008C85.2298 72.9154 85.0345 73.7114 84.6438 74.2887C84.2589 74.866 83.635 75.1547 82.7719 75.1547C81.9089 75.1547 81.282 74.866 80.8913 74.2887C80.5064 73.7114 80.314 72.9154 80.314 71.9008ZM83.7603 71.9008C83.7603 71.3118 83.6962 70.8599 83.5679 70.545C83.4396 70.2243 83.1743 70.0639 82.7719 70.0639C82.3696 70.0639 82.1042 70.2243 81.9759 70.545C81.8477 70.8599 81.7835 71.3118 81.7835 71.9008C81.7835 72.2973 81.8068 72.6268 81.8535 72.8892C81.9001 73.1458 81.9934 73.3557 82.1334 73.519C82.2792 73.6764 82.492 73.7551 82.7719 73.7551C83.0518 73.7551 83.2617 73.6764 83.4017 73.519C83.5475 73.3557 83.6437 73.1458 83.6904 72.8892C83.737 72.6268 83.7603 72.2973 83.7603 71.9008ZM87.725 72.7318C87.725 72.2303 87.8183 71.79 88.0049 71.411C88.1973 71.0319 88.4568 70.7404 88.7834 70.5363C89.1099 70.3322 89.4744 70.2301 89.8767 70.2301C90.2208 70.2301 90.5211 70.3001 90.7777 70.44C91.0401 70.58 91.2413 70.7637 91.3812 70.9911V70.3001H92.8769V75.1809H91.3812V74.4899C91.2354 74.7173 91.0313 74.901 90.7689 75.041C90.5123 75.1809 90.212 75.2509 89.868 75.2509C89.4715 75.2509 89.1099 75.1488 88.7834 74.9447C88.4568 74.7348 88.1973 74.4403 88.0049 74.0613C87.8183 73.6764 87.725 73.2332 87.725 72.7318ZM91.3812 72.7405C91.3812 72.3673 91.2762 72.0728 91.0663 71.8571C90.8622 71.6413 90.6115 71.5334 90.3141 71.5334C90.0167 71.5334 89.763 71.6413 89.5531 71.8571C89.349 72.067 89.2469 72.3585 89.2469 72.7318C89.2469 73.105 89.349 73.4024 89.5531 73.6239C89.763 73.8397 90.0167 73.9476 90.3141 73.9476C90.6115 73.9476 90.8622 73.8397 91.0663 73.6239C91.2762 73.4082 91.3812 73.1137 91.3812 72.7405ZM91.4949 68.9356V69.9677L89.3869 69.0843V67.9209L91.4949 68.9356ZM95.9446 75.2509C95.5189 75.2509 95.1399 75.178 94.8075 75.0322C94.4751 74.8864 94.2127 74.6882 94.0203 74.4374C93.8278 74.1808 93.72 73.8951 93.6966 73.5802H95.1749C95.1924 73.7493 95.2711 73.8864 95.411 73.9913C95.551 74.0963 95.723 74.1488 95.9271 74.1488C96.1137 74.1488 96.2566 74.1138 96.3557 74.0438C96.4607 73.968 96.5132 73.8718 96.5132 73.7551C96.5132 73.6152 96.4403 73.5131 96.2945 73.449C96.1487 73.379 95.9125 73.3032 95.586 73.2216C95.2361 73.1399 94.9445 73.0554 94.7113 72.9679C94.478 72.8746 94.2769 72.7318 94.1077 72.5393C93.9386 72.3411 93.8541 72.0757 93.8541 71.7433C93.8541 71.4634 93.9299 71.2098 94.0815 70.9824C94.2389 70.7491 94.4664 70.5654 94.7638 70.4313C95.067 70.2972 95.4256 70.2301 95.8396 70.2301C96.4519 70.2301 96.933 70.3817 97.2829 70.685C97.6386 70.9882 97.8427 71.3905 97.8952 71.892H96.5132C96.4898 71.7229 96.414 71.5888 96.2857 71.4897C96.1633 71.3905 96 71.341 95.7959 71.341C95.621 71.341 95.4869 71.376 95.3936 71.4459C95.3003 71.5101 95.2536 71.6005 95.2536 71.7171C95.2536 71.8571 95.3265 71.962 95.4723 72.032C95.6239 72.102 95.8571 72.1719 96.172 72.2419C96.5336 72.3352 96.8281 72.4285 97.0555 72.5218C97.2829 72.6093 97.4812 72.7551 97.6503 72.9592C97.8252 73.1574 97.9156 73.4257 97.9214 73.7639C97.9214 74.0496 97.8398 74.3062 97.6765 74.5336C97.5191 74.7552 97.2887 74.9302 96.9855 75.0585C96.6881 75.1867 96.3411 75.2509 95.9446 75.2509ZM100.384 70.1864V68.7956H102.807V75.1809H101.25V70.1864H100.384ZM106.988 70.5188C106.941 70.303 106.859 70.1426 106.743 70.0377C106.626 69.9269 106.46 69.8715 106.244 69.8715C105.912 69.8715 105.673 70.0173 105.527 70.3088C105.381 70.5946 105.305 71.0494 105.3 71.6734C105.428 71.4693 105.612 71.3089 105.851 71.1923C106.096 71.0757 106.364 71.0173 106.655 71.0173C107.227 71.0173 107.685 71.1981 108.029 71.5597C108.379 71.9212 108.553 72.4256 108.553 73.0729C108.553 73.4986 108.466 73.8718 108.291 74.1925C108.122 74.5132 107.871 74.764 107.539 74.9447C107.212 75.1255 106.824 75.2159 106.375 75.2159C105.477 75.2159 104.853 74.936 104.504 74.3762C104.154 73.8105 103.979 73 103.979 71.9445C103.979 70.8366 104.162 70.0144 104.53 69.4779C104.903 68.9356 105.498 68.6644 106.314 68.6644C106.752 68.6644 107.119 68.7519 107.416 68.9268C107.72 69.0959 107.947 69.3204 108.099 69.6003C108.256 69.8802 108.349 70.1864 108.379 70.5188H106.988ZM106.297 72.1982C106.046 72.1982 105.836 72.274 105.667 72.4256C105.504 72.5714 105.422 72.7813 105.422 73.0554C105.422 73.3353 105.498 73.554 105.649 73.7114C105.807 73.8689 106.028 73.9476 106.314 73.9476C106.571 73.9476 106.772 73.8718 106.918 73.7202C107.069 73.5627 107.145 73.3499 107.145 73.0816C107.145 72.8076 107.072 72.5918 106.927 72.4344C106.781 72.2769 106.571 72.1982 106.297 72.1982ZM110.248 75.2509C109.986 75.2509 109.77 75.1751 109.601 75.0235C109.437 74.866 109.356 74.6736 109.356 74.4462C109.356 74.2129 109.437 74.0176 109.601 73.8601C109.77 73.7027 109.986 73.6239 110.248 73.6239C110.504 73.6239 110.714 73.7027 110.878 73.8601C111.047 74.0176 111.131 74.2129 111.131 74.4462C111.131 74.6736 111.047 74.866 110.878 75.0235C110.714 75.1751 110.504 75.2509 110.248 75.2509ZM110.248 71.6909C109.986 71.6909 109.77 71.6151 109.601 71.4634C109.437 71.306 109.356 71.1136 109.356 70.8861C109.356 70.6529 109.437 70.4575 109.601 70.3001C109.77 70.1426 109.986 70.0639 110.248 70.0639C110.504 70.0639 110.714 70.1426 110.878 70.3001C111.047 70.4575 111.131 70.6529 111.131 70.8861C111.131 71.1136 111.047 71.306 110.878 71.4634C110.714 71.6151 110.504 71.6909 110.248 71.6909ZM111.885 71.9008C111.885 70.8978 112.078 70.1077 112.462 69.5304C112.853 68.9531 113.48 68.6644 114.343 68.6644C115.206 68.6644 115.83 68.9531 116.215 69.5304C116.606 70.1077 116.801 70.8978 116.801 71.9008C116.801 72.9154 116.606 73.7114 116.215 74.2887C115.83 74.866 115.206 75.1547 114.343 75.1547C113.48 75.1547 112.853 74.866 112.462 74.2887C112.078 73.7114 111.885 72.9154 111.885 71.9008ZM115.331 71.9008C115.331 71.3118 115.267 70.8599 115.139 70.545C115.011 70.2243 114.745 70.0639 114.343 70.0639C113.941 70.0639 113.675 70.2243 113.547 70.545C113.419 70.8599 113.355 71.3118 113.355 71.9008C113.355 72.2973 113.378 72.6268 113.425 72.8892C113.471 73.1458 113.565 73.3557 113.705 73.519C113.85 73.6764 114.063 73.7551 114.343 73.7551C114.623 73.7551 114.833 73.6764 114.973 73.519C115.119 73.3557 115.215 73.1458 115.262 72.8892C115.308 72.6268 115.331 72.2973 115.331 71.9008ZM117.591 71.9008C117.591 70.8978 117.784 70.1077 118.169 69.5304C118.559 68.9531 119.186 68.6644 120.049 68.6644C120.912 68.6644 121.536 68.9531 121.921 69.5304C122.312 70.1077 122.507 70.8978 122.507 71.9008C122.507 72.9154 122.312 73.7114 121.921 74.2887C121.536 74.866 120.912 75.1547 120.049 75.1547C119.186 75.1547 118.559 74.866 118.169 74.2887C117.784 73.7114 117.591 72.9154 117.591 71.9008ZM121.038 71.9008C121.038 71.3118 120.973 70.8599 120.845 70.545C120.717 70.2243 120.451 70.0639 120.049 70.0639C119.647 70.0639 119.381 70.2243 119.253 70.545C119.125 70.8599 119.061 71.3118 119.061 71.9008C119.061 72.2973 119.084 72.6268 119.131 72.8892C119.177 73.1458 119.271 73.3557 119.411 73.519C119.556 73.6764 119.769 73.7551 120.049 73.7551C120.329 73.7551 120.539 73.6764 120.679 73.519C120.825 73.3557 120.921 73.1458 120.968 72.8892C121.014 72.6268 121.038 72.2973 121.038 71.9008Z" fill="white"/>
</svg>
