<svg width="393" height="650" viewBox="0 0 393 650" fill="none" xmlns="http://www.w3.org/2000/svg">
<g clip-path="url(#clip0_79_2537)">
<rect width="393" height="650" fill="#9854CB"/>
<path d="M26.3587 197.95L18.4104 206.911L18.3408 206.99L18.324 207.094L17.5493 211.823C17.36 212.979 16.0377 213.553 15.0646 212.9L5.32972 206.373C4.36525 205.726 4.38311 204.301 5.36342 203.678L9.407 201.109L9.49328 201.054L9.53848 200.962L14.8029 190.202L26.3587 197.95Z" fill="#FFCD34" stroke="#330043" stroke-width="0.727178"/>
<path d="M18.3776 133.736C18.7028 133.602 19.2715 134.099 19.0546 134.327C17.7262 135.723 16.1475 137.723 15.9938 139.469C15.8375 141.243 17.0939 143.428 18.178 144.951C18.3586 145.204 17.7454 145.613 17.44 145.443C15.6065 144.42 12.9371 143.178 10.6111 143.058C8.32218 142.941 5.51336 143.867 3.52202 144.685C3.19684 144.819 2.62808 144.322 2.845 144.094C4.17341 142.698 5.75213 140.698 5.90585 138.952C6.06207 137.177 4.80568 134.993 3.7216 133.47C3.54103 133.216 4.15421 132.807 4.4596 132.978C6.29306 134.001 8.96245 135.243 11.2886 135.362C13.5774 135.48 16.3862 134.553 18.3776 133.736Z" fill="#330043"/>
<path d="M20.4939 169.995C20.8285 169.875 21.4693 170.435 21.2689 170.672C20.5469 171.525 19.8645 172.559 19.7829 173.485C19.6991 174.438 20.2245 175.567 20.8099 176.501C20.9729 176.762 20.2851 177.22 19.9689 177.062C18.833 176.495 17.4365 175.947 16.188 175.883C14.9735 175.82 13.5396 176.198 12.3346 176.63C12.0001 176.75 11.3592 176.19 11.5597 175.953C12.2817 175.1 12.9641 174.067 13.0456 173.14C13.1295 172.188 12.604 171.058 12.0187 170.124C11.8557 169.863 12.5434 169.405 12.8597 169.563C13.9955 170.13 15.3921 170.679 16.6405 170.743C17.8551 170.805 19.2889 170.427 20.4939 169.995Z" fill="#330043"/>
<path d="M16.9026 175.254L14.8071 178.615L14.4395 179.204L14.164 178.566L14.4983 178.422L14.1645 178.565L14.1641 178.564C14.1636 178.563 14.1628 178.561 14.162 178.56C14.1604 178.556 14.158 178.551 14.155 178.544C14.1489 178.529 14.1396 178.508 14.1279 178.48C14.1044 178.425 14.0703 178.342 14.026 178.234C13.9373 178.019 13.8088 177.704 13.6516 177.303C13.3371 176.501 12.9052 175.353 12.4329 173.969C11.4887 171.203 10.3815 167.485 9.73813 163.693C9.09641 159.91 8.908 156.011 9.83766 152.902C10.3042 151.341 11.0565 149.967 12.1861 148.911C13.318 147.852 14.8093 147.132 16.7202 146.85C18.4076 146.601 19.7752 146.929 20.8694 147.576C21.957 148.219 22.7537 149.165 23.3306 150.122C23.9078 151.079 24.2746 152.062 24.4966 152.803C24.6079 153.174 24.6834 153.486 24.7315 153.707C24.7556 153.817 24.7721 153.905 24.7833 153.966C24.7889 153.996 24.7939 154.02 24.7967 154.036C24.798 154.044 24.7989 154.051 24.7996 154.056C24.8 154.058 24.8006 154.06 24.8008 154.062L24.8012 154.063C24.8012 154.063 24.8009 154.063 24.5168 154.108L24.8007 154.064L24.8249 154.215L24.7324 154.339L22.2121 157.703L21.4681 158.696L21.5579 157.458L21.5583 157.457C21.5584 157.456 21.5588 157.455 21.5589 157.454C21.5591 157.451 21.5593 157.446 21.5597 157.44C21.5605 157.427 21.5613 157.407 21.5626 157.381C21.5654 157.328 21.5686 157.249 21.5712 157.149C21.5766 156.949 21.5796 156.663 21.5671 156.321C21.5419 155.634 21.4574 154.735 21.2246 153.863C20.9905 152.986 20.6158 152.173 20.035 151.621C19.4699 151.085 18.6799 150.766 17.5339 150.922C16.1977 151.103 15.2056 151.599 14.476 152.312C13.7433 153.028 13.2524 153.986 12.9593 155.124C12.3701 157.411 12.5961 160.361 13.1836 163.313C13.7691 166.254 14.7046 169.154 15.4951 171.323C15.89 172.406 16.2484 173.305 16.5075 173.932C16.637 174.246 16.7416 174.491 16.8138 174.658C16.8499 174.741 16.8779 174.806 16.8968 174.848C16.9061 174.87 16.913 174.886 16.9177 174.896C16.9201 174.901 16.9224 174.906 16.9235 174.908L16.9252 174.911L17.005 175.089L16.9026 175.254Z" fill="#FFCD34" stroke="#330043" stroke-width="0.727178"/>
<path d="M39.843 190.078L37.5688 193.321L37.1698 193.89L37.8648 193.894L37.8671 193.53L37.8654 193.893L37.8667 193.893C37.8678 193.893 37.8697 193.893 37.8716 193.893C37.8757 193.893 37.8815 193.893 37.889 193.893C37.9046 193.893 37.9276 193.894 37.9578 193.893C38.0184 193.893 38.1081 193.892 38.2242 193.891C38.4568 193.889 38.7971 193.884 39.2278 193.871C40.0892 193.847 41.3145 193.796 42.7727 193.69C45.6876 193.477 49.543 193.043 53.2846 192.152C57.0168 191.264 60.6799 189.913 63.178 187.842C64.4316 186.802 65.4026 185.572 65.9332 184.12C66.4648 182.664 66.5448 181.01 66.057 179.141C65.6262 177.49 64.7896 176.36 63.7663 175.606C62.7491 174.856 61.5674 174.493 60.4612 174.336C59.3545 174.179 58.3063 174.225 57.5379 174.311C57.1529 174.353 56.8357 174.406 56.6137 174.448C56.5027 174.469 56.4152 174.488 56.3549 174.502C56.3249 174.508 56.3012 174.513 56.285 174.517C56.277 174.519 56.2705 174.521 56.266 174.522C56.2638 174.522 56.2613 174.523 56.2599 174.523L56.2586 174.523C56.2584 174.523 56.2585 174.524 56.3283 174.803L56.258 174.524L56.1091 174.561L56.0319 174.694L53.9209 178.329L53.2978 179.402L54.402 178.836L54.4027 178.835C54.4032 178.835 54.404 178.834 54.4053 178.833C54.4079 178.832 54.4121 178.83 54.4178 178.827C54.4294 178.821 54.4477 178.813 54.4712 178.801C54.5187 178.778 54.5898 178.744 54.6808 178.703C54.8628 178.62 55.1252 178.505 55.4449 178.383C56.0868 178.137 56.948 177.863 57.8415 177.737C58.7398 177.609 59.6349 177.636 60.3697 177.955C61.0845 178.266 61.6864 178.868 61.9912 179.984C62.3466 181.285 62.2779 182.392 61.9069 183.342C61.5342 184.296 60.845 185.122 59.9123 185.837C58.0372 187.274 55.234 188.219 52.2875 188.832C49.3509 189.444 46.3161 189.716 44.0114 189.837C42.8599 189.897 41.8922 189.918 41.2135 189.925C40.8747 189.928 40.6079 189.928 40.4261 189.927C40.3351 189.926 40.2649 189.926 40.2182 189.925C40.1951 189.925 40.1777 189.925 40.1661 189.924C40.1602 189.924 40.1556 189.924 40.1528 189.924L40.1493 189.923L39.9544 189.919L39.843 190.078Z" fill="#FFCD34" stroke="#330043" stroke-width="0.727178"/>
<path d="M28.2234 151.161L57.4963 170.789C58.4928 171.457 58.8411 172.738 58.295 173.789C56.4462 177.344 52.4756 184.394 48.2962 188.177C44.9902 191.168 39.8257 193.676 35.4554 195.442C33.2762 196.322 31.3053 197.014 29.8794 197.486C29.1666 197.721 28.5899 197.902 28.1922 198.024C27.9955 198.084 27.8423 198.128 27.7382 198.159L14.2024 189.083C14.1913 188.975 14.175 188.817 14.156 188.612C14.1174 188.198 14.066 187.596 14.0133 186.847C13.908 185.349 13.7996 183.263 13.7867 180.913C13.7607 176.199 14.1197 170.469 15.6321 166.275C17.5441 160.972 22.5578 154.622 25.145 151.561C25.9093 150.657 27.227 150.493 28.2234 151.161Z" fill="#FFCD34" stroke="#330043" stroke-width="0.727178"/>
<path d="M23.847 156.528C18.6571 162.909 16.6045 168.256 15.9129 173.311" stroke="white" stroke-width="1.38714" stroke-linecap="round"/>
<rect x="-0.751083" y="202.39" width="26.926" height="13.5416" rx="1.02977" transform="rotate(33.8422 -0.751083 202.39)" fill="#FFCD34" stroke="#330043" stroke-width="0.727178"/>
<rect x="0.826416" y="206.269" width="20.0737" height="9.02607" rx="0.874839" transform="rotate(33.8422 0.826416 206.269)" fill="#FFE780"/>
<rect x="12.9641" y="187.426" width="20.8127" height="3.80461" rx="1.9023" transform="rotate(33.8422 12.9641 187.426)" fill="#FFCD34" stroke="#330043" stroke-width="0.727178"/>
<rect x="9.31651" y="197.26" width="15.3556" height="3.80461" rx="1.9023" transform="rotate(33.8422 9.31651 197.26)" fill="#FFCD34" stroke="#330043" stroke-width="0.727178"/>
<path d="M48.7253 179.932C49.2952 180.599 48.9776 181.643 48.1178 181.87L45.4201 181.982C45.9605 181.512 46.1086 180.692 45.7088 180.057L48.7253 179.932Z" fill="#FF4A97" stroke="#330043" stroke-width="0.300078" stroke-linejoin="round"/>
<path d="M48.4446 179.641L45.4682 179.764L40.8237 174.869L43.8014 174.746L48.4446 179.641Z" fill="#FF4A97" stroke="#330043" stroke-width="0.300078" stroke-linejoin="round"/>
<path d="M41.1897 183.628L39.2717 183.707L44.7855 182.306L46.7063 182.226L41.1897 183.628Z" fill="#FF4A97" stroke="#330043" stroke-width="0.300078" stroke-linejoin="round"/>
<path d="M43.3567 173.431L40.2823 173.558L40.7307 166.728L43.8037 166.601L43.3567 173.431Z" fill="#FF4A97" stroke="#330043" stroke-width="0.300078" stroke-linejoin="round"/>
<path d="M43.3504 173.732C43.362 173.989 43.4389 174.238 43.5738 174.455L40.5602 174.58C40.3876 174.377 40.2869 174.124 40.2746 173.859L43.3504 173.732Z" fill="#FF4A97" stroke="#330043" stroke-width="0.300078" stroke-linejoin="round"/>
<path d="M42.5629 165.154C43.2001 165.127 43.7827 165.623 43.8115 166.299L40.7358 166.426C40.7152 165.928 40.4538 165.509 40.0805 165.255L42.5629 165.154Z" fill="#FF4A97" stroke="#330043" stroke-width="0.300078" stroke-linejoin="round"/>
<mask id="path-18-inside-1_79_2537" fill="white">
<path d="M42.0354 165.135C42.2092 165.053 42.3877 165.01 42.5626 165.003L39.1875 165.143C39.0126 165.15 38.8341 165.192 38.6603 165.275L42.0354 165.135Z"/>
</mask>
<path d="M42.0354 165.135C42.2092 165.053 42.3877 165.01 42.5626 165.003L39.1875 165.143C39.0126 165.15 38.8341 165.192 38.6603 165.275L42.0354 165.135Z" fill="#FF4A97"/>
<path d="M42.5626 165.003L42.5751 165.303C42.7407 165.296 42.8693 165.156 42.8625 164.991C42.8556 164.825 42.7158 164.696 42.5502 164.703L42.5626 165.003ZM42.0354 165.135L42.0478 165.435C42.0883 165.434 42.128 165.424 42.1646 165.406L42.0354 165.135ZM38.6603 165.275L38.5311 165.004C38.4025 165.066 38.3347 165.209 38.369 165.347C38.4034 165.486 38.5303 165.581 38.6727 165.575L38.6603 165.275ZM39.1875 165.143L39.1751 164.843L39.1751 164.843L39.1875 165.143ZM42.5626 165.003L42.5502 164.703C42.335 164.712 42.1168 164.764 41.9062 164.865L42.0354 165.135L42.1646 165.406C42.3016 165.341 42.4404 165.308 42.5751 165.303L42.5626 165.003ZM42.0354 165.135L42.023 164.836L38.6479 164.975L38.6603 165.275L38.6727 165.575L42.0478 165.435L42.0354 165.135ZM38.6603 165.275L38.7895 165.546C38.9265 165.481 39.0653 165.448 39.2 165.443L39.1875 165.143L39.1751 164.843C38.9599 164.852 38.7417 164.904 38.5311 165.004L38.6603 165.275ZM39.1875 165.143L39.2 165.443L42.5751 165.303L42.5626 165.003L42.5502 164.703L39.1751 164.843L39.1875 165.143Z" fill="#330043" mask="url(#path-18-inside-1_79_2537)"/>
<path d="M40.5612 183.954C40.4486 184.052 40.3512 184.167 40.2713 184.295L37.2824 184.419C37.4365 184.25 37.636 184.126 37.8608 184.066L40.5612 183.954Z" fill="#FF4A97" stroke="#330043" stroke-width="0.300078" stroke-linejoin="round"/>
<path d="M35.544 168.062L32.9346 168.17L38.6927 165.423L41.3062 165.315L35.544 168.062Z" fill="#FF4A97" stroke="#330043" stroke-width="0.300078" stroke-linejoin="round"/>
<path d="M36.8584 190.577L33.8336 190.702L37.0772 184.728L40.1033 184.603L36.8584 190.577Z" fill="#FF4A97" stroke="#330043" stroke-width="0.300078" stroke-linejoin="round"/>
<path d="M36.6469 190.885C36.4245 191.132 36.1205 191.265 35.8089 191.278L33.3354 191.379C33.4582 191.279 33.5653 191.154 33.6553 191.009L36.6469 190.885Z" fill="#FF4A97" stroke="#330043" stroke-width="0.300078" stroke-linejoin="round"/>
<mask id="path-24-inside-2_79_2537" fill="white">
<path d="M35.5783 168.212C35.4118 168.291 35.2327 168.335 35.0522 168.342L31.6778 168.482C31.8581 168.475 32.0369 168.431 32.2032 168.352L35.5783 168.212Z"/>
</mask>
<path d="M35.5783 168.212C35.4118 168.291 35.2327 168.335 35.0522 168.342L31.6778 168.482C31.8581 168.475 32.0369 168.431 32.2032 168.352L35.5783 168.212Z" fill="#FF4A97"/>
<path d="M31.6778 168.482L31.6716 168.332C31.6714 168.332 31.6712 168.332 31.6709 168.332L31.6771 168.482L31.6833 168.632C31.6836 168.632 31.6838 168.632 31.6841 168.632L31.6778 168.482ZM35.0522 168.342L35.0399 168.043L35.0398 168.043L35.0522 168.342ZM35.5783 168.212L35.7075 168.483C35.8362 168.421 35.9039 168.278 35.8696 168.14C35.8353 168.001 35.7084 167.906 35.5659 167.912L35.5783 168.212ZM32.2032 168.352L32.1908 168.052C32.1504 168.054 32.1106 168.063 32.0741 168.081L32.2032 168.352ZM31.6778 168.482L31.6654 168.182C31.4998 168.189 31.3712 168.329 31.378 168.495C31.3849 168.66 31.5247 168.789 31.6903 168.782L31.6778 168.482ZM35.0522 168.342L35.0646 168.642C35.2851 168.633 35.504 168.58 35.7075 168.483L35.5783 168.212L35.4492 167.941C35.3196 168.003 35.1803 168.037 35.0399 168.043L35.0522 168.342ZM35.5783 168.212L35.5659 167.912L32.1908 168.052L32.2032 168.352L32.2157 168.652L35.5908 168.512L35.5783 168.212ZM32.2032 168.352L32.0741 168.081C31.9447 168.143 31.8056 168.176 31.6654 168.182L31.6778 168.482L31.6903 168.782C31.9106 168.773 32.1292 168.719 32.3324 168.623L32.2032 168.352ZM31.6778 168.482L31.6903 168.782L35.0646 168.642L35.0522 168.342L35.0398 168.043L31.6654 168.182L31.6778 168.482Z" fill="#330043" mask="url(#path-24-inside-2_79_2537)"/>
<mask id="path-26-inside-3_79_2537" fill="white">
<path d="M35.0631 168.343C34.8751 168.351 34.6856 168.319 34.5071 168.248L31.132 168.388C31.3105 168.459 31.5 168.49 31.688 168.483L35.0631 168.343Z"/>
</mask>
<path d="M35.0631 168.343C34.8751 168.351 34.6856 168.319 34.5071 168.248L31.132 168.388C31.3105 168.459 31.5 168.49 31.688 168.483L35.0631 168.343Z" fill="#FF4A97"/>
<path d="M34.5071 168.248L34.6183 167.969C34.579 167.954 34.5369 167.946 34.4947 167.948L34.5071 168.248ZM35.0631 168.343L35.0755 168.643C35.2411 168.636 35.3698 168.496 35.3629 168.331C35.3561 168.165 35.2164 168.036 35.0508 168.043L35.0631 168.343ZM31.688 168.483L31.7004 168.782L31.7004 168.782L31.688 168.483ZM31.132 168.388L31.1196 168.088C30.9782 168.094 30.8601 168.198 30.8362 168.337C30.8124 168.477 30.8894 168.614 31.0209 168.666L31.132 168.388ZM34.5071 168.248L34.396 168.527C34.6141 168.614 34.8458 168.652 35.0755 168.643L35.0631 168.343L35.0508 168.043C34.9045 168.049 34.7571 168.025 34.6183 167.969L34.5071 168.248ZM35.0631 168.343L35.0507 168.043L31.6756 168.183L31.688 168.483L31.7004 168.782L35.0755 168.643L35.0631 168.343ZM31.688 168.483L31.6757 168.183C31.5294 168.189 31.382 168.164 31.2432 168.109L31.132 168.388L31.0209 168.666C31.239 168.753 31.4707 168.792 31.7004 168.782L31.688 168.483ZM31.132 168.388L31.1445 168.688L34.5196 168.548L34.5071 168.248L34.4947 167.948L31.1196 168.088L31.132 168.388Z" fill="#330043" mask="url(#path-26-inside-3_79_2537)"/>
<path d="M34.5468 190.953C34.6513 191.099 34.7724 191.221 34.9095 191.316L32.4374 191.419C32.1165 191.432 31.7938 191.318 31.5497 191.077L34.5468 190.953Z" fill="#FF4A97" stroke="#330043" stroke-width="0.300078" stroke-linejoin="round"/>
<path d="M34.352 190.66L31.3231 190.785L27.6916 185.034L30.7219 184.909L34.352 190.66Z" fill="#FF4A97" stroke="#330043" stroke-width="0.300078" stroke-linejoin="round"/>
<path d="M31.152 168.237L25.195 165.862L27.8361 165.753L33.7918 168.127L31.152 168.237Z" fill="#FF4A97" stroke="#330043" stroke-width="0.300078" stroke-linejoin="round"/>
<path d="M30.5024 184.619L27.5066 184.743C27.4151 184.616 27.3061 184.504 27.1819 184.412L29.8983 184.3C30.1282 184.346 30.3372 184.458 30.5024 184.619Z" fill="#FF4A97" stroke="#330043" stroke-width="0.300078" stroke-linejoin="round"/>
<mask id="path-32-inside-4_79_2537" fill="white">
<path d="M27.8656 165.603C27.679 165.529 27.4903 165.499 27.3082 165.506L23.9331 165.646C24.1152 165.639 24.3039 165.669 24.4905 165.743L27.8656 165.603Z"/>
</mask>
<path d="M27.8656 165.603C27.679 165.529 27.4903 165.499 27.3082 165.506L23.9331 165.646C24.1152 165.639 24.3039 165.669 24.4905 165.743L27.8656 165.603Z" fill="#FF4A97"/>
<path d="M27.3082 165.506L27.2959 165.206L27.2958 165.206L27.3082 165.506ZM27.8656 165.603L27.878 165.903C28.0195 165.897 28.1376 165.793 28.1614 165.654C28.1852 165.514 28.1083 165.377 27.9768 165.324L27.8656 165.603ZM24.4905 165.743L24.3794 166.022C24.4186 166.037 24.4607 166.044 24.5029 166.043L24.4905 165.743ZM23.9331 165.646L23.9207 165.346C23.7551 165.353 23.6265 165.493 23.6333 165.658C23.6402 165.824 23.7799 165.953 23.9455 165.946L23.9331 165.646ZM27.3082 165.506L27.3206 165.806C27.4607 165.8 27.6074 165.823 27.7545 165.882L27.8656 165.603L27.9768 165.324C27.7507 165.234 27.5198 165.197 27.2959 165.206L27.3082 165.506ZM27.8656 165.603L27.8532 165.303L24.4781 165.443L24.4905 165.743L24.5029 166.043L27.878 165.903L27.8656 165.603ZM24.4905 165.743L24.6017 165.464C24.3756 165.374 24.1447 165.337 23.9208 165.346L23.9331 165.646L23.9455 165.946C24.0856 165.94 24.2323 165.963 24.3794 166.022L24.4905 165.743ZM23.9331 165.646L23.9456 165.946L27.3206 165.806L27.3082 165.506L27.2958 165.206L23.9207 165.346L23.9331 165.646Z" fill="#330043" mask="url(#path-32-inside-4_79_2537)"/>
<path d="M26.4154 165.691C26.0707 165.969 25.8463 166.398 25.8589 166.888L22.7845 167.015C22.7709 166.347 23.3058 165.82 23.9337 165.794L26.4154 165.691Z" fill="#FF4A97" stroke="#330043" stroke-width="0.300078" stroke-linejoin="round"/>
<path d="M26.8117 174.275C26.8162 174.54 26.7321 174.798 26.5733 175.011L23.5638 175.136C23.6826 174.911 23.7429 174.658 23.7373 174.402L26.8117 174.275Z" fill="#FF4A97" stroke="#330043" stroke-width="0.300078" stroke-linejoin="round"/>
<path d="M26.7809 173.975L23.7079 174.102L22.8139 167.316L25.8883 167.188L26.7809 173.975Z" fill="#FF4A97" stroke="#330043" stroke-width="0.300078" stroke-linejoin="round"/>
<path d="M26.5354 184.137L20.8369 183.08L22.8667 182.996L28.5652 184.053L26.5354 184.137Z" fill="#FF4A97" stroke="#330043" stroke-width="0.300078" stroke-linejoin="round"/>
<path d="M22.016 180.509L19.0452 180.632L23.3539 175.448L26.3248 175.325L22.016 180.509Z" fill="#FF4A97" stroke="#330043" stroke-width="0.300078" stroke-linejoin="round"/>
<path d="M21.7981 180.815C21.4418 181.48 21.6504 182.292 22.2295 182.722L19.5153 182.834C18.6438 182.662 18.2599 181.642 18.7859 180.94L21.7981 180.815Z" fill="#FF4A97" stroke="#330043" stroke-width="0.300078" stroke-linejoin="round"/>
<path d="M65.451 141.426C65.7856 141.306 66.4264 141.866 66.226 142.103C65.504 142.956 64.8216 143.99 64.74 144.916C64.6562 145.869 65.1816 146.998 65.767 147.932C65.93 148.193 65.2422 148.651 64.926 148.493C63.7901 147.926 62.3936 147.378 61.1451 147.314C59.9305 147.251 58.4967 147.629 57.2917 148.061C56.9572 148.181 56.3163 147.621 56.5168 147.384C57.2388 146.531 57.9211 145.498 58.0027 144.571C58.0866 143.619 57.5611 142.489 56.9758 141.555C56.8128 141.294 57.5005 140.836 57.8168 140.994C58.9526 141.561 60.3492 142.11 61.5976 142.174C62.8122 142.236 64.246 141.858 65.451 141.426Z" fill="#330043"/>
<ellipse cx="1.69322" cy="212.183" rx="0.373187" ry="4.01114" transform="rotate(63.8422 1.69322 212.183)" fill="#FD8A02"/>
<ellipse cx="1.69322" cy="212.183" rx="0.373187" ry="4.01114" transform="rotate(63.8422 1.69322 212.183)" fill="#FD8A02"/>
<ellipse cx="6.49833" cy="215.656" rx="0.373187" ry="4.01114" transform="rotate(63.8422 6.49833 215.656)" fill="#FD8A02"/>
<ellipse cx="6.49833" cy="215.656" rx="0.373187" ry="4.01114" transform="rotate(63.8422 6.49833 215.656)" fill="#FD8A02"/>
<ellipse cx="11.9246" cy="219.707" rx="0.373187" ry="4.01114" transform="rotate(63.8422 11.9246 219.707)" fill="#FD8A02"/>
<ellipse cx="11.9246" cy="219.707" rx="0.373187" ry="4.01114" transform="rotate(63.8422 11.9246 219.707)" fill="#FD8A02"/>
<rect x="326.161" y="191.954" width="69.5938" height="21.3607" rx="7.13783" transform="rotate(-17.0711 326.161 191.954)" fill="#330043"/>
<path d="M332.911 189.619L385.792 173.38C389.403 172.271 393.23 174.299 394.339 177.911L395.937 183.113C397.046 186.724 395.016 190.551 391.405 191.66L338.524 207.899C334.913 209.008 331.087 206.98 329.978 203.368L328.38 198.166C327.271 194.554 329.299 190.728 332.911 189.619Z" fill="#FFCD34" stroke="#330043" stroke-width="0.594819"/>
<path d="M386.61 175.928V175.928C388.687 175.291 390.888 176.457 391.526 178.534L391.642 178.914" stroke="white" stroke-width="1.18964" stroke-linecap="round" stroke-linejoin="round"/>
<path d="M380.03 178.743C380.451 178.613 380.881 178.591 381.314 178.676C381.739 178.759 382.137 178.932 382.506 179.192C382.886 179.44 383.221 179.764 383.51 180.158C383.801 180.556 384.023 181.007 384.177 181.508C384.33 182.009 384.4 182.507 384.382 182.999C384.364 183.487 384.27 183.945 384.099 184.371L384.101 184.372C383.938 184.785 383.707 185.152 383.407 185.468L383.401 185.473C383.357 185.518 383.311 185.559 383.264 185.6C383.306 185.6 383.347 185.599 383.389 185.6L383.39 185.6C383.784 185.607 384.152 185.677 384.491 185.813L384.745 185.923C384.99 186.044 385.21 186.2 385.403 186.389C385.662 186.644 385.846 186.945 385.951 187.288C386.057 187.631 386.073 187.983 386.002 188.34C385.949 188.603 385.856 188.856 385.724 189.098L385.579 189.338C385.376 189.64 385.113 189.91 384.794 190.147L384.788 190.152C384.463 190.381 384.098 190.556 383.695 190.68C383.293 190.803 382.892 190.864 382.494 190.856L382.487 190.856C382.09 190.838 381.721 190.763 381.384 190.626L381.377 190.624C381.039 190.479 380.742 190.281 380.489 190.033C380.23 189.778 380.046 189.477 379.94 189.134C379.835 188.791 379.819 188.438 379.89 188.082C379.96 187.732 380.098 187.406 380.302 187.103C380.506 186.799 380.772 186.533 381.096 186.305C381.13 186.28 381.166 186.257 381.2 186.234C381.139 186.226 381.077 186.218 381.016 186.206L381.009 186.205C380.583 186.111 380.185 185.938 379.819 185.687L379.815 185.684C379.447 185.423 379.12 185.095 378.833 184.703C378.542 184.305 378.319 183.855 378.166 183.354C378.012 182.853 377.943 182.355 377.961 181.862C377.978 181.376 378.066 180.924 378.229 180.51C378.389 180.086 378.622 179.718 378.929 179.409C379.239 179.095 379.608 178.872 380.03 178.743Z" fill="#FF4A97" stroke="#330043" stroke-width="0.594819"/>
<path d="M373.935 179.819C374.434 179.666 374.941 179.67 375.449 179.826L375.637 179.888C376.076 180.045 376.492 180.29 376.886 180.62L376.885 180.62C377.331 180.987 377.734 181.453 378.094 182.013C378.457 182.577 378.745 183.211 378.96 183.912C379.188 184.654 379.305 185.381 379.308 186.09C379.311 186.684 379.242 187.234 379.103 187.738C379.416 187.871 379.697 188.049 379.944 188.271C380.266 188.554 380.492 188.902 380.617 189.309C380.735 189.692 380.752 190.087 380.671 190.49L380.67 190.494C380.586 190.881 380.423 191.246 380.186 191.59L380.182 191.595C379.941 191.928 379.633 192.224 379.264 192.487L379.265 192.487C378.9 192.751 378.481 192.955 378.013 193.099C377.636 193.214 377.255 193.279 376.87 193.293C376.482 193.308 376.111 193.263 375.759 193.158L375.753 193.155C375.409 193.045 375.099 192.874 374.825 192.644L374.814 192.636C374.723 192.552 374.643 192.459 374.569 192.361C374.561 192.488 374.543 192.613 374.51 192.737L374.509 192.736C374.421 193.083 374.258 193.402 374.023 193.69L374.022 193.69C373.8 193.972 373.524 194.216 373.196 194.422C372.869 194.626 372.518 194.786 372.141 194.902C371.672 195.046 371.207 195.114 370.748 195.104L370.745 195.104C370.302 195.09 369.887 195.015 369.502 194.875L369.496 194.872C369.106 194.721 368.766 194.511 368.48 194.237L368.477 194.234C368.184 193.947 367.976 193.61 367.858 193.227C367.734 192.823 367.719 192.413 367.814 192.003L367.815 192C367.894 191.676 368.028 191.37 368.213 191.082C367.815 190.743 367.45 190.326 367.119 189.833L367.117 189.829C366.734 189.238 366.428 188.571 366.201 187.83C365.985 187.129 365.869 186.443 365.853 185.772C365.836 185.106 365.907 184.494 366.071 183.939C366.231 183.378 366.471 182.891 366.795 182.486L366.798 182.483C367.14 182.066 367.563 181.776 368.063 181.622C368.441 181.506 368.828 181.486 369.221 181.561L369.22 181.562C369.609 181.622 369.985 181.758 370.348 181.969C370.712 182.173 371.055 182.444 371.375 182.778L371.374 182.778C371.504 182.908 371.628 183.047 371.748 183.192C371.767 183.002 371.792 182.816 371.827 182.633C371.915 182.176 372.051 181.76 372.237 181.389L372.238 181.388C372.419 181.01 372.649 180.686 372.928 180.421C373.221 180.138 373.557 179.935 373.935 179.819Z" fill="#FF4A97" stroke="#330043" stroke-width="0.594819"/>
<path d="M360.686 183.887C361.313 183.695 361.945 183.652 362.577 183.759L362.813 183.803C363.358 183.92 363.869 184.13 364.345 184.433L364.548 184.565C365.018 184.881 365.437 185.281 365.806 185.761C366.231 186.313 366.552 186.946 366.77 187.655C366.861 187.95 366.932 188.309 366.988 188.729C367.054 189.156 367.065 189.584 367.016 190.012C366.966 190.451 366.836 190.855 366.625 191.22C366.524 191.394 366.397 191.541 366.247 191.666C366.357 191.662 366.464 191.664 366.567 191.675L366.566 191.675C366.915 191.699 367.228 191.78 367.493 191.932L367.492 191.932C367.736 192.064 367.938 192.235 368.092 192.445L368.093 192.445C368.248 192.639 368.363 192.841 368.428 193.052C368.551 193.453 368.533 193.871 368.388 194.295L368.387 194.3C368.241 194.707 367.993 195.094 367.656 195.462L367.655 195.463C367.324 195.819 366.906 196.145 366.408 196.443L366.407 196.443C365.916 196.74 365.368 196.981 364.764 197.167C364.159 197.353 363.564 197.463 362.98 197.496L362.979 197.496C362.411 197.525 361.885 197.489 361.403 197.385L361.394 197.383C360.919 197.264 360.504 197.081 360.157 196.827L360.154 196.824C359.796 196.554 359.546 196.219 359.423 195.817C359.292 195.393 359.321 194.956 359.491 194.521L359.492 194.52C359.625 194.187 359.822 193.87 360.078 193.57C359.607 193.264 359.18 192.88 358.8 192.416L358.797 192.411C358.339 191.835 357.996 191.171 357.765 190.42C357.547 189.711 357.458 189.007 357.5 188.312C357.541 187.622 357.689 186.985 357.947 186.402L357.948 186.401C358.213 185.806 358.574 185.288 359.031 184.849L359.034 184.847C359.507 184.401 360.059 184.08 360.686 183.887ZM364.463 192.04C364.49 192.096 364.514 192.154 364.533 192.215C364.546 192.26 364.556 192.305 364.565 192.349C364.605 192.301 364.649 192.254 364.696 192.21C364.733 192.174 364.772 192.14 364.813 192.109C364.767 192.104 364.72 192.101 364.674 192.093L364.668 192.092C364.599 192.078 364.53 192.06 364.463 192.04Z" fill="#FF4A97" stroke="#330043" stroke-width="0.594819"/>
<path d="M351.318 186.75C352.069 186.519 352.816 186.437 353.553 186.507L353.552 186.507C354.294 186.573 354.983 186.763 355.618 187.081C356.25 187.398 356.802 187.825 357.272 188.361L357.448 188.567C357.845 189.059 358.14 189.62 358.333 190.248C358.546 190.943 358.614 191.641 358.534 192.34L358.535 192.34C358.472 192.939 358.308 193.512 358.044 194.058L357.925 194.291C357.782 194.553 357.599 194.769 357.38 194.942C357.447 194.968 357.508 195.007 357.56 195.051L357.561 195.05C357.669 195.135 357.761 195.246 357.842 195.373L357.912 195.472C357.975 195.567 358.028 195.671 358.074 195.781L358.167 195.987C358.194 196.054 358.217 196.12 358.237 196.183C358.356 196.57 358.366 196.97 358.272 197.377L358.272 197.381C358.175 197.773 357.994 198.144 357.734 198.493L357.729 198.498C357.465 198.837 357.13 199.142 356.728 199.413L356.727 199.412C356.332 199.683 355.889 199.893 355.4 200.043C354.911 200.193 354.421 200.27 353.932 200.271L353.93 200.271C353.456 200.268 353.014 200.203 352.607 200.071L352.6 200.07C352.19 199.927 351.829 199.725 351.521 199.461L351.511 199.453C351.205 199.169 350.989 198.832 350.87 198.445C350.831 198.318 350.802 198.176 350.78 198.02C350.758 197.866 350.745 197.718 350.742 197.578L350.742 197.569L350.743 197.56C350.748 197.404 350.767 197.258 350.808 197.129C350.828 197.06 350.859 196.99 350.903 196.927C350.629 196.905 350.361 196.828 350.101 196.694C349.48 196.373 348.941 195.952 348.487 195.431L348.485 195.429C348.026 194.895 347.69 194.278 347.476 193.582C347.256 192.866 347.189 192.149 347.278 191.434L347.279 191.43C347.378 190.719 347.601 190.054 347.947 189.437C348.293 188.818 348.757 188.273 349.335 187.802C349.916 187.328 350.577 186.977 351.318 186.75Z" fill="#FF4A97" stroke="#330043" stroke-width="0.594819"/>
<path d="M341.961 189.638C342.588 189.445 343.22 189.403 343.852 189.51L344.088 189.554C344.633 189.67 345.144 189.88 345.62 190.184L345.823 190.315C346.293 190.632 346.712 191.031 347.082 191.511C347.506 192.064 347.827 192.696 348.045 193.406C348.197 193.9 348.285 194.394 348.309 194.886C348.333 195.375 348.301 195.85 348.213 196.309L348.209 196.322C348.109 196.736 347.877 197.043 347.529 197.23C347.548 197.234 347.568 197.236 347.587 197.239C348.104 197.332 348.554 197.511 348.924 197.783L349.062 197.885C349.372 198.132 349.591 198.438 349.703 198.802C349.826 199.204 349.808 199.622 349.663 200.045L349.662 200.05C349.516 200.457 349.268 200.844 348.931 201.212L348.93 201.213C348.599 201.569 348.181 201.896 347.683 202.194L347.682 202.193C347.192 202.49 346.644 202.732 346.039 202.917C345.434 203.103 344.839 203.214 344.256 203.247L344.254 203.246C343.686 203.275 343.16 203.24 342.678 203.135L342.669 203.133C342.194 203.015 341.779 202.831 341.432 202.577L341.429 202.574C341.071 202.304 340.821 201.969 340.698 201.568C340.637 201.369 340.609 201.162 340.614 200.948L340.614 200.939L340.614 200.93C340.631 200.716 340.681 200.512 340.763 200.321L340.834 200.167C340.911 200.02 341.01 199.886 341.13 199.77L341.137 199.764C341.268 199.645 341.419 199.549 341.587 199.477C341.283 199.356 340.999 199.194 340.739 198.989L340.728 198.98C340.465 198.751 340.227 198.493 340.011 198.206L340.003 198.196C339.798 197.9 339.613 197.581 339.446 197.242L339.442 197.232C339.287 196.89 339.153 196.536 339.04 196.171C338.823 195.461 338.733 194.758 338.775 194.062C338.816 193.373 338.965 192.735 339.222 192.152L339.223 192.151C339.488 191.556 339.849 191.038 340.306 190.6L340.309 190.598C340.782 190.151 341.334 189.831 341.961 189.638Z" fill="#FF4A97" stroke="#330043" stroke-width="0.594819"/>
<path d="M353.059 187.647C355.291 187.495 358.67 190.327 356.854 193.88" stroke="white" stroke-width="0.594819" stroke-linecap="round"/>
<path d="M366.25 195.224C367.099 194.64 367.892 193.398 366.743 192.812" stroke="white" stroke-width="0.594819" stroke-linecap="round"/>
<path d="M373.755 181.182C375.022 180.332 378.465 182.292 377.831 187.283" stroke="white" stroke-width="0.594819" stroke-linecap="round"/>
<path d="M384.794 188.12C384.691 188.872 384.252 189.443 383.055 189.811" stroke="white" stroke-width="0.594819" stroke-linecap="round"/>
<path d="M343.07 190.596C342.312 190.555 341.092 191.119 340.506 192.225" stroke="white" stroke-width="0.594819" stroke-linecap="round"/>
<path d="M361.904 184.812C361.146 184.771 359.926 185.335 359.34 186.442" stroke="white" stroke-width="0.594819" stroke-linecap="round"/>
<path d="M367.705 183.307C369.056 182.016 370.862 183.505 371.397 184.806" stroke="white" stroke-width="0.594819" stroke-linecap="round"/>
<path d="M349.85 93.4286C349.913 93.4616 349.95 93.5192 349.95 93.585C349.95 93.6507 349.913 93.718 349.849 93.7678L345.225 97.4095C345.126 97.4876 344.983 97.5068 344.884 97.455L336.545 93.086C336.482 93.0529 336.446 92.9955 336.446 92.9299C336.446 92.8642 336.482 92.7973 336.546 92.7475L341.171 89.1054L341.252 89.0584C341.339 89.0226 341.436 89.0216 341.511 89.0604L349.85 93.4286Z" fill="#9854CB" stroke="#330043" stroke-width="0.490893" stroke-linejoin="round"/>
<path d="M350.022 93.6C350.119 93.6388 350.166 93.7299 350.138 93.8258L349.36 96.401C349.346 96.4475 349.315 96.4911 349.272 96.526L344.96 100.006C344.871 100.078 344.744 100.101 344.646 100.062C344.548 100.023 344.5 99.9321 344.529 99.8361L345.307 97.262C345.321 97.2154 345.352 97.1712 345.396 97.1362L349.708 93.6561L349.78 93.6116C349.858 93.5766 349.948 93.571 350.022 93.6Z" fill="#9854CB" stroke="#330043" stroke-width="0.490893" stroke-linejoin="round"/>
<path d="M339.907 87.3587C340.004 87.368 340.078 87.4219 340.099 87.4991C340.119 87.5762 340.082 87.6637 340.004 87.7254L335.495 91.282C335.427 91.3357 335.335 91.3631 335.251 91.3549L331.545 90.9963C331.449 90.9869 331.375 90.9329 331.354 90.8559C331.334 90.7787 331.37 90.6912 331.449 90.6295L335.958 87.0729L336.013 87.0374C336.071 87.0075 336.138 86.9937 336.201 86.9997L339.907 87.3587Z" fill="#9854CB" stroke="#330043" stroke-width="0.490893" stroke-linejoin="round"/>
<path d="M341.155 89.02C341.253 89.0588 341.3 89.1499 341.271 89.2458L340.577 91.5449C340.563 91.5915 340.532 91.6357 340.488 91.6707L336.174 95.1512C336.085 95.2231 335.958 95.2459 335.861 95.2072C335.762 95.1684 335.716 95.0767 335.745 94.9806L336.439 92.6823C336.453 92.6358 336.484 92.5916 336.528 92.5566L340.84 89.0757L340.913 89.0312C340.991 88.9961 341.082 88.9909 341.155 89.02Z" fill="#9854CB" stroke="#330043" stroke-width="0.490893" stroke-linejoin="round"/>
<path d="M347.115 94.4055C347.18 94.4377 347.218 94.4949 347.219 94.5612C347.219 94.6277 347.183 94.6962 347.119 94.7466L342.518 98.3657C342.421 98.4423 342.282 98.4619 342.183 98.4131L335.983 95.3537C335.918 95.3215 335.879 95.2642 335.878 95.1977C335.877 95.1312 335.914 95.063 335.978 95.0126L340.579 91.3935L340.659 91.347C340.744 91.3114 340.84 91.3095 340.915 91.3461L347.115 94.4055Z" fill="#9854CB" stroke="#330043" stroke-width="0.490893" stroke-linejoin="round"/>
<path d="M346.984 94.3409C347.103 94.3141 347.218 94.3529 347.264 94.4361C347.311 94.5195 347.279 94.6276 347.186 94.7011L342.697 98.2468C342.657 98.2781 342.61 98.3009 342.559 98.3124L335.064 100.001C334.945 100.028 334.831 99.9888 334.784 99.9054C334.738 99.8221 334.769 99.7147 334.862 99.6413L339.351 96.0956L339.416 96.0545C339.44 96.0435 339.464 96.0349 339.49 96.0291L346.984 94.3409Z" fill="#9854CB" stroke="#330043" stroke-width="0.490893" stroke-linejoin="round"/>
<path d="M349.166 95.8921C349.286 95.8628 349.402 95.9004 349.45 95.9837C349.499 96.0673 349.466 96.1767 349.372 96.2509L344.873 99.8024C344.835 99.8325 344.789 99.8549 344.74 99.8668L334.543 102.363C334.423 102.392 334.306 102.354 334.258 102.271C334.21 102.187 334.242 102.078 334.336 102.004L338.835 98.4522L338.898 98.4132C338.921 98.4025 338.944 98.3937 338.968 98.3878L349.166 95.8921Z" fill="#9854CB" stroke="#330043" stroke-width="0.490893" stroke-linejoin="round"/>
<path d="M340.013 87.4285C340.112 87.4924 340.128 87.6161 340.049 87.7161L332.196 97.7065C332.184 97.7225 332.169 97.7374 332.153 97.7509L327.943 101.206C327.84 101.291 327.688 101.307 327.589 101.243C327.49 101.179 327.475 101.055 327.554 100.955L335.407 90.9649L335.451 90.9205L339.66 87.4651C339.763 87.3808 339.915 87.3649 340.013 87.4285Z" fill="#9854CB" stroke="#330043" stroke-width="0.490893" stroke-linejoin="round"/>
<path d="M329.141 87.4185C329.239 87.4573 329.286 87.5484 329.257 87.6443L328.563 89.9434C328.549 89.99 328.517 90.0342 328.474 90.0692L324.16 93.5497C324.071 93.6216 323.944 93.6444 323.846 93.6057C323.748 93.5669 323.702 93.4752 323.731 93.3791L324.425 91.0808C324.439 91.0342 324.47 90.9901 324.513 90.9551L328.826 87.4742L328.899 87.4297C328.977 87.3945 329.067 87.3894 329.141 87.4185Z" fill="#9854CB" stroke="#330043" stroke-width="0.490893" stroke-linejoin="round"/>
<path d="M339.584 95.8921C339.682 95.931 339.728 96.0221 339.7 96.1179L339.005 98.417C338.991 98.4636 338.96 98.5078 338.917 98.5428L334.603 102.023C334.513 102.095 334.387 102.118 334.289 102.079C334.191 102.041 334.145 101.949 334.173 101.853L334.867 99.5545C334.881 99.5079 334.913 99.4637 334.956 99.4287L339.269 95.9479L339.342 95.9033C339.42 95.8682 339.51 95.863 339.584 95.8921Z" fill="#9854CB" stroke="#330043" stroke-width="0.490893" stroke-linejoin="round"/>
<path d="M336.127 86.9139C336.226 86.9778 336.242 87.1014 336.163 87.2015L328.31 97.1919C328.298 97.2079 328.283 97.2227 328.267 97.2363L324.057 100.692C323.954 100.776 323.802 100.792 323.703 100.728C323.604 100.664 323.59 100.541 323.668 100.441L331.521 90.4503L331.565 90.4059L335.774 86.9505C335.877 86.8662 336.029 86.8503 336.127 86.9139Z" fill="#9854CB" stroke="#330043" stroke-width="0.490893" stroke-linejoin="round"/>
<path d="M328.886 87.1411C329.006 87.1118 329.122 87.1494 329.17 87.2328C329.219 87.3163 329.187 87.4258 329.093 87.5L324.593 91.0514C324.555 91.0815 324.509 91.1039 324.46 91.1158L314.263 93.6116C314.143 93.6407 314.027 93.6033 313.978 93.5199C313.93 93.4363 313.962 93.3269 314.056 93.2527L318.556 89.7012L318.619 89.6623C318.641 89.6515 318.664 89.6427 318.689 89.6368L328.886 87.1411Z" fill="#9854CB" stroke="#330043" stroke-width="0.490893" stroke-linejoin="round"/>
<path d="M328.364 89.5001C328.483 89.4733 328.598 89.5121 328.644 89.5954C328.691 89.6787 328.659 89.7868 328.566 89.8603L324.077 93.406C324.037 93.4373 323.989 93.4601 323.939 93.4716L316.443 95.1607C316.324 95.1875 316.211 95.148 316.164 95.0646C316.118 94.9813 316.149 94.8739 316.242 94.8005L320.731 91.2548L320.796 91.2137C320.82 91.2027 320.844 91.1941 320.87 91.1884L328.364 89.5001Z" fill="#9854CB" stroke="#330043" stroke-width="0.490893" stroke-linejoin="round"/>
<path d="M332.177 97.1587C332.274 97.1681 332.348 97.222 332.368 97.2991C332.388 97.3763 332.352 97.4638 332.274 97.5255L327.764 101.082C327.696 101.136 327.605 101.163 327.52 101.155L323.815 100.796C323.718 100.787 323.644 100.733 323.624 100.656C323.603 100.579 323.64 100.491 323.718 100.43L328.227 96.873L328.282 96.8374C328.34 96.8076 328.407 96.7937 328.47 96.7998L332.177 97.1587Z" fill="#9854CB" stroke="#330043" stroke-width="0.490893" stroke-linejoin="round"/>
<path d="M327.444 94.1499C327.509 94.1821 327.547 94.2393 327.548 94.3056C327.549 94.3721 327.513 94.4405 327.449 94.491L322.848 98.1101C322.75 98.1867 322.611 98.2063 322.512 98.1574L316.312 95.0981C316.247 95.0659 316.208 95.0085 316.207 94.942C316.207 94.8756 316.244 94.8074 316.308 94.757L320.909 91.1378L320.988 91.0914C321.073 91.0558 321.17 91.0538 321.244 91.0905L327.444 94.1499Z" fill="#9854CB" stroke="#330043" stroke-width="0.490893" stroke-linejoin="round"/>
<path d="M327.567 94.2977C327.665 94.3365 327.712 94.4276 327.683 94.5235L326.989 96.8226C326.975 96.8692 326.944 96.9134 326.9 96.9484L322.587 100.429C322.497 100.501 322.371 100.524 322.273 100.485C322.175 100.446 322.128 100.354 322.157 100.258L322.851 97.9601C322.865 97.9135 322.896 97.8693 322.94 97.8343L327.253 94.3535L327.325 94.3089C327.403 94.2738 327.494 94.2686 327.567 94.2977Z" fill="#9854CB" stroke="#330043" stroke-width="0.490893" stroke-linejoin="round"/>
<path d="M318.786 89.4384C318.884 89.4771 318.93 89.5682 318.902 89.6641L318.124 92.2393C318.11 92.2858 318.079 92.3294 318.036 92.3643L313.724 95.8444C313.635 95.9165 313.508 95.9391 313.41 95.9005C313.312 95.8617 313.264 95.7704 313.293 95.6744L314.071 93.1003C314.085 93.0537 314.116 93.0095 314.16 92.9745L318.472 89.4944L318.544 89.4499C318.622 89.4149 318.712 89.4093 318.786 89.4384Z" fill="#9854CB" stroke="#330043" stroke-width="0.490893" stroke-linejoin="round"/>
<path d="M326.884 96.4163C326.947 96.4494 326.984 96.507 326.984 96.5727C326.984 96.6385 326.946 96.7058 326.883 96.7556L322.259 100.397C322.159 100.475 322.017 100.495 321.918 100.443L313.579 96.0738C313.516 96.0407 313.479 95.9833 313.48 95.9176C313.48 95.852 313.516 95.7851 313.579 95.7353L318.205 92.0931L318.286 92.0461C318.372 92.0103 318.47 92.0093 318.544 92.0481L326.884 96.4163Z" fill="#9854CB" stroke="#330043" stroke-width="0.490893" stroke-linejoin="round"/>
<path d="M341.462 89.462C341.535 89.2199 341.881 89.0861 342.109 89.2115L349.598 93.3327C349.719 93.399 349.77 93.523 349.732 93.6509L348.953 96.2225C348.914 96.3505 348.792 96.4593 348.638 96.5019L339.1 99.146C338.809 99.2263 338.56 99.04 338.634 98.798L339.293 96.6232C339.332 96.4923 339.46 96.3808 339.618 96.3403L346.169 94.6608L340.945 91.9601C340.819 91.8951 340.763 91.7686 340.803 91.6376L341.462 89.462Z" fill="white" stroke="#330043" stroke-width="0.490893"/>
<path d="M339.713 87.0375C339.984 87.0612 340.104 87.306 339.945 87.5135L331.994 97.9014C331.899 98.0264 331.726 98.1002 331.562 98.086L328.339 97.8066C328.067 97.7829 327.947 97.5378 328.105 97.3305L336.057 86.9418L336.096 86.8975C336.196 86.7998 336.346 86.7456 336.489 86.758L339.713 87.0375Z" fill="white" stroke="#330043" stroke-width="0.490893"/>
<path d="M328.662 87.0445C328.953 86.964 329.202 87.1495 329.128 87.3916L328.469 89.5672C328.43 89.6981 328.302 89.8088 328.145 89.8493L321.593 91.5278L326.818 94.2294C326.943 94.2945 326.999 94.4219 326.959 94.5528L326.3 96.7276C326.227 96.9696 325.881 97.1043 325.653 96.9789L318.164 92.8569C318.043 92.7905 317.992 92.6666 318.03 92.5387L318.809 89.967C318.848 89.8392 318.97 89.7303 319.124 89.6877L328.662 87.0445Z" fill="white" stroke="#330043" stroke-width="0.490893"/>
<g opacity="0.1">
<path d="M-80.3033 280.959C-64.6952 235.801 41.4238 255.978 113.256 233.167C189.366 208.998 205.815 163.328 295.172 160.048C384.529 156.767 403.288 230.323 470.769 248.837C538.249 267.352 681.261 224.941 737.58 267.108" stroke="#FEF0ED" stroke-width="8.77197"/>
<path d="M-85.4536 307.253C-69.8455 262.095 36.2736 282.272 108.106 259.462C184.216 235.293 200.664 189.623 290.021 186.342C379.378 183.062 398.138 256.618 465.619 275.132C533.099 293.646 676.111 251.235 732.43 293.403" stroke="#FEF0ED" stroke-width="8.77197"/>
<path d="M-86.5436 333.672C-70.9355 288.514 35.1835 308.691 107.016 285.88C183.126 261.711 199.574 216.042 288.931 212.761C378.288 209.481 397.048 283.036 464.528 301.551C532.009 320.065 675.021 277.654 731.34 319.822" stroke="#FEF0ED" stroke-width="8.77197"/>
<path d="M-90.1543 361.634C-74.5462 316.477 31.5728 336.653 103.405 313.843C179.515 289.674 195.964 244.004 285.321 240.724C374.678 237.443 393.437 310.999 460.918 329.513C528.398 348.027 671.41 305.616 727.729 347.784" stroke="#FEF0ED" stroke-width="8.77197"/>
<path d="M-70.5481 173.116C-54.94 127.958 51.179 148.135 123.011 125.324C199.121 101.155 215.57 55.4859 304.927 52.2054C394.284 48.9249 413.043 122.48 480.524 140.995C548.005 159.509 691.016 117.098 747.335 159.266" stroke="#FEF0ED" stroke-width="8.77197"/>
<path d="M-75.6983 199.412C-60.0902 154.254 46.0289 174.431 117.861 151.62C193.971 127.451 210.42 81.7817 299.777 78.5012C389.134 75.2207 407.893 148.776 475.374 167.29C542.854 185.805 685.866 143.394 742.185 185.561" stroke="#FEF0ED" stroke-width="8.77197"/>
<path d="M-76.7843 225.831C-61.1762 180.673 44.9429 200.85 116.775 178.04C192.885 153.871 209.334 108.201 298.691 104.921C388.048 101.64 406.807 175.196 474.288 193.71C541.768 212.224 684.78 169.813 741.099 211.981" stroke="#FEF0ED" stroke-width="8.77197"/>
<path d="M-80.3949 253.793C-64.7868 208.636 41.3322 228.812 113.164 206.002C189.274 181.833 205.723 136.163 295.08 132.883C384.437 129.602 403.197 203.158 470.677 221.672C538.158 240.186 681.169 197.776 737.489 239.943" stroke="#FEF0ED" stroke-width="8.77197"/>
<path d="M-92.088 389.552C-76.4799 344.394 29.6392 364.571 101.471 341.76C177.581 317.591 194.03 271.922 283.387 268.641C372.744 265.361 391.504 338.916 458.984 357.431C526.465 375.945 669.476 333.534 725.795 375.702" stroke="#FEF0ED" stroke-width="8.77197"/>
<path d="M-97.4536 416.628C-81.8455 371.47 24.2735 391.647 96.1056 368.836C172.216 344.667 188.664 298.998 278.021 295.717C367.378 292.437 386.138 365.992 453.618 384.506C521.099 403.021 664.111 360.61 720.43 402.777" stroke="#FEF0ED" stroke-width="8.77197"/>
<path d="M-100.212 443.093C-84.604 397.935 21.515 418.112 93.3472 395.301C169.457 371.132 185.906 325.463 275.263 322.182C364.62 318.902 383.379 392.457 450.86 410.972C518.341 429.486 661.352 387.075 717.671 429.242" stroke="#FEF0ED" stroke-width="8.77197"/>
<path d="M-102.696 471.18C-87.0875 426.022 19.0315 446.199 90.8636 423.388C166.974 399.219 183.422 353.55 272.779 350.269C362.136 346.989 380.896 420.545 448.376 439.059C515.857 457.573 658.869 415.162 715.188 457.33" stroke="#FEF0ED" stroke-width="8.77197"/>
<path d="M-98.9704 500.034C-83.3623 454.876 22.7568 475.053 94.5889 452.242C170.699 428.073 187.148 382.404 276.505 379.123C365.862 375.843 384.621 449.398 452.102 467.912C519.582 486.427 662.594 444.016 718.913 486.183" stroke="#FEF0ED" stroke-width="8.77197"/>
<path d="M-100.899 529.736C-85.2913 484.578 20.8277 504.755 92.6598 481.945C168.77 457.776 185.219 412.106 274.576 408.826C363.932 405.545 382.692 479.101 450.173 497.615C517.653 516.129 660.665 473.718 716.984 515.886" stroke="#FEF0ED" stroke-width="8.77197"/>
<path d="M-103.076 556.496C-87.4678 511.338 18.6512 531.515 90.4833 508.704C166.593 484.535 183.042 438.866 272.399 435.585C361.756 432.305 380.516 505.86 447.996 524.374C515.477 542.889 658.488 500.478 714.808 542.645" stroke="#FEF0ED" stroke-width="8.77197"/>
<path d="M-100.89 589.829C-85.2822 544.672 20.8369 564.848 92.669 542.038C168.779 517.869 185.228 472.199 274.585 468.919C363.942 465.638 382.701 539.194 450.182 557.708C517.662 576.222 660.674 533.812 716.993 575.979" stroke="#FEF0ED" stroke-width="8.77197"/>
<path d="M-98.7092 623.163C-83.1011 578.006 23.018 598.182 94.8501 575.372C170.96 551.203 187.409 505.533 276.766 502.253C366.123 498.972 384.882 572.528 452.363 591.042C519.843 609.556 662.855 567.145 719.174 609.313" stroke="#FEF0ED" stroke-width="8.77197"/>
</g>
<path d="M207.358 119.499C210.71 117.405 214.299 116.356 218.294 117.139C222.315 117.927 224.592 119.599 225.925 121.767C227.268 123.951 227.676 126.675 227.875 129.621C228.072 132.545 228.061 135.701 228.599 138.638C229.14 141.59 230.242 144.369 232.688 146.567C236.563 150.047 241.351 150.56 245.695 151.321C250.063 152.085 253.993 153.097 256.432 157.439C258.814 161.681 258.056 165.45 256.746 169.452C255.44 173.439 253.57 177.684 253.903 182.722C254.156 186.534 255.536 189.94 257.327 193.095C259.114 196.243 261.327 199.171 263.238 201.995C265.159 204.831 266.78 207.568 267.445 210.382C268.106 213.18 267.824 216.068 265.905 219.222C262.62 224.62 257.645 225.504 252.011 225.847C246.402 226.189 240.125 225.985 234.52 229.368C229.758 232.242 227.119 236.152 224.397 239.725C221.672 243.302 218.853 246.56 213.718 248.28C207.375 250.404 202.317 248.897 197.115 246.748C191.922 244.604 186.558 241.803 179.718 241.485C173.618 241.201 168.362 243.564 163.462 245.125C158.545 246.692 153.958 247.474 149.017 244.215C145.77 242.073 144.519 239.197 143.348 236.125C142.179 233.062 141.086 229.791 138.112 227.034C134.401 223.593 129.815 223.081 125.608 222.365C121.379 221.645 117.524 220.723 115.001 216.599C113.142 213.56 112.865 210.822 113.549 208.203C114.236 205.567 115.901 203.032 117.969 200.421C119.001 199.118 120.128 197.803 121.277 196.451C122.425 195.1 123.594 193.712 124.705 192.272C126.926 189.391 128.922 186.284 130.06 182.787C132.46 175.417 131.754 168.539 131.821 162.176C131.889 155.804 132.724 149.903 138.123 144.315C143.477 138.772 150.592 139.638 158.081 141.51C161.802 142.44 165.628 143.623 169.294 144.338C172.967 145.055 176.536 145.315 179.779 144.386C183.031 143.455 186.059 141.054 189.011 138.071C191.961 135.089 194.881 131.477 197.883 128.114C200.895 124.738 204 121.598 207.358 119.499Z" fill="#330043" stroke="#330043" stroke-width="0.537549"/>
<path d="M126.232 181.114C131.266 165.629 123.26 152.287 134.812 140.309C146.363 128.332 165.48 144.167 178.923 140.309C186.222 138.215 192.546 128.898 199.559 121.362M257.553 181.114C256.858 170.595 265.341 163.44 260.188 154.249C254.899 144.816 243.093 149.908 235.059 142.678C231.193 139.199 230.569 134.301 230.299 129.391" stroke="#330043" stroke-width="0.537549"/>
<path d="M197.484 192.642V197.095H190.473V192.642H197.484Z" fill="#F47155" stroke="#330043" stroke-width="0.537549"/>
<path d="M194.555 196.48C199.059 196.48 203.126 197.037 206.058 197.93C207.526 198.377 208.694 198.904 209.489 199.477C210.163 199.963 210.534 200.455 210.635 200.933H178.476C178.577 200.455 178.948 199.963 179.623 199.477C180.418 198.904 181.586 198.377 183.053 197.93C185.985 197.037 190.052 196.48 194.555 196.48Z" fill="#FFCD34" stroke="#330043" stroke-width="0.537549"/>
<path d="M193.807 199.039C198.696 199.039 205.224 199.937 209.6 200.642C212.476 201.106 214.872 203.057 215.742 205.823C216.641 208.685 217.573 212.364 217.573 215.307C217.573 218.242 216.647 221.907 215.75 224.765C214.878 227.546 212.463 229.502 209.569 229.956C205.192 230.642 198.683 231.512 193.807 231.513C188.893 231.513 182.321 230.629 177.944 229.94C175.104 229.493 172.722 227.598 171.822 224.885C170.87 222.014 169.873 218.291 169.873 215.307C169.874 212.315 170.876 208.579 171.831 205.705C172.727 203.006 175.091 201.116 177.913 200.659C182.289 199.951 188.88 199.039 193.807 199.039Z" fill="#FF4A97" stroke="#330043" stroke-width="0.537549"/>
<path d="M192.794 211.432C193.295 210.89 194.153 210.89 194.654 211.432L195.427 212.269C195.588 212.443 195.782 212.584 195.997 212.683L197.03 213.159C197.701 213.468 197.966 214.284 197.605 214.928L197.049 215.921C196.933 216.128 196.859 216.357 196.831 216.592L196.698 217.722C196.611 218.456 195.917 218.96 195.192 218.816L194.076 218.593C193.844 218.547 193.604 218.547 193.372 218.593L192.255 218.816C191.53 218.96 190.837 218.456 190.75 217.722L190.616 216.592C190.588 216.357 190.514 216.128 190.398 215.921L189.842 214.928C189.481 214.284 189.746 213.468 190.417 213.159L191.451 212.683C191.666 212.584 191.86 212.443 192.021 212.269L192.794 211.432Z" fill="#FFCD34" stroke="#330043" stroke-width="0.537549"/>
<circle cx="269.283" cy="184.4" r="6.44852" fill="#330043" stroke="#330043" stroke-width="0.537549"/>
<path d="M222.51 171.889C221.985 175.863 218.638 179.837 214.561 179.837L216.361 165.89C219.316 164.156 223.364 165.421 222.51 171.889Z" fill="#F47155"/>
<path d="M164.938 171.889C165.463 175.863 168.809 179.837 172.886 179.837L171.086 165.89C168.131 164.156 164.084 165.421 164.938 171.889Z" fill="#F47155"/>
<path d="M196.649 148.27C197.082 149.175 197.707 150.423 198.471 151.799C199.996 154.543 202.093 157.822 204.354 159.881C206.569 161.897 209.944 163.265 212.736 164.128C214.137 164.561 215.401 164.869 216.315 165.069C216.772 165.169 217.142 165.243 217.398 165.291C217.464 165.303 217.522 165.313 217.573 165.322V171.901C217.573 183.524 206.926 193 193.723 193C180.52 193 169.874 183.524 169.873 171.901V165.379C169.942 165.382 170.023 165.385 170.114 165.389C170.45 165.4 170.935 165.413 171.536 165.416C172.736 165.421 174.398 165.388 176.24 165.232C179.909 164.923 184.353 164.125 187.285 162.143C190.218 160.16 192.514 156.294 194.071 152.968C194.852 151.298 195.453 149.75 195.859 148.62C196.028 148.148 196.162 147.748 196.262 147.442C196.366 147.668 196.494 147.948 196.649 148.27Z" fill="#F47155" stroke="#330043" stroke-width="0.537549"/>
<circle cx="182.054" cy="169.252" r="0.806323" fill="#330043"/>
<circle cx="200.988" cy="169.252" r="0.806323" fill="#330043"/>
<path d="M186.496 179.77C186.496 179.77 188.107 182.777 193.725 182.777C199.343 182.777 200.954 179.77 200.954 179.77" stroke="#330043" stroke-width="0.537549" stroke-linecap="round"/>
<path d="M192.894 167.294C192.894 167.294 192.797 168.918 192.19 170.493C191.583 172.068 190.783 173.052 190.783 173.052" stroke="#330043" stroke-width="0.537549" stroke-linecap="round"/>
<path d="M220.452 180.104L220.71 180.029V180.029L220.452 180.104ZM217.845 177.946C217.962 177.854 217.983 177.685 217.892 177.568C217.8 177.451 217.631 177.43 217.514 177.522L217.68 177.734L217.845 177.946ZM220.963 184.086H220.694C220.694 185.893 220.412 187.517 219.965 188.679C219.741 189.261 219.482 189.713 219.207 190.016C218.932 190.318 218.663 190.449 218.413 190.449V190.717V190.986C218.867 190.986 219.269 190.746 219.604 190.377C219.94 190.008 220.229 189.49 220.467 188.872C220.943 187.634 221.232 185.942 221.232 184.086H220.963ZM218.413 190.717V190.449C218.163 190.449 217.894 190.318 217.619 190.016C217.345 189.713 217.085 189.261 216.861 188.679C216.414 187.517 216.132 185.893 216.132 184.086H215.863H215.594C215.594 185.942 215.883 187.634 216.359 188.872C216.597 189.49 216.886 190.008 217.222 190.377C217.557 190.746 217.959 190.986 218.413 190.986V190.717ZM220.452 180.104L220.194 180.179C220.507 181.26 220.694 182.613 220.694 184.086H220.963H221.232C221.232 182.571 221.039 181.166 220.71 180.029L220.452 180.104ZM219.322 177.866L219.124 178.047C219.618 178.587 219.878 179.085 220.194 180.179L220.452 180.104L220.71 180.029C220.381 178.89 220.09 178.307 219.52 177.684L219.322 177.866ZM215.863 184.086H216.132C216.132 182.608 216.321 181.25 216.635 180.168C216.954 179.072 217.388 178.302 217.845 177.946L217.68 177.734L217.514 177.522C216.921 177.985 216.447 178.891 216.119 180.018C215.788 181.156 215.594 182.565 215.594 184.086H215.863Z" fill="#FFCD34"/>
<path d="M166.998 180.104L166.74 180.029V180.029L166.998 180.104ZM169.605 177.946C169.488 177.854 169.467 177.685 169.559 177.568C169.65 177.451 169.819 177.43 169.936 177.522L169.771 177.734L169.605 177.946ZM166.487 184.086H166.756C166.756 185.893 167.038 187.517 167.485 188.679C167.709 189.261 167.969 189.713 168.243 190.016C168.518 190.318 168.787 190.449 169.037 190.449V190.717V190.986C168.583 190.986 168.181 190.746 167.846 190.377C167.51 190.008 167.221 189.49 166.983 188.872C166.507 187.634 166.219 185.942 166.219 184.086H166.487ZM169.037 190.717V190.449C169.287 190.449 169.556 190.318 169.831 190.016C170.106 189.713 170.366 189.261 170.589 188.679C171.036 187.517 171.318 185.893 171.318 184.086H171.587H171.856C171.856 185.942 171.567 187.634 171.091 188.872C170.853 189.49 170.564 190.008 170.229 190.377C169.893 190.746 169.491 190.986 169.037 190.986V190.717ZM166.998 180.104L167.256 180.179C166.944 181.26 166.756 182.613 166.756 184.086H166.487H166.219C166.219 182.571 166.411 181.166 166.74 180.029L166.998 180.104ZM168.128 177.866L168.327 178.047C167.832 178.587 167.573 179.085 167.256 180.179L166.998 180.104L166.74 180.029C167.07 178.89 167.361 178.307 167.93 177.684L168.128 177.866ZM171.587 184.086H171.318C171.318 182.608 171.129 181.25 170.815 180.168C170.497 179.072 170.062 178.302 169.605 177.946L169.771 177.734L169.936 177.522C170.53 177.985 171.004 178.891 171.331 180.018C171.662 181.156 171.856 182.565 171.856 184.086H171.587Z" fill="#FFCD34"/>
<path d="M113.637 170.7C118.216 170.7 121.928 174.412 121.928 178.991C121.928 183.57 118.216 187.282 113.637 187.282C109.058 187.282 105.346 183.57 105.346 178.991C105.346 174.412 109.058 170.7 113.637 170.7Z" fill="#330043" stroke="#330043" stroke-width="0.691152"/>
<circle cx="175.999" cy="124.637" r="8.29117" fill="#330043" stroke="#330043" stroke-width="0.691152"/>
<rect x="-17.4926" y="323.078" width="106.242" height="32.6094" rx="10.8967" transform="rotate(-37.3207 -17.4926 323.078)" fill="#330043"/>
<path d="M-9.05921 316.167L58.0994 264.968C62.6858 261.471 69.2381 262.355 72.7347 266.941L77.7714 273.548C81.268 278.134 80.3845 284.686 75.798 288.183L8.63943 339.382C4.05296 342.879 -2.49934 341.995 -5.99589 337.409L-11.0326 330.802C-14.529 326.216 -13.6455 319.664 -9.05921 316.167Z" fill="#D194FF" stroke="#330043" stroke-width="0.908055"/>
<path d="M64.9535 283.883L66.7427 286.23L62.7711 289.257L60.9819 286.91L64.9535 283.883ZM59.146 272.895L63.4124 278.491L61.7877 279.73L64.2655 282.98L60.2939 286.008L53.5497 277.162L59.146 272.895Z" fill="#9854CB" stroke="#330043" stroke-width="0.908055"/>
<path d="M41.2743 286.52L42.5129 288.145L44.1376 286.906L45.3762 288.531L46.2794 287.842L45.0408 286.217L46.6655 284.979L45.4269 283.354L49.3985 280.326L58.6199 292.422L54.6483 295.45L49.6933 288.95L48.7909 289.638L51.2687 292.888L48.9218 294.678L46.444 291.428L45.5408 292.116L50.4958 298.616L46.5241 301.643L37.3027 289.548L41.2743 286.52Z" fill="#9854CB" stroke="#330043" stroke-width="0.908055"/>
<path d="M35.8582 290.649L37.6475 292.996L29.5233 299.189L31.4505 301.717L37.95 296.762L39.7392 299.109L33.2397 304.064L35.1663 306.591L43.2905 300.398L45.0797 302.745L32.9839 311.966L23.7625 299.87L35.8582 290.649Z" fill="#9854CB" stroke="#330043" stroke-width="0.908055"/>
<path d="M22.318 300.972L24.1072 303.318L20.8579 305.796L28.2901 315.545L24.3177 318.573L16.8855 308.824L13.6361 311.301L11.8469 308.954L22.318 300.972Z" fill="#9854CB" stroke="#330043" stroke-width="0.908055"/>
<path d="M8.77775 311.294L10.0164 312.919L11.641 311.68L13.4303 314.027L9.45865 317.055L8.22005 315.43L4.06748 318.596L5.99466 321.124L12.4942 316.169L13.7328 317.794L15.3574 316.555L18.3853 320.527L16.7606 321.765L17.9992 323.39L9.15276 330.134L7.91416 328.51L6.28948 329.748L4.50025 327.401L8.47187 324.373L9.71047 325.998L13.863 322.832L11.9364 320.305L5.43695 325.26L4.19776 323.635L2.57308 324.873L-0.454749 320.902L1.16993 319.663L-0.0686727 318.038L8.77775 311.294Z" fill="#9854CB" stroke="#330043" stroke-width="0.908055"/>
</g>
<defs>
<clipPath id="clip0_79_2537">
<rect width="393" height="650" fill="white"/>
</clipPath>
</defs>
</svg>
