<svg width="393" height="945" viewBox="0 0 393 945" fill="none" xmlns="http://www.w3.org/2000/svg">
<g clip-path="url(#clip0_79_4959)">
<rect width="393" height="945" fill="#9854CB"/>
<path d="M26.3588 146.95L18.4105 155.911L18.341 155.99L18.3242 156.094L17.5494 160.823C17.3601 161.979 16.0378 162.553 15.0648 161.9L5.32985 155.373C4.36537 154.726 4.38323 153.301 5.36354 152.678L9.40712 150.109L9.4934 150.054L9.5386 149.962L14.803 139.202L26.3588 146.95Z" fill="#FFCD34" stroke="#330043" stroke-width="0.727178"/>
<path d="M18.9133 153.579C19.1813 153.402 19.6049 153.968 19.4191 154.255C18.0337 156.393 16.1619 159.783 15.9938 162.709C15.827 165.613 17.2713 169.233 18.3962 171.57C18.545 171.879 18.0441 172.391 17.8019 172.178C15.971 170.562 13.0953 168.405 10.6111 168.21C8.10846 168.013 4.98413 169.728 2.98653 171.047C2.71852 171.224 2.29485 170.658 2.48073 170.371C3.86611 168.233 5.73786 164.843 5.90594 161.917C6.07277 159.013 4.62848 155.393 3.50355 153.056C3.35479 152.747 3.85573 152.235 4.09785 152.449C5.92875 154.064 8.80447 156.222 11.2886 156.417C13.7913 156.613 16.9157 154.898 18.9133 153.579Z" fill="#330043"/>
<path d="M21.045 209.168C21.3188 209.004 21.7869 209.63 21.6111 209.925C20.777 211.326 19.8774 213.189 19.783 214.833C19.6897 216.457 20.3508 218.416 21.0095 219.927C21.1473 220.243 20.5922 220.81 20.3426 220.608C19.1499 219.643 17.5773 218.615 16.1881 218.506C14.782 218.396 13.0822 219.189 11.7836 219.968C11.5099 220.132 11.0417 219.506 11.2175 219.211C12.0516 217.811 12.9512 215.947 13.0457 214.304C13.139 212.68 12.4778 210.72 11.8192 209.209C11.6814 208.893 12.2364 208.326 12.486 208.528C13.6787 209.493 15.2513 210.521 16.6406 210.63C18.0466 210.741 19.7465 209.947 21.045 209.168Z" fill="#330043"/>
<path d="M16.9026 124.254L14.8071 127.615L14.4395 128.204L14.1641 127.566L14.4984 127.422L14.1645 127.565L14.1641 127.564C14.1637 127.563 14.1628 127.561 14.1621 127.56C14.1605 127.556 14.158 127.551 14.1551 127.544C14.149 127.529 14.1397 127.508 14.128 127.48C14.1044 127.425 14.0703 127.342 14.026 127.234C13.9373 127.019 13.8089 126.704 13.6516 126.303C13.3372 125.501 12.9052 124.353 12.4329 122.969C11.4888 120.203 10.3816 116.485 9.73819 112.693C9.09648 108.91 8.90807 105.011 9.83772 101.902C10.3043 100.341 11.0566 98.9668 12.1862 97.9106C13.3181 96.8521 14.8094 96.1317 16.7202 95.85C18.4077 95.6013 19.7752 95.9293 20.8694 96.5763C21.9571 97.2195 22.7537 98.165 23.3307 99.1217C23.9079 100.079 24.2746 101.062 24.4967 101.803C24.608 102.174 24.6835 102.486 24.7316 102.707C24.7556 102.817 24.7721 102.905 24.7834 102.966C24.789 102.996 24.7939 103.02 24.7967 103.036C24.7981 103.044 24.7989 103.051 24.7997 103.056C24.8001 103.058 24.8006 103.06 24.8008 103.062L24.8012 103.063C24.8013 103.063 24.8009 103.063 24.5169 103.108L24.8008 103.064L24.825 103.215L24.7324 103.339L22.2122 106.703L21.4681 107.696L21.5579 106.458L21.5584 106.457C21.5584 106.456 21.5588 106.455 21.5589 106.454C21.5591 106.451 21.5593 106.446 21.5597 106.44C21.5606 106.427 21.5613 106.407 21.5627 106.381C21.5654 106.328 21.5686 106.249 21.5713 106.149C21.5766 105.949 21.5797 105.663 21.5672 105.321C21.542 104.634 21.4575 103.735 21.2246 102.863C20.9906 101.986 20.6159 101.173 20.0351 100.621C19.47 100.085 18.68 99.7662 17.534 99.9218C16.1978 100.103 15.2057 100.599 14.476 101.312C13.7433 102.028 13.2525 102.986 12.9594 104.124C12.3702 106.411 12.5961 109.361 13.1836 112.313C13.7692 115.254 14.7047 118.154 15.4951 120.323C15.8901 121.406 16.2484 122.305 16.5076 122.932C16.637 123.246 16.7416 123.491 16.8139 123.658C16.85 123.741 16.878 123.806 16.8968 123.848C16.9062 123.87 16.913 123.886 16.9178 123.896C16.9202 123.901 16.9224 123.906 16.9236 123.908L16.9252 123.911L17.0051 124.089L16.9026 124.254Z" fill="#FFCD34" stroke="#330043" stroke-width="0.727178"/>
<path d="M39.8431 139.078L37.5689 142.321L37.1699 142.89L37.8649 142.894L37.8672 142.53L37.8655 142.893L37.8668 142.893C37.8679 142.893 37.8698 142.893 37.8717 142.893C37.8757 142.893 37.8815 142.893 37.8891 142.893C37.9047 142.893 37.9277 142.894 37.9579 142.893C38.0185 142.893 38.1082 142.892 38.2243 142.891C38.4569 142.889 38.7972 142.884 39.2279 142.871C40.0893 142.847 41.3146 142.796 42.7728 142.69C45.6877 142.477 49.5431 142.043 53.2847 141.152C57.0169 140.264 60.68 138.913 63.1781 136.842C64.4317 135.802 65.4027 134.572 65.9333 133.12C66.4649 131.664 66.5449 130.01 66.0571 128.141C65.6263 126.49 64.7897 125.36 63.7664 124.606C62.7492 123.856 61.5675 123.493 60.4613 123.336C59.3546 123.179 58.3064 123.225 57.538 123.311C57.153 123.353 56.8358 123.406 56.6138 123.448C56.5028 123.469 56.4153 123.488 56.355 123.502C56.325 123.508 56.3013 123.513 56.2851 123.517C56.2771 123.519 56.2706 123.521 56.2661 123.522C56.2639 123.522 56.2613 123.523 56.26 123.523L56.2587 123.523C56.2585 123.523 56.2586 123.524 56.3284 123.803L56.258 123.524L56.1092 123.561L56.032 123.694L53.9209 127.329L53.2979 128.402L54.4021 127.836L54.4027 127.835C54.4033 127.835 54.4041 127.834 54.4053 127.833C54.408 127.832 54.4122 127.83 54.4179 127.827C54.4295 127.821 54.4478 127.813 54.4713 127.801C54.5188 127.778 54.5899 127.744 54.6809 127.703C54.8629 127.62 55.1253 127.505 55.445 127.383C56.0869 127.137 56.9481 126.863 57.8416 126.737C58.7399 126.609 59.635 126.636 60.3698 126.955C61.0846 127.266 61.6865 127.868 61.9913 128.984C62.3467 130.285 62.278 131.392 61.907 132.342C61.5343 133.296 60.8451 134.122 59.9124 134.837C58.0373 136.274 55.2341 137.219 52.2876 137.832C49.351 138.444 46.3162 138.716 44.0114 138.837C42.86 138.897 41.8923 138.918 41.2136 138.925C40.8748 138.928 40.608 138.928 40.4262 138.927C40.3352 138.926 40.265 138.926 40.2183 138.925C40.1952 138.925 40.1778 138.925 40.1662 138.924C40.1603 138.924 40.1557 138.924 40.1529 138.924L40.1494 138.923L39.9545 138.919L39.8431 139.078Z" fill="#FFCD34" stroke="#330043" stroke-width="0.727178"/>
<path d="M28.2235 100.161L57.4964 119.789C58.4929 120.457 58.8412 121.738 58.2951 122.789C56.4463 126.344 52.4757 133.394 48.2963 137.177C44.9903 140.168 39.8258 142.676 35.4555 144.442C33.2763 145.322 31.3054 146.014 29.8795 146.486C29.1667 146.721 28.5899 146.902 28.1923 147.024C27.9956 147.084 27.8423 147.128 27.7383 147.159L14.2025 138.083C14.1914 137.975 14.1751 137.817 14.1561 137.612C14.1175 137.198 14.0661 136.596 14.0134 135.847C13.9081 134.349 13.7997 132.263 13.7868 129.913C13.7608 125.199 14.1198 119.469 15.6322 115.275C17.5442 109.972 22.5579 103.622 25.1451 100.561C25.9094 99.6573 27.2271 99.4932 28.2235 100.161Z" fill="#FFCD34" stroke="#330043" stroke-width="0.727178"/>
<path d="M23.847 105.528C18.6571 111.909 16.6045 117.256 15.9129 122.311" stroke="white" stroke-width="1.38714" stroke-linecap="round"/>
<rect x="-0.750961" y="151.39" width="26.926" height="13.5416" rx="1.02977" transform="rotate(33.8422 -0.750961 151.39)" fill="#FFCD34" stroke="#330043" stroke-width="0.727178"/>
<rect x="0.826538" y="155.269" width="20.0737" height="9.02607" rx="0.874839" transform="rotate(33.8422 0.826538 155.269)" fill="#FFE780"/>
<rect x="12.9642" y="136.426" width="20.8127" height="3.80461" rx="1.9023" transform="rotate(33.8422 12.9642 136.426)" fill="#FFCD34" stroke="#330043" stroke-width="0.727178"/>
<rect x="9.31654" y="146.26" width="15.3556" height="3.80461" rx="1.9023" transform="rotate(33.8422 9.31654 146.26)" fill="#FFCD34" stroke="#330043" stroke-width="0.727178"/>
<path d="M48.7253 128.932C49.2952 129.599 48.9776 130.643 48.1178 130.87L45.4201 130.982C45.9605 130.512 46.1086 129.692 45.7088 129.057L48.7253 128.932Z" fill="#FF4A97" stroke="#330043" stroke-width="0.300078" stroke-linejoin="round"/>
<path d="M48.4446 128.641L45.4682 128.764L40.8237 123.869L43.8015 123.746L48.4446 128.641Z" fill="#FF4A97" stroke="#330043" stroke-width="0.300078" stroke-linejoin="round"/>
<path d="M41.1898 132.628L39.2717 132.707L44.7856 131.306L46.7064 131.226L41.1898 132.628Z" fill="#FF4A97" stroke="#330043" stroke-width="0.300078" stroke-linejoin="round"/>
<path d="M43.3568 122.431L40.2824 122.558L40.7308 115.728L43.8038 115.601L43.3568 122.431Z" fill="#FF4A97" stroke="#330043" stroke-width="0.300078" stroke-linejoin="round"/>
<path d="M43.3505 122.732C43.3621 122.989 43.439 123.238 43.5739 123.455L40.5602 123.58C40.3877 123.377 40.287 123.124 40.2747 122.859L43.3505 122.732Z" fill="#FF4A97" stroke="#330043" stroke-width="0.300078" stroke-linejoin="round"/>
<path d="M42.563 114.154C43.2001 114.127 43.7828 114.623 43.8115 115.299L40.7358 115.426C40.7152 114.928 40.4539 114.509 40.0805 114.255L42.563 114.154Z" fill="#FF4A97" stroke="#330043" stroke-width="0.300078" stroke-linejoin="round"/>
<mask id="path-18-inside-1_79_4959" fill="white">
<path d="M42.0354 114.135C42.2092 114.053 42.3877 114.01 42.5626 114.003L39.1875 114.143C39.0126 114.15 38.8341 114.192 38.6603 114.275L42.0354 114.135Z"/>
</mask>
<path d="M42.0354 114.135C42.2092 114.053 42.3877 114.01 42.5626 114.003L39.1875 114.143C39.0126 114.15 38.8341 114.192 38.6603 114.275L42.0354 114.135Z" fill="#FF4A97"/>
<path d="M42.5626 114.003L42.5751 114.303C42.7407 114.296 42.8693 114.156 42.8625 113.991C42.8556 113.825 42.7158 113.696 42.5502 113.703L42.5626 114.003ZM42.0354 114.135L42.0478 114.435C42.0883 114.434 42.128 114.424 42.1646 114.406L42.0354 114.135ZM38.6603 114.275L38.5311 114.004C38.4025 114.066 38.3347 114.209 38.369 114.347C38.4034 114.486 38.5303 114.581 38.6727 114.575L38.6603 114.275ZM39.1875 114.143L39.1751 113.843L39.1751 113.843L39.1875 114.143ZM42.5626 114.003L42.5502 113.703C42.335 113.712 42.1168 113.764 41.9062 113.865L42.0354 114.135L42.1646 114.406C42.3016 114.341 42.4404 114.308 42.5751 114.303L42.5626 114.003ZM42.0354 114.135L42.023 113.836L38.6479 113.975L38.6603 114.275L38.6727 114.575L42.0478 114.435L42.0354 114.135ZM38.6603 114.275L38.7895 114.546C38.9265 114.481 39.0653 114.448 39.2 114.443L39.1875 114.143L39.1751 113.843C38.9599 113.852 38.7417 113.904 38.5311 114.004L38.6603 114.275ZM39.1875 114.143L39.2 114.443L42.5751 114.303L42.5626 114.003L42.5502 113.703L39.1751 113.843L39.1875 114.143Z" fill="#330043" mask="url(#path-18-inside-1_79_4959)"/>
<path d="M40.5613 132.954C40.4487 133.052 40.3513 133.167 40.2713 133.295L37.2825 133.419C37.4366 133.25 37.6361 133.126 37.8609 133.066L40.5613 132.954Z" fill="#FF4A97" stroke="#330043" stroke-width="0.300078" stroke-linejoin="round"/>
<path d="M35.5441 117.062L32.9348 117.17L38.6928 114.423L41.3063 114.315L35.5441 117.062Z" fill="#FF4A97" stroke="#330043" stroke-width="0.300078" stroke-linejoin="round"/>
<path d="M36.8585 139.577L33.8338 139.702L37.0773 133.728L40.1034 133.603L36.8585 139.577Z" fill="#FF4A97" stroke="#330043" stroke-width="0.300078" stroke-linejoin="round"/>
<path d="M36.6469 139.885C36.4246 140.132 36.1206 140.265 35.809 140.278L33.3355 140.379C33.4583 140.279 33.5654 140.154 33.6553 140.009L36.6469 139.885Z" fill="#FF4A97" stroke="#330043" stroke-width="0.300078" stroke-linejoin="round"/>
<mask id="path-24-inside-2_79_4959" fill="white">
<path d="M35.5784 117.212C35.4119 117.291 35.2328 117.335 35.0523 117.342L31.6779 117.482C31.8582 117.475 32.037 117.431 32.2033 117.352L35.5784 117.212Z"/>
</mask>
<path d="M35.5784 117.212C35.4119 117.291 35.2328 117.335 35.0523 117.342L31.6779 117.482C31.8582 117.475 32.037 117.431 32.2033 117.352L35.5784 117.212Z" fill="#FF4A97"/>
<path d="M31.6779 117.482L31.6717 117.332C31.6715 117.332 31.6712 117.332 31.671 117.332L31.6772 117.482L31.6834 117.632C31.6836 117.632 31.6839 117.632 31.6841 117.632L31.6779 117.482ZM35.0523 117.342L35.04 117.043L35.0399 117.043L35.0523 117.342ZM35.5784 117.212L35.7076 117.483C35.8362 117.421 35.904 117.278 35.8697 117.14C35.8353 117.001 35.7084 116.906 35.566 116.912L35.5784 117.212ZM32.2033 117.352L32.1909 117.052C32.1504 117.054 32.1107 117.063 32.0741 117.081L32.2033 117.352ZM31.6779 117.482L31.6654 117.182C31.4998 117.189 31.3712 117.329 31.3781 117.495C31.385 117.66 31.5248 117.789 31.6903 117.782L31.6779 117.482ZM35.0523 117.342L35.0646 117.642C35.2852 117.633 35.5041 117.58 35.7076 117.483L35.5784 117.212L35.4492 116.941C35.3197 117.003 35.1804 117.037 35.04 117.043L35.0523 117.342ZM35.5784 117.212L35.566 116.912L32.1909 117.052L32.2033 117.352L32.2157 117.652L35.5908 117.512L35.5784 117.212ZM32.2033 117.352L32.0741 117.081C31.9447 117.143 31.8057 117.176 31.6654 117.182L31.6779 117.482L31.6904 117.782C31.9107 117.773 32.1292 117.719 32.3325 117.623L32.2033 117.352ZM31.6779 117.482L31.6903 117.782L35.0647 117.642L35.0523 117.342L35.0399 117.043L31.6655 117.182L31.6779 117.482Z" fill="#330043" mask="url(#path-24-inside-2_79_4959)"/>
<mask id="path-26-inside-3_79_4959" fill="white">
<path d="M35.0632 117.343C34.8752 117.351 34.6857 117.319 34.5072 117.248L31.1321 117.388C31.3106 117.459 31.5001 117.49 31.6881 117.483L35.0632 117.343Z"/>
</mask>
<path d="M35.0632 117.343C34.8752 117.351 34.6857 117.319 34.5072 117.248L31.1321 117.388C31.3106 117.459 31.5001 117.49 31.6881 117.483L35.0632 117.343Z" fill="#FF4A97"/>
<path d="M34.5072 117.248L34.6184 116.969C34.5791 116.954 34.537 116.946 34.4948 116.948L34.5072 117.248ZM35.0632 117.343L35.0756 117.643C35.2412 117.636 35.3699 117.496 35.363 117.331C35.3562 117.165 35.2165 117.036 35.0509 117.043L35.0632 117.343ZM31.6881 117.483L31.7004 117.782L31.7005 117.782L31.6881 117.483ZM31.1321 117.388L31.1197 117.088C30.9783 117.094 30.8601 117.198 30.8363 117.337C30.8125 117.477 30.8895 117.614 31.021 117.666L31.1321 117.388ZM34.5072 117.248L34.3961 117.527C34.6142 117.614 34.8458 117.652 35.0755 117.643L35.0632 117.343L35.0509 117.043C34.9046 117.049 34.7572 117.025 34.6184 116.969L34.5072 117.248ZM35.0632 117.343L35.0508 117.043L31.6757 117.183L31.6881 117.483L31.7005 117.782L35.0756 117.643L35.0632 117.343ZM31.6881 117.483L31.6758 117.183C31.5295 117.189 31.3821 117.164 31.2433 117.109L31.1321 117.388L31.021 117.666C31.2391 117.753 31.4707 117.792 31.7004 117.782L31.6881 117.483ZM31.1321 117.388L31.1445 117.688L34.5196 117.548L34.5072 117.248L34.4948 116.948L31.1197 117.088L31.1321 117.388Z" fill="#330043" mask="url(#path-26-inside-3_79_4959)"/>
<path d="M34.5468 139.953C34.6513 140.099 34.7725 140.221 34.9095 140.316L32.4375 140.419C32.1165 140.432 31.7938 140.318 31.5497 140.077L34.5468 139.953Z" fill="#FF4A97" stroke="#330043" stroke-width="0.300078" stroke-linejoin="round"/>
<path d="M34.3521 139.659L31.3232 139.785L27.6917 134.034L30.722 133.909L34.3521 139.659Z" fill="#FF4A97" stroke="#330043" stroke-width="0.300078" stroke-linejoin="round"/>
<path d="M31.1522 117.237L25.1952 114.862L27.8363 114.752L33.7919 117.127L31.1522 117.237Z" fill="#FF4A97" stroke="#330043" stroke-width="0.300078" stroke-linejoin="round"/>
<path d="M30.5025 133.619L27.5068 133.743C27.4153 133.616 27.3062 133.504 27.1821 133.412L29.8984 133.3C30.1283 133.346 30.3373 133.458 30.5025 133.619Z" fill="#FF4A97" stroke="#330043" stroke-width="0.300078" stroke-linejoin="round"/>
<mask id="path-32-inside-4_79_4959" fill="white">
<path d="M27.8657 114.603C27.6791 114.529 27.4904 114.499 27.3083 114.506L23.9332 114.646C24.1153 114.639 24.304 114.668 24.4906 114.743L27.8657 114.603Z"/>
</mask>
<path d="M27.8657 114.603C27.6791 114.529 27.4904 114.499 27.3083 114.506L23.9332 114.646C24.1153 114.639 24.304 114.668 24.4906 114.743L27.8657 114.603Z" fill="#FF4A97"/>
<path d="M27.3083 114.506L27.296 114.206L27.2959 114.206L27.3083 114.506ZM27.8657 114.603L27.8781 114.903C28.0196 114.897 28.1377 114.793 28.1615 114.654C28.1853 114.514 28.1084 114.377 27.9769 114.324L27.8657 114.603ZM24.4906 114.743L24.3795 115.022C24.4187 115.037 24.4608 115.044 24.503 115.043L24.4906 114.743ZM23.9332 114.646L23.9208 114.346C23.7552 114.353 23.6266 114.493 23.6334 114.658C23.6402 114.824 23.78 114.953 23.9456 114.946L23.9332 114.646ZM27.3083 114.506L27.3207 114.806C27.4608 114.8 27.6075 114.823 27.7546 114.882L27.8657 114.603L27.9769 114.324C27.7508 114.234 27.5199 114.197 27.296 114.206L27.3083 114.506ZM27.8657 114.603L27.8533 114.303L24.4782 114.443L24.4906 114.743L24.503 115.043L27.8781 114.903L27.8657 114.603ZM24.4906 114.743L24.6018 114.464C24.3757 114.374 24.1448 114.337 23.9209 114.346L23.9332 114.646L23.9456 114.946C24.0857 114.94 24.2324 114.963 24.3795 115.022L24.4906 114.743ZM23.9332 114.646L23.9456 114.946L27.3207 114.806L27.3083 114.506L27.2959 114.206L23.9208 114.346L23.9332 114.646Z" fill="#330043" mask="url(#path-32-inside-4_79_4959)"/>
<path d="M26.4155 114.691C26.0708 114.969 25.8464 115.398 25.8589 115.888L22.7846 116.015C22.7709 115.347 23.3059 114.82 23.9338 114.794L26.4155 114.691Z" fill="#FF4A97" stroke="#330043" stroke-width="0.300078" stroke-linejoin="round"/>
<path d="M26.8117 123.275C26.8162 123.539 26.7321 123.798 26.5733 124.011L23.5638 124.136C23.6826 123.911 23.7429 123.658 23.7373 123.402L26.8117 123.275Z" fill="#FF4A97" stroke="#330043" stroke-width="0.300078" stroke-linejoin="round"/>
<path d="M26.7809 122.975L23.7079 123.102L22.8139 116.316L25.8883 116.188L26.7809 122.975Z" fill="#FF4A97" stroke="#330043" stroke-width="0.300078" stroke-linejoin="round"/>
<path d="M26.5355 133.137L20.8369 132.08L22.8667 131.996L28.5653 133.053L26.5355 133.137Z" fill="#FF4A97" stroke="#330043" stroke-width="0.300078" stroke-linejoin="round"/>
<path d="M22.0161 129.509L19.0452 129.632L23.354 124.448L26.3249 124.325L22.0161 129.509Z" fill="#FF4A97" stroke="#330043" stroke-width="0.300078" stroke-linejoin="round"/>
<path d="M21.7982 129.815C21.4418 130.48 21.6505 131.292 22.2296 131.722L19.5154 131.834C18.6439 131.662 18.26 130.642 18.7859 129.94L21.7982 129.815Z" fill="#FF4A97" stroke="#330043" stroke-width="0.300078" stroke-linejoin="round"/>
<path d="M66.0022 165.392C66.2759 165.228 66.7441 165.854 66.5682 166.149C65.7342 167.549 64.8346 169.412 64.7401 171.056C64.6468 172.68 65.308 174.64 65.9666 176.15C66.1044 176.467 65.5493 177.034 65.2998 176.832C64.1071 175.867 62.5345 174.839 61.1452 174.73C59.7392 174.619 58.0393 175.412 56.7408 176.191C56.467 176.356 55.9988 175.73 56.1747 175.434C57.0088 174.034 57.9084 172.171 58.0028 170.527C58.0961 168.903 57.435 166.944 56.7763 165.433C56.6385 165.117 57.1936 164.55 57.4431 164.752C58.6359 165.717 60.2085 166.745 61.5977 166.854C63.0038 166.964 64.7036 166.171 66.0022 165.392Z" fill="#330043"/>
<ellipse cx="1.69322" cy="161.183" rx="0.373187" ry="4.01114" transform="rotate(63.8422 1.69322 161.183)" fill="#FD8A02"/>
<ellipse cx="1.69322" cy="161.183" rx="0.373187" ry="4.01114" transform="rotate(63.8422 1.69322 161.183)" fill="#FD8A02"/>
<ellipse cx="6.49839" cy="164.656" rx="0.373187" ry="4.01114" transform="rotate(63.8422 6.49839 164.656)" fill="#FD8A02"/>
<ellipse cx="6.49839" cy="164.656" rx="0.373187" ry="4.01114" transform="rotate(63.8422 6.49839 164.656)" fill="#FD8A02"/>
<ellipse cx="11.9247" cy="168.707" rx="0.373187" ry="4.01114" transform="rotate(63.8422 11.9247 168.707)" fill="#FD8A02"/>
<ellipse cx="11.9247" cy="168.707" rx="0.373187" ry="4.01114" transform="rotate(63.8422 11.9247 168.707)" fill="#FD8A02"/>
<rect x="326.161" y="140.954" width="69.5938" height="21.3607" rx="7.13783" transform="rotate(-17.0711 326.161 140.954)" fill="#330043"/>
<path d="M332.911 138.619L385.792 122.38C389.403 121.271 393.23 123.299 394.339 126.911L395.937 132.113C397.046 135.724 395.016 139.551 391.405 140.66L338.524 156.899C334.913 158.008 331.087 155.98 329.978 152.368L328.38 147.166C327.271 143.554 329.299 139.728 332.911 138.619Z" fill="#FFCD34" stroke="#330043" stroke-width="0.594819"/>
<path d="M386.61 124.928V124.928C388.687 124.291 390.888 125.457 391.526 127.534L391.642 127.914" stroke="white" stroke-width="1.18964" stroke-linecap="round" stroke-linejoin="round"/>
<path d="M380.03 127.742C380.451 127.613 380.881 127.591 381.314 127.676C381.739 127.759 382.137 127.932 382.506 128.192C382.886 128.44 383.221 128.764 383.51 129.158C383.801 129.556 384.023 130.007 384.177 130.508C384.33 131.009 384.4 131.507 384.382 131.999C384.364 132.487 384.27 132.945 384.099 133.371L384.101 133.372C383.938 133.785 383.707 134.152 383.407 134.468L383.401 134.473C383.357 134.518 383.311 134.559 383.264 134.6C383.306 134.6 383.347 134.599 383.389 134.6L383.39 134.6C383.784 134.607 384.152 134.677 384.491 134.813L384.745 134.923C384.99 135.044 385.21 135.2 385.403 135.389C385.662 135.644 385.846 135.945 385.951 136.288C386.057 136.631 386.073 136.983 386.002 137.34C385.949 137.603 385.856 137.856 385.724 138.098L385.579 138.338C385.376 138.64 385.113 138.91 384.794 139.147L384.788 139.152C384.463 139.381 384.098 139.556 383.695 139.68C383.293 139.803 382.892 139.864 382.494 139.856L382.487 139.856C382.09 139.838 381.721 139.763 381.384 139.626L381.377 139.624C381.039 139.479 380.742 139.281 380.489 139.033C380.23 138.778 380.046 138.477 379.94 138.134C379.835 137.791 379.819 137.438 379.89 137.082C379.96 136.732 380.098 136.406 380.302 136.103C380.506 135.799 380.772 135.533 381.096 135.305C381.13 135.28 381.166 135.257 381.2 135.234C381.139 135.226 381.077 135.218 381.016 135.206L381.009 135.205C380.583 135.111 380.185 134.938 379.819 134.687L379.815 134.684C379.447 134.423 379.12 134.095 378.833 133.703C378.542 133.305 378.319 132.855 378.166 132.354C378.012 131.853 377.943 131.355 377.961 130.862C377.978 130.376 378.066 129.924 378.229 129.51C378.389 129.086 378.622 128.718 378.929 128.409C379.239 128.095 379.608 127.872 380.03 127.742Z" fill="#FF4A97" stroke="#330043" stroke-width="0.594819"/>
<path d="M373.935 128.819C374.434 128.666 374.941 128.67 375.449 128.826L375.637 128.888C376.076 129.045 376.492 129.29 376.886 129.62L376.885 129.62C377.331 129.987 377.734 130.453 378.094 131.013C378.457 131.577 378.745 132.211 378.96 132.912C379.188 133.654 379.305 134.381 379.308 135.09C379.311 135.684 379.242 136.234 379.103 136.738C379.416 136.871 379.697 137.049 379.944 137.271C380.266 137.554 380.492 137.902 380.617 138.309C380.735 138.692 380.752 139.087 380.671 139.49L380.67 139.494C380.586 139.881 380.423 140.246 380.186 140.59L380.182 140.595C379.941 140.928 379.633 141.224 379.264 141.487L379.265 141.487C378.9 141.751 378.481 141.955 378.013 142.099C377.636 142.214 377.255 142.279 376.87 142.293C376.482 142.308 376.111 142.263 375.759 142.157L375.753 142.155C375.409 142.045 375.099 141.874 374.825 141.644L374.814 141.636C374.723 141.552 374.643 141.459 374.569 141.361C374.561 141.487 374.543 141.613 374.51 141.737L374.509 141.736C374.421 142.083 374.258 142.402 374.023 142.69L374.022 142.69C373.8 142.972 373.524 143.216 373.196 143.422C372.869 143.626 372.518 143.786 372.141 143.902C371.672 144.046 371.207 144.114 370.748 144.104L370.745 144.104C370.302 144.09 369.887 144.015 369.502 143.875L369.496 143.872C369.106 143.721 368.766 143.51 368.48 143.237L368.477 143.234C368.184 142.947 367.976 142.61 367.858 142.227C367.734 141.823 367.719 141.413 367.814 141.003L367.815 141C367.894 140.676 368.028 140.37 368.213 140.082C367.815 139.743 367.45 139.326 367.119 138.833L367.117 138.829C366.734 138.238 366.428 137.571 366.201 136.83C365.985 136.129 365.869 135.443 365.853 134.772C365.836 134.106 365.907 133.494 366.071 132.939C366.231 132.378 366.471 131.891 366.795 131.486L366.798 131.483C367.14 131.066 367.563 130.776 368.063 130.622C368.441 130.506 368.828 130.486 369.221 130.561L369.22 130.562C369.609 130.622 369.985 130.758 370.348 130.969C370.712 131.172 371.055 131.444 371.375 131.778L371.374 131.778C371.504 131.908 371.628 132.047 371.748 132.192C371.767 132.002 371.792 131.816 371.827 131.633C371.915 131.176 372.051 130.76 372.237 130.389L372.238 130.388C372.419 130.01 372.649 129.686 372.928 129.421C373.221 129.138 373.557 128.935 373.935 128.819Z" fill="#FF4A97" stroke="#330043" stroke-width="0.594819"/>
<path d="M360.686 132.887C361.313 132.695 361.945 132.652 362.577 132.759L362.813 132.803C363.358 132.92 363.869 133.13 364.345 133.433L364.548 133.565C365.018 133.881 365.437 134.281 365.806 134.761C366.231 135.313 366.552 135.946 366.77 136.655C366.861 136.95 366.932 137.309 366.988 137.729C367.054 138.156 367.065 138.584 367.016 139.012C366.966 139.451 366.836 139.855 366.625 140.22C366.524 140.394 366.397 140.541 366.247 140.666C366.357 140.662 366.464 140.664 366.567 140.675L366.566 140.675C366.915 140.699 367.228 140.78 367.493 140.932L367.492 140.932C367.736 141.064 367.938 141.235 368.092 141.445L368.093 141.445C368.248 141.639 368.363 141.841 368.428 142.052C368.551 142.453 368.533 142.871 368.388 143.295L368.387 143.3C368.241 143.707 367.993 144.094 367.656 144.462L367.655 144.463C367.324 144.819 366.906 145.145 366.408 145.443L366.407 145.443C365.916 145.74 365.368 145.981 364.764 146.167C364.159 146.353 363.564 146.463 362.98 146.496L362.979 146.496C362.411 146.525 361.885 146.489 361.403 146.385L361.394 146.383C360.919 146.264 360.504 146.081 360.157 145.827L360.154 145.824C359.796 145.554 359.546 145.219 359.423 144.817C359.292 144.392 359.321 143.956 359.491 143.521L359.492 143.52C359.625 143.187 359.822 142.87 360.078 142.57C359.607 142.264 359.18 141.88 358.8 141.416L358.797 141.411C358.339 140.835 357.996 140.171 357.765 139.42C357.547 138.711 357.458 138.007 357.5 137.312C357.541 136.622 357.689 135.985 357.947 135.402L357.948 135.401C358.213 134.806 358.574 134.288 359.031 133.849L359.034 133.847C359.507 133.401 360.059 133.08 360.686 132.887ZM364.463 141.04C364.49 141.096 364.514 141.154 364.533 141.215C364.546 141.26 364.556 141.305 364.565 141.349C364.605 141.301 364.649 141.254 364.696 141.21C364.733 141.174 364.772 141.14 364.813 141.109C364.767 141.104 364.72 141.101 364.674 141.093L364.668 141.092C364.599 141.078 364.53 141.06 364.463 141.04Z" fill="#FF4A97" stroke="#330043" stroke-width="0.594819"/>
<path d="M351.318 135.75C352.069 135.519 352.816 135.437 353.553 135.507L353.552 135.507C354.294 135.573 354.983 135.763 355.618 136.081C356.25 136.398 356.802 136.825 357.272 137.361L357.448 137.567C357.845 138.059 358.14 138.62 358.333 139.248C358.546 139.943 358.613 140.641 358.534 141.34L358.535 141.34C358.472 141.939 358.308 142.512 358.044 143.058L357.925 143.291C357.782 143.553 357.599 143.769 357.38 143.942C357.447 143.968 357.508 144.007 357.56 144.051L357.561 144.05C357.669 144.135 357.761 144.246 357.842 144.373L357.912 144.472C357.975 144.567 358.028 144.671 358.073 144.781L358.166 144.987C358.194 145.054 358.217 145.12 358.237 145.183C358.356 145.57 358.366 145.97 358.272 146.377L358.272 146.381C358.175 146.773 357.994 147.144 357.734 147.493L357.729 147.498C357.465 147.837 357.129 148.142 356.728 148.413L356.727 148.412C356.332 148.683 355.889 148.893 355.4 149.043C354.911 149.193 354.421 149.27 353.932 149.271L353.93 149.271C353.456 149.268 353.014 149.203 352.607 149.071L352.6 149.07C352.19 148.927 351.829 148.725 351.52 148.461L351.511 148.453C351.205 148.169 350.989 147.832 350.87 147.445C350.831 147.318 350.802 147.176 350.78 147.02C350.758 146.866 350.745 146.718 350.742 146.578L350.742 146.569L350.743 146.56C350.748 146.404 350.767 146.258 350.808 146.129C350.828 146.06 350.859 145.99 350.903 145.927C350.629 145.905 350.361 145.828 350.101 145.694C349.48 145.373 348.941 144.952 348.487 144.431L348.485 144.429C348.026 143.895 347.689 143.278 347.476 142.582C347.256 141.866 347.189 141.149 347.278 140.434L347.279 140.43C347.378 139.719 347.601 139.054 347.947 138.437C348.293 137.818 348.757 137.273 349.335 136.802C349.915 136.328 350.577 135.977 351.318 135.75Z" fill="#FF4A97" stroke="#330043" stroke-width="0.594819"/>
<path d="M341.961 138.638C342.588 138.445 343.22 138.402 343.852 138.51L344.088 138.554C344.633 138.67 345.144 138.88 345.62 139.184L345.823 139.315C346.293 139.632 346.712 140.031 347.081 140.511C347.506 141.064 347.827 141.696 348.045 142.405C348.197 142.9 348.285 143.394 348.309 143.886C348.333 144.375 348.301 144.85 348.212 145.309L348.209 145.322C348.109 145.736 347.877 146.043 347.529 146.23C347.548 146.234 347.568 146.236 347.587 146.239C348.104 146.332 348.554 146.511 348.924 146.783L349.062 146.885C349.372 147.132 349.591 147.438 349.703 147.802C349.826 148.204 349.808 148.621 349.663 149.045L349.662 149.05C349.516 149.457 349.268 149.844 348.931 150.212L348.93 150.213C348.599 150.569 348.181 150.896 347.683 151.194L347.682 151.193C347.192 151.49 346.643 151.732 346.039 151.917C345.434 152.103 344.839 152.214 344.255 152.247L344.254 152.246C343.686 152.275 343.16 152.24 342.678 152.135L342.669 152.133C342.194 152.015 341.779 151.831 341.432 151.577L341.429 151.574C341.071 151.304 340.821 150.969 340.698 150.568C340.637 150.369 340.609 150.162 340.614 149.948L340.614 149.938L340.614 149.93C340.631 149.716 340.681 149.512 340.763 149.321L340.834 149.167C340.911 149.02 341.01 148.886 341.13 148.77L341.137 148.764C341.268 148.645 341.419 148.549 341.587 148.477C341.283 148.356 340.999 148.194 340.739 147.989L340.728 147.98C340.465 147.751 340.226 147.493 340.011 147.206L340.003 147.196C339.798 146.9 339.613 146.581 339.446 146.242L339.442 146.232C339.287 145.89 339.153 145.536 339.04 145.171C338.823 144.461 338.733 143.758 338.775 143.062C338.816 142.373 338.965 141.735 339.222 141.152L339.223 141.151C339.488 140.556 339.849 140.038 340.306 139.6L340.309 139.598C340.782 139.151 341.334 138.831 341.961 138.638Z" fill="#FF4A97" stroke="#330043" stroke-width="0.594819"/>
<path d="M353.059 136.647C355.291 136.495 358.67 139.327 356.854 142.88" stroke="white" stroke-width="0.594819" stroke-linecap="round"/>
<path d="M366.25 144.224C367.099 143.64 367.892 142.398 366.743 141.812" stroke="white" stroke-width="0.594819" stroke-linecap="round"/>
<path d="M373.755 130.182C375.022 129.332 378.465 131.292 377.831 136.283" stroke="white" stroke-width="0.594819" stroke-linecap="round"/>
<path d="M384.794 137.12C384.691 137.872 384.252 138.443 383.055 138.811" stroke="white" stroke-width="0.594819" stroke-linecap="round"/>
<path d="M343.07 139.596C342.312 139.555 341.092 140.119 340.506 141.225" stroke="white" stroke-width="0.594819" stroke-linecap="round"/>
<path d="M361.904 133.812C361.146 133.771 359.926 134.335 359.34 135.442" stroke="white" stroke-width="0.594819" stroke-linecap="round"/>
<path d="M367.705 132.307C369.056 131.016 370.862 132.505 371.396 133.806" stroke="white" stroke-width="0.594819" stroke-linecap="round"/>
<path d="M340.911 85.7164L349.957 92.9943C350.015 93.041 350.053 93.1119 350.062 93.1883C350.071 93.2649 350.05 93.339 350.003 93.3905L345.78 98.0685C345.704 98.1524 345.579 98.1577 345.485 98.0815L336.439 90.8049C336.381 90.7581 336.342 90.6862 336.333 90.6095C336.324 90.533 336.346 90.4588 336.392 90.4073L340.616 85.7293L340.646 85.7022C340.722 85.6458 340.828 85.6496 340.911 85.7164Z" fill="#9854CB" stroke="#330043" stroke-width="0.490893" stroke-linejoin="round"/>
<path d="M349.853 92.7546C349.945 92.8125 349.998 92.9272 349.984 93.0377L349.482 96.9593C349.475 97.0099 349.455 97.0561 349.424 97.0911L345.084 101.965C345.016 102.041 344.906 102.054 344.815 101.997C344.723 101.939 344.669 101.823 344.683 101.712L345.186 97.7904C345.192 97.74 345.212 97.6944 345.243 97.6595L349.583 92.7859C349.652 92.7092 349.761 92.6966 349.853 92.7546Z" fill="#9854CB" stroke="#330043" stroke-width="0.490893" stroke-linejoin="round"/>
<path d="M339.864 83.5107C339.949 83.5323 340.022 83.6045 340.051 83.6981C340.081 83.7916 340.063 83.891 340.005 83.956L335.741 88.723C335.69 88.7798 335.615 88.8022 335.54 88.7835L331.589 87.7839C331.503 87.7623 331.431 87.69 331.401 87.5965C331.372 87.5031 331.389 87.4036 331.447 87.3387L335.712 82.5717L335.754 82.5349C335.8 82.5055 335.857 82.4961 335.913 82.5103L339.864 83.5107Z" fill="#9854CB" stroke="#330043" stroke-width="0.490893" stroke-linejoin="round"/>
<path d="M341 85.7358C341.092 85.7937 341.145 85.9088 341.131 86.0194L340.683 89.5207C340.676 89.5713 340.656 89.6175 340.625 89.6526L336.285 94.525C336.217 94.6016 336.107 94.6143 336.015 94.5564C335.923 94.4984 335.871 94.3829 335.885 94.2723L336.333 90.7719C336.339 90.7214 336.359 90.6751 336.391 90.6401L340.73 85.7676L340.788 85.7215C340.852 85.6882 340.931 85.6924 341 85.7358Z" fill="#9854CB" stroke="#330043" stroke-width="0.490893" stroke-linejoin="round"/>
<path d="M347.159 94.4228C347.219 94.4687 347.26 94.5408 347.27 94.6185C347.28 94.6961 347.258 94.7713 347.211 94.8236L342.979 99.5231C342.905 99.6057 342.784 99.6122 342.689 99.5397L335.937 94.3458C335.878 94.2999 335.837 94.2286 335.827 94.151C335.817 94.0732 335.838 93.9972 335.885 93.9449L340.118 89.2468L340.182 89.1987C340.252 89.1654 340.338 89.175 340.408 89.2294L347.159 94.4228Z" fill="#9854CB" stroke="#330043" stroke-width="0.490893" stroke-linejoin="round"/>
<path d="M346.953 94.4478C347.052 94.4272 347.159 94.485 347.213 94.5889C347.267 94.6928 347.257 94.8185 347.187 94.8964L342.915 99.6763C342.886 99.7089 342.849 99.7313 342.807 99.74L335.095 101.344C334.996 101.364 334.89 101.307 334.835 101.203C334.781 101.099 334.792 100.973 334.861 100.895L339.133 96.1153L339.182 96.0746C339.2 96.064 339.22 96.056 339.241 96.0517L346.953 94.4478Z" fill="#9854CB" stroke="#330043" stroke-width="0.490893" stroke-linejoin="round"/>
<path d="M349.135 97.0156C349.234 96.9919 349.342 97.0486 349.398 97.153C349.454 97.2573 349.444 97.3842 349.374 97.4628L345.106 102.236C345.078 102.267 345.043 102.288 345.004 102.298L334.574 104.771C334.474 104.795 334.367 104.738 334.311 104.634C334.255 104.53 334.265 104.403 334.335 104.325L338.602 99.5509C338.63 99.5197 338.666 99.4983 338.706 99.4889L349.135 97.0156Z" fill="#9854CB" stroke="#330043" stroke-width="0.490893" stroke-linejoin="round"/>
<path d="M339.967 83.5035C340.063 83.5889 340.092 83.7348 340.036 83.8435L332.367 98.6329C332.358 98.6499 332.348 98.6656 332.335 98.6794L327.942 103.594C327.863 103.682 327.731 103.685 327.635 103.599C327.54 103.514 327.511 103.367 327.567 103.258L335.235 88.4698L335.267 88.4233L339.661 83.508C339.74 83.4198 339.872 83.4181 339.967 83.5035Z" fill="#9854CB" stroke="#330043" stroke-width="0.490893" stroke-linejoin="round"/>
<path d="M328.985 83.2818C329.077 83.3397 329.131 83.4548 329.117 83.5654L328.668 87.0667C328.662 87.1173 328.642 87.1635 328.611 87.1985L324.271 92.071C324.202 92.1476 324.093 92.1603 324.001 92.1024C323.909 92.0444 323.856 91.9289 323.87 91.8183L324.319 88.3179C324.325 88.2674 324.345 88.2211 324.376 88.1861L328.716 83.3136L328.774 83.2675C328.838 83.2342 328.916 83.2384 328.985 83.2818Z" fill="#9854CB" stroke="#330043" stroke-width="0.490893" stroke-linejoin="round"/>
<path d="M339.428 96.266C339.52 96.3239 339.574 96.439 339.56 96.5497L339.111 100.051C339.105 100.102 339.085 100.148 339.054 100.183L334.714 105.055C334.645 105.132 334.535 105.145 334.444 105.087C334.352 105.029 334.299 104.913 334.313 104.803L334.761 101.302C334.768 101.252 334.788 101.205 334.819 101.17L339.159 96.2978L339.216 96.2517C339.28 96.2185 339.359 96.2227 339.428 96.266Z" fill="#9854CB" stroke="#330043" stroke-width="0.490893" stroke-linejoin="round"/>
<path d="M336.081 82.7149C336.177 82.8003 336.206 82.9462 336.15 83.0549L328.481 97.8443C328.472 97.8613 328.462 97.877 328.449 97.8908L324.056 102.805C323.977 102.894 323.845 102.896 323.75 102.811C323.654 102.725 323.625 102.578 323.681 102.47L331.35 87.6812L331.381 87.6347L335.775 82.7194C335.854 82.6311 335.986 82.6295 336.081 82.7149Z" fill="#9854CB" stroke="#330043" stroke-width="0.490893" stroke-linejoin="round"/>
<path d="M328.855 83.6064C328.954 83.5828 329.062 83.6395 329.118 83.7439C329.174 83.8482 329.165 83.9751 329.094 84.0537L324.826 88.8269C324.798 88.8578 324.763 88.879 324.724 88.8884L314.294 91.3622C314.194 91.3855 314.087 91.3293 314.031 91.2252C313.975 91.1209 313.985 90.994 314.055 90.9154L318.323 86.1417C318.351 86.1106 318.387 86.0891 318.426 86.0798L328.855 83.6064Z" fill="#9854CB" stroke="#330043" stroke-width="0.490893" stroke-linejoin="round"/>
<path d="M328.333 87.0303C328.432 87.0097 328.538 87.0674 328.593 87.1713C328.647 87.2753 328.636 87.4009 328.567 87.4788L324.295 92.2587C324.266 92.2913 324.229 92.3137 324.187 92.3224L316.475 93.9262C316.376 93.9469 316.27 93.8891 316.215 93.7851C316.161 93.6812 316.172 93.5555 316.241 93.4777L320.513 88.6977L320.562 88.657C320.58 88.6464 320.6 88.6384 320.621 88.6341L328.333 87.0303Z" fill="#9854CB" stroke="#330043" stroke-width="0.490893" stroke-linejoin="round"/>
<path d="M332.133 98.5274C332.219 98.5491 332.291 98.6213 332.321 98.7148C332.35 98.8084 332.333 98.9078 332.275 98.9727L328.01 103.74C327.959 103.797 327.884 103.819 327.81 103.8L323.858 102.801C323.773 102.779 323.7 102.707 323.67 102.613C323.641 102.52 323.659 102.42 323.717 102.355L327.981 97.5884L328.023 97.5516C328.07 97.5222 328.126 97.5129 328.182 97.527L332.133 98.5274Z" fill="#9854CB" stroke="#330043" stroke-width="0.490893" stroke-linejoin="round"/>
<path d="M327.489 94.031C327.549 94.077 327.589 94.1491 327.599 94.2268C327.609 94.3044 327.588 94.3796 327.541 94.4319L323.309 99.1314C323.235 99.2139 323.113 99.2204 323.019 99.1479L316.267 93.9541C316.207 93.9082 316.167 93.8369 316.157 93.7593C316.146 93.6815 316.168 93.6055 316.215 93.5532L320.448 88.8551L320.511 88.807C320.581 88.7737 320.667 88.7833 320.738 88.8377L327.489 94.031Z" fill="#9854CB" stroke="#330043" stroke-width="0.490893" stroke-linejoin="round"/>
<path d="M327.412 93.8229C327.504 93.8808 327.558 93.9959 327.543 94.1065L327.095 97.6078C327.088 97.6584 327.068 97.7046 327.037 97.7397L322.697 102.612C322.629 102.689 322.519 102.701 322.427 102.643C322.336 102.585 322.283 102.47 322.297 102.359L322.745 98.859C322.752 98.8085 322.772 98.7622 322.803 98.7272L327.143 93.8547L327.2 93.8086C327.264 93.7753 327.343 93.7795 327.412 93.8229Z" fill="#9854CB" stroke="#330043" stroke-width="0.490893" stroke-linejoin="round"/>
<path d="M318.617 86.3776C318.709 86.4355 318.762 86.5502 318.748 86.6607L318.246 90.5823C318.239 90.6329 318.219 90.6791 318.188 90.7141L313.848 95.5877C313.78 95.6641 313.671 95.6771 313.579 95.6195C313.487 95.5616 313.433 95.4457 313.447 95.335L313.95 91.4134C313.956 91.363 313.976 91.3174 314.007 91.2825L318.347 86.4089C318.416 86.3323 318.525 86.3196 318.617 86.3776Z" fill="#9854CB" stroke="#330043" stroke-width="0.490893" stroke-linejoin="round"/>
<path d="M317.944 90.2945L326.99 97.5725C327.048 97.6192 327.087 97.69 327.096 97.7664C327.105 97.8431 327.083 97.9171 327.037 97.9687L322.813 102.647C322.737 102.731 322.613 102.736 322.518 102.66L313.473 95.3831C313.414 95.3363 313.375 95.2643 313.366 95.1877C313.357 95.1112 313.379 95.0369 313.426 94.9855L317.649 90.3075L317.68 90.2804C317.756 90.2239 317.861 90.2277 317.944 90.2945Z" fill="#9854CB" stroke="#330043" stroke-width="0.490893" stroke-linejoin="round"/>
<path d="M340.685 85.7123L340.768 85.7614L350.01 92.9192C350.128 93.0102 350.192 93.1659 350.174 93.3156L349.731 96.9485C349.713 97.0982 349.615 97.2144 349.483 97.2447L339.077 99.6273C338.836 99.6823 338.602 99.4367 338.635 99.1632L339.014 96.0513C339.033 95.8984 339.134 95.781 339.27 95.7536L346.524 94.2991L340.032 89.5038C339.91 89.4138 339.843 89.2548 339.862 89.1018L340.241 85.9899C340.27 85.7506 340.487 85.6278 340.685 85.7123Z" fill="white" stroke="#330043" stroke-width="0.490893"/>
<path d="M339.695 83.6801C339.938 83.7392 340.072 84.0479 339.953 84.2746L332.557 98.3247C332.488 98.4568 332.349 98.5212 332.207 98.487L328.357 97.5577C328.114 97.4989 327.979 97.1898 328.099 96.963L335.494 82.9129L335.523 82.8663C335.599 82.7659 335.721 82.7206 335.845 82.7506L339.695 83.6801Z" fill="white" stroke="#330043" stroke-width="0.490893"/>
<path d="M328.774 83.6653C328.981 83.6788 329.157 83.8973 329.128 84.1368L328.748 87.2486C328.73 87.4016 328.628 87.5198 328.492 87.5471L321.237 89.0014L327.73 93.797C327.852 93.8869 327.92 94.0452 327.901 94.1982L327.522 97.31C327.488 97.5837 327.209 97.7047 326.994 97.5384L317.752 90.3805C317.634 90.2895 317.57 90.1341 317.589 89.9844L318.032 86.3515C318.05 86.2018 318.147 86.0853 318.279 86.055L328.685 83.6725L328.774 83.6653Z" fill="white" stroke="#330043" stroke-width="0.490893"/>
<g opacity="0.1">
<path d="M-107.303 303.959C-91.6951 258.801 14.4239 278.978 86.256 256.167C162.366 231.998 178.815 186.328 268.172 183.048C357.529 179.767 376.288 253.323 443.769 271.837C511.249 290.352 654.261 247.941 710.58 290.108" stroke="#FEF0ED" stroke-width="8.77197"/>
<path d="M-112.454 330.253C-96.8454 285.095 9.27363 305.272 81.1058 282.462C157.216 258.293 173.664 212.623 263.021 209.342C352.378 206.062 371.138 279.618 438.619 298.132C506.099 316.646 649.111 274.235 705.43 316.403" stroke="#FEF0ED" stroke-width="8.77197"/>
<path d="M-113.544 356.672C-97.9355 311.514 8.18354 331.691 80.0157 308.88C156.126 284.711 172.574 239.042 261.931 235.761C351.288 232.481 370.048 306.036 437.528 324.551C505.009 343.065 648.021 300.654 704.34 342.822" stroke="#FEF0ED" stroke-width="8.77197"/>
<path d="M-117.154 384.634C-101.546 339.477 4.57282 359.653 76.405 336.843C152.515 312.674 168.964 267.004 258.321 263.724C347.678 260.443 366.437 333.999 433.918 352.513C501.398 371.027 644.41 328.616 700.729 370.784" stroke="#FEF0ED" stroke-width="8.77197"/>
<path d="M-97.5481 196.116C-81.94 150.958 24.179 171.135 96.0112 148.324C172.121 124.155 188.57 78.4859 277.927 75.2054C367.284 71.9249 386.043 145.48 453.524 163.995C521.005 182.509 664.016 140.098 720.335 182.266" stroke="#FEF0ED" stroke-width="8.77197"/>
<path d="M-102.698 222.412C-87.0902 177.254 19.0289 197.431 90.861 174.62C166.971 150.451 183.42 104.782 272.777 101.501C362.134 98.2207 380.893 171.776 448.374 190.29C515.854 208.805 658.866 166.394 715.185 208.561" stroke="#FEF0ED" stroke-width="8.77197"/>
<path d="M-103.784 248.831C-88.1761 203.673 17.9429 223.85 89.7751 201.04C165.885 176.871 182.334 131.201 271.691 127.921C361.048 124.64 379.807 198.196 447.288 216.71C514.768 235.224 657.78 192.813 714.099 234.981" stroke="#FEF0ED" stroke-width="8.77197"/>
<path d="M-107.395 276.793C-91.7868 231.636 14.3322 251.812 86.1644 229.002C162.274 204.833 178.723 159.163 268.08 155.883C357.437 152.602 376.197 226.158 443.677 244.672C511.158 263.186 654.169 220.776 710.489 262.943" stroke="#FEF0ED" stroke-width="8.77197"/>
<path d="M-119.088 412.552C-103.48 367.394 2.63923 387.571 74.4714 364.76C150.582 340.591 167.03 294.922 256.387 291.641C345.744 288.361 364.504 361.916 431.984 380.431C499.465 398.945 642.476 356.534 698.796 398.702" stroke="#FEF0ED" stroke-width="8.77197"/>
<path d="M-124.454 439.628C-108.846 394.47 -2.72649 414.647 69.1056 391.836C145.216 367.667 161.664 321.998 251.021 318.717C340.378 315.437 359.138 388.992 426.618 407.506C494.099 426.021 637.111 383.61 693.43 425.777" stroke="#FEF0ED" stroke-width="8.77197"/>
<path d="M-127.212 466.093C-111.604 420.935 -5.48504 441.112 66.3471 418.301C142.457 394.132 158.906 348.463 248.263 345.182C337.62 341.902 356.379 415.457 423.86 433.972C491.34 452.486 634.352 410.075 690.671 452.242" stroke="#FEF0ED" stroke-width="8.77197"/>
<path d="M-129.696 494.18C-114.087 449.022 -7.96844 469.199 63.8637 446.388C139.974 422.219 156.422 376.55 245.779 373.269C335.136 369.989 353.896 443.545 421.377 462.059C488.857 480.573 631.869 438.162 688.188 480.33" stroke="#FEF0ED" stroke-width="8.77197"/>
<path d="M-125.97 523.034C-110.362 477.876 -4.24322 498.053 67.5889 475.242C143.699 451.073 160.148 405.404 249.505 402.123C338.862 398.843 357.621 472.398 425.102 490.912C492.582 509.427 635.594 467.016 691.913 509.183" stroke="#FEF0ED" stroke-width="8.77197"/>
<path d="M-127.899 552.736C-112.291 507.578 -6.17229 527.755 65.6598 504.945C141.77 480.776 158.219 435.106 247.576 431.826C336.932 428.545 355.692 502.101 423.173 520.615C490.653 539.129 633.665 496.718 689.984 538.886" stroke="#FEF0ED" stroke-width="8.77197"/>
<path d="M-130.076 579.496C-114.468 534.338 -8.34881 554.515 63.4833 531.704C139.593 507.535 156.042 461.866 245.399 458.585C334.756 455.305 353.516 528.86 420.996 547.374C488.477 565.889 631.488 523.478 687.808 565.645" stroke="#FEF0ED" stroke-width="8.77197"/>
<path d="M-127.89 612.829C-112.282 567.672 -6.16314 587.848 65.669 565.038C141.779 540.869 158.228 495.199 247.585 491.919C336.942 488.638 355.701 562.194 423.182 580.708C490.662 599.222 633.674 556.812 689.993 598.979" stroke="#FEF0ED" stroke-width="8.77197"/>
<path d="M-125.709 646.163C-110.101 601.006 -3.98211 621.182 67.85 598.372C143.96 574.203 160.409 528.533 249.766 525.253C339.123 521.972 357.882 595.528 425.363 614.042C492.843 632.556 635.855 590.145 692.174 632.313" stroke="#FEF0ED" stroke-width="8.77197"/>
</g>
<rect x="-17.4926" y="272.078" width="106.242" height="32.6094" rx="10.8967" transform="rotate(-37.3207 -17.4926 272.078)" fill="#330043"/>
<path d="M-9.05921 265.167L58.0994 213.968C62.6858 210.471 69.2381 211.355 72.7347 215.941L77.7714 222.548C81.268 227.134 80.3845 233.686 75.798 237.183L8.63943 288.382C4.05296 291.879 -2.49934 290.995 -5.99589 286.409L-11.0326 279.802C-14.529 275.216 -13.6455 268.664 -9.05921 265.167Z" fill="#D194FF" stroke="#330043" stroke-width="0.908055"/>
<path d="M64.9535 232.883L66.7428 235.23L62.7712 238.257L60.9819 235.91L64.9535 232.883ZM59.146 221.895L63.4124 227.491L61.7878 228.73L64.2656 231.98L60.2939 235.008L53.5497 226.162L59.146 221.895Z" fill="#9854CB" stroke="#330043" stroke-width="0.908055"/>
<path d="M41.2744 235.52L42.513 237.145L44.1377 235.906L45.3763 237.531L46.2795 236.842L45.0409 235.217L46.6655 233.979L45.4269 232.354L49.3986 229.326L58.62 241.422L54.6484 244.45L49.6934 237.95L48.7909 238.638L51.2687 241.888L48.9218 243.678L46.444 240.428L45.5408 241.116L50.4958 247.616L46.5242 250.643L37.3028 238.548L41.2744 235.52Z" fill="#9854CB" stroke="#330043" stroke-width="0.908055"/>
<path d="M35.8583 239.649L37.6475 241.996L29.5233 248.189L31.4505 250.717L37.95 245.762L39.7392 248.109L33.2397 253.064L35.1663 255.591L43.2905 249.398L45.0797 251.745L32.9839 260.966L23.7625 248.87L35.8583 239.649Z" fill="#9854CB" stroke="#330043" stroke-width="0.908055"/>
<path d="M22.3181 249.972L24.1073 252.318L20.8579 254.796L28.2901 264.545L24.3178 267.573L16.8855 257.824L13.6362 260.301L11.847 257.954L22.3181 249.972Z" fill="#9854CB" stroke="#330043" stroke-width="0.908055"/>
<path d="M8.77779 260.294L10.0164 261.919L11.6411 260.68L13.4303 263.027L9.45868 266.055L8.22008 264.43L4.06751 267.596L5.99469 270.124L12.4942 265.169L13.7328 266.794L15.3575 265.555L18.3853 269.527L16.7606 270.765L17.9992 272.39L9.15279 279.134L7.91419 277.51L6.28951 278.748L4.50028 276.401L8.4719 273.373L9.7105 274.998L13.8631 271.832L11.9365 269.305L5.43698 274.26L4.19779 272.635L2.57311 273.873L-0.454719 269.902L1.16996 268.663L-0.0686422 267.038L8.77779 260.294Z" fill="#9854CB" stroke="#330043" stroke-width="0.908055"/>
<path d="M211.362 84.608C214.713 82.4428 218.301 81.3595 222.292 82.1685C226.31 82.983 228.588 84.71 229.923 86.9537C231.268 89.2149 231.676 92.0353 231.875 95.0816C232.072 98.1056 232.061 101.366 232.599 104.401C233.14 107.45 234.239 110.321 236.684 112.592C240.559 116.191 245.35 116.721 249.694 117.507C254.059 118.298 257.989 119.342 260.43 123.834C262.815 128.225 262.056 132.128 260.746 136.266C259.44 140.391 257.57 144.774 257.903 149.979C258.155 153.916 259.535 157.435 261.325 160.697C263.111 163.951 265.324 166.977 267.236 169.896C269.157 172.828 270.78 175.66 271.445 178.572C272.107 181.469 271.823 184.46 269.902 187.724C266.616 193.307 261.641 194.22 256.01 194.575C250.401 194.928 244.122 194.716 238.516 198.214C233.754 201.186 231.116 205.228 228.394 208.921C225.668 212.621 222.85 215.988 217.716 217.766C211.376 219.962 206.32 218.404 201.118 216.183C195.925 213.966 190.56 211.069 183.718 210.741C177.616 210.448 172.358 212.891 167.459 214.505C162.543 216.125 157.959 216.932 153.021 213.565C149.773 211.35 148.521 208.375 147.349 205.198C146.18 202.03 145.089 198.651 142.116 195.801C138.405 192.244 133.817 191.714 129.61 190.974C125.383 190.23 121.527 189.277 119.003 185.011C117.142 181.867 116.865 179.031 117.55 176.319C118.238 173.591 119.904 170.969 121.972 168.27C123.004 166.922 124.131 165.563 125.28 164.165C126.428 162.768 127.597 161.334 128.708 159.845C130.928 156.868 132.924 153.656 134.061 150.044C136.46 142.426 135.754 135.319 135.821 128.739C135.889 122.148 136.725 116.044 142.126 110.264C147.48 104.535 154.591 105.428 162.079 107.364C165.799 108.325 169.626 109.548 173.292 110.288C176.966 111.029 180.536 111.298 183.781 110.337C187.034 109.374 190.062 106.892 193.014 103.808C195.964 100.726 198.884 96.9922 201.886 93.5142C204.898 90.0239 208.004 86.7776 211.362 84.608Z" fill="#330043" stroke="#330043" stroke-width="0.537549"/>
<path d="M130.232 148.317C135.266 132.309 127.26 118.515 138.812 106.132C150.363 93.7495 169.48 110.12 182.923 106.132C190.222 103.967 196.546 94.3348 203.559 86.5431M261.553 148.317C260.858 137.443 269.341 130.046 264.188 120.544C258.899 110.791 247.093 116.056 239.059 108.581C235.193 104.984 234.569 99.9199 234.299 94.8446" stroke="#330043" stroke-width="0.537549"/>
<path d="M201.484 160.226V164.848H194.473V160.226H201.484Z" fill="#F47155" stroke="#330043" stroke-width="0.537549"/>
<path d="M198.555 164.195C203.058 164.195 207.124 164.771 210.055 165.694C211.522 166.156 212.691 166.7 213.486 167.292C214.164 167.798 214.539 168.313 214.637 168.816H182.474C182.573 168.313 182.947 167.798 183.626 167.292C184.421 166.7 185.589 166.156 187.056 165.694C189.987 164.771 194.053 164.195 198.555 164.195Z" fill="#FFCD34" stroke="#330043" stroke-width="0.537549"/>
<path d="M197.807 166.84C202.686 166.84 209.197 167.765 213.574 168.494C216.463 168.975 218.854 170.961 219.707 173.75C220.617 176.723 221.573 180.585 221.573 183.668C221.573 186.743 220.623 190.59 219.716 193.56C218.86 196.364 216.449 198.355 213.541 198.827C209.165 199.536 202.673 200.431 197.807 200.431C192.904 200.431 186.35 199.522 181.973 198.81C179.119 198.346 176.74 196.416 175.856 193.677C174.894 190.696 173.873 186.791 173.873 183.668C173.874 180.536 174.901 176.616 175.865 173.632C176.745 170.909 179.105 168.985 181.941 168.51C186.317 167.779 192.891 166.84 197.807 166.84Z" fill="#FF4A97" stroke="#330043" stroke-width="0.537549"/>
<path d="M196.779 179.672C197.283 179.109 198.164 179.109 198.668 179.672L199.426 180.519C199.585 180.697 199.779 180.843 199.995 180.946L201.076 181.461C201.731 181.773 201.991 182.571 201.645 183.208L201.04 184.326C200.93 184.528 200.859 184.751 200.833 184.98L200.693 186.205C200.609 186.945 199.908 187.452 199.18 187.302L198.088 187.078C197.848 187.028 197.6 187.028 197.36 187.078L196.268 187.302C195.54 187.452 194.839 186.945 194.755 186.205L194.614 184.98C194.588 184.751 194.518 184.528 194.408 184.326L193.803 183.208C193.457 182.571 193.716 181.773 194.371 181.461L195.453 180.946C195.669 180.843 195.863 180.697 196.022 180.519L196.779 179.672Z" fill="#FFCD34" stroke="#330043" stroke-width="0.537549"/>
<path d="M273.283 145.039C276.836 145.039 279.731 148.019 279.731 151.715C279.731 155.41 276.836 158.39 273.283 158.39C269.73 158.39 266.834 155.41 266.834 151.715C266.834 148.019 269.73 145.039 273.283 145.039Z" fill="#330043" stroke="#330043" stroke-width="0.537549"/>
<path d="M226.51 132.963C225.985 136.937 222.638 140.911 218.561 140.911L220.361 126.964C223.316 125.23 227.364 126.495 226.51 132.963Z" fill="#F47155"/>
<path d="M168.938 132.963C169.463 136.937 172.809 140.911 176.886 140.911L175.086 126.964C172.131 125.23 168.083 126.495 168.938 132.963Z" fill="#F47155"/>
<path d="M200.648 114.355C201.081 115.29 201.706 116.581 202.47 118.003C203.995 120.839 206.091 124.229 208.351 126.356C210.566 128.441 213.941 129.855 216.734 130.747C218.135 131.194 219.399 131.513 220.313 131.72C220.77 131.824 221.14 131.9 221.396 131.95C221.462 131.963 221.522 131.974 221.573 131.983V138.793C221.573 150.823 210.917 160.615 197.723 160.615C184.529 160.615 173.873 150.823 173.873 138.793V132.041C173.942 132.044 174.022 132.048 174.113 132.051C174.449 132.064 174.935 132.076 175.536 132.079C176.736 132.084 178.397 132.05 180.24 131.889C183.91 131.569 188.355 130.745 191.287 128.696C194.22 126.647 196.516 122.651 198.072 119.213C198.853 117.486 199.454 115.887 199.86 114.718C200.029 114.231 200.162 113.818 200.262 113.503C200.366 113.735 200.494 114.023 200.648 114.355Z" fill="#F47155" stroke="#330043" stroke-width="0.537549"/>
<ellipse cx="186.054" cy="136.055" rx="0.806323" ry="0.833614" fill="#330043"/>
<ellipse cx="204.988" cy="136.055" rx="0.806323" ry="0.833614" fill="#330043"/>
<path d="M190.496 146.929C190.496 146.929 192.107 150.037 197.725 150.037C203.343 150.037 204.954 146.929 204.954 146.929" stroke="#330043" stroke-width="0.537549" stroke-linecap="round"/>
<path d="M196.894 134.031C196.894 134.031 196.797 135.709 196.19 137.338C195.583 138.966 194.783 139.983 194.783 139.983" stroke="#330043" stroke-width="0.537549" stroke-linecap="round"/>
<path d="M224.452 141.178L224.71 141.103V141.103L224.452 141.178ZM221.845 139.019C221.962 138.928 221.983 138.759 221.891 138.642C221.8 138.525 221.631 138.504 221.514 138.596L221.68 138.807L221.845 139.019ZM224.963 145.16H224.694C224.694 146.967 224.412 148.591 223.965 149.753C223.741 150.335 223.482 150.787 223.207 151.089C222.932 151.392 222.663 151.523 222.413 151.523V151.791V152.06C222.867 152.06 223.269 151.82 223.604 151.451C223.94 151.082 224.229 150.564 224.467 149.946C224.943 148.708 225.232 147.016 225.232 145.16H224.963ZM222.413 151.791V151.523C222.163 151.523 221.894 151.392 221.619 151.089C221.344 150.787 221.085 150.335 220.861 149.753C220.414 148.591 220.132 146.967 220.132 145.16H219.863H219.594C219.594 147.016 219.883 148.708 220.359 149.946C220.597 150.564 220.886 151.082 221.222 151.451C221.557 151.82 221.959 152.06 222.413 152.06V151.791ZM224.452 141.178L224.194 141.253C224.506 142.334 224.694 143.687 224.694 145.16H224.963H225.232C225.232 143.645 225.039 142.24 224.71 141.103L224.452 141.178ZM223.322 138.94L223.124 139.121C223.618 139.661 223.878 140.159 224.194 141.253L224.452 141.178L224.71 141.103C224.381 139.963 224.089 139.381 223.52 138.758L223.322 138.94ZM219.863 145.16H220.132C220.132 143.682 220.321 142.324 220.635 141.241C220.954 140.146 221.388 139.376 221.845 139.019L221.68 138.807L221.514 138.596C220.921 139.058 220.447 139.965 220.119 141.091C219.788 142.23 219.594 143.639 219.594 145.16H219.863Z" fill="#FFCD34"/>
<path d="M170.998 141.178L170.74 141.103V141.103L170.998 141.178ZM173.605 139.019C173.488 138.928 173.467 138.759 173.559 138.642C173.65 138.525 173.819 138.504 173.936 138.596L173.771 138.807L173.605 139.019ZM170.487 145.16H170.756C170.756 146.967 171.038 148.591 171.485 149.753C171.709 150.335 171.969 150.787 172.243 151.089C172.518 151.392 172.787 151.523 173.037 151.523V151.791V152.06C172.583 152.06 172.181 151.82 171.846 151.451C171.51 151.082 171.221 150.564 170.983 149.946C170.507 148.708 170.218 147.016 170.218 145.16H170.487ZM173.037 151.791V151.523C173.287 151.523 173.556 151.392 173.831 151.089C174.106 150.787 174.365 150.335 174.589 149.753C175.036 148.591 175.318 146.967 175.318 145.16H175.587H175.856C175.856 147.016 175.567 148.708 175.091 149.946C174.853 150.564 174.564 151.082 174.228 151.451C173.893 151.82 173.491 152.06 173.037 152.06V151.791ZM170.998 141.178L171.256 141.253C170.944 142.334 170.756 143.687 170.756 145.16H170.487H170.218C170.218 143.645 170.411 142.24 170.74 141.103L170.998 141.178ZM172.128 138.94L172.327 139.121C171.832 139.661 171.572 140.159 171.256 141.253L170.998 141.178L170.74 141.103C171.07 139.963 171.361 139.381 171.93 138.758L172.128 138.94ZM175.587 145.16H175.318C175.318 143.682 175.129 142.324 174.815 141.241C174.496 140.146 174.062 139.376 173.605 139.019L173.771 138.807L173.936 138.596C174.529 139.058 175.004 139.965 175.331 141.091C175.662 142.23 175.856 143.639 175.856 145.16H175.587Z" fill="#FFCD34"/>
<path d="M117.637 137.539C122.205 137.539 125.928 141.371 125.928 146.122C125.928 150.874 122.205 154.706 117.637 154.706C113.068 154.706 109.346 150.874 109.346 146.122C109.346 141.371 113.069 137.539 117.637 137.539Z" fill="#330043" stroke="#330043" stroke-width="0.691152"/>
<path d="M179.999 81.3457C184.567 81.3457 188.29 85.1774 188.29 89.9287C188.29 94.6802 184.567 98.5127 179.999 98.5127C175.431 98.5127 171.708 94.6802 171.708 89.9287C171.708 85.1774 175.431 81.3457 179.999 81.3457Z" fill="#330043" stroke="#330043" stroke-width="0.691152"/>
</g>
<defs>
<clipPath id="clip0_79_4959">
<rect width="393" height="945" fill="white"/>
</clipPath>
</defs>
</svg>
