<svg width="107" height="38" viewBox="0 0 107 38" fill="none" xmlns="http://www.w3.org/2000/svg">
<path d="M29.1839 0.825195C30.1416 0.226691 31.1674 -0.0723562 32.3089 0.151367C33.458 0.37669 34.1096 0.854088 34.4905 1.47363C34.8743 2.09789 34.9904 2.87687 35.0471 3.71875C35.1034 4.55403 35.1004 5.45575 35.2542 6.29492C35.4088 7.13855 35.7238 7.93329 36.4231 8.56152C37.5304 9.55622 38.8994 9.70253 40.1409 9.91992C41.389 10.1385 42.5123 10.4272 43.2093 11.668C43.8902 12.8804 43.6735 13.9579 43.2991 15.1016C42.926 16.2413 42.3912 17.4545 42.4866 18.8945C42.5588 19.9837 42.9534 20.9566 43.4651 21.8584C43.9757 22.7581 44.6082 23.5955 45.1546 24.4023C45.7034 25.2128 46.1667 25.9948 46.3567 26.7988C46.5456 27.5985 46.4649 28.4246 45.9163 29.3262C44.9776 30.8687 43.5556 31.1217 41.9456 31.2197C40.3425 31.3173 38.5483 31.2588 36.9466 32.2256C35.5856 33.0471 34.8319 34.1645 34.054 35.1855C33.275 36.208 32.469 37.1383 31.0013 37.6299C29.1885 38.237 27.743 37.8064 26.2561 37.1924C24.772 36.5795 23.2393 35.7793 21.2845 35.6885C19.5413 35.6075 18.0393 36.2822 16.6389 36.7285C15.2337 37.1763 13.9219 37.4 12.51 36.4688C11.5822 35.8567 11.2247 35.0348 10.8899 34.1572C10.5559 33.2817 10.2437 32.3467 9.39383 31.5586C8.33334 30.5752 7.02275 30.4282 5.82059 30.2236C4.61188 30.0179 3.50936 29.7549 2.78836 28.5762C2.25719 27.7078 2.17812 26.9252 2.37332 26.1768C2.56986 25.4236 3.0462 24.6991 3.63699 23.9531C3.93204 23.5806 4.25384 23.2039 4.58231 22.8174C4.91023 22.4315 5.24452 22.0355 5.5618 21.624C6.19648 20.8008 6.76769 19.9123 7.09305 18.9131C7.77892 16.8066 7.5767 14.8408 7.59598 13.0225C7.6153 11.2014 7.85389 9.5151 9.39676 7.91797C10.9271 6.33398 12.9604 6.58111 15.1009 7.11621C16.164 7.38202 17.2574 7.71944 18.305 7.92383C19.3548 8.12863 20.3751 8.20399 21.302 7.93848C22.2314 7.67227 23.097 6.98538 23.9407 6.13281C24.7838 5.28079 25.6182 4.24831 26.4759 3.28711C27.3367 2.3224 28.2242 1.42492 29.1839 0.825195Z" fill="#330043" stroke="#330043" stroke-width="0.153629"/>
<path d="M5.99683 18.4353C7.43532 14.0099 5.14736 10.1967 8.44869 6.77368C11.75 3.35062 17.2136 7.87602 21.0555 6.77368C23.1416 6.17512 24.9488 3.51243 26.9531 1.3585M43.5276 18.4353C43.3289 15.4291 45.7534 13.3844 44.2806 10.7576C42.769 8.06157 39.395 9.51702 37.0988 7.45056C35.994 6.45634 35.8156 5.05637 35.7385 3.65334" stroke="#330043" stroke-width="0.153629"/>
<path d="M26.3659 21.7291V23.0016H24.362V21.7291H26.3659Z" fill="#F47155" stroke="#330043" stroke-width="0.153629"/>
<path d="M25.5208 22.8264C26.8078 22.8264 27.9699 22.9852 28.8079 23.2405C29.2273 23.3683 29.561 23.5191 29.7883 23.6829C29.9811 23.8217 30.0867 23.9623 30.1155 24.0989H20.926C20.9549 23.9623 21.0604 23.8217 21.2532 23.6829C21.4805 23.5192 21.8143 23.3683 22.2336 23.2405C23.0716 22.9852 24.2338 22.8264 25.5208 22.8264Z" fill="#FFCD34" stroke="#330043" stroke-width="0.153629"/>
<path d="M25.3118 23.5582C26.7089 23.5583 28.5748 23.8145 29.8254 24.0162C30.6474 24.1489 31.3319 24.7064 31.5803 25.4967C31.8374 26.3146 32.1038 27.3663 32.1038 28.2076C32.1037 29.0463 31.8396 30.094 31.5833 30.9108C31.3338 31.7052 30.6434 32.2644 29.8167 32.3942C28.5659 32.5904 26.7053 32.8385 25.3118 32.8385C23.9073 32.8385 22.0285 32.5862 20.7776 32.3893C19.9662 32.2615 19.2857 31.7195 19.0286 30.944C18.7566 30.1237 18.472 29.0601 18.4719 28.2076C18.4719 27.3524 18.7577 26.2839 19.0305 25.4625C19.2867 24.6914 19.9625 24.1517 20.7688 24.0211C22.0195 23.8187 23.9038 23.5582 25.3118 23.5582Z" fill="#FF4A97" stroke="#330043" stroke-width="0.153629"/>
<path d="M25.021 27.099C25.1643 26.9441 25.4099 26.9441 25.5532 27.099L25.7739 27.3383C25.8199 27.388 25.8755 27.4281 25.937 27.4564L26.2319 27.5932C26.4237 27.6815 26.5002 27.9148 26.397 28.099L26.2378 28.3822C26.2047 28.4412 26.1833 28.5065 26.1753 28.5736L26.1372 28.8969C26.1124 29.1066 25.9136 29.2506 25.7065 29.2094L25.3882 29.1459C25.3217 29.1327 25.2525 29.1327 25.186 29.1459L24.8677 29.2094C24.6606 29.2506 24.4618 29.1066 24.437 28.8969L24.3989 28.5736C24.3909 28.5065 24.3695 28.4412 24.3364 28.3822L24.1782 28.099C24.075 27.9148 24.1505 27.6815 24.3423 27.5932L24.6372 27.4564C24.6988 27.4281 24.7543 27.388 24.8003 27.3383L25.021 27.099Z" fill="#FFCD34" stroke="#330043" stroke-width="0.153629"/>
<circle cx="1.91977" cy="19.9879" r="1.84295" fill="#330043" stroke="#330043" stroke-width="0.153629"/>
<circle cx="20.5312" cy="2.3257" r="1.84295" fill="#330043" stroke="#330043" stroke-width="0.153629"/>
<circle cx="46.9347" cy="16.552" r="1.84295" fill="#330043" stroke="#330043" stroke-width="0.153629"/>
<path d="M33.5139 15.7987C33.3639 16.9345 32.4074 18.0703 31.2423 18.0703L31.7567 14.0843C32.6013 13.5887 33.7581 13.9503 33.5139 15.7987Z" fill="#F47155"/>
<path d="M17.0612 15.7979C17.2112 16.9337 18.1677 18.0695 19.3328 18.0695L18.8185 14.0835C17.9738 13.5879 16.8171 13.9495 17.0612 15.7979Z" fill="#F47155"/>
<path d="M26.1243 9.04758C26.2482 9.30604 26.4263 9.66327 26.6448 10.0564C27.0805 10.8405 27.6794 11.7778 28.3254 12.3659C28.9584 12.9422 29.9231 13.3333 30.7209 13.5798C31.1213 13.7035 31.4832 13.7911 31.7444 13.8484C31.875 13.877 31.9808 13.8981 32.054 13.9118C32.0727 13.9154 32.0894 13.918 32.1038 13.9206V15.8015C32.1035 19.123 29.0606 21.8308 25.2874 21.8308C21.5142 21.8306 18.4722 19.1229 18.4719 15.8015V13.9363C18.4914 13.9371 18.5144 13.9393 18.5403 13.9402C18.6363 13.9435 18.7751 13.9472 18.9465 13.948C19.2896 13.9495 19.7648 13.9396 20.2913 13.8952C21.34 13.8068 22.6097 13.5788 23.4475 13.0124C24.2857 12.4457 24.9422 11.341 25.387 10.3904C25.6103 9.91299 25.7818 9.47017 25.8977 9.14719C25.9463 9.01164 25.9842 8.89673 26.0129 8.8093C26.0427 8.87401 26.0797 8.95467 26.1243 9.04758Z" fill="#F47155" stroke="#330043" stroke-width="0.153629"/>
<circle cx="21.9536" cy="15.0454" r="0.230443" fill="#330043"/>
<circle cx="27.3617" cy="15.0454" r="0.230443" fill="#330043"/>
<path d="M23.2175 18.0511C23.2175 18.0511 23.678 18.9104 25.2835 18.9104C26.889 18.9104 27.3495 18.0511 27.3495 18.0511" stroke="#330043" stroke-width="0.153629" stroke-linecap="round"/>
<path d="M25.0467 14.4858C25.0467 14.4858 25.0191 14.9499 24.8456 15.4C24.6721 15.8501 24.4434 16.1314 24.4434 16.1314" stroke="#330043" stroke-width="0.153629" stroke-linecap="round"/>
<path d="M32.9258 18.1464L32.9996 18.125L32.9258 18.1464ZM32.1807 17.5295C32.2141 17.5034 32.2201 17.4551 32.194 17.4217C32.1679 17.3882 32.1196 17.3822 32.0862 17.4083L32.1334 17.4689L32.1807 17.5295ZM33.0718 19.2845H32.995C32.995 19.8008 32.9143 20.2648 32.7866 20.597C32.7227 20.7633 32.6484 20.8926 32.5699 20.979C32.4913 21.0654 32.4146 21.1028 32.343 21.1028V21.1796V21.2564C32.4728 21.2564 32.5877 21.1878 32.6835 21.0823C32.7794 20.977 32.8621 20.8287 32.93 20.6521C33.0661 20.2983 33.1486 19.8147 33.1486 19.2845H33.0718ZM32.343 21.1796V21.1028C32.2715 21.1028 32.1948 21.0654 32.1162 20.979C32.0377 20.8926 31.9634 20.7633 31.8995 20.597C31.7717 20.2648 31.6911 19.8008 31.6911 19.2845H31.6143H31.5375C31.5375 19.8147 31.62 20.2983 31.7561 20.6521C31.824 20.8287 31.9067 20.977 32.0026 21.0823C32.0984 21.1878 32.2133 21.2564 32.343 21.2564V21.1796ZM32.9258 18.1464L32.852 18.1677C32.9414 18.4766 32.995 18.8634 32.995 19.2845H33.0718H33.1486C33.1486 18.8513 33.0935 18.4499 32.9996 18.125L32.9258 18.1464ZM32.6028 17.5066L32.5461 17.5585C32.6873 17.7129 32.7616 17.8552 32.852 18.1677L32.9258 18.1464L32.9996 18.125C32.9054 17.7993 32.8222 17.6327 32.6595 17.4548L32.6028 17.5066ZM31.6143 19.2845H31.6911C31.6911 18.862 31.7451 18.474 31.835 18.1645C31.926 17.8515 32.05 17.6313 32.1807 17.5295L32.1334 17.4689L32.0862 17.4083C31.9165 17.5406 31.781 17.7997 31.6875 18.1216C31.5929 18.4471 31.5375 18.8498 31.5375 19.2845H31.6143Z" fill="#FFCD34"/>
<path d="M17.6493 18.1464L17.5755 18.125L17.6493 18.1464ZM18.3945 17.5295C18.361 17.5034 18.355 17.4551 18.3811 17.4217C18.4072 17.3882 18.4555 17.3822 18.4889 17.4083L18.4417 17.4689L18.3945 17.5295ZM17.5034 19.2845H17.5802C17.5802 19.8008 17.6608 20.2648 17.7885 20.597C17.8524 20.7633 17.9267 20.8926 18.0053 20.979C18.0838 21.0654 18.1606 21.1028 18.2321 21.1028V21.1796V21.2564C18.1024 21.2564 17.9874 21.1878 17.8916 21.0823C17.7958 20.977 17.713 20.8287 17.6451 20.6521C17.5091 20.2983 17.4265 19.8147 17.4265 19.2845H17.5034ZM18.2321 21.1796V21.1028C18.3036 21.1028 18.3804 21.0654 18.4589 20.979C18.5375 20.8926 18.6117 20.7633 18.6757 20.597C18.8034 20.2648 18.884 19.8008 18.884 19.2845H18.9608H19.0376C19.0376 19.8147 18.9551 20.2983 18.8191 20.6521C18.7511 20.8287 18.6684 20.977 18.5726 21.0823C18.4767 21.1878 18.3618 21.2564 18.2321 21.2564V21.1796ZM17.6493 18.1464L17.7231 18.1677C17.6338 18.4766 17.5802 18.8634 17.5802 19.2845H17.5034H17.4265C17.4265 18.8513 17.4816 18.4499 17.5755 18.125L17.6493 18.1464ZM17.9723 17.5066L18.029 17.5585C17.8878 17.7129 17.8135 17.8552 17.7231 18.1677L17.6493 18.1464L17.5755 18.125C17.6698 17.7993 17.753 17.6327 17.9156 17.4548L17.9723 17.5066ZM18.9608 19.2845H18.884C18.884 18.862 18.83 18.474 18.7401 18.1645C18.6492 17.8515 18.5251 17.6313 18.3945 17.5295L18.4417 17.4689L18.4889 17.4083C18.6586 17.5406 18.7941 17.7997 18.8876 18.1216C18.9822 18.4471 19.0376 18.8498 19.0376 19.2845H18.9608Z" fill="#FFCD34"/>
<path d="M50.5962 16.9999V7.60129H53.4377L55.7873 12.164L58.0823 7.60129H60.9237V16.9999H58.0823V12.082L56.3474 15.3606H55.1862L53.4377 12.082V16.9999H50.5962ZM66.5428 15.1966C66.8069 15.1966 67.0846 15.1693 67.3761 15.1147C67.6766 15.06 67.9817 14.9599 68.2913 14.8141L68.6192 16.5764C68.2822 16.7494 67.9134 16.8815 67.5127 16.9725C67.1211 17.0636 66.6703 17.1091 66.1603 17.1091C65.2404 17.1091 64.4663 16.9589 63.8379 16.6583C63.2186 16.3578 62.7496 15.9434 62.4309 15.4152C62.1121 14.887 61.9528 14.2768 61.9528 13.5847C61.9528 12.8743 62.1212 12.255 62.4582 11.7268C62.8043 11.1986 63.2642 10.7888 63.8379 10.4974C64.4117 10.2059 65.0446 10.0602 65.7368 10.0602C66.7659 10.0602 67.5536 10.3835 68.1001 11.0301C68.6465 11.6676 68.9197 12.5783 68.9197 13.7623L64.8488 14.2814C65.1494 14.8916 65.714 15.1966 66.5428 15.1966ZM64.6303 13.0246L66.775 12.5738C66.7386 12.2824 66.6384 12.0683 66.4745 11.9317C66.3105 11.786 66.1056 11.7132 65.8597 11.7132C65.4954 11.7132 65.204 11.8407 64.9854 12.0957C64.776 12.3416 64.6576 12.6512 64.6303 13.0246ZM69.8717 16.9999V10.1558H72.7131V11.8634C72.8953 11.2441 73.1776 10.7888 73.5601 10.4974C73.9517 10.2059 74.4162 10.0602 74.9535 10.0602L75.295 12.4782C75.0764 12.4508 74.8624 12.4372 74.6529 12.4372C73.3871 12.4372 72.7541 12.9563 72.7541 13.9945V16.9999H69.8717ZM75.9817 16.9999V10.1558H78.8231V11.6449C79.0235 11.1349 79.3103 10.7433 79.6837 10.47C80.0662 10.1968 80.5443 10.0602 81.1181 10.0602C81.6827 10.0602 82.1609 10.2014 82.5525 10.4837C82.9532 10.7569 83.2355 11.1121 83.3994 11.5492C83.7091 11.0848 84.0734 10.7205 84.4923 10.4564C84.9203 10.1923 85.4349 10.0602 86.0359 10.0602C86.8829 10.0602 87.5386 10.3699 88.0031 10.9891C88.4676 11.5993 88.6998 12.4645 88.6998 13.5847V16.9999H85.8174V13.4344C85.8174 12.6239 85.5305 12.2186 84.9568 12.2186C84.6016 12.2186 84.3147 12.3643 84.0961 12.6558C83.8867 12.9381 83.7819 13.3206 83.7819 13.8033V16.9999H80.8995V13.4344C80.8995 13.0064 80.8267 12.6967 80.6809 12.5055C80.5352 12.3142 80.3212 12.2186 80.0389 12.2186C79.6837 12.2186 79.3968 12.3598 79.1783 12.6421C78.9688 12.9153 78.8641 13.3024 78.8641 13.8033V16.9999H75.9817ZM93.0216 17.1091C92.3932 17.1091 91.824 16.9589 91.314 16.6583C90.804 16.3487 90.3987 15.9252 90.0982 15.3879C89.8068 14.8506 89.6611 14.2358 89.6611 13.5437C89.6611 12.8516 89.8068 12.2459 90.0982 11.7268C90.3987 11.2077 90.804 10.8025 91.314 10.511C91.824 10.2105 92.3932 10.0602 93.0216 10.0602C93.4678 10.0602 93.9004 10.1832 94.3194 10.4291C94.7383 10.675 95.0616 11.0802 95.2893 11.6449V10.1558H98.1307V16.9999H95.2619V15.7294C95.0434 16.1757 94.7519 16.5172 94.3877 16.754C94.0234 16.9908 93.568 17.1091 93.0216 17.1091ZM93.9095 14.9508C94.2829 14.9508 94.6017 14.8187 94.8658 14.5546C95.1299 14.2814 95.2619 13.949 95.2619 13.5574C95.2619 13.1658 95.1299 12.847 94.8658 12.6011C94.6017 12.3461 94.2829 12.2186 93.9095 12.2186C93.5179 12.2186 93.1901 12.3507 92.926 12.6148C92.6619 12.8789 92.5298 13.2022 92.5298 13.5847C92.5298 13.9672 92.6619 14.2905 92.926 14.5546C93.1901 14.8187 93.5179 14.9508 93.9095 14.9508ZM92.2293 9.37718L90.7539 8.72147C91.018 8.002 91.3504 7.46468 91.7511 7.10951C92.161 6.75433 92.6118 6.57674 93.1036 6.57674C93.3768 6.57674 93.6181 6.63138 93.8276 6.74067C94.0461 6.84995 94.2556 6.95924 94.456 7.06852C94.6563 7.17781 94.8703 7.23245 95.098 7.23245C95.2528 7.23245 95.3894 7.17326 95.5078 7.05486C95.6353 6.92736 95.7674 6.76343 95.904 6.56308L97.3794 7.20513C97.1244 7.92459 96.7919 8.46647 96.3821 8.83075C95.9723 9.18593 95.5215 9.36352 95.0297 9.36352C94.7565 9.36352 94.5106 9.30888 94.292 9.19959C94.0826 9.09031 93.8777 8.98102 93.6773 8.87174C93.4769 8.76245 93.2629 8.70781 93.0352 8.70781C92.8895 8.70781 92.7529 8.767 92.6254 8.8854C92.4979 9.00379 92.3659 9.16772 92.2293 9.37718ZM101.7 17.1091C101.291 17.1091 100.876 17.0682 100.457 16.9862C100.038 16.9042 99.6604 16.7904 99.3234 16.6447L99.7196 14.9234C99.9291 15.0327 100.216 15.1283 100.58 15.2103C100.945 15.2832 101.268 15.3196 101.55 15.3196C102.005 15.3196 102.233 15.1966 102.233 14.9508C102.233 14.8324 102.16 14.7458 102.015 14.6912C101.878 14.6366 101.696 14.591 101.468 14.5546C101.25 14.5091 101.013 14.4544 100.758 14.3907C100.503 14.3178 100.261 14.2131 100.034 14.0765C99.8152 13.9308 99.6331 13.7258 99.4874 13.4617C99.3508 13.1976 99.2825 12.8516 99.2825 12.4235C99.2825 11.7041 99.5648 11.1303 100.129 10.7023C100.703 10.2742 101.486 10.0602 102.479 10.0602C102.862 10.0602 103.217 10.0875 103.545 10.1422C103.882 10.1968 104.2 10.3107 104.501 10.4837L104.214 12.1503C103.731 11.95 103.226 11.8498 102.698 11.8498C102.361 11.8498 102.115 11.8771 101.96 11.9317C101.814 11.9864 101.741 12.0775 101.741 12.205C101.741 12.3051 101.814 12.3825 101.96 12.4372C102.106 12.4918 102.292 12.5465 102.52 12.6011C102.757 12.6466 103.003 12.715 103.258 12.806C103.513 12.888 103.754 13.0064 103.982 13.1612C104.219 13.316 104.41 13.5255 104.555 13.7896C104.701 14.0446 104.774 14.377 104.774 14.7868C104.774 15.5154 104.505 16.0846 103.968 16.4944C103.431 16.9042 102.675 17.1091 101.7 17.1091ZM50.4561 29.9999V20.6013H53.7211C55.0871 20.6013 56.1982 20.7971 57.0543 21.1887C57.9195 21.5803 58.5524 22.1222 58.9531 22.8143C59.3629 23.5065 59.5678 24.3125 59.5678 25.2323C59.5678 26.7349 59.0715 27.9052 58.0788 28.7431C57.0953 29.5809 55.5971 29.9999 53.5845 29.9999H50.4561ZM53.4752 27.6092H54.3495C55.078 27.6092 55.6199 27.3907 55.9751 26.9535C56.3303 26.5073 56.5078 25.9244 56.5078 25.205C56.5078 24.5401 56.3348 24.0074 55.9887 23.6066C55.6518 23.1968 55.1053 22.9919 54.3495 22.9919H53.4752V27.6092ZM63.1339 30.1091C62.5237 30.1091 62.0274 29.9999 61.6449 29.7813C61.2715 29.5627 60.9983 29.2667 60.8253 28.8933C60.6522 28.5199 60.5657 28.101 60.5657 27.6366V23.1558H63.4481V27.2404C63.4481 27.4499 63.5073 27.6138 63.6257 27.7322C63.7532 27.8415 63.9035 27.8961 64.0765 27.8961C64.2587 27.8961 64.4454 27.8415 64.6366 27.7322L64.7869 29.631C64.5865 29.7858 64.327 29.9042 64.0082 29.9862C63.6895 30.0682 63.398 30.1091 63.1339 30.1091ZM62.0138 22.4045C61.5948 22.4045 61.2351 22.2725 60.9346 22.0083C60.634 21.7351 60.4838 21.4027 60.4838 21.0111C60.4838 20.7379 60.5566 20.5011 60.7023 20.3008C60.848 20.0913 61.0393 19.9274 61.2761 19.809C61.5129 19.6906 61.7588 19.6314 62.0138 19.6314C62.2961 19.6314 62.5511 19.6951 62.7787 19.8226C63.0155 19.9501 63.2022 20.1186 63.3388 20.3281C63.4846 20.5375 63.5574 20.7652 63.5574 21.0111C63.5574 21.2843 63.48 21.5257 63.3252 21.7351C63.1795 21.9446 62.9882 22.1085 62.7514 22.2269C62.5237 22.3453 62.2779 22.4045 62.0138 22.4045ZM69.4935 32.6637C69.1475 32.6637 68.8241 32.6409 68.5236 32.5954C68.2231 32.5499 67.9863 32.4952 67.8133 32.4315L68.0318 30.4507C68.1958 30.4871 68.3733 30.5144 68.5646 30.5326C68.7558 30.5599 68.9425 30.5736 69.1247 30.5736C69.7349 30.5736 70.172 30.4461 70.4361 30.1911C70.7093 29.9361 70.8459 29.5445 70.8459 29.0163V28.3742C70.5909 28.8751 70.2767 29.244 69.9033 29.4808C69.53 29.7175 69.0609 29.8359 68.4963 29.8359C67.8497 29.8359 67.2668 29.6902 66.7477 29.3988C66.2286 29.0983 65.8188 28.693 65.5183 28.183C65.2268 27.6639 65.0811 27.0719 65.0811 26.4071C65.0811 25.7423 65.2268 25.1594 65.5183 24.6585C65.8188 24.1576 66.2286 23.766 66.7477 23.4837C67.2668 23.2014 67.8497 23.0602 68.4963 23.0602C68.9516 23.0602 69.3888 23.1832 69.8077 23.4291C70.2266 23.6658 70.5454 24.0529 70.764 24.5902V23.1558H73.6327V28.4016C73.6327 29.8587 73.273 30.9333 72.5535 31.6255C71.8341 32.3176 70.8141 32.6637 69.4935 32.6637ZM69.3842 27.6775C69.7758 27.6775 70.1037 27.5546 70.3678 27.3087C70.6319 27.0628 70.764 26.7668 70.764 26.4208C70.764 26.0747 70.6319 25.7878 70.3678 25.5601C70.1037 25.3325 69.7758 25.2186 69.3842 25.2186C68.9653 25.2186 68.6192 25.337 68.346 25.5738C68.0819 25.8106 67.9499 26.102 67.9499 26.4481C67.9499 26.785 68.0819 27.0765 68.346 27.3224C68.6192 27.5591 68.9653 27.6775 69.3842 27.6775ZM77.5284 30.1091C76.9182 30.1091 76.4219 29.9999 76.0394 29.7813C75.666 29.5627 75.3927 29.2667 75.2197 28.8933C75.0467 28.5199 74.9602 28.101 74.9602 27.6366V23.1558H77.8426V27.2404C77.8426 27.4499 77.9018 27.6138 78.0202 27.7322C78.1477 27.8415 78.2979 27.8961 78.471 27.8961C78.6531 27.8961 78.8398 27.8415 79.031 27.7322L79.1813 29.631C78.981 29.7858 78.7214 29.9042 78.4027 29.9862C78.0839 30.0682 77.7925 30.1091 77.5284 30.1091ZM76.4082 22.4045C75.9893 22.4045 75.6295 22.2725 75.329 22.0083C75.0285 21.7351 74.8782 21.4027 74.8782 21.0111C74.8782 20.7379 74.951 20.5011 75.0968 20.3008C75.2425 20.0913 75.4337 19.9274 75.6705 19.809C75.9073 19.6906 76.1532 19.6314 76.4082 19.6314C76.6905 19.6314 76.9455 19.6951 77.1732 19.8226C77.41 19.9501 77.5967 20.1186 77.7333 20.3281C77.879 20.5375 77.9519 20.7652 77.9519 21.0111C77.9519 21.2843 77.8744 21.5257 77.7196 21.7351C77.5739 21.9446 77.3827 22.1085 77.1459 22.2269C76.9182 22.3453 76.6723 22.4045 76.4082 22.4045ZM82.6604 30.1091C82.0138 30.1091 81.4856 29.9999 81.0758 29.7813C80.6751 29.5627 80.3836 29.2667 80.2015 28.8933C80.0193 28.5199 79.9283 28.101 79.9283 27.6366V24.8498H79.054V23.1558H80.1332L81.4036 20.9975H82.8107V23.1558H84.3953V24.8498H82.8107V27.2404C82.8107 27.4499 82.879 27.6138 83.0156 27.7322C83.1522 27.8415 83.3298 27.8961 83.5484 27.8961C83.7669 27.8961 83.9855 27.8415 84.2041 27.7322L84.409 29.631C84.1904 29.7858 83.9127 29.9042 83.5757 29.9862C83.2387 30.0682 82.9336 30.1091 82.6604 30.1091ZM88.279 30.1091C87.6506 30.1091 87.0814 29.9589 86.5714 29.6583C86.0614 29.3487 85.6562 28.9252 85.3556 28.3879C85.0642 27.8506 84.9185 27.2358 84.9185 26.5437C84.9185 25.8516 85.0642 25.2459 85.3556 24.7268C85.6562 24.2077 86.0614 23.8025 86.5714 23.511C87.0814 23.2105 87.6506 23.0602 88.279 23.0602C88.7253 23.0602 89.1579 23.1832 89.5768 23.4291C89.9957 23.675 90.319 24.0802 90.5467 24.6449V23.1558H93.3881V29.9999H90.5194V28.7294C90.3008 29.1757 90.0094 29.5172 89.6451 29.754C89.2808 29.9908 88.8255 30.1091 88.279 30.1091ZM89.167 27.9508C89.5404 27.9508 89.8591 27.8187 90.1232 27.5546C90.3873 27.2814 90.5194 26.949 90.5194 26.5574C90.5194 26.1658 90.3873 25.847 90.1232 25.6011C89.8591 25.3461 89.5404 25.2186 89.167 25.2186C88.7754 25.2186 88.4475 25.3507 88.1834 25.6148C87.9193 25.8789 87.7872 26.2022 87.7872 26.5847C87.7872 26.9672 87.9193 27.2905 88.1834 27.5546C88.4475 27.8187 88.7754 27.9508 89.167 27.9508ZM97.2857 30.1091C96.6755 30.1091 96.1792 29.9999 95.7967 29.7813C95.4233 29.5627 95.1501 29.2667 94.977 28.8933C94.804 28.5199 94.7175 28.101 94.7175 27.6366V23.1558H97.5999V27.2404C97.5999 27.4499 97.6591 27.6138 97.7775 27.7322C97.905 27.8415 98.0553 27.8961 98.2283 27.8961C98.4104 27.8961 98.5971 27.8415 98.7884 27.7322L98.9387 29.631C98.7383 29.7858 98.4787 29.9042 98.16 29.9862C97.8412 30.0682 97.5498 30.1091 97.2857 30.1091ZM96.1655 22.4045C95.7466 22.4045 95.3869 22.2725 95.0863 22.0083C94.7858 21.7351 94.6355 21.4027 94.6355 21.0111C94.6355 20.7379 94.7084 20.5011 94.8541 20.3008C94.9998 20.0913 95.1911 19.9274 95.4278 19.809C95.6646 19.6906 95.9105 19.6314 96.1655 19.6314C96.4478 19.6314 96.7028 19.6951 96.9305 19.8226C97.1673 19.9501 97.354 20.1186 97.4906 20.3281C97.6363 20.5375 97.7092 20.7652 97.7092 21.0111C97.7092 21.2843 97.6318 21.5257 97.477 21.7351C97.3312 21.9446 97.14 22.1085 96.9032 22.2269C96.6755 22.3453 96.4296 22.4045 96.1655 22.4045ZM101.84 30.1091C101.431 30.1091 101.016 30.0682 100.597 29.9862C100.178 29.9042 99.8005 29.7904 99.4635 29.6447L99.8597 27.9234C100.069 28.0327 100.356 28.1283 100.72 28.2103C101.085 28.2832 101.408 28.3196 101.69 28.3196C102.146 28.3196 102.373 28.1966 102.373 27.9508C102.373 27.8324 102.3 27.7458 102.155 27.6912C102.018 27.6366 101.836 27.591 101.608 27.5546C101.39 27.5091 101.153 27.4544 100.898 27.3907C100.643 27.3178 100.402 27.2131 100.174 27.0765C99.9553 26.9308 99.7732 26.7258 99.6275 26.4617C99.4908 26.1976 99.4225 25.8516 99.4225 25.4235C99.4225 24.7041 99.7049 24.1303 100.27 23.7023C100.843 23.2742 101.626 23.0602 102.619 23.0602C103.002 23.0602 103.357 23.0875 103.685 23.1422C104.022 23.1968 104.34 23.3107 104.641 23.4837L104.354 25.1503C103.871 24.95 103.366 24.8498 102.838 24.8498C102.501 24.8498 102.255 24.8771 102.1 24.9317C101.954 24.9864 101.881 25.0775 101.881 25.205C101.881 25.3051 101.954 25.3825 102.1 25.4372C102.246 25.4918 102.432 25.5465 102.66 25.6011C102.897 25.6466 103.143 25.715 103.398 25.806C103.653 25.888 103.894 26.0064 104.122 26.1612C104.359 26.316 104.55 26.5255 104.696 26.7896C104.841 27.0446 104.914 27.377 104.914 27.7868C104.914 28.5154 104.645 29.0846 104.108 29.4944C103.571 29.9042 102.815 30.1091 101.84 30.1091Z" fill="#330043"/>
</svg>
