<svg width="393" height="996" viewBox="0 0 393 996" fill="none" xmlns="http://www.w3.org/2000/svg">
<g clip-path="url(#clip0_149_296)">
<rect width="393" height="996" fill="#9854CB"/>
<path d="M26.3588 197.95L18.4105 206.911L18.341 206.99L18.3242 207.094L17.5494 211.823C17.3601 212.979 16.0378 213.553 15.0648 212.9L5.32985 206.373C4.36537 205.726 4.38323 204.301 5.36354 203.678L9.40712 201.109L9.4934 201.054L9.5386 200.962L14.803 190.202L26.3588 197.95Z" fill="#FFCD34" stroke="#330043" stroke-width="0.727178"/>
<path d="M18.9133 204.579C19.1813 204.402 19.6049 204.968 19.4191 205.255C18.0337 207.393 16.1619 210.783 15.9938 213.709C15.827 216.613 17.2713 220.233 18.3962 222.57C18.545 222.879 18.0441 223.391 17.8019 223.178C15.971 221.562 13.0953 219.405 10.6111 219.21C8.10846 219.013 4.98413 220.728 2.98653 222.047C2.71852 222.224 2.29485 221.658 2.48073 221.371C3.86612 219.233 5.73786 215.843 5.90594 212.917C6.07277 210.013 4.62848 206.393 3.50355 204.056C3.35479 203.747 3.85573 203.235 4.09785 203.449C5.92875 205.064 8.80447 207.222 11.2886 207.417C13.7913 207.613 16.9157 205.898 18.9133 204.579Z" fill="#330043"/>
<path d="M21.045 260.168C21.3188 260.004 21.7869 260.63 21.6111 260.925C20.777 262.326 19.8774 264.189 19.783 265.833C19.6897 267.457 20.3508 269.416 21.0095 270.927C21.1473 271.243 20.5922 271.81 20.3426 271.608C19.1499 270.643 17.5773 269.615 16.1881 269.506C14.782 269.396 13.0822 270.189 11.7836 270.968C11.5099 271.132 11.0417 270.506 11.2175 270.211C12.0516 268.811 12.9512 266.947 13.0457 265.304C13.139 263.68 12.4778 261.72 11.8192 260.209C11.6814 259.893 12.2364 259.326 12.486 259.528C13.6787 260.493 15.2513 261.521 16.6406 261.63C18.0466 261.741 19.7465 260.947 21.045 260.168Z" fill="#330043"/>
<path d="M16.9026 175.254L14.8071 178.615L14.4395 179.204L14.1641 178.566L14.4984 178.422L14.1645 178.565L14.1641 178.564C14.1637 178.563 14.1628 178.561 14.1621 178.56C14.1605 178.556 14.158 178.551 14.1551 178.544C14.149 178.529 14.1397 178.508 14.128 178.48C14.1044 178.425 14.0703 178.342 14.026 178.234C13.9373 178.019 13.8089 177.704 13.6516 177.303C13.3372 176.501 12.9052 175.353 12.4329 173.969C11.4888 171.203 10.3816 167.485 9.73819 163.693C9.09648 159.91 8.90807 156.011 9.83772 152.902C10.3043 151.341 11.0566 149.967 12.1862 148.911C13.3181 147.852 14.8094 147.132 16.7202 146.85C18.4077 146.601 19.7752 146.929 20.8694 147.576C21.9571 148.219 22.7537 149.165 23.3307 150.122C23.9079 151.079 24.2746 152.062 24.4967 152.803C24.608 153.174 24.6835 153.486 24.7316 153.707C24.7556 153.817 24.7721 153.905 24.7834 153.966C24.789 153.996 24.7939 154.02 24.7967 154.036C24.7981 154.044 24.7989 154.051 24.7997 154.056C24.8001 154.058 24.8006 154.06 24.8008 154.062L24.8012 154.063C24.8013 154.063 24.8009 154.063 24.5169 154.108L24.8008 154.064L24.825 154.215L24.7324 154.339L22.2122 157.703L21.4681 158.696L21.5579 157.458L21.5584 157.457C21.5584 157.456 21.5588 157.455 21.5589 157.454C21.5591 157.451 21.5593 157.446 21.5597 157.44C21.5606 157.427 21.5613 157.407 21.5627 157.381C21.5654 157.328 21.5686 157.249 21.5713 157.149C21.5766 156.949 21.5797 156.663 21.5672 156.321C21.542 155.634 21.4575 154.735 21.2246 153.863C20.9906 152.986 20.6159 152.173 20.0351 151.621C19.47 151.085 18.68 150.766 17.534 150.922C16.1978 151.103 15.2057 151.599 14.476 152.312C13.7433 153.028 13.2525 153.986 12.9594 155.124C12.3702 157.411 12.5961 160.361 13.1836 163.313C13.7692 166.254 14.7047 169.154 15.4951 171.323C15.8901 172.406 16.2484 173.305 16.5076 173.932C16.637 174.246 16.7416 174.491 16.8139 174.658C16.85 174.741 16.878 174.806 16.8968 174.848C16.9062 174.87 16.913 174.886 16.9178 174.896C16.9202 174.901 16.9224 174.906 16.9236 174.908L16.9252 174.911L17.0051 175.089L16.9026 175.254Z" fill="#FFCD34" stroke="#330043" stroke-width="0.727178"/>
<path d="M39.843 190.078L37.5687 193.321L37.1697 193.89L37.8647 193.894L37.867 193.53L37.8653 193.893L37.8667 193.893C37.8678 193.893 37.8696 193.893 37.8716 193.893C37.8756 193.893 37.8814 193.893 37.889 193.893C37.9046 193.893 37.9276 193.894 37.9578 193.893C38.0183 193.893 38.108 193.892 38.2242 193.891C38.4568 193.889 38.7971 193.884 39.2278 193.871C40.0892 193.847 41.3144 193.796 42.7726 193.69C45.6876 193.477 49.543 193.043 53.2846 192.152C57.0168 191.264 60.6799 189.913 63.178 187.842C64.4316 186.802 65.4026 185.572 65.9332 184.12C66.4648 182.664 66.5448 181.01 66.057 179.141C65.6261 177.49 64.7896 176.36 63.7663 175.606C62.7491 174.856 61.5674 174.493 60.4612 174.336C59.3545 174.179 58.3062 174.225 57.5379 174.311C57.1529 174.353 56.8356 174.406 56.6137 174.448C56.5027 174.469 56.4152 174.488 56.3548 174.502C56.3248 174.508 56.3012 174.513 56.2849 174.517C56.277 174.519 56.2705 174.521 56.266 174.522C56.2638 174.522 56.2612 174.523 56.2599 174.523L56.2585 174.523C56.2584 174.523 56.2584 174.524 56.3283 174.803L56.2579 174.524L56.1091 174.561L56.0318 174.694L53.9208 178.329L53.2978 179.402L54.402 178.836L54.4026 178.835C54.4032 178.835 54.404 178.834 54.4052 178.833C54.4079 178.832 54.4121 178.83 54.4177 178.827C54.4294 178.821 54.4476 178.813 54.4712 178.801C54.5186 178.778 54.5898 178.744 54.6807 178.703C54.8628 178.62 55.1252 178.505 55.4449 178.383C56.0868 178.137 56.9479 177.863 57.8414 177.737C58.7398 177.609 59.6348 177.636 60.3696 177.955C61.0845 178.266 61.6863 178.868 61.9912 179.984C62.3466 181.285 62.2779 182.392 61.9068 183.342C61.5342 184.296 60.8449 185.122 59.9122 185.837C58.0372 187.274 55.2339 188.219 52.2875 188.832C49.3509 189.444 46.316 189.716 44.0113 189.837C42.8599 189.897 41.8921 189.918 41.2135 189.925C40.8747 189.928 40.6079 189.928 40.4261 189.927C40.3351 189.926 40.2649 189.926 40.2182 189.925C40.1951 189.925 40.1777 189.925 40.166 189.924C40.1602 189.924 40.1556 189.924 40.1528 189.924L40.1493 189.923L39.9544 189.919L39.843 190.078Z" fill="#FFCD34" stroke="#330043" stroke-width="0.727178"/>
<path d="M28.2234 151.161L57.4963 170.789C58.4928 171.457 58.841 172.738 58.2949 173.789C56.4462 177.344 52.4756 184.394 48.2962 188.177C44.9902 191.168 39.8257 193.676 35.4554 195.442C33.2762 196.322 31.3053 197.014 29.8794 197.486C29.1665 197.721 28.5898 197.902 28.1922 198.024C27.9955 198.084 27.8422 198.128 27.7381 198.159L14.2024 189.083C14.1912 188.975 14.175 188.817 14.1559 188.612C14.1173 188.198 14.0659 187.596 14.0133 186.847C13.908 185.349 13.7996 183.263 13.7866 180.913C13.7607 176.199 14.1197 170.469 15.6321 166.275C17.5441 160.972 22.5577 154.622 25.1449 151.561C25.9093 150.657 27.227 150.493 28.2234 151.161Z" fill="#FFCD34" stroke="#330043" stroke-width="0.727178"/>
<path d="M23.8472 156.528C18.6572 162.909 16.6046 168.256 15.9131 173.311" stroke="white" stroke-width="1.38714" stroke-linecap="round"/>
<rect x="-0.751083" y="202.39" width="26.926" height="13.5416" rx="1.02977" transform="rotate(33.8422 -0.751083 202.39)" fill="#FFCD34" stroke="#330043" stroke-width="0.727178"/>
<rect x="0.826416" y="206.269" width="20.0737" height="9.02607" rx="0.874839" transform="rotate(33.8422 0.826416 206.269)" fill="#FFE780"/>
<rect x="12.9642" y="187.426" width="20.8127" height="3.80461" rx="1.9023" transform="rotate(33.8422 12.9642 187.426)" fill="#FFCD34" stroke="#330043" stroke-width="0.727178"/>
<rect x="9.31654" y="197.26" width="15.3556" height="3.80461" rx="1.9023" transform="rotate(33.8422 9.31654 197.26)" fill="#FFCD34" stroke="#330043" stroke-width="0.727178"/>
<path d="M48.7254 179.932C49.2953 180.599 48.9777 181.643 48.1179 181.87L45.4203 181.982C45.9606 181.512 46.1088 180.692 45.709 180.057L48.7254 179.932Z" fill="#FF4A97" stroke="#330043" stroke-width="0.300078" stroke-linejoin="round"/>
<path d="M48.4446 179.641L45.4682 179.764L40.8237 174.869L43.8015 174.746L48.4446 179.641Z" fill="#FF4A97" stroke="#330043" stroke-width="0.300078" stroke-linejoin="round"/>
<path d="M41.1898 183.628L39.2717 183.707L44.7856 182.306L46.7064 182.226L41.1898 183.628Z" fill="#FF4A97" stroke="#330043" stroke-width="0.300078" stroke-linejoin="round"/>
<path d="M43.3566 173.431L40.2822 173.558L40.7307 166.728L43.8037 166.601L43.3566 173.431Z" fill="#FF4A97" stroke="#330043" stroke-width="0.300078" stroke-linejoin="round"/>
<path d="M43.3505 173.732C43.3621 173.989 43.439 174.238 43.5739 174.455L40.5602 174.58C40.3877 174.377 40.287 174.124 40.2747 173.859L43.3505 173.732Z" fill="#FF4A97" stroke="#330043" stroke-width="0.300078" stroke-linejoin="round"/>
<path d="M42.5631 165.154C43.2002 165.127 43.7829 165.623 43.8117 166.299L40.7359 166.426C40.7153 165.928 40.454 165.509 40.0806 165.255L42.5631 165.154Z" fill="#FF4A97" stroke="#330043" stroke-width="0.300078" stroke-linejoin="round"/>
<mask id="path-18-inside-1_149_296" fill="white">
<path d="M42.0355 165.135C42.2093 165.053 42.3878 165.01 42.5628 165.003L39.1877 165.143C39.0127 165.15 38.8342 165.192 38.6604 165.275L42.0355 165.135Z"/>
</mask>
<path d="M42.0355 165.135C42.2093 165.053 42.3878 165.01 42.5628 165.003L39.1877 165.143C39.0127 165.15 38.8342 165.192 38.6604 165.275L42.0355 165.135Z" fill="#FF4A97"/>
<path d="M42.5628 165.003L42.5752 165.303C42.7408 165.296 42.8694 165.156 42.8626 164.991C42.8557 164.825 42.7159 164.696 42.5503 164.703L42.5628 165.003ZM42.0355 165.135L42.0479 165.435C42.0884 165.434 42.1281 165.424 42.1647 165.406L42.0355 165.135ZM38.6604 165.275L38.5312 165.004C38.4026 165.066 38.3348 165.209 38.3692 165.347C38.4035 165.486 38.5304 165.581 38.6728 165.575L38.6604 165.275ZM39.1877 165.143L39.1753 164.843L39.1752 164.843L39.1877 165.143ZM42.5628 165.003L42.5503 164.703C42.3351 164.712 42.1169 164.764 41.9063 164.865L42.0355 165.135L42.1647 165.406C42.3018 165.341 42.4405 165.308 42.5752 165.303L42.5628 165.003ZM42.0355 165.135L42.0231 164.836L38.648 164.975L38.6604 165.275L38.6728 165.575L42.0479 165.435L42.0355 165.135ZM38.6604 165.275L38.7896 165.546C38.9267 165.481 39.0654 165.448 39.2001 165.443L39.1877 165.143L39.1752 164.843C38.96 164.852 38.7418 164.904 38.5312 165.004L38.6604 165.275ZM39.1877 165.143L39.2001 165.443L42.5752 165.303L42.5628 165.003L42.5503 164.703L39.1753 164.843L39.1877 165.143Z" fill="#330043" mask="url(#path-18-inside-1_149_296)"/>
<path d="M40.5612 183.954C40.4486 184.052 40.3511 184.167 40.2712 184.295L37.2824 184.419C37.4364 184.25 37.636 184.126 37.8608 184.066L40.5612 183.954Z" fill="#FF4A97" stroke="#330043" stroke-width="0.300078" stroke-linejoin="round"/>
<path d="M35.544 168.062L32.9346 168.17L38.6927 165.423L41.3062 165.315L35.544 168.062Z" fill="#FF4A97" stroke="#330043" stroke-width="0.300078" stroke-linejoin="round"/>
<path d="M36.8585 190.577L33.8338 190.702L37.0773 184.728L40.1034 184.603L36.8585 190.577Z" fill="#FF4A97" stroke="#330043" stroke-width="0.300078" stroke-linejoin="round"/>
<path d="M36.6471 190.885C36.4247 191.132 36.1207 191.265 35.8091 191.278L33.3356 191.379C33.4584 191.279 33.5655 191.154 33.6555 191.009L36.6471 190.885Z" fill="#FF4A97" stroke="#330043" stroke-width="0.300078" stroke-linejoin="round"/>
<mask id="path-24-inside-2_149_296" fill="white">
<path d="M35.5785 168.212C35.412 168.291 35.2329 168.335 35.0524 168.342L31.678 168.482C31.8583 168.475 32.0371 168.431 32.2034 168.352L35.5785 168.212Z"/>
</mask>
<path d="M35.5785 168.212C35.412 168.291 35.2329 168.335 35.0524 168.342L31.678 168.482C31.8583 168.475 32.0371 168.431 32.2034 168.352L35.5785 168.212Z" fill="#FF4A97"/>
<path d="M31.678 168.482L31.6718 168.332C31.6716 168.332 31.6714 168.332 31.6711 168.332L31.6773 168.482L31.6835 168.632C31.6837 168.632 31.684 168.632 31.6843 168.632L31.678 168.482ZM35.0524 168.342L35.0401 168.043L35.04 168.043L35.0524 168.342ZM35.5785 168.212L35.7077 168.483C35.8364 168.421 35.9041 168.278 35.8698 168.14C35.8355 168.001 35.7085 167.906 35.5661 167.912L35.5785 168.212ZM32.2034 168.352L32.191 168.052C32.1505 168.054 32.1108 168.063 32.0743 168.081L32.2034 168.352ZM31.678 168.482L31.6655 168.182C31.5 168.189 31.3713 168.329 31.3782 168.495C31.3851 168.66 31.5249 168.789 31.6904 168.782L31.678 168.482ZM35.0524 168.342L35.0647 168.642C35.2853 168.633 35.5042 168.58 35.7077 168.483L35.5785 168.212L35.4494 167.941C35.3198 168.003 35.1805 168.037 35.0401 168.043L35.0524 168.342ZM35.5785 168.212L35.5661 167.912L32.191 168.052L32.2034 168.352L32.2158 168.652L35.5909 168.512L35.5785 168.212ZM32.2034 168.352L32.0743 168.081C31.9449 168.143 31.8058 168.176 31.6655 168.182L31.678 168.482L31.6905 168.782C31.9108 168.773 32.1294 168.719 32.3326 168.623L32.2034 168.352ZM31.678 168.482L31.6904 168.782L35.0648 168.642L35.0524 168.342L35.04 168.043L31.6656 168.182L31.678 168.482Z" fill="#330043" mask="url(#path-24-inside-2_149_296)"/>
<mask id="path-26-inside-3_149_296" fill="white">
<path d="M35.0632 168.343C34.8752 168.351 34.6857 168.319 34.5072 168.248L31.1321 168.388C31.3106 168.459 31.5001 168.49 31.6881 168.483L35.0632 168.343Z"/>
</mask>
<path d="M35.0632 168.343C34.8752 168.351 34.6857 168.319 34.5072 168.248L31.1321 168.388C31.3106 168.459 31.5001 168.49 31.6881 168.483L35.0632 168.343Z" fill="#FF4A97"/>
<path d="M34.5072 168.248L34.6184 167.969C34.5791 167.954 34.537 167.946 34.4948 167.948L34.5072 168.248ZM35.0632 168.343L35.0756 168.643C35.2412 168.636 35.3699 168.496 35.363 168.331C35.3562 168.165 35.2165 168.036 35.0509 168.043L35.0632 168.343ZM31.6881 168.483L31.7004 168.782L31.7005 168.782L31.6881 168.483ZM31.1321 168.388L31.1197 168.088C30.9783 168.094 30.8601 168.198 30.8363 168.337C30.8125 168.477 30.8895 168.614 31.021 168.666L31.1321 168.388ZM34.5072 168.248L34.3961 168.527C34.6142 168.614 34.8458 168.652 35.0755 168.643L35.0632 168.343L35.0509 168.043C34.9046 168.049 34.7572 168.025 34.6184 167.969L34.5072 168.248ZM35.0632 168.343L35.0508 168.043L31.6757 168.183L31.6881 168.483L31.7005 168.782L35.0756 168.643L35.0632 168.343ZM31.6881 168.483L31.6758 168.183C31.5295 168.189 31.3821 168.164 31.2433 168.109L31.1321 168.388L31.021 168.666C31.2391 168.753 31.4707 168.792 31.7004 168.782L31.6881 168.483ZM31.1321 168.388L31.1445 168.688L34.5196 168.548L34.5072 168.248L34.4948 167.948L31.1197 168.088L31.1321 168.388Z" fill="#330043" mask="url(#path-26-inside-3_149_296)"/>
<path d="M34.5468 190.953C34.6513 191.099 34.7725 191.221 34.9095 191.316L32.4375 191.419C32.1165 191.432 31.7938 191.318 31.5497 191.077L34.5468 190.953Z" fill="#FF4A97" stroke="#330043" stroke-width="0.300078" stroke-linejoin="round"/>
<path d="M34.352 190.659L31.3231 190.785L27.6916 185.034L30.7219 184.909L34.352 190.659Z" fill="#FF4A97" stroke="#330043" stroke-width="0.300078" stroke-linejoin="round"/>
<path d="M31.1522 168.237L25.1952 165.862L27.8363 165.752L33.7919 168.127L31.1522 168.237Z" fill="#FF4A97" stroke="#330043" stroke-width="0.300078" stroke-linejoin="round"/>
<path d="M30.5024 184.619L27.5066 184.743C27.4151 184.616 27.3061 184.504 27.1819 184.412L29.8983 184.3C30.1282 184.346 30.3372 184.458 30.5024 184.619Z" fill="#FF4A97" stroke="#330043" stroke-width="0.300078" stroke-linejoin="round"/>
<mask id="path-32-inside-4_149_296" fill="white">
<path d="M27.8657 165.603C27.6791 165.529 27.4904 165.499 27.3083 165.506L23.9332 165.646C24.1153 165.639 24.304 165.668 24.4906 165.743L27.8657 165.603Z"/>
</mask>
<path d="M27.8657 165.603C27.6791 165.529 27.4904 165.499 27.3083 165.506L23.9332 165.646C24.1153 165.639 24.304 165.668 24.4906 165.743L27.8657 165.603Z" fill="#FF4A97"/>
<path d="M27.3083 165.506L27.296 165.206L27.2959 165.206L27.3083 165.506ZM27.8657 165.603L27.8781 165.903C28.0196 165.897 28.1377 165.793 28.1615 165.654C28.1853 165.514 28.1084 165.377 27.9769 165.324L27.8657 165.603ZM24.4906 165.743L24.3795 166.022C24.4187 166.037 24.4608 166.044 24.503 166.043L24.4906 165.743ZM23.9332 165.646L23.9208 165.346C23.7552 165.353 23.6266 165.493 23.6334 165.658C23.6402 165.824 23.78 165.953 23.9456 165.946L23.9332 165.646ZM27.3083 165.506L27.3207 165.806C27.4608 165.8 27.6075 165.823 27.7546 165.882L27.8657 165.603L27.9769 165.324C27.7508 165.234 27.5199 165.197 27.296 165.206L27.3083 165.506ZM27.8657 165.603L27.8533 165.303L24.4782 165.443L24.4906 165.743L24.503 166.043L27.8781 165.903L27.8657 165.603ZM24.4906 165.743L24.6018 165.464C24.3757 165.374 24.1448 165.337 23.9209 165.346L23.9332 165.646L23.9456 165.946C24.0857 165.94 24.2324 165.963 24.3795 166.022L24.4906 165.743ZM23.9332 165.646L23.9456 165.946L27.3207 165.806L27.3083 165.506L27.2959 165.206L23.9208 165.346L23.9332 165.646Z" fill="#330043" mask="url(#path-32-inside-4_149_296)"/>
<path d="M26.4154 165.691C26.0706 165.969 25.8463 166.398 25.8588 166.888L22.7844 167.015C22.7708 166.347 23.3058 165.82 23.9337 165.794L26.4154 165.691Z" fill="#FF4A97" stroke="#330043" stroke-width="0.300078" stroke-linejoin="round"/>
<path d="M26.8117 174.275C26.8162 174.539 26.7321 174.798 26.5733 175.011L23.5638 175.136C23.6826 174.911 23.7429 174.658 23.7373 174.402L26.8117 174.275Z" fill="#FF4A97" stroke="#330043" stroke-width="0.300078" stroke-linejoin="round"/>
<path d="M26.7809 173.975L23.7079 174.102L22.8139 167.316L25.8883 167.188L26.7809 173.975Z" fill="#FF4A97" stroke="#330043" stroke-width="0.300078" stroke-linejoin="round"/>
<path d="M26.5355 184.137L20.8369 183.08L22.8667 182.996L28.5653 184.053L26.5355 184.137Z" fill="#FF4A97" stroke="#330043" stroke-width="0.300078" stroke-linejoin="round"/>
<path d="M22.016 180.509L19.0451 180.632L23.3539 175.448L26.3248 175.325L22.016 180.509Z" fill="#FF4A97" stroke="#330043" stroke-width="0.300078" stroke-linejoin="round"/>
<path d="M21.7982 180.815C21.4418 181.48 21.6505 182.292 22.2296 182.722L19.5154 182.834C18.6439 182.662 18.26 181.642 18.7859 180.94L21.7982 180.815Z" fill="#FF4A97" stroke="#330043" stroke-width="0.300078" stroke-linejoin="round"/>
<path d="M66.002 216.392C66.2758 216.228 66.744 216.854 66.5681 217.149C65.734 218.549 64.8344 220.412 64.74 222.056C64.6467 223.68 65.3079 225.64 65.9665 227.15C66.1043 227.467 65.5492 228.034 65.2997 227.832C64.107 226.867 62.5344 225.839 61.1451 225.73C59.7391 225.619 58.0392 226.412 56.7407 227.191C56.4669 227.356 55.9987 226.73 56.1746 226.434C57.0087 225.034 57.9083 223.171 58.0027 221.527C58.096 219.903 57.4348 217.944 56.7762 216.433C56.6384 216.117 57.1935 215.55 57.443 215.752C58.6357 216.717 60.2083 217.745 61.5976 217.854C63.0036 217.964 64.7035 217.171 66.002 216.392Z" fill="#330043"/>
<ellipse cx="1.69334" cy="212.183" rx="0.373187" ry="4.01114" transform="rotate(63.8422 1.69334 212.183)" fill="#FD8A02"/>
<ellipse cx="1.69334" cy="212.183" rx="0.373187" ry="4.01114" transform="rotate(63.8422 1.69334 212.183)" fill="#FD8A02"/>
<ellipse cx="6.49851" cy="215.656" rx="0.373187" ry="4.01114" transform="rotate(63.8422 6.49851 215.656)" fill="#FD8A02"/>
<ellipse cx="6.49851" cy="215.656" rx="0.373187" ry="4.01114" transform="rotate(63.8422 6.49851 215.656)" fill="#FD8A02"/>
<ellipse cx="11.9245" cy="219.707" rx="0.373187" ry="4.01114" transform="rotate(63.8422 11.9245 219.707)" fill="#FD8A02"/>
<ellipse cx="11.9245" cy="219.707" rx="0.373187" ry="4.01114" transform="rotate(63.8422 11.9245 219.707)" fill="#FD8A02"/>
<g opacity="0.1">
<path d="M-107.304 354.959C-91.6954 309.801 14.4237 329.978 86.2558 307.167C162.366 282.998 178.815 237.328 268.171 234.048C357.528 230.767 376.288 304.323 443.769 322.837C511.249 341.352 654.261 298.941 710.58 341.108" stroke="#FEF0ED" stroke-width="8.77197"/>
<path d="M-112.454 381.253C-96.8455 336.095 9.27351 356.272 81.1056 333.462C157.216 309.293 173.664 263.623 263.021 260.342C352.378 257.062 371.138 330.618 438.618 349.132C506.099 367.646 649.111 325.235 705.43 367.403" stroke="#FEF0ED" stroke-width="8.77197"/>
<path d="M-113.544 407.672C-97.9356 362.514 8.18342 382.691 80.0156 359.88C156.126 335.711 172.574 290.042 261.931 286.761C351.288 283.481 370.048 357.036 437.528 375.551C505.009 394.065 648.021 351.654 704.34 393.822" stroke="#FEF0ED" stroke-width="8.77197"/>
<path d="M-117.155 435.634C-101.546 390.477 4.57258 410.653 76.4047 387.843C152.515 363.674 168.963 318.004 258.32 314.724C347.677 311.443 366.437 384.999 433.918 403.513C501.398 422.027 644.41 379.616 700.729 421.784" stroke="#FEF0ED" stroke-width="8.77197"/>
<path d="M-97.5481 247.116C-81.94 201.958 24.179 222.135 96.0112 199.324C172.121 175.155 188.57 129.486 277.927 126.205C367.284 122.925 386.043 196.48 453.524 214.995C521.005 233.509 664.016 191.098 720.335 233.266" stroke="#FEF0ED" stroke-width="8.77197"/>
<path d="M-102.698 273.412C-87.0902 228.254 19.0289 248.431 90.861 225.62C166.971 201.451 183.42 155.782 272.777 152.501C362.134 149.221 380.893 222.776 448.374 241.29C515.854 259.805 658.866 217.394 715.185 259.561" stroke="#FEF0ED" stroke-width="8.77197"/>
<path d="M-103.784 299.831C-88.1763 254.673 17.9427 274.85 89.7748 252.04C165.885 227.871 182.334 182.201 271.691 178.921C361.047 175.64 379.807 249.196 447.288 267.71C514.768 286.224 657.78 243.813 714.099 285.981" stroke="#FEF0ED" stroke-width="8.77197"/>
<path d="M-107.395 327.793C-91.7869 282.636 14.3321 302.812 86.1642 280.002C162.274 255.833 178.723 210.163 268.08 206.883C357.437 203.602 376.196 277.158 443.677 295.672C511.158 314.186 654.169 271.776 710.488 313.943" stroke="#FEF0ED" stroke-width="8.77197"/>
<path d="M-119.088 463.552C-103.48 418.394 2.63898 438.571 74.4711 415.76C150.581 391.591 167.03 345.922 256.387 342.641C345.744 339.361 364.503 412.916 431.984 431.431C499.464 449.945 642.476 407.534 698.795 449.702" stroke="#FEF0ED" stroke-width="8.77197"/>
<path d="M-124.454 490.628C-108.846 445.47 -2.72674 465.647 69.1054 442.836C145.216 418.667 161.664 372.998 251.021 369.717C340.378 366.437 359.138 439.992 426.618 458.506C494.099 477.021 637.11 434.61 693.43 476.777" stroke="#FEF0ED" stroke-width="8.77197"/>
<path d="M-127.212 517.093C-111.604 471.935 -5.48504 492.112 66.3471 469.301C142.457 445.132 158.906 399.463 248.263 396.182C337.62 392.902 356.379 466.457 423.86 484.972C491.34 503.486 634.352 461.075 690.671 503.242" stroke="#FEF0ED" stroke-width="8.77197"/>
<path d="M-129.696 545.18C-114.088 500.022 -7.96868 520.199 63.8635 497.388C139.974 473.219 156.422 427.55 245.779 424.269C335.136 420.989 353.896 494.545 421.376 513.059C488.857 531.573 631.868 489.162 688.188 531.33" stroke="#FEF0ED" stroke-width="8.77197"/>
<path d="M-125.97 574.034C-110.362 528.876 -4.24334 549.053 67.5888 526.242C143.699 502.073 160.148 456.404 249.504 453.123C338.861 449.843 357.621 523.398 425.102 541.912C492.582 560.427 635.594 518.016 691.913 560.183" stroke="#FEF0ED" stroke-width="8.77197"/>
<path d="M-127.899 603.736C-112.291 558.578 -6.17229 578.755 65.6598 555.945C141.77 531.776 158.219 486.106 247.576 482.826C336.932 479.545 355.692 553.101 423.173 571.615C490.653 590.129 633.665 547.718 689.984 589.886" stroke="#FEF0ED" stroke-width="8.77197"/>
<path d="M-130.076 630.496C-114.468 585.338 -8.34881 605.515 63.4833 582.704C139.593 558.535 156.042 512.866 245.399 509.585C334.756 506.305 353.516 579.86 420.996 598.374C488.477 616.889 631.488 574.478 687.808 616.645" stroke="#FEF0ED" stroke-width="8.77197"/>
<path d="M-127.89 663.829C-112.282 618.672 -6.16326 638.848 65.6689 616.038C141.779 591.869 158.228 546.199 247.585 542.919C336.941 539.638 355.701 613.194 423.182 631.708C490.662 650.222 633.674 607.812 689.993 649.979" stroke="#FEF0ED" stroke-width="8.77197"/>
<path d="M-125.709 697.163C-110.101 652.006 -3.98211 672.182 67.85 649.372C143.96 625.203 160.409 579.533 249.766 576.253C339.123 572.972 357.882 646.528 425.363 665.042C492.843 683.556 635.855 641.145 692.174 683.313" stroke="#FEF0ED" stroke-width="8.77197"/>
</g>
<rect x="326.161" y="191.954" width="69.5938" height="21.3607" rx="7.13783" transform="rotate(-17.0711 326.161 191.954)" fill="#330043"/>
<path d="M332.911 189.619L385.792 173.38C389.403 172.271 393.23 174.299 394.339 177.911L395.937 183.113C397.046 186.724 395.016 190.551 391.405 191.66L338.524 207.899C334.913 209.008 331.087 206.98 329.978 203.368L328.38 198.166C327.271 194.554 329.299 190.728 332.911 189.619Z" fill="#FFCD34" stroke="#330043" stroke-width="0.594819"/>
<path d="M386.61 175.928V175.928C388.687 175.291 390.888 176.457 391.526 178.534L391.642 178.914" stroke="white" stroke-width="1.18964" stroke-linecap="round" stroke-linejoin="round"/>
<path d="M380.03 178.742C380.451 178.613 380.881 178.591 381.314 178.676C381.739 178.759 382.137 178.932 382.506 179.192C382.886 179.44 383.221 179.764 383.51 180.158C383.801 180.556 384.023 181.007 384.177 181.508C384.33 182.009 384.4 182.507 384.382 182.999C384.364 183.487 384.27 183.945 384.1 184.371L384.101 184.372C383.938 184.785 383.707 185.152 383.407 185.468L383.401 185.473C383.357 185.518 383.311 185.559 383.264 185.6C383.306 185.6 383.348 185.599 383.389 185.6L383.39 185.6C383.784 185.607 384.153 185.677 384.491 185.813L384.745 185.923C384.99 186.044 385.21 186.2 385.403 186.389C385.662 186.644 385.846 186.945 385.952 187.288C386.057 187.631 386.073 187.983 386.002 188.34C385.949 188.603 385.856 188.856 385.724 189.098L385.579 189.338C385.376 189.64 385.113 189.91 384.795 190.147L384.788 190.152C384.463 190.381 384.098 190.556 383.695 190.68C383.293 190.803 382.892 190.864 382.494 190.856L382.487 190.856C382.09 190.838 381.721 190.763 381.384 190.626L381.377 190.624C381.039 190.479 380.742 190.281 380.489 190.033C380.23 189.778 380.046 189.477 379.94 189.134C379.835 188.791 379.819 188.438 379.89 188.082C379.96 187.732 380.098 187.406 380.302 187.103C380.506 186.799 380.773 186.533 381.096 186.305C381.13 186.28 381.166 186.257 381.2 186.234C381.139 186.226 381.077 186.218 381.016 186.206L381.01 186.205C380.583 186.111 380.186 185.938 379.819 185.687L379.815 185.684C379.447 185.423 379.12 185.095 378.833 184.703C378.542 184.305 378.32 183.855 378.166 183.354C378.012 182.853 377.943 182.355 377.961 181.862C377.979 181.376 378.066 180.924 378.229 180.51C378.389 180.086 378.622 179.718 378.929 179.409C379.24 179.095 379.608 178.872 380.03 178.742Z" fill="#FF4A97" stroke="#330043" stroke-width="0.594819"/>
<path d="M373.935 179.819C374.434 179.666 374.941 179.67 375.449 179.826L375.637 179.888C376.076 180.045 376.492 180.29 376.886 180.62L376.885 180.62C377.332 180.987 377.734 181.453 378.094 182.013C378.457 182.577 378.745 183.211 378.96 183.912C379.188 184.654 379.306 185.381 379.308 186.09C379.311 186.684 379.242 187.234 379.103 187.738C379.417 187.871 379.698 188.049 379.944 188.271C380.266 188.554 380.492 188.902 380.618 189.309C380.735 189.692 380.752 190.087 380.671 190.49L380.67 190.494C380.586 190.881 380.424 191.246 380.186 191.59L380.183 191.595C379.941 191.928 379.633 192.224 379.264 192.487L379.265 192.487C378.9 192.751 378.482 192.955 378.013 193.099C377.636 193.214 377.255 193.279 376.87 193.293C376.482 193.308 376.111 193.263 375.759 193.157L375.753 193.155C375.409 193.045 375.099 192.874 374.825 192.644L374.814 192.636C374.723 192.552 374.643 192.459 374.569 192.361C374.561 192.487 374.543 192.613 374.51 192.737L374.509 192.736C374.421 193.083 374.259 193.402 374.023 193.69L374.022 193.69C373.8 193.972 373.524 194.216 373.196 194.422C372.87 194.626 372.518 194.786 372.141 194.902C371.672 195.046 371.207 195.114 370.748 195.104L370.745 195.104C370.303 195.09 369.888 195.015 369.502 194.875L369.496 194.872C369.107 194.721 368.766 194.51 368.48 194.237L368.477 194.234C368.184 193.947 367.976 193.61 367.858 193.227C367.734 192.823 367.719 192.413 367.814 192.003L367.815 192C367.894 191.676 368.028 191.37 368.213 191.082C367.815 190.743 367.45 190.326 367.119 189.833L367.117 189.829C366.734 189.238 366.428 188.571 366.201 187.83C365.985 187.129 365.869 186.443 365.853 185.772C365.836 185.106 365.907 184.494 366.071 183.939C366.231 183.378 366.471 182.891 366.796 182.486L366.798 182.483C367.14 182.066 367.563 181.776 368.063 181.622C368.441 181.506 368.828 181.486 369.221 181.561L369.22 181.562C369.609 181.622 369.986 181.758 370.348 181.969C370.712 182.172 371.055 182.444 371.375 182.778L371.374 182.778C371.504 182.908 371.628 183.047 371.748 183.192C371.767 183.002 371.792 182.816 371.827 182.633C371.915 182.176 372.051 181.76 372.237 181.389L372.238 181.388C372.42 181.01 372.649 180.686 372.929 180.421C373.221 180.138 373.557 179.935 373.935 179.819Z" fill="#FF4A97" stroke="#330043" stroke-width="0.594819"/>
<path d="M360.686 183.887C361.313 183.695 361.945 183.652 362.577 183.759L362.813 183.803C363.358 183.92 363.869 184.13 364.345 184.433L364.548 184.565C365.018 184.881 365.437 185.281 365.806 185.761C366.231 186.313 366.552 186.946 366.77 187.655C366.861 187.95 366.932 188.309 366.988 188.729C367.054 189.156 367.065 189.584 367.016 190.012C366.966 190.451 366.836 190.855 366.625 191.22C366.524 191.394 366.397 191.541 366.247 191.666C366.357 191.662 366.464 191.664 366.567 191.675L366.566 191.675C366.915 191.699 367.228 191.78 367.493 191.932L367.492 191.932C367.736 192.064 367.938 192.235 368.092 192.445L368.093 192.445C368.248 192.639 368.363 192.841 368.428 193.052C368.551 193.453 368.533 193.871 368.388 194.295L368.387 194.3C368.241 194.707 367.993 195.094 367.656 195.462L367.655 195.463C367.324 195.819 366.906 196.145 366.408 196.443L366.407 196.443C365.916 196.74 365.368 196.981 364.764 197.167C364.159 197.353 363.564 197.463 362.98 197.496L362.979 197.496C362.411 197.525 361.885 197.489 361.403 197.385L361.394 197.383C360.919 197.264 360.504 197.081 360.157 196.827L360.154 196.824C359.796 196.554 359.546 196.219 359.423 195.817C359.292 195.392 359.321 194.956 359.491 194.521L359.492 194.52C359.625 194.187 359.822 193.87 360.078 193.57C359.607 193.264 359.18 192.88 358.8 192.416L358.797 192.411C358.339 191.835 357.996 191.171 357.765 190.42C357.547 189.711 357.458 189.007 357.5 188.312C357.541 187.622 357.689 186.985 357.947 186.402L357.948 186.401C358.213 185.806 358.574 185.288 359.031 184.849L359.034 184.847C359.507 184.401 360.059 184.08 360.686 183.887ZM364.463 192.04C364.49 192.096 364.514 192.154 364.533 192.215C364.546 192.26 364.556 192.305 364.565 192.349C364.605 192.301 364.649 192.254 364.696 192.21C364.733 192.174 364.772 192.14 364.813 192.109C364.767 192.104 364.72 192.101 364.674 192.093L364.668 192.092C364.599 192.078 364.53 192.06 364.463 192.04Z" fill="#FF4A97" stroke="#330043" stroke-width="0.594819"/>
<path d="M351.318 186.75C352.07 186.519 352.816 186.437 353.553 186.507L353.553 186.507C354.294 186.573 354.984 186.763 355.618 187.081C356.25 187.398 356.802 187.825 357.272 188.361L357.448 188.567C357.845 189.059 358.14 189.62 358.333 190.248C358.546 190.943 358.614 191.641 358.534 192.34L358.535 192.34C358.473 192.939 358.308 193.512 358.044 194.058L357.925 194.291C357.782 194.553 357.599 194.769 357.38 194.942C357.447 194.968 357.508 195.007 357.56 195.051L357.561 195.05C357.67 195.135 357.761 195.246 357.842 195.373L357.912 195.472C357.975 195.567 358.029 195.671 358.074 195.781L358.167 195.987C358.194 196.054 358.218 196.12 358.237 196.183C358.356 196.57 358.367 196.97 358.273 197.377L358.272 197.381C358.176 197.773 357.994 198.144 357.734 198.493L357.729 198.498C357.465 198.837 357.13 199.142 356.728 199.413L356.727 199.412C356.332 199.683 355.889 199.893 355.401 200.043C354.911 200.193 354.421 200.27 353.932 200.271L353.93 200.271C353.456 200.268 353.015 200.203 352.607 200.071L352.6 200.07C352.191 199.927 351.829 199.725 351.521 199.461L351.511 199.453C351.205 199.169 350.989 198.832 350.871 198.445C350.832 198.318 350.802 198.176 350.78 198.02C350.758 197.866 350.745 197.718 350.742 197.578L350.743 197.569L350.743 197.56C350.748 197.404 350.768 197.258 350.809 197.129C350.828 197.06 350.859 196.99 350.903 196.927C350.629 196.905 350.361 196.828 350.101 196.694C349.48 196.373 348.941 195.952 348.487 195.431L348.486 195.429C348.026 194.895 347.69 194.278 347.476 193.582C347.256 192.866 347.189 192.149 347.278 191.434L347.279 191.43C347.378 190.719 347.601 190.054 347.947 189.437C348.294 188.818 348.757 188.273 349.335 187.802C349.916 187.328 350.578 186.977 351.318 186.75Z" fill="#FF4A97" stroke="#330043" stroke-width="0.594819"/>
<path d="M341.961 189.638C342.588 189.445 343.22 189.402 343.852 189.51L344.088 189.554C344.633 189.67 345.145 189.88 345.62 190.184L345.823 190.315C346.293 190.632 346.712 191.031 347.082 191.511C347.507 192.064 347.827 192.696 348.045 193.405C348.197 193.9 348.285 194.394 348.309 194.886C348.333 195.375 348.301 195.85 348.213 196.309L348.209 196.322C348.109 196.736 347.877 197.043 347.529 197.23C347.548 197.234 347.568 197.236 347.587 197.239C348.104 197.332 348.554 197.511 348.924 197.783L349.063 197.885C349.372 198.132 349.591 198.438 349.703 198.802C349.826 199.204 349.808 199.621 349.663 200.045L349.662 200.05C349.516 200.457 349.269 200.844 348.931 201.212L348.93 201.213C348.599 201.569 348.181 201.896 347.684 202.194L347.682 202.193C347.192 202.49 346.644 202.732 346.039 202.917C345.434 203.103 344.839 203.214 344.256 203.247L344.254 203.246C343.686 203.275 343.16 203.24 342.678 203.135L342.669 203.133C342.194 203.015 341.779 202.831 341.432 202.577L341.429 202.574C341.071 202.304 340.821 201.969 340.698 201.568C340.637 201.369 340.609 201.162 340.614 200.948L340.614 200.938L340.614 200.93C340.631 200.716 340.681 200.512 340.763 200.321L340.834 200.167C340.911 200.02 341.01 199.886 341.13 199.77L341.137 199.764C341.268 199.645 341.419 199.549 341.587 199.477C341.283 199.356 341 199.194 340.739 198.989L340.728 198.98C340.466 198.751 340.227 198.493 340.011 198.206L340.003 198.196C339.798 197.9 339.613 197.581 339.446 197.242L339.442 197.232C339.287 196.89 339.153 196.536 339.04 196.171C338.823 195.461 338.733 194.758 338.775 194.062C338.816 193.373 338.965 192.735 339.222 192.152L339.223 192.151C339.488 191.556 339.849 191.038 340.306 190.6L340.309 190.598C340.782 190.151 341.334 189.831 341.961 189.638Z" fill="#FF4A97" stroke="#330043" stroke-width="0.594819"/>
<path d="M353.059 187.647C355.291 187.495 358.671 190.327 356.854 193.88" stroke="white" stroke-width="0.594819" stroke-linecap="round"/>
<path d="M366.251 195.224C367.099 194.64 367.892 193.398 366.743 192.812" stroke="white" stroke-width="0.594819" stroke-linecap="round"/>
<path d="M373.755 181.182C375.022 180.332 378.465 182.292 377.831 187.283" stroke="white" stroke-width="0.594819" stroke-linecap="round"/>
<path d="M384.793 188.12C384.691 188.872 384.252 189.443 383.055 189.811" stroke="white" stroke-width="0.594819" stroke-linecap="round"/>
<path d="M343.07 190.596C342.312 190.555 341.092 191.119 340.506 192.225" stroke="white" stroke-width="0.594819" stroke-linecap="round"/>
<path d="M361.904 184.812C361.146 184.771 359.926 185.335 359.34 186.442" stroke="white" stroke-width="0.594819" stroke-linecap="round"/>
<path d="M367.705 183.307C369.056 182.016 370.862 183.505 371.396 184.806" stroke="white" stroke-width="0.594819" stroke-linecap="round"/>
<rect x="326.161" y="191.954" width="69.5938" height="21.3607" rx="7.13783" transform="rotate(-17.0711 326.161 191.954)" fill="#330043"/>
<path d="M332.911 189.619L385.792 173.38C389.403 172.271 393.23 174.299 394.339 177.911L395.937 183.113C397.046 186.724 395.016 190.551 391.405 191.66L338.524 207.899C334.913 209.008 331.087 206.98 329.978 203.368L328.38 198.166C327.271 194.554 329.299 190.728 332.911 189.619Z" fill="#FFCD34" stroke="#330043" stroke-width="0.594819"/>
<path d="M386.61 175.928V175.928C388.687 175.291 390.888 176.457 391.526 178.534L391.642 178.914" stroke="white" stroke-width="1.18964" stroke-linecap="round" stroke-linejoin="round"/>
<path d="M380.03 178.742C380.451 178.613 380.881 178.591 381.314 178.676C381.739 178.759 382.137 178.932 382.506 179.192C382.886 179.44 383.221 179.764 383.51 180.158C383.801 180.556 384.023 181.007 384.177 181.508C384.33 182.009 384.4 182.507 384.382 182.999C384.364 183.487 384.27 183.945 384.1 184.371L384.101 184.372C383.938 184.785 383.707 185.152 383.407 185.468L383.401 185.473C383.357 185.518 383.311 185.559 383.264 185.6C383.306 185.6 383.348 185.599 383.389 185.6L383.39 185.6C383.784 185.607 384.153 185.677 384.491 185.813L384.745 185.923C384.99 186.044 385.21 186.2 385.403 186.389C385.662 186.644 385.846 186.945 385.952 187.288C386.057 187.631 386.073 187.983 386.002 188.34C385.949 188.603 385.856 188.856 385.724 189.098L385.579 189.338C385.376 189.64 385.113 189.91 384.795 190.147L384.788 190.152C384.463 190.381 384.098 190.556 383.695 190.68C383.293 190.803 382.892 190.864 382.494 190.856L382.487 190.856C382.09 190.838 381.721 190.763 381.384 190.626L381.377 190.624C381.039 190.479 380.742 190.281 380.489 190.033C380.23 189.778 380.046 189.477 379.94 189.134C379.835 188.791 379.819 188.438 379.89 188.082C379.96 187.732 380.098 187.406 380.302 187.103C380.506 186.799 380.773 186.533 381.096 186.305C381.13 186.28 381.166 186.257 381.2 186.234C381.139 186.226 381.077 186.218 381.016 186.206L381.01 186.205C380.583 186.111 380.186 185.938 379.819 185.687L379.815 185.684C379.447 185.423 379.12 185.095 378.833 184.703C378.542 184.305 378.32 183.855 378.166 183.354C378.012 182.853 377.943 182.355 377.961 181.862C377.979 181.376 378.066 180.924 378.229 180.51C378.389 180.086 378.622 179.718 378.929 179.409C379.24 179.095 379.608 178.872 380.03 178.742Z" fill="#FF4A97" stroke="#330043" stroke-width="0.594819"/>
<path d="M373.935 179.819C374.434 179.666 374.941 179.67 375.449 179.826L375.637 179.888C376.076 180.045 376.492 180.29 376.886 180.62L376.885 180.62C377.332 180.987 377.734 181.453 378.094 182.013C378.457 182.577 378.745 183.211 378.96 183.912C379.188 184.654 379.306 185.381 379.308 186.09C379.311 186.684 379.242 187.234 379.103 187.738C379.417 187.871 379.698 188.049 379.944 188.271C380.266 188.554 380.492 188.902 380.618 189.309C380.735 189.692 380.752 190.087 380.671 190.49L380.67 190.494C380.586 190.881 380.424 191.246 380.186 191.59L380.183 191.595C379.941 191.928 379.633 192.224 379.264 192.487L379.265 192.487C378.9 192.751 378.482 192.955 378.013 193.099C377.636 193.214 377.255 193.279 376.87 193.293C376.482 193.308 376.111 193.263 375.759 193.157L375.753 193.155C375.409 193.045 375.099 192.874 374.825 192.644L374.814 192.636C374.723 192.552 374.643 192.459 374.569 192.361C374.561 192.487 374.543 192.613 374.51 192.737L374.509 192.736C374.421 193.083 374.259 193.402 374.023 193.69L374.022 193.69C373.8 193.972 373.524 194.216 373.196 194.422C372.87 194.626 372.518 194.786 372.141 194.902C371.672 195.046 371.207 195.114 370.748 195.104L370.745 195.104C370.303 195.09 369.888 195.015 369.502 194.875L369.496 194.872C369.107 194.721 368.766 194.51 368.48 194.237L368.477 194.234C368.184 193.947 367.976 193.61 367.858 193.227C367.734 192.823 367.719 192.413 367.814 192.003L367.815 192C367.894 191.676 368.028 191.37 368.213 191.082C367.815 190.743 367.45 190.326 367.119 189.833L367.117 189.829C366.734 189.238 366.428 188.571 366.201 187.83C365.985 187.129 365.869 186.443 365.853 185.772C365.836 185.106 365.907 184.494 366.071 183.939C366.231 183.378 366.471 182.891 366.796 182.486L366.798 182.483C367.14 182.066 367.563 181.776 368.063 181.622C368.441 181.506 368.828 181.486 369.221 181.561L369.22 181.562C369.609 181.622 369.986 181.758 370.348 181.969C370.712 182.172 371.055 182.444 371.375 182.778L371.374 182.778C371.504 182.908 371.628 183.047 371.748 183.192C371.767 183.002 371.792 182.816 371.827 182.633C371.915 182.176 372.051 181.76 372.237 181.389L372.238 181.388C372.42 181.01 372.649 180.686 372.929 180.421C373.221 180.138 373.557 179.935 373.935 179.819Z" fill="#FF4A97" stroke="#330043" stroke-width="0.594819"/>
<path d="M360.686 183.887C361.313 183.695 361.945 183.652 362.577 183.759L362.813 183.803C363.358 183.92 363.869 184.13 364.345 184.433L364.548 184.565C365.018 184.881 365.437 185.281 365.806 185.761C366.231 186.313 366.552 186.946 366.77 187.655C366.861 187.95 366.932 188.309 366.988 188.729C367.054 189.156 367.065 189.584 367.016 190.012C366.966 190.451 366.836 190.855 366.625 191.22C366.524 191.394 366.397 191.541 366.247 191.666C366.357 191.662 366.464 191.664 366.567 191.675L366.566 191.675C366.915 191.699 367.228 191.78 367.493 191.932L367.492 191.932C367.736 192.064 367.938 192.235 368.092 192.445L368.093 192.445C368.248 192.639 368.363 192.841 368.428 193.052C368.551 193.453 368.533 193.871 368.388 194.295L368.387 194.3C368.241 194.707 367.993 195.094 367.656 195.462L367.655 195.463C367.324 195.819 366.906 196.145 366.408 196.443L366.407 196.443C365.916 196.74 365.368 196.981 364.764 197.167C364.159 197.353 363.564 197.463 362.98 197.496L362.979 197.496C362.411 197.525 361.885 197.489 361.403 197.385L361.394 197.383C360.919 197.264 360.504 197.081 360.157 196.827L360.154 196.824C359.796 196.554 359.546 196.219 359.423 195.817C359.292 195.392 359.321 194.956 359.491 194.521L359.492 194.52C359.625 194.187 359.822 193.87 360.078 193.57C359.607 193.264 359.18 192.88 358.8 192.416L358.797 192.411C358.339 191.835 357.996 191.171 357.765 190.42C357.547 189.711 357.458 189.007 357.5 188.312C357.541 187.622 357.689 186.985 357.947 186.402L357.948 186.401C358.213 185.806 358.574 185.288 359.031 184.849L359.034 184.847C359.507 184.401 360.059 184.08 360.686 183.887ZM364.463 192.04C364.49 192.096 364.514 192.154 364.533 192.215C364.546 192.26 364.556 192.305 364.565 192.349C364.605 192.301 364.649 192.254 364.696 192.21C364.733 192.174 364.772 192.14 364.813 192.109C364.767 192.104 364.72 192.101 364.674 192.093L364.668 192.092C364.599 192.078 364.53 192.06 364.463 192.04Z" fill="#FF4A97" stroke="#330043" stroke-width="0.594819"/>
<path d="M351.318 186.75C352.07 186.519 352.816 186.437 353.553 186.507L353.553 186.507C354.294 186.573 354.984 186.763 355.618 187.081C356.25 187.398 356.802 187.825 357.272 188.361L357.448 188.567C357.845 189.059 358.14 189.62 358.333 190.248C358.546 190.943 358.614 191.641 358.534 192.34L358.535 192.34C358.473 192.939 358.308 193.512 358.044 194.058L357.925 194.291C357.782 194.553 357.599 194.769 357.38 194.942C357.447 194.968 357.508 195.007 357.56 195.051L357.561 195.05C357.67 195.135 357.761 195.246 357.842 195.373L357.912 195.472C357.975 195.567 358.029 195.671 358.074 195.781L358.167 195.987C358.194 196.054 358.218 196.12 358.237 196.183C358.356 196.57 358.367 196.97 358.273 197.377L358.272 197.381C358.176 197.773 357.994 198.144 357.734 198.493L357.729 198.498C357.465 198.837 357.13 199.142 356.728 199.413L356.727 199.412C356.332 199.683 355.889 199.893 355.401 200.043C354.911 200.193 354.421 200.27 353.932 200.271L353.93 200.271C353.456 200.268 353.015 200.203 352.607 200.071L352.6 200.07C352.191 199.927 351.829 199.725 351.521 199.461L351.511 199.453C351.205 199.169 350.989 198.832 350.871 198.445C350.832 198.318 350.802 198.176 350.78 198.02C350.758 197.866 350.745 197.718 350.742 197.578L350.743 197.569L350.743 197.56C350.748 197.404 350.768 197.258 350.809 197.129C350.828 197.06 350.859 196.99 350.903 196.927C350.629 196.905 350.361 196.828 350.101 196.694C349.48 196.373 348.941 195.952 348.487 195.431L348.486 195.429C348.026 194.895 347.69 194.278 347.476 193.582C347.256 192.866 347.189 192.149 347.278 191.434L347.279 191.43C347.378 190.719 347.601 190.054 347.947 189.437C348.294 188.818 348.757 188.273 349.335 187.802C349.916 187.328 350.578 186.977 351.318 186.75Z" fill="#FF4A97" stroke="#330043" stroke-width="0.594819"/>
<path d="M341.961 189.638C342.588 189.445 343.22 189.402 343.852 189.51L344.088 189.554C344.633 189.67 345.145 189.88 345.62 190.184L345.823 190.315C346.293 190.632 346.712 191.031 347.082 191.511C347.507 192.064 347.827 192.696 348.045 193.405C348.197 193.9 348.285 194.394 348.309 194.886C348.333 195.375 348.301 195.85 348.213 196.309L348.209 196.322C348.109 196.736 347.877 197.043 347.529 197.23C347.548 197.234 347.568 197.236 347.587 197.239C348.104 197.332 348.554 197.511 348.924 197.783L349.063 197.885C349.372 198.132 349.591 198.438 349.703 198.802C349.826 199.204 349.808 199.621 349.663 200.045L349.662 200.05C349.516 200.457 349.269 200.844 348.931 201.212L348.93 201.213C348.599 201.569 348.181 201.896 347.684 202.194L347.682 202.193C347.192 202.49 346.644 202.732 346.039 202.917C345.434 203.103 344.839 203.214 344.256 203.247L344.254 203.246C343.686 203.275 343.16 203.24 342.678 203.135L342.669 203.133C342.194 203.015 341.779 202.831 341.432 202.577L341.429 202.574C341.071 202.304 340.821 201.969 340.698 201.568C340.637 201.369 340.609 201.162 340.614 200.948L340.614 200.938L340.614 200.93C340.631 200.716 340.681 200.512 340.763 200.321L340.834 200.167C340.911 200.02 341.01 199.886 341.13 199.77L341.137 199.764C341.268 199.645 341.419 199.549 341.587 199.477C341.283 199.356 341 199.194 340.739 198.989L340.728 198.98C340.466 198.751 340.227 198.493 340.011 198.206L340.003 198.196C339.798 197.9 339.613 197.581 339.446 197.242L339.442 197.232C339.287 196.89 339.153 196.536 339.04 196.171C338.823 195.461 338.733 194.758 338.775 194.062C338.816 193.373 338.965 192.735 339.222 192.152L339.223 192.151C339.488 191.556 339.849 191.038 340.306 190.6L340.309 190.598C340.782 190.151 341.334 189.831 341.961 189.638Z" fill="#FF4A97" stroke="#330043" stroke-width="0.594819"/>
<path d="M353.059 187.647C355.291 187.495 358.671 190.327 356.854 193.88" stroke="white" stroke-width="0.594819" stroke-linecap="round"/>
<path d="M366.251 195.224C367.099 194.64 367.892 193.398 366.743 192.812" stroke="white" stroke-width="0.594819" stroke-linecap="round"/>
<path d="M373.755 181.182C375.022 180.332 378.465 182.292 377.831 187.283" stroke="white" stroke-width="0.594819" stroke-linecap="round"/>
<path d="M384.793 188.12C384.691 188.872 384.252 189.443 383.055 189.811" stroke="white" stroke-width="0.594819" stroke-linecap="round"/>
<path d="M343.07 190.596C342.312 190.555 341.092 191.119 340.506 192.225" stroke="white" stroke-width="0.594819" stroke-linecap="round"/>
<path d="M361.904 184.812C361.146 184.771 359.926 185.335 359.34 186.442" stroke="white" stroke-width="0.594819" stroke-linecap="round"/>
<path d="M367.705 183.307C369.056 182.016 370.862 183.505 371.396 184.806" stroke="white" stroke-width="0.594819" stroke-linecap="round"/>
<path d="M340.911 136.716L349.957 143.994C350.015 144.041 350.053 144.112 350.062 144.188C350.071 144.265 350.05 144.339 350.003 144.39L345.78 149.068C345.704 149.152 345.579 149.158 345.485 149.081L336.439 141.805C336.381 141.758 336.342 141.686 336.333 141.61C336.324 141.533 336.346 141.459 336.392 141.407L340.616 136.729L340.646 136.702C340.722 136.646 340.828 136.65 340.911 136.716Z" fill="#9854CB" stroke="#330043" stroke-width="0.490893" stroke-linejoin="round"/>
<path d="M349.854 143.755C349.945 143.813 349.998 143.927 349.984 144.038L349.482 147.959C349.476 148.01 349.456 148.056 349.424 148.091L345.084 152.965C345.016 153.041 344.907 153.054 344.815 152.997C344.723 152.939 344.669 152.823 344.684 152.712L345.186 148.79C345.192 148.74 345.212 148.694 345.243 148.659L349.584 143.786C349.652 143.709 349.762 143.697 349.854 143.755Z" fill="#9854CB" stroke="#330043" stroke-width="0.490893" stroke-linejoin="round"/>
<path d="M339.864 134.511C339.949 134.532 340.022 134.605 340.052 134.698C340.081 134.792 340.063 134.891 340.005 134.956L335.741 139.723C335.69 139.78 335.615 139.802 335.54 139.783L331.589 138.784C331.504 138.762 331.431 138.69 331.401 138.597C331.372 138.503 331.389 138.404 331.447 138.339L335.712 133.572L335.754 133.535C335.8 133.505 335.857 133.496 335.913 133.51L339.864 134.511Z" fill="#9854CB" stroke="#330043" stroke-width="0.490893" stroke-linejoin="round"/>
<path d="M341 136.736C341.092 136.794 341.146 136.909 341.132 137.019L340.683 140.521C340.676 140.571 340.656 140.618 340.625 140.653L336.285 145.525C336.217 145.602 336.107 145.614 336.015 145.556C335.924 145.498 335.871 145.383 335.885 145.272L336.333 141.772C336.34 141.721 336.36 141.675 336.391 141.64L340.731 136.768L340.788 136.721C340.852 136.688 340.931 136.692 341 136.736Z" fill="#9854CB" stroke="#330043" stroke-width="0.490893" stroke-linejoin="round"/>
<path d="M347.159 145.423C347.219 145.469 347.26 145.541 347.27 145.618C347.28 145.696 347.258 145.771 347.211 145.824L342.979 150.523C342.905 150.606 342.784 150.612 342.689 150.54L335.937 145.346C335.878 145.3 335.837 145.229 335.827 145.151C335.817 145.073 335.838 144.997 335.885 144.945L340.118 140.247L340.182 140.199C340.252 140.165 340.338 140.175 340.408 140.229L347.159 145.423Z" fill="#9854CB" stroke="#330043" stroke-width="0.490893" stroke-linejoin="round"/>
<path d="M346.953 145.448C347.053 145.427 347.159 145.485 347.213 145.589C347.267 145.693 347.257 145.819 347.187 145.896L342.916 150.676C342.886 150.709 342.849 150.731 342.807 150.74L335.096 152.344C334.996 152.364 334.89 152.307 334.836 152.203C334.781 152.099 334.792 151.973 334.861 151.895L339.133 147.115L339.182 147.075C339.201 147.064 339.221 147.056 339.241 147.052L346.953 145.448Z" fill="#9854CB" stroke="#330043" stroke-width="0.490893" stroke-linejoin="round"/>
<path d="M349.135 148.016C349.234 147.992 349.342 148.049 349.398 148.153C349.454 148.257 349.445 148.384 349.375 148.463L345.106 153.236C345.078 153.267 345.043 153.288 345.004 153.298L334.574 155.771C334.474 155.795 334.367 155.738 334.311 155.634C334.255 155.53 334.265 155.403 334.335 155.325L338.603 150.551C338.631 150.52 338.667 150.498 338.706 150.489L349.135 148.016Z" fill="#9854CB" stroke="#330043" stroke-width="0.490893" stroke-linejoin="round"/>
<path d="M339.967 134.503C340.063 134.589 340.092 134.735 340.036 134.844L332.367 149.633C332.358 149.65 332.348 149.666 332.335 149.679L327.942 154.594C327.863 154.682 327.731 154.685 327.636 154.599C327.54 154.514 327.511 154.367 327.567 154.258L335.236 139.47L335.267 139.423L339.661 134.508C339.74 134.42 339.872 134.418 339.967 134.503Z" fill="#9854CB" stroke="#330043" stroke-width="0.490893" stroke-linejoin="round"/>
<path d="M328.986 134.282C329.077 134.34 329.131 134.455 329.117 134.565L328.669 138.067C328.662 138.117 328.642 138.164 328.611 138.199L324.271 143.071C324.203 143.148 324.093 143.16 324.001 143.102C323.909 143.044 323.856 142.929 323.871 142.818L324.319 139.318C324.325 139.267 324.345 139.221 324.376 139.186L328.716 134.314L328.774 134.267C328.838 134.234 328.917 134.238 328.986 134.282Z" fill="#9854CB" stroke="#330043" stroke-width="0.490893" stroke-linejoin="round"/>
<path d="M339.428 147.266C339.52 147.324 339.574 147.439 339.56 147.55L339.111 151.051C339.105 151.102 339.085 151.148 339.054 151.183L334.714 156.055C334.645 156.132 334.535 156.145 334.444 156.087C334.352 156.029 334.299 155.913 334.313 155.803L334.761 152.302C334.768 152.252 334.788 152.205 334.819 152.17L339.159 147.298L339.216 147.252C339.28 147.218 339.359 147.223 339.428 147.266Z" fill="#9854CB" stroke="#330043" stroke-width="0.490893" stroke-linejoin="round"/>
<path d="M336.081 133.715C336.177 133.8 336.207 133.946 336.15 134.055L328.481 148.844C328.473 148.861 328.462 148.877 328.45 148.891L324.057 153.805C323.978 153.894 323.845 153.896 323.75 153.811C323.654 153.725 323.625 153.578 323.681 153.47L331.35 138.681L331.382 138.635L335.775 133.719C335.854 133.631 335.986 133.629 336.081 133.715Z" fill="#9854CB" stroke="#330043" stroke-width="0.490893" stroke-linejoin="round"/>
<path d="M328.855 134.606C328.954 134.583 329.062 134.639 329.118 134.744C329.174 134.848 329.165 134.975 329.094 135.054L324.826 139.827C324.798 139.858 324.763 139.879 324.724 139.888L314.294 142.362C314.194 142.386 314.087 142.329 314.031 142.225C313.975 142.121 313.985 141.994 314.055 141.915L318.323 137.142C318.351 137.111 318.387 137.089 318.426 137.08L328.855 134.606Z" fill="#9854CB" stroke="#330043" stroke-width="0.490893" stroke-linejoin="round"/>
<path d="M328.333 138.03C328.432 138.01 328.539 138.067 328.593 138.171C328.647 138.275 328.637 138.401 328.567 138.479L324.295 143.259C324.266 143.291 324.229 143.314 324.187 143.322L316.475 144.926C316.376 144.947 316.27 144.889 316.215 144.785C316.161 144.681 316.172 144.556 316.241 144.478L320.513 139.698L320.562 139.657C320.581 139.646 320.6 139.638 320.621 139.634L328.333 138.03Z" fill="#9854CB" stroke="#330043" stroke-width="0.490893" stroke-linejoin="round"/>
<path d="M332.133 149.527C332.219 149.549 332.291 149.621 332.321 149.715C332.35 149.808 332.333 149.908 332.275 149.973L328.01 154.74C327.959 154.797 327.884 154.819 327.81 154.8L323.858 153.801C323.773 153.779 323.7 153.707 323.671 153.613C323.641 153.52 323.659 153.42 323.717 153.355L327.981 148.588L328.024 148.552C328.07 148.522 328.126 148.513 328.182 148.527L332.133 149.527Z" fill="#9854CB" stroke="#330043" stroke-width="0.490893" stroke-linejoin="round"/>
<path d="M327.489 145.031C327.549 145.077 327.589 145.149 327.599 145.227C327.609 145.304 327.588 145.38 327.541 145.432L323.309 150.131C323.235 150.214 323.113 150.22 323.019 150.148L316.267 144.954C316.207 144.908 316.167 144.837 316.157 144.759C316.146 144.682 316.168 144.606 316.215 144.553L320.448 139.855L320.511 139.807C320.581 139.774 320.667 139.783 320.738 139.838L327.489 145.031Z" fill="#9854CB" stroke="#330043" stroke-width="0.490893" stroke-linejoin="round"/>
<path d="M327.412 144.823C327.504 144.881 327.558 144.996 327.544 145.107L327.095 148.608C327.089 148.658 327.069 148.705 327.037 148.74L322.697 153.612C322.629 153.689 322.519 153.701 322.427 153.643C322.336 153.585 322.283 153.47 322.297 153.359L322.745 149.859C322.752 149.809 322.772 149.762 322.803 149.727L327.143 144.855L327.2 144.809C327.264 144.775 327.343 144.78 327.412 144.823Z" fill="#9854CB" stroke="#330043" stroke-width="0.490893" stroke-linejoin="round"/>
<path d="M318.618 137.378C318.709 137.436 318.762 137.55 318.748 137.661L318.246 141.582C318.24 141.633 318.219 141.679 318.188 141.714L313.848 146.588C313.78 146.664 313.671 146.677 313.579 146.62C313.487 146.562 313.433 146.446 313.448 146.335L313.95 142.413C313.956 142.363 313.976 142.317 314.007 142.282L318.347 137.409C318.416 137.332 318.526 137.32 318.618 137.378Z" fill="#9854CB" stroke="#330043" stroke-width="0.490893" stroke-linejoin="round"/>
<path d="M317.944 141.295L326.99 148.572C327.048 148.619 327.087 148.69 327.096 148.766C327.105 148.843 327.083 148.917 327.037 148.969L322.813 153.647C322.737 153.731 322.613 153.736 322.518 153.66L313.473 146.383C313.415 146.336 313.376 146.264 313.367 146.188C313.358 146.111 313.379 146.037 313.426 145.985L317.649 141.308L317.68 141.28C317.756 141.224 317.861 141.228 317.944 141.295Z" fill="#9854CB" stroke="#330043" stroke-width="0.490893" stroke-linejoin="round"/>
<path d="M340.685 136.712L340.768 136.761L350.01 143.919C350.128 144.01 350.192 144.166 350.174 144.316L349.731 147.948C349.713 148.098 349.615 148.214 349.483 148.245L339.077 150.627C338.836 150.682 338.602 150.437 338.635 150.163L339.014 147.051C339.033 146.898 339.134 146.781 339.27 146.754L346.524 145.299L340.032 140.504C339.91 140.414 339.843 140.255 339.862 140.102L340.241 136.99C340.27 136.751 340.487 136.628 340.685 136.712Z" fill="white" stroke="#330043" stroke-width="0.490893"/>
<path d="M339.695 134.68C339.938 134.739 340.072 135.048 339.953 135.275L332.557 149.325C332.488 149.457 332.349 149.521 332.207 149.487L328.357 148.558C328.114 148.499 327.979 148.19 328.099 147.963L335.494 133.913L335.523 133.866C335.599 133.766 335.721 133.721 335.845 133.751L339.695 134.68Z" fill="white" stroke="#330043" stroke-width="0.490893"/>
<path d="M328.774 134.665C328.981 134.679 329.157 134.897 329.128 135.137L328.748 138.249C328.73 138.402 328.628 138.52 328.492 138.547L321.237 140.001L327.73 144.797C327.852 144.887 327.92 145.045 327.901 145.198L327.522 148.31C327.488 148.584 327.209 148.705 326.994 148.538L317.752 141.381C317.634 141.29 317.57 141.134 317.589 140.984L318.032 137.351C318.05 137.202 318.147 137.085 318.279 137.055L328.685 134.672L328.774 134.665Z" fill="white" stroke="#330043" stroke-width="0.490893"/>
<rect x="-17.4927" y="323.078" width="106.242" height="32.6094" rx="10.8967" transform="rotate(-37.3207 -17.4927 323.078)" fill="#330043"/>
<path d="M-9.05921 316.167L58.0994 264.968C62.6858 261.471 69.2381 262.355 72.7347 266.941L77.7714 273.548C81.268 278.134 80.3845 284.686 75.798 288.183L8.63943 339.382C4.05296 342.879 -2.49934 341.995 -5.99589 337.409L-11.0326 330.802C-14.529 326.216 -13.6455 319.664 -9.05921 316.167Z" fill="#D194FF" stroke="#330043" stroke-width="0.908055"/>
<path d="M64.9534 283.883L66.7426 286.23L62.771 289.257L60.9818 286.91L64.9534 283.883ZM59.1459 272.895L63.4123 278.491L61.7876 279.73L64.2654 282.98L60.2938 286.008L53.5496 277.162L59.1459 272.895Z" fill="#9854CB" stroke="#330043" stroke-width="0.908055"/>
<path d="M41.2744 286.52L42.513 288.145L44.1377 286.906L45.3763 288.531L46.2795 287.842L45.0409 286.217L46.6655 284.979L45.4269 283.354L49.3986 280.326L58.62 292.422L54.6484 295.45L49.6934 288.95L48.7909 289.638L51.2687 292.888L48.9218 294.678L46.444 291.428L45.5408 292.116L50.4958 298.616L46.5242 301.643L37.3028 289.548L41.2744 286.52Z" fill="#9854CB" stroke="#330043" stroke-width="0.908055"/>
<path d="M35.8583 290.649L37.6475 292.996L29.5233 299.189L31.4505 301.717L37.95 296.762L39.7392 299.109L33.2397 304.064L35.1663 306.591L43.2905 300.398L45.0797 302.745L32.9839 311.966L23.7625 299.87L35.8583 290.649Z" fill="#9854CB" stroke="#330043" stroke-width="0.908055"/>
<path d="M22.3181 300.972L24.1073 303.318L20.8579 305.796L28.2901 315.545L24.3178 318.573L16.8855 308.824L13.6362 311.301L11.847 308.954L22.3181 300.972Z" fill="#9854CB" stroke="#330043" stroke-width="0.908055"/>
<path d="M8.77779 311.294L10.0164 312.919L11.6411 311.68L13.4303 314.027L9.45868 317.055L8.22008 315.43L4.06751 318.596L5.99469 321.124L12.4942 316.169L13.7328 317.794L15.3575 316.555L18.3853 320.527L16.7606 321.765L17.9992 323.39L9.15279 330.134L7.91419 328.51L6.28951 329.748L4.50028 327.401L8.4719 324.373L9.7105 325.998L13.8631 322.832L11.9365 320.305L5.43698 325.26L4.19779 323.635L2.57311 324.873L-0.454719 320.902L1.16996 319.663L-0.0686422 318.038L8.77779 311.294Z" fill="#9854CB" stroke="#330043" stroke-width="0.908055"/>
</g>
<defs>
<clipPath id="clip0_149_296">
<rect width="393" height="996" fill="white"/>
</clipPath>
</defs>
</svg>
